<?xml version="1.0" encoding="UTF-8"?>
<svg id="Layer_1" xmlns="http://www.w3.org/2000/svg" version="1.1" viewBox="0 0 1024 1024">
  <!-- Generator: Adobe Illustrator 29.6.0, SVG Export Plug-In . SVG Version: 2.1.1 Build 207)  -->
  <path d="M620.7,96.3c6,6.3,2.2,16.5,2.3,24.2s2.9,24.1,3.1,34-5.1,16.6,3.2,15.3l50.5-13.6c10.4-.2,21.3-1.1,31.4-3.6,15.7-3.8,17.7-9.2,35.6-4s5.1,1.7,7.6,3.4,5.4,5.1,5.6,5.6c.9,1.9,5.8,21.6,6,23.9.4,5.7-3.3,11.3-3.6,16s1.6,6.7,1.6,9.8-3.5,17.2-4.7,21.4c-1,3.7,1.4,4.4,4.5,5,10.8,2,20.2-9.3,30.6-6.7.8.2.6,2,1.2,2,6.8.4,13.9-6.2,22-6.1s15.7.9,20,7,5.4,16.7,5.5,19.6-1.5,14.9-2,18.9c-1.2,9.5-3.8,18-4.3,26.8-.5,9.6-4.8,22.9-7.2,32.8s-8.7,15.4.5,18.4,10.7,2,16,3c21,3.7,11.9,19.7,10.9,33.1-.2,3.3.9,6,.8,8.7-.4,7.8-7.7,11-5.3,20.8s2,6.7,2.8,14.2,4.6,12.5,9.5,16.7c9.4,7.9,21.1,17.8,29.2,27.5,10.1,12.1,12.9,26.5,3,40-9.9,13.5-26.3,24.3-36.5,35.5-13.3,14.5-29.8,29.6-44.6,43.4-5.5,5.1-12.2,8.4-16.3,14.7s-6.4,11.1-2.9,11.9,13.1-.8,14.8-1.1c15.9-2.1,37.3-10.9,53-9,13.3,1.6,15,17.8,9.8,27.8-2.6,5.1-3.3,7.2-5.5,12.5s-8.5,11.4-3.8,17.2,2.9,1.7,4,3c21.2,24.4,3.2,34-5.5,56.5-1.4,3.7-1.7,8.8-3.7,13.3s-4.6,6.5-5.3,8.7c-1,3.3,0,6.8-.7,10.3-1.3,7.7-11.4,17.1-17.9,21.1-6.7,4-12.5,4-18.6,6.6-10.5,4.4-17.3,6.5-27.8,10s-14.9,11.7-23.7,14.3c-18.8,5.6-39.2,14.7-57,23.8s-14.5,10.9-20.8,14.4c-15.8,8.5-38.3,14.4-55.1,20.9-29.8,11.5-64.8,28.1-95.5,34.5-7.9,1.7-8.9.6-16.9,4.1-14.1,6.1-24.1,4.1-37.6,7.4-10,2.4-16.7,10.1-29,8.6-17.7-2.2-18.4-25.9-24-39.1s-4.9-8.1-15.3-7.8c-16.5.5-33.4,3.8-50,4.1s-30-1.9-45-2-38-1.5-55-4.1c-5-.8-13.1-5.2-18.3-6.7s-5.1,0-8.7-1.3c-6.3-2.5-16.3-20.8-16.6-27.4s1.3-7.4.8-9.7c-1.3-6.6-7.2-17.2-10-24.1-7.3-18.1-15.9-32.6-12.7-53.2s5.3-6.6,9.4-9.6,3-4.2,4.6-5.4c3.7-2.9,20.1-12.5,19.7-18.1s-3.9-4.3-5.3-4.5c-2.9-.4-6.8,1.8-10,2-6.4.4-13.5,0-20,0s-3.9,1.1-5.7.8-8.6-5.1-9.8-6.2c-11.7-11.8-11.8-22.5-17.7-35.3s-7.7-9-8.8-12.2c-1.5-4.7,1.3-8.6.3-13.3s-5.6-11.1-7.2-15.8c-4.4-12.8-5.7-18.7,1-30.9,6.6-11.8,18.1-15.9,26.4-26.6,1.2-1.5,1.4-3.8,2.5-5.5,2.1-3.1,6.8-4.5,5.3-9.3-11.4-14.6-24.5-28.2-36.8-42.2-1.3-1.5-1.7-3.5-3-5-15.8-18-37.8-30.5-34.9-57.9s2.5-7.6,2.9-11.1c.9-7.6.5-28-2.2-34.8s-8.2-7.6-4.3-19.7,34.9-39.7,45.9-50.1c8.2-7.7,16.1-17.3,26.1-23.9,2.4-1.6,8.4-3.3,10-5s1.1-3.6,2.1-4.9c3.8-5.3,9.9-6.6,14.9-10.1s12.4-9.7,12.5-10.5-.7-2-1.7-2.3c-3.8-1.2-15.5-.4-20.7-1.3s-4.9-.8-6.7-2.3l-19.2-25.8c-5-12.2-5.4-15.2,4.8-23.8,14.8-12.5,33.7-25.6,49.7-37,8.8-6.2,15.5-7.6,23.7-14.5s20.2-11.9,30-19c6.1-4.5,11-10.6,17.9-15.1,9-5.9,19.7-10.2,29-16,7.7-4.7,10.9-6.9,19-11s8.1-7.8,12.7-10.3c8.6-4.5,19.2-4.5,28.6-6.4s3.8-2.3,6.3-2.7c7.1-1.2,16.4,1.3,20.1,7.8s6.3,15.1,6.4,18.7c.2,6.3-1.2,3.6,1.4,10.5,2.6,6.9-1.2,6.4,6,6.1s29.4-11.2,37-14.1c19.3-7.3,40.7-17.5,60.5-22.5,19.8-5,5.4,0,7.4-.4s.2-2.1,1.1-2,0,1.8,1,2c1.9.6,5-3.5,7.2-4.8,11.1-6.7,18.2-3.1,29.8-4.2s8.7-2.6,13-3,27.2-.8,32,.9,6.4,3.6,7.1,4.4h.3ZM406.2,763.7c5.4,2.6,11.9-4.3,14.6-8.4,8.2-12.1,17.2-37.1,23.6-51.4,9.9-22.1,18.7-44.5,28-67s19.4-44.6,29-67c11.6-27.1,24-56.5,30-85,1.7-8.3,9.5-20.9,12.3-30.7,4.1-14.6,9.9-32,12.2-46.9.3-2-1-3.7-.7-5.6.9-5.8,5.8-15.3,7.5-21.6,8.1-29.6,17.5-59.1,25.2-88.8,3.4-12.9,5-26.6,8.5-39.5,1.4-5.1,6-13.4,6.5-17.5.6-4.6-.9-14.1-5-16.9-7.1-4.9-14.2-2.6-19.8,3.1s-10.4,19.4-13.6,26.4c-8.9,19.7-19.2,38.6-29.2,57.8-4.7,9-7.4,20.2-11.8,29.2-4.5,9.3-11.3,21.1-16.4,30.6-17,32-36.7,63.4-53.4,95.6-19.6,37.9-15.2,62-21.1,101.9-4.9,33.1-16.1,66.5-20.6,99.4-.9,6.7-.2,15.3-1.2,21.8s-4.6,12.8-5.7,18.3-.6,10.2-1.5,14.5c-3.2,15-11.6,28.9-1.1,43.5s3.3,3.9,3.6,4v.2ZM333.6,399.6c6.6-7.6,21.2-21.2,24.9-29.6s3.8-24.4,5.9-34.1c3-14,13.2-33.2,10.3-47.2s-14.5-9.8-21.7-5.1-7.9,8.3-10.6,11.4c-29.3,33.7-59.2,67.2-87.9,101.1-19.8,23.4-43.4,44-64.1,66.9s-11.1,13.4-12.4,16.7-.9,10.9.9,13.9c20.6,29.1,47.2,51.4,71,77,7.6,8.2,10.8,10.5,18.5,17.5s10.4,12.8,14.5,17.5c17.6,20.2,34.5,40.7,52.4,60.6,3.7,4.1,13.9,17.2,19,17.1,7,0,8.2-9.2,8.5-14.5.9-14-5-21.4-8.2-33.9s-2.1-18.9-5.3-27.7-13.4-18.2-19.9-27.1c-17-23-32.7-47.1-50.6-69.4s-15.4-13.4-15.7-21.2c-.3-8.1,13.7-19.6,18.6-25.9,17.1-21.9,33.6-42.9,51.6-63.9h.3ZM719.4,369.6c-17.9-18.4-35.4-38-54.4-55.1s-21.7-18.8-30.5-11.5c-8.9,7.3,1.4,28.7,4.1,38,4.1,14.4,2,18.4,12.9,31.1s22.9,24,33.5,36.5c7.4,8.8,12.8,14.2,20.5,22.5,6.9,7.4,11.7,16.6,18,24,7.8,9.1,20.8,14.6,25.9,26.1s3.1,9.3-.4,13.5c-17.1,20.3-32.1,42.4-49,63s-10.9,8.4-15,13c-5.4,6.2-7.5,14.8-11.6,21.4-6.5,10.7-20.7,22-26.6,32.4s-16.3,45.7-17.7,58.3.2,20.6,12.1,19.1c13.7-1.7,18.2-18,26.2-26.8s24.9-25.4,35.5-35.5c10.6-10,16.6-13,26-25,7.2-9.2,17.5-15.3,26.1-22.9,14.6-13,26.7-26.1,40.3-40.2,14.5-15,33.6-31.1,46.1-47.4,4.4-5.7,8.1-10.2,3.9-17.6s-16.5-12.8-23.3-18.7c-15.9-13.9-30.9-32.8-47.5-47.5-17.9-15.9-38.6-33.5-55.1-50.4v-.3Z" style="fill: #7c3aed;"/>
  <path d="M406.2,763.7c-.2,0-3.2-3.5-3.6-4-10.5-14.5-2.1-28.5,1.1-43.5.9-4.3.6-10.2,1.5-14.5s4.9-13.1,5.7-18.3.3-15.1,1.2-21.8c4.5-32.9,15.7-66.3,20.6-99.4,5.9-39.9,1.4-64,21.1-101.9,16.7-32.2,36.4-63.6,53.4-95.6,5.1-9.6,11.8-21.4,16.4-30.6,4.4-9,7-20.2,11.8-29.2,10.1-19.2,20.3-38,29.2-57.8,3.2-7,8.8-21.6,13.6-26.4s12.7-8,19.8-3.1c4.1,2.8,5.6,12.2,5,16.9-.5,4.1-5.1,12.5-6.5,17.5-3.6,12.9-5.2,26.6-8.5,39.5-7.7,29.7-17.1,59.2-25.2,88.8-1.7,6.2-6.5,15.8-7.5,21.6s1,3.6.7,5.6c-2.3,14.8-8.1,32.2-12.2,46.9-2.8,9.8-10.5,22.4-12.3,30.7-6,28.6-18.4,57.9-30,85-9.6,22.4-19.6,44.5-29,67s-18.1,44.9-28,67c-6.4,14.3-15.5,39.3-23.6,51.4-2.7,4.1-9.3,11-14.6,8.4v-.2Z" style="fill: #fdfdfe;"/>
  <path d="M719.4,369.6c16.5,16.9,37.2,34.5,55.1,50.4,16.5,14.8,31.5,33.6,47.5,47.5s19.1,11.3,23.3,18.7.5,11.9-3.9,17.6c-12.4,16.3-31.5,32.4-46.1,47.4-13.6,14.1-25.7,27.2-40.3,40.2-8.6,7.6-18.9,13.7-26.1,22.9-9.4,12-15.4,15-26,25-10.7,10.1-25.9,24.8-35.5,35.5s-12.5,25.1-26.2,26.8c-11.9,1.5-13.2-9.5-12.1-19.1s11.5-47.4,17.7-58.3,20.1-21.7,26.6-32.4,6.1-15.2,11.6-21.4c4-4.6,10.3-7.4,15-13,16.9-20.5,32-42.7,49-63,3.5-4.2,2.6-8.6.4-13.5-5.1-11.5-18.2-17-25.9-26.1-6.3-7.4-11.1-16.7-18-24-7.7-8.3-13.1-13.7-20.5-22.5-10.6-12.5-22.8-24.2-33.5-36.5s-8.8-16.6-12.9-31.1c-2.6-9.2-13-30.6-4.1-38,8.8-7.3,24,5.6,30.5,11.5,19,17.1,36.5,36.7,54.4,55.1v.3Z" style="fill: #fdfdfe;"/>
  <path d="M333.6,399.6c-18,20.9-34.5,41.9-51.6,63.9-4.9,6.3-18.9,17.8-18.6,25.9.3,7.7,11.1,15.4,15.7,21.2,17.9,22.4,33.6,46.4,50.6,69.4s16,16.6,19.9,27.1,3.1,18.6,5.3,27.7,9.1,19.9,8.2,33.9c-.3,5.4-1.5,14.4-8.5,14.5-5.1,0-15.3-13-19-17.1-17.9-19.8-34.8-40.3-52.4-60.6-4.1-4.7-10.7-14-14.5-17.5-7.8-7-10.9-9.3-18.5-17.5-23.9-25.6-50.4-47.9-71-77-1.8-3-2.2-10.6-.9-13.9s9.7-13.6,12.4-16.7c20.6-23,44.2-43.6,64.1-66.9,28.8-33.9,58.6-67.4,87.9-101.1,2.7-3.1,7.5-9.4,10.6-11.4,7.1-4.6,19.6-5.1,21.7,5.1s-7.3,33.2-10.3,47.2c-2.1,9.7-2.2,25.6-5.9,34.1s-18.3,22-24.9,29.6h-.3Z" style="fill: #fdfdfe;"/>
</svg>