<?xml version="1.0" encoding="UTF-8"?>
<svg id="Layer_1" xmlns="http://www.w3.org/2000/svg" version="1.1" viewBox="0 0 1024 1024">
  <!-- Generator: Adobe Illustrator 29.6.0, SVG Export Plug-In . SVG Version: 2.1.1 Build 207)  -->
  <g>
    <path d="M589,847.3c.9,0,1.9,0,2.2-.2-.9,0-1.6,0-2.2.2Z" style="fill: #aecc00;"/>
    <path d="M591.2,847.1h0Z" style="fill: #aecc00;"/>
    <path d="M859,708.9c2-4.5-.6-13.2-.9-18.4-.3-3.5,1.9-7.9-.3-11.7l-25.5-3.7-.6,2-1.6-2c-10.2-1.4-22.2,1.5-17.1-13.3.6-1.8.8.6,3.6-4.4s9-18.2,7.8-23.4c-.6-2.3-2.6-3.9-2.7-6.4-.3-4.2,3.3-9-1-13-2.6-2.4-15-4.9-21.7-6.3s-11.7.7-15.1-7.9c2.3-8.6,19.7-15.6,9.8-24.8,2.1-2.3-1.6.8,7.1-5.9s18.2-13.7,26.7-21.5c2.9-2.7,1.7-2.6,6.7-7.1s7.2-4.6,13.1-10.9c1.7-1.8,3-.9,5.9-5.1s3.4-14.5,2.5-19.4c-.5-2.5-3.6-5.2-3.7-8.2s2.3-9.3,2.6-13-4.2-26.9-5.8-28.9c-1.2-1.4-4.5-2.3-4.9-4.1,0-.7,3.5-13.7,3.9-14.6s-1.5,5.4,2.2-2-.4-6.3-1.1-9.4c-.3-1.4.7.5.7-3.9s-6.6-8-10.5-8.4c-2.2-.2,4.9,1.1-5.7.6s-20.9-1.4-31.2-1.8c-4.2-.2-7.2-2.5-9.9-2.9s-5.8.3-8.6,0c1.2-4,.7-6.9,5.3-11.6s7.3-5.8,11.1-12.5c4.9-8.5,6.9-9.1,13.3-16.2,1.8-2,2.3-4.8,5.3-7.2,2.1-1.7,10-5.6,11.1-6.9.4-.4,2.8-2.9,4.5-10.5s-.7-16.6-.3-24.3c.3-4.1,3.5-4.9,3.9-10.2s-4.3-8.2-3-16c2.3-13.8-.3-16.6,0-28,0-3.3,2.1-3.1,2.1-10.1s-3.5-14.5-3.5-21.6c-1.5-4.7-15.2-8.8-22.2-9.6s-14.4.8-20.8.7c-4.2-.1-5.6-1.5-13-1.1s-15.1,2.6-22.4,3.7c-4.8.7-4.4-6.9-4.1-9.2s1.3-1.6,2-5-.3-7.2,1-11c.7-2.2,5.6-6.3,6.6-9.4,1-3.1-.4-3,.7-10.3,1.1-7.3,7.7-14.6,3.6-22.1-.4-.7-5.1-6.4-6.4-7.6s-8.5-5.1-10-5.1l-.6,2.1-1.5-2.1c-2,.6,3.3.7-6,2s-20.8,1.2-29.8,3.1c-.8.2,1.2,1.7-2.1,2.1-3.3.4-6.1-1.1-8-1.1s-3.7,3.4-6.3,3.8c-2.6.4-7.6-1-9.6-.8-.6.1,4.3-.5-1.4,2s-16-.2-22.5,2.1c-10.2,3.5-18.2,3.5-29.1,5-4.7.7-19.9,6.9-25.6,3.4s3.1-23.7,5.3-28.8c4.4-10.2,4.7-9.4,7-21,1.1-5.8,5.3-7.2-1.6-13.4h-.5c-2.7-2.4.7-2.4-12.1-3.3s-24.7,3-38,3,2.2.8-1.3,2-9.2.5-12.9,1.9c-1.9.7-1.5,4-5.9,1.3-4.6,4.1-15.6,2.4-21.6,4.2s-13,6-18.1,7.9-12,1.5-17.4,3.5c-20.6,7.5-41.2,14.1-62,21-17.2,5.7-32.3,13.1-49.5,17.5-15,3.9-27.4,13.6-40.5,18.5-3.8,1.4-1.3-.8-12.2,2.8-10.9,3.6-20.7,10.4-31,15-4,1.8-11.8,3.1-15.3,5.4-1.4.9-1.2,3.4-2.7,4.5s-7.3,2.6-10,4c-13.3,7-26.9,13.1-39.8,20.4-6.9,3.9-10.6,4-15.6,11.2-3,4.4-5.3,9-4.5,14.4.3,2.4,4.8,10,7.7,14.3s9.4,9.9,11,12.5c.6.9-1.3-.8,1,4.4,2.3,5.2,4.8,6.2,0,11.7-2.3,2.8-14.2,7.4-18.2,9.8-1.9,1.1.5,1-4.8,4.2s-15,7.1-19.1,10.6c-2.4,2.1-8.1,10.5-9.7,12.5-1.6,2-4.5,6.6-6.6,8.5s-8.5,3.7-10.5,6.5c-1.4,1.9-.6,4.2-1.4,5.6-.8,1.4-4.4.7-6.1,1.9-1.7,1.2-4.7,7.1-6.9,9.1s-6.3,3.3-9,6-4.5,7.8-7.8,10.7c-3.3,2.9-9.3,4.3-11.1,9.3s0,.9,1.4,8.5.4,19.7,3.2,26.8c1.9,4.5,4.9,6,7.5,9,1,1.1,6.1,6,6.3,7.3s-2.8,1.3-1.5,6.4,8.6,8.4,8.6,12.4-1.2,3-.6,5.5c.2,1,4,8.7,5.1,10s2.7,1.1,3.3,2.2-1.6-1,.6,5.9c2.2,6.9,6.1,7,19.1,8s26.7,2.1,40,.9c5-.5,16.1-6,13,4-2,6.7-9.8,10.1-14.5,15.4s-5.7,6.8-12,13-9.3,12.8-16,20-19.3,11.8-17,24c.3,2.1-.7-4.7,2.7,4.3s4.3,15.5,6.7,24.3c1.6,5.7,7,17.4,9.7,23.3,1,2.2,5.3,8,5.6,9.3s-1.9-2.5-.5,7.6,8.7,21.4,11.7,31.3c.2.7,0,1.7,0,2.6.5.4,1.3,1.3,2.6,2.8,5.7,6.6,11.4,5.9,19.7,7.3,1.4.2.3,1.2,4.3,1.7s8.8-.7,12.5.5,6.1,7.4,10.8,7.7c.5,1.4,2.2-2.2-.4,3.9-2.6,6.1-9.4,13.3-12.9,19.1-1.6,2.6-2.4,4.2-5.4,9.6s-8,12.6-7.3,18.8c.2,2.2,1-.5,2,5s.4,14.3,2.2,19.8c.8,2.2,3.3-.6,6.1,4.9s3.3,15.8,6,23,12,20.7,17.2,26.8c1.8,2.1,4.5,3.1,6,5s-3.8-2.8,3.5,7.5,18.5,12.8,30.6,11.6c2-.2-3.8-1.5,2.9-2.2,6.7-.7,14.6,1.9,21.9,0,1.1-.3-.4-2.3,2.2-2.9,2.6-.6,3.4,4,14.5.4s18.1-1.2,28.3-3.5c.8-.2-4.3-.7,1.4-2s13.9-.5,18.7-1.1c4.8-.6,9.6-4.9,13.6-1.4s-1.9,12.5-1.8,19c0,6.5-3.2,10.8,11.1,16.7,14.3,5.9,35.1,6.8,50.2,2.7,2.5-.6,3.7-3.5,10-3.8s12.1,2.4,19.5-.7c2.1-.8,2.8-3.3,5.8-4.2s.2,1.6,8.5.6,19-8.3,25.5-9.6c9.1-1.9,18.3-3,27.5-4.5,5.4-.8,21.7-4.9,27.1-7.9,4.7-2.6,3.7-4.1,7.8-4.6-2.3,0-4.4,0,3.6-2.2,12.3-3.3,27.1-3.4,39-9.8,1.8-1,3.7-3.8,4.9-4s1.9,1.2,5.8.8,12-4.1,16.7-5.3c3.1-.7,7.4-.6,9.5-1.5s-5.7-.9,3.1-3.1,16.7-.5,27-5.7c2-1,8.7-7.7,12.9-8.3s9.4.6,15.6-1.2c15.8-4.6,31.4-10,46.7-15.3,3.8-1.4,8-.9,12-2s12.2-6.9,17-9c2.3-1,5.5-.9,7.2-1.6s1.8-2.3,6.8-3.5,1.6-.8,4.7-2.3,7-.9,11.3-3.7,18.3-26,18.8-31.2c.3-3.3-2.2-5.5-.6-11.5s6-13.5,8-18h0Z" style="fill: #eab308;"/>
    <path d="M197.1,682.8c-.2-.4-.3-1-.3-1.6-1.7-1.6.4,1.9.3,1.6Z" style="fill: #aecc00;"/>
  </g>
  <polygon points="449 255 690 221 569.5 463 727 444 462 772 419 772 512 530 374 560 343 526 449 255" style="fill: #fff;"/>
</svg>