<?xml version="1.0" encoding="UTF-8"?>
<svg id="Layer_1" xmlns="http://www.w3.org/2000/svg" version="1.1" viewBox="0 0 1024 1024">
  <!-- Generator: Adobe Illustrator 29.6.0, SVG Export Plug-In . SVG Version: 2.1.1 Build 207)  -->
  <path d="M549.7,91.3c2.4,3.4.7,7.3,1.5,11,1.8,8,3.6,10.3,2.8,20.2s-3.8,8.1-1,12.8,3.4,3.7,3.6,3.7c.6,0,8.2-1,9.7-1.2,5.1-.7,9.4-2.6,13.7-4.3s14.5-1.7,20.9-3.1c11.2-2.4,23.1-7.9,34.9-10.1s15.6-1.2,22.7-2.3c12.4-2,22-8.1,36-5.9s15.5,5.6,16.5,6.5c7.3,5.9,5.8,22.5,6,31s1.2,5.1,1.1,7.9c-.1,9.2-11.4,25.1,1,30,8.7,3.4,37.2-12.7,51.4-10.4,2.7.4,3.4,2.3,8.1,2,9.6-.5,16.4-4.8,28.7-2.8,3,.5,16.2,5.4,17.2,7.8,2.6,5.9-1.2,5.6-1.5,6-1.8,2.5,2.2,1.6,2.7,2.2,2.4,2.1-.5,12.1-.7,15.3-.6,8.8,0,19.3-1.1,27.9-.4,3.7-6.4,14.2-2.8,16.6s6.3-.4,9.2.3c10.6,2.6,10.4,5.8,15.3,13.7s2.8,1.6,3.2,2.3c5,7.7,3,22,3.3,30.2s1.6,4,1.9,6.2c1.9,19.1,6,25.8-6.9,41.9-.8,1-.7,2.6-1.2,3.2-.9,1-5.5,1.7-8.3,4.2s-14.7,19.6-15.1,21c-.6,2.2,1.7,2.9,1.5,4.3-.6,4.3-11.1,9.9,5.6,8.7,11.5-.9,15.9-6.7,29.8-3.8s10.6,9.6,9.7,16.2-1.6,3-1.7,4.9c-.5,9,7.6,23.5,4,31.5s-2.6,2-3.9,4.1c-6.4,11.2-1.7,28.4-3.5,41.5s-8.6,31.9-12.4,36.6-11.4,9.1-15.1,10.9-10.1,3-10.4,3.8c-3.7,8.9,4.7,12.9,5,20.8s-1.3,6.2-1,10c.8,12,5.3,24.3.2,36.1s-2.6,2-3.1,3.2c-3.3,7.9-5.5,17.5-8.5,25.2s-12.7,13.6-5.8,19c1.9,1.5,9.3,3,11.9,3s4.9-3,8.2-3.8c11.6-2.8,39.9-7.6,49.6-1.1,5.6,3.7,2.9,9.1,3.6,14.4,1.1,8.5,2.8,16.3-.9,25.1-.9,2.2-2.9,2.1-3.7,4.3-2.4,7.2-1.6,17-2.7,24.3s-6.8,25.2-9.7,29.3-4.9,5.3-6.5,6.5-4.7,1.7-5.3,2.3c-17.9,18.2-59.4,29.4-84,39.5-14.7,6.1-29,14-44.1,19.9-19.9,7.9-41.9,18.7-63,25-4.9,1.5-9,.7-13.3,1.7-5.3,1.3-14.1,8.4-18.7,10.3-8,3.2-21.6,5-30.2,7.8-19.6,6.3-37.8,16-57.8,21.2-11.4,3-23.1,8.2-35,11-8.3,1.9-11.7,2.2-20,5s-36,8.9-43.9,6.5c-15.6-4.6-14.8-19.5-19.2-32.8s-2.6-2.9-2.9-4.1.9-3.1,0-5.8c-4.7-13.4-21.4-.3-30.8.2s-5-1.8-5.2-1.6-.3,1.9-1.1,2.4c-1.9,1.3-6.7.2-9.5.6-6.8,1.1-9.7.5-15,.9s-3.5,2.7-6.1,3c-24.1,1.9-48.9.6-73.1.2-5.9-.1-9.3,1.8-15.9,0-16.1-4.7-10.1-21.3-18.4-31.6s-7.8-14.3-12.5-30.5c-3.5-12.3-13.4-23.4-1-34,9-7.7,18.7-7.3,22.7-20.3s1.7-4-1.7-4.7c-3.9,1.6-8.2.5-12,1.1s-8.3,2.4-12.8,3.2c-10.2,1.9-24.6,7.9-33.2-1.3-7.9-8.5-23.1-44.3-23.5-55.6-.4-11.7,4.8-20.6-2.2-31.7s-3.5-3.5-5-6c-9.8-15.9,1.5-32.3,13.2-43.2,4.3-4,22.3-15.8,23-20s-3.3-8.2-6.5-8.4-11.1,4.2-15.3,4.7-20.2-3.5-26-5.4c-8.5-2.8-13.9-7.1-15.7-16.3s0-6.9-.9-10.1-6.7-10.4-8.1-13.9c-2.1-5.4-2.2-14.9-3.7-20.3s-4.2-7.6-4.7-11.3.5-8.6-.3-12.7-3.9-6.9-5-10c-5-14.2,5.1-22.2,14.2-31.2,20.7-20.3,42.1-40.2,64-59,2.3-2,3.8-4.4,5.3-6.2s4.4-.9,4.6-2.8-2.3-3.9-3.5-4.3c-3.9-1.4-2.8,2-4.8,1.9s-4-2.4-5-2.1-1.2,2.9-1.9,3.7c-2.1,2.4-15.5,4.6-19.7,5.8-7.6,2.3-10.8,5.5-20.5,5.3s-13-2.6-18-8.8-19.8-41.1-20.1-47.7c-.5-10.7,4.4-17.6,7.2-26.3s1.3-12.6,3.4-17.6c3.7-8.9,16.9-17.4,23.6-23.4s15.3-15.3,23-22,24.7-19,36.4-25.6c8-4.5,15.1-11.4,23.3-15.7,13.2-6.9,25.4-16.3,40-20.8s.6-1.8.8-1.9c2.2-1.6,1.9,1.7,2,1.9,1.8,1.5,2-1.4,2.3-1.5,4.6-2.8,4.6-4.3,7.4-6.4s10.4-4.9,12-6.2.8-2.9,2.3-4.2c8.1-7.5,21-9.6,30.7-14.3s17-9.7,27.6-14.4c20.3-9,40.3-19.7,61-28,16.9-6.8,33.9-14.7,51.7-20.3s34.4-10,49.4-10.5c.6,0,.5-1.8,1.2-2,4.8-1.2,23.3.2,26.4,4.5s3.1,4.7,4.7,6.8ZM507.8,243.3c-8.3,1-18.1,10.2-19.5,18.5-3.4,20,11.8,37.3,32.1,29.1,28.9-11.6,15.2-51-12.6-47.6ZM613.3,287.7c3.6,1.6,15.2-4.8,17.7-8.2,6.7-9,2.7-22.7-6.3-28.8-16.9-11.5-32.8,1.4-29.7,20.7,1.6,10,9.3,12,17.2,14.6s.8,1.5,1,1.6ZM403.7,248.2c-4.2.8-8.7,4.5-10.9,8.1-15.5,25,27.2,43.3,34.9,17.9,5.1-16.8-6.7-29.1-24-26ZM505.8,333.3c-34.6,4.7-37.1,62.1,3.7,64.7,46.2,2.9,44.8-71.3-3.7-64.7ZM611.8,336.3c-22,2.6-30.7,20.7-24.5,40.9,6.2,20.3,36,22.9,49.2,7.8s1-51.9-24.8-48.7ZM406.3,394.7c2.2,1,13.3-2.7,16-3.9,20.6-8.9,21-40.9,0-50.7-36-16.7-58.8,38-22.2,52.2,1.7.7,3.6.3,5.1.7s.8,1.5,1,1.6ZM710.3,385.7c8.4,3.6,19.2-11.3,19.8-19.2,2.5-32.4-45.7-25.2-36.5,3.5s8.3,10.8,15.7,14.1.8,1.5,1.1,1.6ZM302.3,382.7c7.1,3.5,21,.4,25.5-6.3,7.1-10.5,4.4-28.6-10.4-30.2s-31.1,15.2-20.2,31.2,4.8,5.2,5.2,5.3ZM505.8,428.3c-43,5.3-45.7,68.1-6,78.4,43.8,11.4,70.9-43.6,34.1-70.1-8.4-6.1-17.6-9.6-28.2-8.3ZM599.2,500.7c33.2,11,63.6-26.4,41.8-55.2-24-31.6-74.1-6.8-61.4,34.4,3.4,11,8.5,14.9,18.7,19.1s.8,1.5,1,1.6ZM412.3,502.3c56.9-16,19.2-89.9-22.6-61.2-17.3,11.9-19,40-2.6,53.2,1.4,1.1,10,7.4,10.6,7.6,1.9.5,4.5-.5,6.6,0s.2,1.8,2.1,2.1c5.2.8,5.5-1.6,5.9-1.7ZM710.8,443.3c-7.6.9-19.7,8.3-22.1,15.9-6.5,21,11,40.3,32.3,33.3s18.1-52.7-10.2-49.2ZM306.7,444.2c-21,3.2-24.9,33.5-7.7,45.2,22.1,15,46.5-10.1,34.5-32.5-4.6-8.6-17.4-14.1-26.8-12.7ZM506.8,537.3c-12.4,1.4-26.6,11.8-29.7,24.3-8.4,33.6,33.6,61.7,59.4,33.4,20.9-22.9.3-61-29.7-57.7ZM406.8,543.2c-31.8,1.7-35.7,48-8.8,57.3,24.6,8.5,46.3-9.9,39.7-35.7s-17.2-22.3-30.9-21.6ZM615.3,601.3c4.3-1.2,7.8-1.1,12.4-3.1,23.7-10.6,19.7-50.7-5.4-55-41.2-6.9-51.2,43.5-18.8,56.8,2.1.9,4.1.5,5.8,1s.7,1.7,1.4,1.9c4.3,1.2,4.3-1.6,4.6-1.6ZM710.8,554.3c-18.6.5-24,24.5-9.3,34.7,19.6,13.6,40.6-12.8,24.4-28.4-3.5-3.4-10.2-6.5-15.1-6.4ZM307.8,555.3c-27.3,3.8-18.1,48,10.9,35.9,19.6-8.1,11.2-39-10.9-35.9ZM507.8,645.3c-11.3,1.4-21.3,12.5-20.7,24.1,1.6,30.1,39,35.7,48,9.2,6-17.7-8.9-35.6-27.3-33.3ZM610.7,652.2c-25.8,4.4-15.8,42.9,10.3,37.3,22.5-4.8,15.6-41.8-10.3-37.3ZM391.3,661.3c-5.6,11.5.6,28.7,14.2,30.6,31.1,4.2,28.6-40.8,1.1-38.8-3.9.3-13.6,4.8-15.3,8.3Z" style="fill: #22c55e;"/>
  <path d="M505.8,428.3c10.6-1.3,19.7,2.3,28.2,8.3,36.8,26.5,9.7,81.5-34.1,70.1-39.7-10.3-37-73.1,6-78.4Z" style="fill: #fdfdfe;"/>
  <path d="M599.2,500.7c-.2,0-.3-1.3-1-1.6-10.2-4.3-15.3-8.2-18.7-19.1-12.7-41.2,37.4-66.1,61.4-34.4,21.8,28.8-8.6,66.2-41.8,55.2Z" style="fill: #fdfdfe;"/>
  <path d="M506.8,537.3c30.1-3.3,50.7,34.8,29.7,57.7-25.8,28.3-67.8.2-59.4-33.4s17.3-22.9,29.7-24.3Z" style="fill: #fdfdfe;"/>
  <path d="M412.3,502.3c-.4.1-.7,2.5-5.9,1.7s-1.3-1.9-2.1-2.1c-2.1-.5-4.7.5-6.6,0s-9.2-6.5-10.6-7.6c-16.4-13.3-14.8-41.4,2.6-53.2,41.8-28.7,79.5,45.2,22.6,61.2Z" style="fill: #fdfdfe;"/>
  <path d="M505.8,333.3c48.5-6.6,50,67.6,3.7,64.7-40.8-2.6-38.4-60-3.7-64.7Z" style="fill: #fdfdfe;"/>
  <path d="M615.3,601.3c-.3,0-.2,2.8-4.6,1.6s-.6-1.6-1.4-1.9c-1.7-.5-3.7-.1-5.8-1-32.4-13.3-22.3-63.8,18.8-56.8,25.1,4.2,29.1,44.3,5.4,55-4.6,2.1-8.2,1.9-12.4,3.1Z" style="fill: #fdfdfe;"/>
  <path d="M406.8,543.2c13.7-.7,27.5,8.2,30.9,21.6,6.6,25.8-15.1,44.2-39.7,35.7-26.9-9.2-23-55.6,8.8-57.3Z" style="fill: #fdfdfe;"/>
  <path d="M611.8,336.3c25.8-3.1,42.6,28.4,24.8,48.7s-43,12.5-49.2-7.8c-6.2-20.2,2.5-38.3,24.5-40.9Z" style="fill: #fdfdfe;"/>
  <path d="M406.3,394.7c-.2-.1-.2-1.4-1-1.6-1.5-.4-3.4,0-5.1-.7-36.6-14.2-13.8-68.9,22.2-52.2,20.9,9.7,20.5,41.7,0,50.7-2.7,1.2-13.8,4.9-16,3.9Z" style="fill: #fdfdfe;"/>
  <path d="M710.8,443.3c28.3-3.5,36.5,40.6,10.2,49.2s-38.9-12.3-32.3-33.3c2.4-7.6,14.5-15,22.1-15.9Z" style="fill: #fdfdfe;"/>
  <path d="M507.8,645.3c18.4-2.3,33.2,15.6,27.3,33.3-8.9,26.5-46.4,20.9-48-9.2s9.3-22.6,20.7-24.1Z" style="fill: #fdfdfe;"/>
  <path d="M507.8,243.3c27.8-3.4,41.5,36,12.6,47.6-20.3,8.1-35.5-9.1-32.1-29.1s11.2-17.5,19.5-18.5Z" style="fill: #fdfdfe;"/>
  <path d="M306.7,444.2c9.4-1.4,22.2,4.1,26.8,12.7,12.1,22.4-12.3,47.5-34.5,32.5-17.3-11.7-13.3-42,7.7-45.2Z" style="fill: #fdfdfe;"/>
  <path d="M613.3,287.7c-.2-.1-.3-1.3-1-1.6-7.8-2.6-15.6-4.6-17.2-14.6-3.1-19.2,12.8-32.1,29.7-20.7,8.9,6.1,13,19.7,6.3,28.8-2.5,3.4-14.2,9.8-17.7,8.2Z" style="fill: #fdfdfe;"/>
  <path d="M403.7,248.2c17.2-3.2,29.1,9.2,24,26-7.7,25.4-50.4,7.1-34.9-17.9,2.2-3.6,6.7-7.3,10.9-8.1Z" style="fill: #fdfdfe;"/>
  <path d="M391.3,661.3c1.7-3.4,11.4-8,15.3-8.3,27.5-1.9,30,43.1-1.1,38.8s-19.9-19.1-14.2-30.6Z" style="fill: #fdfdfe;"/>
  <path d="M710.3,385.7c-.2-.1-.3-1.3-1.1-1.6-7.4-3.3-13-5.5-15.7-14.1-9.2-28.7,39-35.9,36.5-3.5-.6,7.9-11.4,22.7-19.8,19.2Z" style="fill: #fdfdfe;"/>
  <path d="M610.7,652.2c26-4.5,32.8,32.5,10.3,37.3-26.1,5.6-36.1-32.9-10.3-37.3Z" style="fill: #fdfdfe;"/>
  <path d="M302.3,382.7c-.3-.2-4.7-4.6-5.2-5.3-10.8-16.1,1.6-33.3,20.2-31.2s17.5,19.8,10.4,30.2-18.4,9.8-25.5,6.3Z" style="fill: #fdfdfe;"/>
  <path d="M307.8,555.3c22.2-3.1,30.5,27.8,10.9,35.9-29.1,12.1-38.2-32.1-10.9-35.9Z" style="fill: #fdfdfe;"/>
  <path d="M710.8,554.3c5-.1,11.6,2.9,15.1,6.4,16.2,15.6-4.8,42-24.4,28.4-14.7-10.2-9.4-34.2,9.3-34.7Z" style="fill: #fdfdfe;"/>
</svg>