<?xml version="1.0" encoding="UTF-8"?>
<svg id="Layer_1" xmlns="http://www.w3.org/2000/svg" version="1.1" viewBox="0 0 1024 1024">
  <!-- Generator: Adobe Illustrator 29.6.0, SVG Export Plug-In . SVG Version: 2.1.1 Build 207)  -->
  <path d="M596.8,100.2c.3.3,2.9,6.9,3,7.5.7,3.5-.2,7.1.5,10.5,2,9.8,9.7,27.9,7.5,37s-5.3,6.4-2.8,11.7c3.9-1.1,8.9-1.6,12.6-2.8,21.3-7,38.3-11.6,60.6-16.4,6.2-1.3,12.8-4.7,18.5-5.5s28.5-.5,34,4,10.7,23,11.2,26.3c1.3,8.6-2.2,16.6-2,24s3.4,7.1,3,11.8-6.5,12-5,18.6c6.5.9,11.9-3.9,17.7-5.8s18-4.5,20.7-4.3.5,1.7.8,1.8c1,.5,14.2-5.9,17.4-6.6,6.4-1.5,23.3-2.9,27.3,3.5s1.1,5.2,2.2,7.8c4.2,9.9,9,7.4,8.9,22.1,0,14.7,2.6,26.8,5.2,37.8s2.6,3.3,2.8,5.2c.5,4.9-4.9,7.4-5.8,12.2-1.4,7.6,2.3,14.1-1.8,21.2-8.7,14.9-7.1,12.9-11.7,29.3-5.3,18.9-21.3,22.2-31.7,34.3s-5.3,11.3-.5,13,9.4.5,9.9.5c1.5-.2,2.6-1.8,4.1-2,10.1-1.3,27.7-4.8,35.5,3.4s8.6,21.9,8.7,24.2c0,4.5-4.6,10.8-5.4,15.1-2.8,14.6,10.2,14.4,10.8,27.8s-2.9,10.4-5.1,16.9-2,7.9-2.7,11.3c-2.2,11.2-3.7,21.4-5.3,32.7-.8,5.6-3,13.1-4.4,18.6-4.2,1.5-5.9,5.2-8.9,7.6-4.9,4-7,0-5.4,10.7s6.9,18,6.8,25.2-2.5,10.7-3,15.1c-1.2,12.1,0,24.5-3.1,36.9-.8,3.1-5.5,8.8-6.5,12.5s-1.2,7.1.5,9.6c3.1,2.2,21-5.2,25.7-6.5s10.3-1.3,14.6-2.4c6.9-1.8,9.6-5.6,18.2-4.7,21.3,2.4,13.8,16.7,14.6,31.4,0,2.8.8,6.9,1.2,9.8,1.2,9.1,1.6,26.7.8,36.2-1.5,16.6-6.4,20.1-15,32-5.9,8.2-3.8,16.6-11.5,24.5s-7.2,5-13.5,7.5c-1.6.6-3.5,3.6-5.8,4.2s-5.5-.2-8.3.7-3.6,3.2-5.9,4.1c-3.9,1.5-8.7.8-12.3,1.7-11.1,2.8-18.8,9.5-28.5,12.5s-14.7,2.2-20.5,4.5-4.5,3.7-7.8,5.2c-5.8,2.7-12.2,3-18,5-5.4,1.9-10.2,5.9-15,8-9.3,4-21.1,6-30.5,9.5-31.3,11.6-73.5,33.4-105.2,39.8-25.1,5-51.4,5.3-76.4,10.6-11.6,2.5-12.9,1.5-24,2s-26.6,6.7-42.2,4.6c-3.3-.4-6.8-2.9-10.1-2.9-5.5,0-14.5,2.2-19.9,2s-5.9-1.8-9.9-1.8-9.7,1.8-13.2,1.7c-13.2-.5-28.6-4.4-42-5.8-10.5-1.1-14,.6-24.9-3.1s-6.2-1.8-9.1-2.8-7.7-4.5-9.2-7.9c-3.6-8.5-5.5-23.9-12.8-29.2s-16.3-4.4-24-4c-5.2.3-12.9,2.8-17.1,2.9s-8.8-2.4-13.1-2.5c-10.7-.4-22.5,6.2-29.6-5.6s-2.1-9.2-4-13-7.5-10.4-9.8-17.2-1-12.9-2.5-19.5-5.4-8-7.9-12.1c-5-8.3-11.8-21.3-14.1-30.9-4.2-17.3,2.2-28.2,14.6-39.4,6.6-5.9,11.4-9.1,18.3-16.2,5.2-5.3,12.3-7.2,10.7-17.4-4.8-.2-9.7.4-14.4,1.1s-2.8,1.7-5,2c-6.5.9-11.6.8-15.4-4.7-4-5.9-8.6-14.1-11.1-20.1-4.3-9.9-2.4-18.9-5.3-29.5s-5.3-11.5-5.4-15.4,2.9-5.3-.5-11.7-5-9.8-6.6-15.4c-2.6-8.6-2.7-14.9,1.3-23.3,1.6-3.3,6.9-8.2,7.2-11.6.5-5-4.7-9.8-2.2-17.3s13.4-11.7,17.5-15.5c6.3-5.8,12.7-13.8,19.1-19.9s13.5-8.2,11.9-17.6c-6.4-.7-11.7,3.9-16.7,4.8-13.9,2.4-14.5,2.8-27.3,7.7-11.8,4.5-31.8,10.7-41-1s-13.4-29.6-18.8-42.2-10.1-14.7-8.9-24.6,10.5-20.1,14.3-25.7c6.1-9,10.7-10.9,17.5-17.5,4.9-4.9,13.1-16.3,19-19s4-.2,5.6-1.4,2.8-6.8,5.9-9.1c5.4-4.1,15.3-9.9,20-14s6.9-8.6,10-11c7.4-5.9,17.2-7.8,24.5-16.5s2.2-4.6,2-7.5c-4,.2-8.3-.5-12.3.2-6.3,1.1-15.8,5.5-22.2,5.8-9.7.4-14.3-6.1-16.3-14.8s-2.9-22.2-3.2-29.8c-.6-12.2,2.8-8.9,8.4-16.6,2.4-3.4,3.5-8.6,6.1-10.9,7-6.6,21.7-19,29.6-24.4s11.3-5.2,15.8-8.2c7.8-5,14.6-12.4,22.2-17.8,16.3-11.5,40.1-23.7,54.8-36.2,4-3.4,5-7.7,8.6-10.4,8.1-6.1,22.7-10.8,30.8-16.2,8.1-5.4,9.2-8.7,20.1-12.9s24.1-8.2,32.8-5.8,9.7,18.3,13.7,24,4.7,4.8,5.5,4.8,11.5-3.9,13.4-4.7c10.6-4.4,43.6-19,53.6-18.5s1.8,3.4,7.8,2.1.8-1.8,1.9-2.3c10.6-4.5,36.4-10.9,47.3-10.7,6.4,0,4.4.8,11-.9,11.9-3.1,26.1-7.8,38.4-4.6s10.4,4.3,10.8,4.8h0ZM598.6,242.4c-64.3-54.3-162.4-32.8-202,39.8-3.9,7.2-15.1,33.2-15.6,40.4-5.9,75.6,32.1,143.4,109.5,155.5,10.9,1.7,26.9,3.7,37.8,2.8s6.4-2.7,9.7-3.3c11.3-2.2,29-4.2,38.8-10.2,50.7-31.3,71.9-73.1,71.3-132.7-.3-31.8-25.7-72.2-49.4-92.2h0ZM723.7,571.3c-29.6-28.3-67.7-51.6-110.2-54.3s-32.6,8.6-51.3,13.7c-42.2,11.5-72.6,7.6-113.7-5.7-10.8-3.5-16.9-7.6-29-8-37-1.2-81.4,21.9-107.5,46.7-19.3,18.3-41.7,50.6-46.9,76.9-.9,4.6-.5,11.1-1.2,15.8s-3.8,11.5-4.6,16.4,0,11.6-.8,16.4c-1.4,9.1-4.5,18.4-5.3,27.5s-1.2,34.1.3,39.4c2.7,9.2,15.2,22.7,25,24,17.7,2.4,40.9-.5,59.1,1,62.3-5.8,125.8,2.2,188-1,9.5-.5,17.7-2.6,27.8-1.8,21.2,1.7,42.9,0,64.2.7,27.3.9,54.8,2,82,2s8.7-1.9,12.1-1.9c26.7,0,34.1,8,55.5-13.6,2.1-2.1,5.7-2.1,6.7-7.3.8-3.8,2.3-16.9,2.2-20.7-.2-7.5-4.1-14.3-4.9-21.1s.7-14.8-1.6-23.4c-4.4-16.4-4.9-29.4-8.2-45.8-3.4-17.1-11.3-43.8-22.4-57.6s-11.8-15.2-15.2-18.3h0Z" style="fill: #ec4899;"/>
  <path d="M723.7,571.3c3.3,3.2,11.7,14.1,15.2,18.3,11.1,13.8,19,40.5,22.4,57.6,3.3,16.4,3.8,29.3,8.2,45.8,2.3,8.6.7,15.2,1.6,23.4s4.7,13.6,4.9,21.1c0,3.8-1.5,16.9-2.2,20.7-1,5.2-4.7,5.2-6.7,7.3-21.3,21.5-28.8,13.4-55.5,13.6-3.4,0-8.8,1.9-12.1,1.9-27.2,0-54.8-1.2-82-2-21.3-.7-43,.9-64.2-.7-10-.8-18.2,1.3-27.8,1.8-62.2,3.2-125.7-4.7-188,1-18.2-1.5-41.4,1.4-59.1-1-9.8-1.3-22.3-14.8-25-24s-.9-32.6-.3-39.4,3.9-18.4,5.3-27.5,0-11.5.8-16.4,3.8-10.4,4.6-16.4.3-11.2,1.2-15.8c5.2-26.3,27.6-58.6,46.9-76.9,26.2-24.8,70.5-47.9,107.5-46.7,12.1.4,18.1,4.5,29,8,41.1,13.3,71.5,17.2,113.7,5.7s30.7-15,51.3-13.7c42.5,2.7,80.6,26,110.2,54.3h0Z" style="fill: #fefefe;"/>
  <path d="M598.6,242.4c23.7,20,49,60.4,49.4,92.2.6,59.5-20.6,101.4-71.3,132.7-9.8,6-27.5,8-38.8,10.2-3.3.6-7.2,3.1-9.7,3.3-10.9.9-26.9-1.1-37.8-2.8-77.4-12.1-115.4-79.9-109.5-155.5.6-7.2,11.7-33.1,15.6-40.4,39.7-72.6,137.7-94.1,202-39.8h0Z" style="fill: #fefefe;"/>
</svg>