<?xml version="1.0" encoding="UTF-8"?>
<svg id="Layer_1" xmlns="http://www.w3.org/2000/svg" version="1.1" viewBox="0 0 1024 1024">
  <!-- Generator: Adobe Illustrator 29.5.1, SVG Export Plug-In . SVG Version: 2.1.0 Build 141)  -->
  <g id="Layer_11">
    <path d="M857.9,696.4c1.3-9.5.7-18.4-.9-27.8-1.4-8.1-16.6-9.2-23.3-8.4-9.4,1-16.5,6.4-24.5,8.5-6.1,1.6-13,.8-19.3,2.7-6.1,1.8-11.9,7.3-18.8,6.3-4.2-3.1,4.3-16.2,5.8-20.3,2.6-6.8,4.9-14.4,4.2-21.8-.4-4-2.7-7.7-1.8-11.8,3.4-2.7,6.4-5.8,9.7-8.6,8.3-7.2,13.7-11.8,19.3-22.5,1.1-2.2.8-4.3,1.7-6.3,1.9-4.1,6.2-4.4,7.2-10.9,2.4-17.1-6.2-18.1-7.8-30-1-7.3,2.2-15.2.7-21.7-.7-3-4.4-5.7-5.2-8.9-1.1-4.3-2.4-8.3-3.4-12.5-.3-1.4-1.4-10.6-1.1-11.6,8.8-9.8,30.3-8.8,36.7-21.3,1.2-2.4,5.5-12.9,5.9-15.1.5-3.7-.8-8.2-.3-10.3.8-3.2,6.4-9,8.1-14.9,7.3-25.1,7-39.8,6.5-65.5,0-5,.7-17.8-3.3-21.2-1-.8-9.6-4.1-11.2-4.3-8-.9-22.3,1.9-31,2.1-5,.1-9.6-.5-14.5-1,1-6.7-4.7-11.2.4-17,5.1-5.6,16.2-12,16.6-20.5.3-6.2-1.9-13.3-1.1-20,.2-2,2.7-1.5,2.9-4.1,0-1.8-.9-3.3-.8-4.8,0-2.8,1.4-8.1,1-10.9,0-1.1-3.2-.7-3.9-4.1-1.3-6.4,2-6.6,2-7.1.2-6.5-1.1-13.4-1-20.9,0-9.4.7-15.3-9.1-19.9-8.9-4.1-18.4.6-27.4,1.4-8.5.8-19.6,1.7-27.9,2.1-3.8.1-13,1.5-12.4-3.3,1.5-11.8,9.8-26.3,11.6-38.5,1.3-8.5-2.3-14.4-9.2-19.3-13.6-9.5-25.2-3.5-39-2-9.8,1.1-20.2,0-30,1-6.6.7-14,4.5-19.3,4.7-18.5.8-31.4,5.2-49,8-6.9,1.1-13.2,1.9-20.2.2-1.2-16.8,8-33.2,5.7-50.2-.8-5.9-2.5-8.4-6.7-12.3-12.7-11.6-17.6-4.2-31.6-2.6-26.6,3.1-52,2.8-77.3,12.7-76.9,12.6-152.1,42.8-224.1,72.9-11.4,4.8-31.8,9.3-39,19.3-1.2,1.6-4.5,7.2-5.6,9.2-1.6,2.9-5.4,14.5-5.4,17.6-.2,10.1,6.4,8.8,9.5,13.5,1.1,1.8,1.1,5.4,2.2,7.8,1.1,2.6,9.5,11.9,9.4,13.6-13.2,7.1-29.2,13.6-40.9,23.1-6.3,5.1-18,16.1-22.1,22.2-.6.9-3.8,6.5-3.8,6.9-.1,1.7,4,6.4,3.8,9.8-.3,5.4-5.6,5.7-3.5,16.6.7,3.6,5.8,10.7,3.6,13.5-1.3,1.7-17.4,9.7-21,12-3.3,2.1-6.7,5.8-10.8,8.2-12.3,7.5-31,9.3-28.1,27.5,1.2,7.4,9.4,35.1,12.9,41.1,6.7,11.4,11.7,23.7,17.6,35.4,3.9,7.8-.6,19.8,11.7,21.3,7.5.9,25.1,0,33-1,15.5-1.9,33.9-10.9,49.1-11.9,1.3,0,4-.2,4.4,1.5.7,3.3-12.1,18.9-14.4,22.6-8.7,13.5-16.5,29.3-30.1,38.9-2.5,1.7-5.7,2.2-8.4,4.6-8.2,7.4-9.2,23.6-8.1,33.9,1.7,16.5,10.9,32.5,16.1,47.9,3.4,10.2,3,27.5,13.2,33.8,9.2,5.7,22.5,1.7,32.7,1.3,1.7.7,4.2,6,5.2,7.9,2.4,4.6,6.9,13.9,8.3,18.7.9,2.9,2.6,6.9.6,9.6-4.2,5.6-21,5.8-27.2,16.8-4.9,8.7-2.3,12.4-1.7,21.2,1,16.1,4.6,19.1,10.6,33.3,2.3,5.4,2.9,10.3,5.5,16.5,3.7,8.6,7.7,19.3,13.3,26.7,7,9.3,16,8.9,25.6,11.4,10.6,2.8,9.6,5.3,23.4,5.6,18.8.3,36.2,4.3,54.9,5.1,30.9,1.3,62.7,2.7,93.1.9,2.3,0,8.1-.5,9.9,0,6.4,2.1-3,28.7,5.1,35.9,4.9,4.3,19.2,0,26.1.9,12.3,1.5,7.9.9,19-.9,18-2.9,35.7-6.5,53.7-9.3,17-2.7,36.2-11,52-17,9.5-3.6,25.1-3.6,32.1-8,8.6-5.4,6.6-3,15.7-5.3,25.9-6.4,50.8-13.6,75.6-24.4,9.3-4.1,17.2-9.5,27-12,16.6-4.3,25.9-9.6,41.1-14.9,11.9-4.1,27.2-3.6,36.9-12.6,9.8-9.2,7.5-15.4,11.1-26.4,1.4-4.2,6.5-14.3,8.8-18.2,2-3.4,5.8-5.1,6.3-8.7.8-6.3-2.1-11.2-1.9-16.9,0-4.2,2.3-9.7,2.9-14.2l-.6-.4h0Z" style="fill: #e0463b;"/>
  </g>
  <g id="Layer_2">
    <polygon points="564 267.7 564 210.7 346 288.6 346 702.6 564 772.6 564 286.8 629.6 286.8 631.1 702.6 651 702.6 669.4 286.8 669.4 267.7 564 267.7" style="fill: #fdfdfd;"/>
    <polygon points="527.3 449.3 537.7 487.7 527.3 534 507.3 524.3 502.3 487.7 508.7 455.5 527.3 449.3" style="fill: #e0463b;"/>
  </g>
</svg>