<?xml version="1.0" encoding="UTF-8"?>
<svg id="Layer_1" xmlns="http://www.w3.org/2000/svg" version="1.1" viewBox="0 0 1024 1024">
  <!-- Generator: Adobe Illustrator 29.6.0, SVG Export Plug-In . SVG Version: 2.1.1 Build 207)  -->
  <g id="Layer_11" data-name="Layer_1">
    <path d="M820.9,589.5c1.3-12.8,12.5-29,8.8-41.7-.6-2.2-4.3-6.7-4.6-7.5-2.7-7.9-.6-10.5,4.9-15.8,2.6-2.5,6.8-4.9,9.5-7.5,1.1-1.1,1.2-3.3,2.6-4.4,1.3-1,3.8-.8,4.7-1.8,5.5-6,7.9-16.8,9.6-24.9,2.2-10.8,3.9-22.3,3.7-33.3,0-1.4-1.1-3.2-1-3.9,0-.8,2-.9,2.5-1.6,2.8-4.3,2.4-12.4,4.6-17.5l-1.5-36.5c-2-.9-3.5-3-5-4.1-1.4-.9-2.7-.6-3.7-1.1-.9-.4-.8-1.7-1.4-1.8-.5,0-8.4-.1-8.8,0-3.2.5-9.5,3.4-13.2,3.7-2.9.2-7.2-1.6-9.9-1.5-3,0-4.8,2.4-8.7,1.7-.7-.1-6.3-2.8-6.5-3.1-1.5-2.1-1.4-12.1-1-15,.5-3.4,2.9-5.6,1.8-8.8,3.6,2.4,2.6-.7,3.7-1,1.8-.4,4,.2,6.4-.5,7.5-2.1,15.5-10.4,16.9-18.1.8-4.7-.9-10.8.5-15.5,2-6.5,8.6-12.9,11.6-19.2.4-.8,1.7-.8,1.9-1.5,2.4-10.4-1.8-12.5-5.2-19.6-5.7-11.8.3-12.3,1.2-22.2.3-3.4-.6-6.7-.4-9.6.6-7.7,3.4-18.9.9-25.8-.2-.5-3.8-6.9-4.2-7.1-1.4-.8-12.7-1.6-14.8-1.5-2.2.2-10.5,2.1-11,3.5-5.9-2.2-11.8,2.7-18.2,3.7-2.4.3-7.9.7-9.3-1.1-1.2-1.8-1.2-4-.9-6,2.3-15,10.9-37.1,8.9-52-.3-2.6-3.4-6.3-2-10.5-6-.5-13-4.8-18.6-5.9-8.7-1.7-27.3,0-36.7.8-6.2.6-18.6,1.8-24.6,3.3s-1.7,2.5-2.6,2.6c-4.2.7-7.6-1.1-9.7-1-2.3,0-3.8,2.6-6.1,3-15.4,2.9-30.6,6.6-45.9,9.1-3.6.6-8.6,3.3-12.9.9-4.4-2.5-1.4-5.9-1.6-10.4-.3-4.7-2.5-9.2-3.1-13-1.1-7.4.5-21.6,0-30-.2-3.1-2.1-11.3-4.3-13.3-.4-.3-8.2-3.2-9.2-3.3-11.9-1.6-31,5.2-42.7,9.1-22.9,7.6-46.2,19.6-69.3,28.9-8.1,3.2-8.4,6.3-17,7.2-.6,0,0,1.7-1.9,1.9-14,1.7-16.5-7.2-26.2-13.9s-36.4-22.3-46.9-23.2c-2.1-.2-3.9,1.1-4.8,1-.8,0-.8-2-1.6-2.5-4.7-3.1-34.3,1.3-41.6,2.4-12.3,1.8-32.2,4.3-43.3,9.7-2.9,1.4-5.6,5.2-7.1,5.9-1.7.8-3.7.2-5.2.8-15.3,6.2-33.1,21.5-46,32.7-19.4,16.8-43.1,59.7-48.5,84.7-2.6,11.7,0,23.1-10.2,31.8-18.4,15.7-39.8,28.3-57.3,44.1-6.3,5.7-14.1,11.8-20.2,18.3-7.4,7.9-12.2,15-10.4,26.5.5,3.5,3.6,7.4,4.5,10.6,1.6,6,1,10.8,4.5,17.5,2.9,5.6,11.1,11.7,12.6,16.4,2.2,7.1-4.7,14.2,4.4,23.5,5.5,5.6,19.9,5.6,27.3,4.3,4.2-.8,6.9-4.2,12.2-4.8,4.3-.4,7.8-.2,11.4,2.1,2.5,3.5-18.5,20.4-21.4,23.9-5.8,6.7-10.8,15.1-17,22-2.1,2.4-9.4,7.7-10.2,9.3-.9,1.6-.9,7.1-1.8,9.7-1.4,4.4-5.4,11.8-6.3,15.7-2.6,11.2,6.6,32.9,15.9,39.9.2,2.6-3.4,6.9-3.9,10.1-1,7,8.6,19.2,12,25.6,2.1,4,3,9,5.6,13.4,14.8,24.4,35.8,4.1,55.8,2.4,2.1-.2,11-.3,12.8,0,12.7,1.7-3.3,15.5-6.4,19.5-11.3,14.3-24.8,27.6-35.4,41.6-6.1,8.1-9.9,14.5-6.1,24.9,3.2,8.7,13.2,10.9,18.5,17.7.9,5.4-7.6,8.7-5.8,16.6.3,1.3,3.4,6.2,4.4,7.7,1.6,2.2,6.3,6,7.2,7.8,1.5,2.8,2.7,16.2,3.9,20.1,1.6,5.5,9.5,15.9,15.9,16.1,1,0,11.2-.8,11.7-.9,1.1-.3,1-2.5,2.3-2.9,1.1-.3,2.7.8,3.7.6,2.7-.5,26.6-5.6,26.6-.2-6.5,9.2-27.4,22.6-22.2,35.2,1.2,2.9,6.2,7.6,7.7,10.3,2.8,5,9,20.2,9.3,25.2.3,4.7-4.6,8.2-2.2,13.7.2.4,4.6,5.5,5.2,5.8,2.4,1.3,10.9,3,14.3,3.8,7.3,1.8,15,2.7,23,3.8,8.1,1.1,17.7,3.8,25.5,4.6,9,.9,18.5-1.1,26.9-1,5.4,0,12.3,3.2,17,3.1,4.5,0,9.6-2.5,14.1-3,6.8-.7,14.3-.4,20.8-1.1,1.6-.2,2.6-1.8,4.1-2,2.1-.3,6.7,2.2,7.7,4.2,5.3,11.4-6.3,14.5-7.1,24.6-.4,4.5,2.2,9.8,1.8,14.5,5.9,6.6,6,9.2,15.4,9.8,6.7.4,14.9,1.1,20,1,12.3-.4,20.5-1.6,33.1-1,10,.4,11.4-1.6,19-2.9,9-1.6,19.6,0,28.8-3.5,2.8-1,3.6-3.2,5.1-3.8,3.9-1.3,11.5-3.3,15.1-1.8,1.1-3.7,2.7-1,4.9-1.4,13.7-2.1,26.7.6,40.1-1.7,2.9-.5,5.5-3.5,9-4,8.9-1.2,18.6,2.1,27,2,7.5,0,14.1-2.9,23-2.9s18.3.3,28.3-3.8c2.9-1.2,6.2-4.4,8-5,3.7-1.3,10.6-1.4,14.3-2.7,3.2-1.1,3-6.2,8.5-2.6l-.3-1.9c6.5-1.1,7.3-9.7,9.6-14.8.7-1.5,2.2-2.4,3-4,2.3-5.1,1.9-10.7,3.5-16.5.8-3,2.9-5.6,4-8.5,1.3-.6,2.8-.6,4.1-1.4,19.4-12.3,42.6-16,60-31.1,6.6-5.7,11.1-12.3,13-21,1.1-4.9-6.3-16.2-6.1-22.5l-14.2-25.3c2.2.3,2.7-2.7,3.7-3,1.5-.4,3.7.2,5.5-.2,3.2-.8,5.3-2.8,7.5-3.5,7.5-2.2,8.3.5,14.8-6.2,11.1-11.6,11.8-20.5,16.5-34.3.4-1.1,2.3-1.2,3.2-3,1.5-2.9,2.9-9.2,4.3-12.8,2.4-6.1,6-9.1,5.3-17.3-.5-6.5-6.9-7.6-5.8-17.3.8-6.7,7.2-10.4,8.8-16.2,3.3-12,1.2-21.6-6.3-31.2-10.7-13.5-26.3-.9-35.5-13.5h-.9Z" style="fill: #ef4444;"/>
  </g>
  <g id="Layer_2">
    <polygon points="508.1 519.5 561 543 605.2 508 490 451.9 411.9 549 423.8 575.8 502.2 698.5 490 763.6 502.2 796.2 641 798.8 667.6 764.5 508.1 519.5" style="fill: #fdfefe;"/>
    <polygon points="547.3 551.2 715 800 753 798.8 770 761 671.2 625.8 575.4 554.1 547.3 551.2" style="fill: #fdfefe;"/>
    <polygon points="432.9 441.1 517.9 379.4 531.3 390.8 508 434 468 429.3 446 463.7 432.9 441.1" style="fill: #fdfefe;"/>
    <polygon points="525.1 451.9 559 367.1 623.5 395.9 568.1 481.2 525.1 451.9" style="fill: #fdfefe;"/>
    <polygon points="582.3 482.3 620.2 504.8 599 536 603.5 541.5 682 458 637.5 394.5 582.3 482.3" style="fill: #fdfefe;"/>
    <polygon points="619.8 551.2 703.2 455 713.4 518.4 640.2 579.1 619.8 551.2" style="fill: #fdfefe;"/>
    <polygon points="653.2 581.9 666.6 596 733.5 579.1 726.8 529 653.2 581.9" style="fill: #fdfefe;"/>
    <polygon points="676.9 617.8 699.6 649.1 713.4 593 676.9 617.8" style="fill: #fdfefe;"/>
    <path d="M354.5,408c3-1.5,147.5-127,147.5-127l6.1,48.5-5.4,32.7-83.3,66.9-64.8-21.1h-.1Z" style="fill: #fdfefe;"/>
    <path d="M464.8,235.5c2.5,1.9,16.5,13.6,17.7,15.3s.6,3,2.6,5c2,2,3.1,2.2,4.8,2.9,1,1.8-3.8,7.3-5.1,8.7-5.2,5.7-16.2,16.6-22.1,21.3-27.7,22.2-54.9,45-82.5,67.2-8.6,6.9-17.4,13-26.1,19.8s-13.9,13.6-17.8,15.2c-7,2.9-6.8-2.7-9.3-6-17.2-23.2-23.3-28.9-23.7-60-.9-71,58.5-120.6,128.8-103.9s25.7,8.8,32.8,14.3v.2Z" style="fill: #fdfefe;"/>
  </g>
</svg>