<?xml version="1.0" encoding="UTF-8"?>
<svg id="Layer_1" xmlns="http://www.w3.org/2000/svg" version="1.1" viewBox="0 0 1024 1024">
  <!-- Generator: Adobe Illustrator 29.6.0, SVG Export Plug-In . SVG Version: 2.1.1 Build 207)  -->
  <g id="Layer_11" data-name="Layer_1">
    <path d="M868.9,699.5c.6-3.7-.8-6.9-.6-9.8,0-2,1.6-4.3,1.6-6.2s-2.9-8.4-4-9.8c-2.1-2.6-10.1-6.8-13.3-6.7-13.4,4-27.1,6.4-40.8,9.3-7.6,1.7-14.2,5.4-22.6,3.6-2.2-4-.7-6.8.7-10.5,1.2-3.2,8.6-18.5,10.3-20.7,2.3-3,8.2-6.3,10.9-9.1,6.1-6.3,8.4-19.6,11.4-27.6,1.2-3.3,5.1-7.3,6.1-10.9,2.5-9.2.6-23.6,3.7-34.3,1.5-5.3,5.3-8.8,5.7-15.4.4-6.3-8.6-36.8-12.5-42.3-3.8-5.4-11.8-8.2-18.2-9.8-3.3-.9-7.5,1.4-7.4-3.7,0-2.1,3.2-7.3,4.1-10,2.9-8.5,7-19.3,8-28,1.7-15.8-.5-12.6,7.2-26.8,1-1.9,1.4-6.3,2.8-7.2,1.9-1.4,9.2-1.9,11.9-3.1,8.4-3.5,11-12.2,12.6-20.4,1.5-7.5.5-11.7.6-18.5,0-3.1,1.8-7.1,1.9-10.1,0-2.7-1.3-5.1-1.1-7.9.2-2.5,1.9-4.1,2-6,.2-2.4-1.6-6.3-1.9-9.1-1-9.7,3.8-12.9,4.8-21,.4-3.3-.2-6.6,0-9.9.6-6.3,2.7-12.1.5-18.5-3.6-10.5-11.9-11.9-22-11-3.1.3-14.8,4-16.4-.6-.4-1.1,2.7-13.5,3.4-15.4,2.9-8.3,5-9.6,6.6-19.4,2.5-14.4,1.6-25.3-1.7-39.6-1-2.6-11.4-11.6-14.3-12.5-10.8-3-14.9-.3-24.7,1.3-5.7.9-11.8,2-17.2,2.8-8,1.2-17.8,2.8-25.8,3.2-3.4.2-3.5-1.5-3.4-4.4.4-11.3,7.1-20.3,10.6-30.5,3.3-9.7,1.4-18.9,1.4-28.5s1.3-3.5.9-5.8c-.6-3.6-5.6-6-7.3-8.8-1.4-2.4-1.1-5.7-3.5-7.5-5.1-.2-11.7-2.4-16.5-2.3-3.7,0-10.5,2.4-15,2.8s-9.5-.5-13.9,0c-5.3.7-9.6,5-17.1,5.9-10.9,1.3-15.2,2.5-25.5,5.5-6.1,1.8-11,2.7-16.2,5.3s-9.2.7-12,1.5c-5,1.3-10.2,5.6-14.7,7.3s-11.1,2.6-15.8,4.2c-6.2,2-21,8.8-26.5,7.1s-3.1-15.4-2.2-19.9,2.2-5.5,2.6-8.4c1.1-9.3,0-19.5-9.7-23.3-5.1-1.9-19.6-3.7-24.6-2-14.4,4.9-28.8,8.4-43.8,12.2-4.3,1.1-8,4.1-11.7,5.3-6.7,2.1-14.7,1.3-22.5,3.5-15.5,4.5-31.3,8.3-47.1,11.9-2.7.6-4.9,3.8-8,5-7.8,3-17,3.9-25.1,7.9-9,4.5-16.2,5.9-24.4,9.6-12.6,5.8-25.7,12.8-38.2,18.8-2.9,1.4-6.6,5.5-10.2,6.8-3.1,1.2-6.7,1-9.9,2.1-15.2,5-33.8,19.5-49.1,26.9-8.1,4-10.2,5.6-17.6,10.4-6.4,4.1-13.7,6.9-20.2,10.8-4.8,2.9-17.5,10.5-21.2,13.8-1.9,1.7-11.5,12.9-12.2,14.8-1.6,4.3-1.1,11.3-2,16-2.6,13.5-10.2,25.5-3.8,39.3,4,8.6,16.1,5.7,23.5,6.4,3.3.3,6.7,1.6,10,2,2.1.3,11.3-1.2,10.5,2.5-.5,2.4-14.9,11.8-17,15-9,4.5-18.8,9.2-27.9,14.1-13.3,7.3-14.5,12.2-24.2,20.8-3.5,3.1-9.2,5.4-12.9,8.1-16.4,12.7-11,34.1-14.3,51.7-.8,4.2-3.3,4.7-4.5,7.5-1,2.1-1.5,6.4-1.3,8.7.5,5.7,4.6,7.1,6.1,10.9,2.7,6.6,3.4,15.1,5.2,21.8,2.2,8,9.6,14.2,18.2,13.8,10-.4,27.2-2.1,36.8-4.3,6.9-1.6,19.9-8.6,25.4-8.7,1.3,0,5.2,1.7,5.4,2.7,2,16.2-15.9,12.6-18.6,28.3-2.2,12.6,8.2,15.7,5.3,25.4-.4,1.3-11.5,14.1-13.2,15.7-2,1.9-4.3,2.4-6,4-9.1,8-20.9,24-20.6,36.5.2,8.3,6.7,12,7.9,17.2,1.5,6.7.3,15.9,1.4,21.5,1.2,6.3,8.6,14.6,9.6,19.5,1.4,7-3.3,9.5,3.5,17.9,5.8,7.2,2.8,4.1,5.4,12.1,1.2,3.7,4.4,5.1,6.1,7.9,4.1,6.7,5.5,12.8,13.2,17.8,3.5,2.3,11.3,3.2,12.8,8.2,1.8,6.2-1.9,17.7-5.8,22.8-2.1,2.7-8.1,6-8.8,8.2-1.4,4.6-.3,11.9-1.3,16.7-1.7,8-5.1,9.8-1.3,19.5,1.2,3.1,5.6,8.1,6.2,10.8,3.5,15.6,4.1,27.6,14.8,41.2,7.3,9.3,15.6,5.4,25.9,6.1,12.7.9,22.2,3.9,33.5,8.5,8.7,3.6,20.2,3.9,29.2,1.2,3.9-1.1,8.1-4.2,12.4-4.7,3.5-.4,5.8,1,8.9,1,6.2,0,12.6-4.2,18.1-5,5.4-.7,10.9.7,15.7.6,8.8-.3,19-9,24.4,2.1,4.7,9.7,6.3,33.3,12.8,39.3,3.1,2.9,12.9,7.4,17.1,7.9,5.4.6,19.9.4,25.4-.4,5-.7,10.3-4.1,14.7-4.3,23.1-.8,40.4-6.7,62.8-11.2,2.4-.5,5.1.2,7.7-.3,12.6-2.6,27.6-13,39.4-13.4,11.3-.5,8.2-1.1,17.8-4.4,18.3-6.3,39.8-9.4,57.5-15.5,3.8-1.3,5.9-4.3,10.2-5.8,12.1-4.1,30.7-7.8,43.2-9.8,16.1-2.6,36.8-12.9,51.6-20.4,8.5-4.3,17.1-8.5,25.7-12.3,8-3.5,26.2-4.5,32.3-9.7,4.7-4,8-12.3,14-16,6.1-3.8,23.3-4.4,27.4-9.6,1.4-1.8,1.9-4.6,3.5-6.5,1.5-1.7,4.9-2.7,5.7-3.8,1.4-1.8,1-6.3,1.8-8.7,1-2.9,3-5.6,4-9,1.7-5.4,2-11.8,4-17,1.6-4.1,6.9-8.4,7.3-11.7.2-2.1-3.5-5.2-3.6-8,0-1.6,2.3-3.3,2.7-5.9l.3.8Z" style="fill: #06b6d4;"/>
  </g>
  <g id="Layer_2">
    <polygon points="216.8 613.3 258.1 729.3 331.6 726.1 500.8 776.4 605.3 770.6 735 680 797 578 790.5 542.8 728 543.5 686 617 685.5 630.1 673.5 627.4 596 666 593 676 577.8 667.9 448 667 446 647 483 642.2 576.5 642 614.4 604.4 594 578 496.1 581.3 482 591 376 526 216.8 613.3" style="fill: #fefdfd;"/>
    <path d="M518.4,542.8l-167.4-153.7,5-119,127-35.4,50.1,33.9,36.9-44.5,165,47s-43,141-42,145-174.6,126.8-174.6,126.8h0Z" style="fill: #fefdfd;"/>
  </g>
</svg>