<?xml version="1.0" encoding="UTF-8"?>
<svg id="Layer_1" xmlns="http://www.w3.org/2000/svg" version="1.1" viewBox="0 0 1024 1024">
  <!-- Generator: Adobe Illustrator 29.5.1, SVG Export Plug-In . SVG Version: 2.1.0 Build 141)  -->
  <g>
    <path d="M616.7,106.4c6.9,6.2,2.7,7.6,1.6,13.4-2.3,11.6-2.6,10.8-7,21-2.2,5.1-11,25.3-5.3,28.8s20.9-2.7,25.6-3.4c10.9-1.5,18.9-1.5,29.1-5,6.5-2.3,16.8.4,22.5-2.1s.8-1.9,1.4-2c2-.2,7,1.2,9.6.8s6-3.8,6.3-3.8c1.9,0,4.7,1.5,8,1.1s1.3-1.9,2.1-2.1c9-1.9,20.5-1.8,29.8-3.1s4-1.4,6-2l1.5,2.1.6-2.1c1.5,0,8.7,3.9,10,5.1s6,6.9,6.4,7.6c4.1,7.5-2.5,14.8-3.6,22.1s.3,7.2-.7,10.3-5.9,7.2-6.6,9.4c-1.3,3.8-.3,7.6-1,11s-1.7,2.7-2,5-.7,9.9,4.1,9.2c7.3-1.1,15-3.3,22.4-3.7s8.8,1,13,1.1c6.4.1,13.8-1.5,20.8-.7s20.7,4.9,22.2,9.6c0,7.1,3.5,14.6,3.5,21.6s-2,6.8-2.1,10.1c-.3,11.4,2.3,14.2,0,28-1.3,7.8,3.4,10.7,3,16s-3.6,6.1-3.9,10.2c-.4,7.7,2,16.7.3,24.3s-4.1,10.1-4.5,10.5c-1.1,1.3-9,5.2-11.1,6.9-3,2.4-3.5,5.2-5.3,7.2-6.4,7.1-8.4,7.7-13.3,16.2-3.8,6.7-6.5,7.8-11.1,12.5s-4.1,7.6-5.3,11.6c2.8.3,5.9-.4,8.6,0s5.7,2.7,9.9,2.9c10.3.4,20.6,1.3,31.2,1.8s3.5-.8,5.7-.6c3.9.4,10.5,4,10.5,8.4s-1,2.5-.7,3.9c.7,3.1,4.8,2,1.1,9.4s-1.8,1.1-2.2,2-4,13.9-3.9,14.6c.4,1.8,3.7,2.7,4.9,4.1,1.6,2,6.1,25.2,5.8,28.9s-2.7,10-2.6,13,3.2,5.7,3.7,8.2c.9,4.9.4,15.2-2.5,19.4s-4.2,3.3-5.9,5.1c-5.9,6.3-8.1,6.4-13.1,10.9s-3.8,4.4-6.7,7.1c-8.5,7.8-18,14.8-26.7,21.5s-5,3.6-7.1,5.9c9.9,9.2-7.5,16.2-9.8,24.8,3.4,8.6,8.4,6.5,15.1,7.9s19.1,3.9,21.7,6.3c4.3,4,.7,8.8,1,13,.1,2.5,2.1,4.1,2.7,6.4,1.2,5.2-5,18.4-7.8,23.4s-3,2.6-3.6,4.4c-5.1,14.8,6.9,11.9,17.1,13.3l1.6,2,.6-2,25.5,3.7c2.2,3.8,0,8.2.3,11.7.3,5.2,2.9,13.9.9,18.4s-6.4,12-8,18,.9,8.2.6,11.5c-.5,5.2-14.5,28.4-18.8,31.2s-8.2,2.2-11.3,3.7.3,1.1-4.7,2.3-5.1,2.8-6.8,3.5-4.9.6-7.2,1.6c-4.8,2.1-13,7.9-17,9s-8.2.6-12,2c-15.3,5.3-30.9,10.7-46.7,15.3-6.2,1.8-11.4.6-15.6,1.2s-10.9,7.3-12.9,8.3c-10.3,5.2-18.2,3.5-27,5.7s-1,2.2-3.1,3.1-6.4.8-9.5,1.5c-4.7,1.2-12.8,4.9-16.7,5.3s-4.6-1-5.8-.8-3.1,3-4.9,4c-11.9,6.4-26.7,6.5-39,9.8s-.6,1.9-1.3,2c-6.9.3-4.7,1.8-10.1,4.8s-21.7,7.1-27.1,7.9c-9.2,1.5-18.4,2.6-27.5,4.5-6.5,1.3-17.2,8.6-25.5,9.6s-5.5-1.5-8.5-.6-3.7,3.4-5.8,4.2c-7.4,3.1-13.2.4-19.5.7s-7.5,3.2-10,3.8c-15.1,4.1-35.9,3.2-50.2-2.7s-11-10.2-11.1-16.7,5.8-15.5,1.8-19-8.8.8-13.6,1.4-13-.2-18.7,1.1-.6,1.8-1.4,2c-10.2,2.3-17.2-.1-28.3,3.5s-11.9-1-14.5-.4-1.1,2.6-2.2,2.9c-7.3,1.8-15.2-.8-21.9-.1s-.9,2-2.9,2.2c-12.1,1.2-23.3-1.3-30.6-11.6s-2-5.6-3.5-7.5-4.2-2.9-6-5c-5.2-6.1-14.5-19.6-17.2-26.8s-3.2-17.5-6-23-5.3-2.7-6.1-4.9c-1.8-5.5-1.2-14.3-2.2-19.8s-1.8-2.8-2-5c-.7-6.2,4.3-13.4,7.3-18.8s3.8-7,5.4-9.6c3.5-5.8,10.3-13,12.9-19.1s.9-2.5.4-3.9c-4.7-.3-7.1-6.5-10.8-7.7s-8.5,0-12.5-.5-2.9-1.5-4.3-1.7c-8.3-1.4-14-.7-19.7-7.3s-2.1-.8-2.3-1.2c-.6-1.1.1-3-.3-4.2-3-9.9-10.3-21.2-11.7-31.3s.8-6.3.5-7.6-4.6-7.1-5.6-9.3c-2.7-5.9-8.1-17.6-9.7-23.3-2.4-8.8-3.3-15.3-6.7-24.3s-2.4-2.2-2.7-4.3c-2.3-12.2,10.3-16.8,17-24s9.7-13.8,16-20,7.3-7.7,12-13,12.5-8.7,14.5-15.4c3.1-10-8-4.5-13-4-13.3,1.2-27,.1-40-.9s-16.9-1.1-19.1-8,0-4.8-.6-5.9-2.2-.9-3.3-2.2-4.9-9-5.1-10c-.6-2.5.6-3.6.6-5.5,0-4-7.3-7.3-8.6-12.4s1.7-5.1,1.5-6.4-5.3-6.2-6.3-7.3c-2.6-3-5.6-4.5-7.5-9-2.8-7.1-1.9-19.2-3.2-26.8s-3.2-3.5-1.4-8.5,7.8-6.4,11.1-9.3,5.1-8,7.8-10.7,6.8-4,9-6,5.2-7.9,6.9-9.1,5.3-.5,6.1-1.9,0-3.7,1.4-5.6c2-2.8,8.4-4.6,10.5-6.5s5-6.5,6.6-8.5,7.3-10.4,9.7-12.5c4.1-3.5,13.8-7.4,19.1-10.6s2.9-3.1,4.8-4.2c4-2.4,15.9-7,18.2-9.8,4.7-5.5,2.2-6.5-.1-11.7s-.4-3.5-1-4.4c-1.6-2.6-8.1-8.2-11-12.5s-7.4-11.9-7.7-14.3c-.8-5.4,1.5-10,4.5-14.4,5-7.2,8.7-7.3,15.6-11.2,12.9-7.3,26.5-13.4,39.8-20.4,2.7-1.4,8.5-2.9,10-4s1.3-3.6,2.7-4.5c3.5-2.3,11.3-3.6,15.3-5.4,10.3-4.6,20.1-11.4,31-15s8.4-1.4,12.2-2.8c13.1-4.9,25.5-14.6,40.5-18.5,17.2-4.4,32.3-11.8,49.5-17.5,20.8-6.9,41.4-13.5,62-21,5.4-2,12.3-1.6,17.4-3.5s12.1-6.1,18.1-7.9,17-.1,21.6-4.2c4.4,2.7,4-.6,5.9-1.3,3.7-1.4,9.4-.7,12.9-1.9s.7-2,1.3-2c13.3,0,25.2-3.9,38-3s9.4.9,12.1,3.4ZM653.7,234.3c-2.9-4.4-18.1-3.5-23.2-3.3-7.6.4-28.7,1.6-34.8,3s-.2,1.9-2.1,2.1c-31,3.3-62.8,2.3-94.1,5.9-11.8,1.4-13.8,1.8-19.7,12.3s-13.7,30.4-20.6,44.4c-26.3,53.6-52.7,107.4-79.8,160.2-9.2,17.9-20.1,35.4-27.9,54.1s-5.8,13.4-.4,20.3,9.4,3.4,14.4,3.6,15.3.2,20.8-1,.6-1.9,1.3-2c2.1-.4,5.8,1.5,8.9,1.1s.9-1.1,5.8-1.5c13.5-.9,28.6-5.5,42.2-7.6s17.3-3.3,22-1.1c11.3,5.3-1.6,22.2-4.8,29.4-10.9,24.7-19.2,50.5-28.1,75.9s-14.4,31.7-20.1,48.7c-5.3,15.9-14.9,32.6-19.1,47.1-1,3.4-.8,7.6-2,11-4.8,13.8-16.9,35.6-15.5,49.5s3.2,12.8,10,11c10.4-2.8,13.9-13.8,19.6-21.5,15.1-20.5,31.6-41.3,47.4-61.6,43.4-55.9,88.6-111.2,132-167,6.9-8.9,14.4-18.2,21-27,2.5-3.2,3.8-8.8,6-12s5.9-4.3,7.5-6.5c4.4-5.9,8.3-11.2,12.9-17.1,14.3-18.3,27.5-37.8,42-56,1.1-4.8,1.5-10-2.5-13.4s-5.6-3.4-6.5-3.5c-1.9-.2-8.8-.2-10.9,0-26.9,1.7-54.1,6.6-81,8-15.5.8-17.3-5.1-10.7-17.7s18.3-27.3,26-41c11.9-21.2,22.5-45.2,35-66,7.7-12.7,16.6-25.1,23.7-38.3s8.2-18.2,5.2-22.8Z" style="fill: #aecc00;"/>
    <path d="M653.7,234.3c3,4.6-2.7,18-5.2,22.8-7,13.2-16,25.6-23.7,38.3-12.5,20.8-23.1,44.8-35,66-7.7,13.7-19,27.4-26,41s-4.7,18.5,10.7,17.7c26.9-1.4,54-6.4,81-8,2.2-.1,9-.2,10.9,0s5.7,2.8,6.5,3.5c4,3.4,3.6,8.6,2.5,13.4-14.6,18.2-27.7,37.6-42,56-4.6,5.9-8.6,11.2-12.9,17.1s-5.6,3.7-7.5,6.5-3.5,8.8-6,12c-6.7,8.8-14.1,18.1-21,27-43.4,55.8-88.6,111.1-132,167-15.8,20.3-32.3,41.1-47.4,61.6-5.7,7.7-9.2,18.7-19.6,21.5-6.8,1.8-9.5-5.3-10-11-1.4-14,10.7-35.7,15.5-49.5s1-7.6,2-11c4.3-14.5,13.8-31.1,19.1-47.1,5.7-17,14.4-32.6,20.1-48.7,8.9-25.4,17.2-51.2,28.1-75.9,3.1-7.1,16.1-24.1,4.8-29.4s-16.3.3-22,1.1c-13.7,2.1-28.8,6.6-42.2,7.6-4.9.3-4.4,1.3-5.8,1.5-3.1.3-6.8-1.5-8.9-1.1s-.5,1.9-1.3,2c-5.5,1.2-15.3,1.3-20.8,1s-10.7,1-14.4-3.6c-5.4-7-2.5-13.3.4-20.3,7.7-18.7,18.7-36.2,27.9-54.1,27.1-52.8,53.5-106.6,79.8-160.2s13.3-31.5,20.6-44.4,7.9-10.9,19.7-12.3c31.2-3.6,63-2.6,94.1-5.9,1.9-.2,1.3-1.9,2.1-2.1,6.2-1.4,27.3-2.6,34.8-3s20.4-1.1,23.2,3.3Z" style="fill: #aecc00;"/>
  </g>
  <polygon points="449 255 690 221 569.5 463 727 444 462 772 419 772 512 530 374 560 343 526 449 255" style="fill: #fff;"/>
</svg>