<?xml version="1.0" encoding="UTF-8"?>
<svg id="Layer_1" data-name="Layer 1" xmlns="http://www.w3.org/2000/svg" version="1.1" viewBox="0 0 254.5 46.5">
  <defs>
    <style>
      .cls-1 {
        fill: #c52b67;
      }

      .cls-1, .cls-2 {
        stroke-width: 0px;
      }

      .cls-2 {
        fill: #292f5b;
      }

      .cls-3 {
        isolation: isolate;
      }
    </style>
  </defs>
  <g class="cls-3">
    <path class="cls-2" d="M17,1.3c5.4,0,9.4,1.4,12.1,4.3,2.7,2.9,4,6.4,4,10.7s-1.4,7.7-4.1,10.5c-2.8,2.8-7,4.1-12.7,4.1h-6.4v14.7H0V1.3h17ZM16.6,22c4.1,0,6.3-2.6,6.3-5.8s-2.3-5.8-5.9-5.8h-7.1v11.6h6.7Z"/>
    <path class="cls-2" d="M47.3,45.7h-9.4V0h9.4v45.7Z"/>
    <path class="cls-2" d="M79.3,12.8h8.9v32.9h-8.9v-3.4c-2.8,2.8-6.2,4.2-10.1,4.2s-8.6-1.7-11.6-5c-3.1-3.4-4.6-7.5-4.6-12.5s1.6-9,4.6-12.2c3.1-3.2,7-4.9,11.6-4.9s7.3,1.4,10.1,4.3v-3.5ZM64.7,35.4c1.6,1.7,3.6,2.5,6.1,2.5s4.4-.8,6.1-2.6c1.6-1.7,2.5-3.8,2.5-6.2s-.8-4.4-2.5-6.1c-1.6-1.7-3.6-2.5-6.1-2.5s-4.4.8-6.1,2.5c-1.6,1.7-2.3,3.7-2.3,6.1s.8,4.5,2.3,6.2Z"/>
    <path class="cls-2" d="M98.6,41.6c-3.2-3.2-4.9-7.4-4.9-12.4s1.6-9.2,4.9-12.4c3.3-3.2,7.5-4.9,12.7-4.9s12.8,3.4,15.5,9.4l-7.5,4c-1.9-3.1-4.5-4.7-7.8-4.7s-4.4.8-6.1,2.5c-1.6,1.6-2.4,3.7-2.4,6.1s.8,4.6,2.3,6.2c1.6,1.6,3.6,2.4,6,2.4s6.4-1.9,7.7-4.6l7.6,4.5c-2.9,5.3-8.7,8.8-15.6,8.8s-9.4-1.6-12.6-4.8Z"/>
    <path class="cls-2" d="M163.6,32.4h-24.2c1.1,4.1,4.1,6.2,8.9,6.2s7.1-1.1,10.3-3.2l3.7,6.4c-4,3.1-8.8,4.6-14.4,4.6s-10.3-1.7-13.4-5c-3.1-3.3-4.6-7.4-4.6-12.2s1.6-9.1,4.8-12.3c3.2-3.3,7.4-4.9,12.5-4.9s8.8,1.5,11.9,4.4c3.1,2.9,4.7,7,4.7,12.1s-.1,2.5-.3,4ZM139.4,25.7h15.5c-.9-3.8-3.7-6.1-7.6-6.1s-6.9,2.3-7.9,6.1Z"/>
  </g>
  <g class="cls-3">
    <path class="cls-1" d="M177.9,7.3c4.5-4.5,10-6.7,16.5-6.7s12,2.2,16.4,6.7c4.5,4.4,6.7,9.8,6.7,16.3s-2.2,11.8-6.7,16.3c-4.4,4.4-10,6.6-16.6,6.6s-12.1-2.2-16.5-6.6c-4.4-4.4-6.6-9.8-6.6-16.2s2.2-11.9,6.7-16.3ZM203.6,32.9c2.5-2.5,3.7-5.6,3.7-9.4,0-3.8-1.3-7-3.8-9.4-2.5-2.5-5.5-3.8-9.1-3.8s-6.7,1.3-9.1,3.8-3.7,5.6-3.7,9.4,1.3,6.8,3.7,9.4c2.5,2.5,5.5,3.7,9.1,3.7s6.7-1.3,9.2-3.7Z"/>
    <path class="cls-1" d="M220.3,38.4l5.4-7.1c3.3,3.9,7.3,5.9,12.1,5.9s5.8-1.6,5.8-4-1.3-3-3.8-4.1l-4-1.4c-2.5-1-4.4-1.8-5.7-2.5-4.7-2.6-7.1-6.4-7.1-11.2s1.4-7,4.4-9.5c2.9-2.5,6.8-3.8,11.4-3.8s10.9,2,15.1,5.9l-4.9,7.4c-2.6-2.5-6.7-4-10-4s-5.3,1.5-5.3,3.7,1.2,2.8,3.6,3.9l4.3,1.7c2.3.9,4,1.6,5.1,2.1,5.3,2.4,8,6.2,8,11.3s-1.6,7.4-4.7,10c-3.1,2.6-7.1,3.9-12.2,3.9s-13.3-2.8-17.4-8Z"/>
  </g>
</svg>