<?xml version="1.0" encoding="UTF-8"?>
<svg id="Layer_1" xmlns="http://www.w3.org/2000/svg" version="1.1" viewBox="0 0 1024 1024">
  <!-- Generator: Adobe Illustrator 29.5.1, SVG Export Plug-In . SVG Version: 2.1.0 Build 141)  -->
  <g id="Layer_11" data-name="Layer_1">
    <path d="M852.5,696c-.9-3.2-4-6.2-4.3-10.8-.2-3.3,2.8-5.5,2.9-8.8,0-4.7-3.7-7.9-7.9-9.2-16.6-5.2-29.9,2.2-45.2,6.3-6.5,1.7-14.8,2.8-21.4,4.5-.9.2-.7,1.8-1.2,2-2.1.6-5.5-3.4-5.6-5.5-.2-3.6,2.3-4.9,3.3-7.8,2.6-7.1,5.8-21.3,8.9-27.1,1.6-3,5.4-4.2,6.8-6.2,2-3.2,3.2-10.9,6.1-14.7,1.4-1.8,5.2-3.3,7-5.2,2.9-3.1,4-8.7,5.3-10.2,1.4-1.7,4.9-.5,5.7-5.8.8-5.2-1.6-6.3-2.7-10.2-1-3.5-1.5-8.1-2.8-11.2-1.2-2.9-5.1-6.2-5.5-8.5-1.7-9.4,1.5-23.1-3.2-30.8-1.9-3.1-5.9-4.9-4.7-9.6,7-2.5,14.3-4.3,21.1-7.2,1.7-.7,4.6-1.7,5.6-2.2.2,0,.3-2,2.1-2.3,1.5-.3,3.4.8,3.9.5.6-.4,6.3-7.7,7.7-8.9,3.5-3,11.1-5.2,13.5-8.5,2.3-3,1.2-8.3,2.7-11.3,1.6-3.4,2.3-3.9,4.2-8.8.9-2.4,3.2-3.5,4.3-5.7,5.9-11.9.2-14.6-1.2-24.3-.7-5-2.8-18.8-2.9-22.9,0-3,1.3-5.5.6-9.8-1-5.9-6-7.9-6.7-12.3-.9-5.6,1.9-9.4,1.8-13.8,0-2.7-2.6-11.7-3.9-14.2-3.5-6.7-11.3-4.8-17.2-6.7-1.8-.6-3.2-2.2-5.1-2.9-4.7-1.7-23-7.5-23.7-12.4-.3-2,1.1-10,1.8-12.2.4-1.2,8.9-17.6,9.7-18.3,1.4-1.3,3.6-.7,5-2,4.6-4.1,3.3-14.5,4.9-20.1.7-2.3,3.5-2.4,4.2-4.9.4-1.3-.5-2.9-.3-4.3,1.1-6.6,4.9-17.9,3.5-24.1-.2-.7-3.8-9.5-4.4-10.6-1.4-2.9-5.8-6.6-6.1-9.7,0-1.1,0-10.7,0-11.8.2-1.7,2.1-3.4,2.5-5.3,1.4-6.5-2.6-9.6-6.8-13.8,5.8-2.5-2.2-8.8-6-10-20.2-6.5-37.8,3.9-57.5,3.6-18.2-.3-4.8-15.3-3.5-22.6.8-4.5,1.8-13.3,2.1-17.9.3-5,1.2-17.4-2.7-20.4-6.6-5.1-13.3-3-19.8-4.2-2.7-.5-5.3-3.6-9.2-3.9-2.4-.2-24.9,2.5-27.6,3.2-4.6,1.3-10.7,5.6-15.5,6.5-4.3.8-7.9-.7-11.3-.3-5.1.6-12.1,6.1-16.7,7.3-6.5,1.7-12.7.9-20,3.1-8.5,2.7-20.3,5.5-29.2,7.6-6.2,1.5-12.9,1.5-19,3.5,3.4-13.8,6.2-28,8.2-42.2.2-1.7,1.5-3.4,1.7-5.3.6-6.1,1.8-20.7-4.2-23.6-7.4-.5-14.8-7.5-22-5.5-2.5.7-4.6,3.8-8.5,4.5-5,.9-10.5-.4-15.5.5-13.9,2.4-30.3,8.9-43.5,13.5-4.9,1.7-10.9,1.9-16.2,3.8-10.5,3.6-22.3,11.1-33,15-16.9,6.2-34.9,10.2-52,17-6.1,2.4-14.4,7.9-20.5,9.5-7.2,2-13.1,2.4-20.3,5.7-7.3,3.4-13.5,8.7-20.6,12.4-21.1,11-42.4,20.6-64.1,29.9-5,2.2-11.5,8.2-16.7,10.3-3.2,1.3-7.5,1.4-11.2,2.8-7.8,3.1-16.8,11.1-22.5,13.7-2.2,1-5.7.6-8.6,2.2-5.4,3-11,15.2-16.8,19.2-3.6,3.9-.3,11.4-1,14-1,3.9-6.9,3.4-3.3,12.7,6,15.7,14.1,22.2,26,33,1.7,1.6,6,1.9,5.3,5.3-.7,3.1-10.9,7.5-12.8,11.1-10.4.9-15.3,14.6-22.9,21.1-8,6.9-13.9,14.5-21.2,20.8-9.5,8.2-16.3,16.5-24.9,24.1-2.2,2-7,3.7-8.7,5.8-2.1,2.5-1.9,6.3-3.5,9.1-2,3.6-6.3,4-7.4,8.6-1.7,7.4.2,11.1,1.4,17.6,2.8,15,3.9,11.8,10.9,23.1,4.5,7.2,6.5,17.8,9.7,25.3.9,2.1,5,3.7,5.3,4.2.6,1.1,0,3.6.8,5.7,3.1,8,8.7,14.7,18,15.1,4.2.2,17.7-.5,22-1,8-1,23.5-13.1,31.5-10.6,8.2,2.5,2.7,10.5-.5,14.6-11.6,14.8-42.4,36.8-48,52-4.6,12.3,6.7,21.1,4.1,29.1-.4,1.3-2,2.4-2.4,3.7-1.6,6.3,9.1,19.9,10.4,27.2.5,2.5-.6,4.5-.2,6.1.6,2.2,4,4.1,4.4,6.7.6,3.1-.3,12.1.2,15.7,1.7,11.8,3.6,12,9.3,20.7,1.9,2.9,1.6,6.4,1.8,6.7,3,4.6,19.1,9.5,24.3,9.3,4.2-.2,7.6-4.2,13-4.1,9.7.2,13,8.3,6.6,15.3-3.3,3.6-8.3,2.4-11.6,5.7-1.9,1.9-3.1,5.6-5,8-5.3,6.5-12.6,11.1-12.5,20.6.2,10.3,10,42.3,16.4,50.1.9,1.1,2.9,1.6,4.1,3.4.4.6,3.9,7.6,4,8,.3,1.2-1.8,3.3-2.1,4.9-1.2,5.8,7.4,15.5,9.8,21.3,2.2,5.2-.5,8.2,7.4,9.6,6.6,1.2,13.7-.6,18.8,0,2.2.3,4.3,2,6.5,2.5,17.5,3.7,36.6,1.3,54.6,2.4,8.5.6,15.1,2.6,25,2,9.8-.6,12.9-.7,22.8-.3,10,.4,21.5-3.2,31.7-3.7,1.5,12-4.7,20.9-1.3,32.8,1,3.5,4.5,7.4,4.9,10.1.5,3.2-4.6,8.6,3.9,10,2.7.4,25.5,2.4,26.8,2,.8-.2.6-1.9,1.3-2,1.7-.2,6.3,1.3,9.9,1,7.1-.5,16.1-5.8,22.1-6.9,7.6-1.5,16.5,1.6,24.7-1.3,15.5-5.6,30.8-5.6,45-10.8,9.8-3.6,15.6-2.6,24-5.2,27-8.4,56.8-12.5,82.8-22.2,13.3-5,27.9-8.5,41.4-12.6,8.7-2.6,19.2-6.8,27.3-10.7,3-1.4,5.4-4.5,8.3-5.7,4.3-1.9,8.1-.8,11.8-2.2,2.7-1.1,6.4-5.6,10.1-6.9,5.1-2,10.2-.4,14.3-1.7,2.5-.8,2.5-3,3.1-3.3.3-.2,2.1.7,3.6,0,17.8-6.9,36-15.6,54-22.1,10.8-3.9,14.5-2,22.7-12.3,6.5-8.1,9.8-27.3,7.2-37.2-3.1-11.9-2.7-23-6.2-34.8h.1Z" style="fill: #ff9d00;"/>
  </g>
  <g id="Layer_2">
    <polygon points="326 273.3 385.9 255.9 433.3 436.5 481.6 474.3 688.6 440 712.6 498.7 690 552.7 392.4 552.7 310 496.7 361.3 444.7 326 273.3" style="fill: #fff;"/>
    <polygon points="466 579.8 393.7 767.4 378 766.6 412.2 572.3 466 579.8" style="fill: #fff;"/>
    <polygon points="606.6 583.6 686.5 769 702.4 769 661.3 572.3 606.6 583.6" style="fill: #fff;"/>
  </g>
</svg>