<?xml version="1.0" encoding="UTF-8"?>
<svg id="Layer_1" xmlns="http://www.w3.org/2000/svg" version="1.1" viewBox="0 0 1024 1024">
  <!-- Generator: Adobe Illustrator 29.6.0, SVG Export Plug-In . SVG Version: 2.1.1 Build 207)  -->
  <g id="Layer_11">
    <path d="M857,685.4c.5-4.9-3.4-11.1-3.1-16.3-5.7-.9-10.5-3.6-16.4-3.2-10.8.8-22,.9-32.8,2.2-2.9.3-6.6,2.7-7.9,2.6-3.3,0-13.1-5-14.2-8.7-3-9.8,4.5-10.5,6.8-16.3,1.4-3.4.2-6.5,1.2-9.8,1.1-3.6,5.7-5.2,6.3-6.2,1-1.8,0-5.4,2.2-8.3,1.8-2.3,5.6-2.7,7.9-4.1,12.6-7.4,18.9-11.7,28.6-23.4,2.5-3.1,6.5-4,7.5-9.5,2.4-13.5-5.9-31.5-5.7-43.9,0-3.8,2.3-7,2.7-10.1,1.5-11.3,3.1-30.6,2.1-41.9-.4-5-3.3-8.6-2.1-13.8-7-14.3-31.2-4.9-30.9-23.3,0-9.9,10.5-15.4,14.9-22.2,2.2-3.4,13.1-29,13.9-33.1,1-4.7,0-9.6.6-13.3.6-3.2,3.4-6.1,4.3-9.7,3.9-14.4-4.1-23.1-2.8-33.8.8-6.5,7.5-8.8,6.1-19-.5-3.7-3.1-4.7-3.8-7.2-1.7-6.2,0-15.5-5.9-20.1-5.8-4.6-23-5.6-30.8-5.9-3.1-.1-10.4,2.5-13-.2-3.6-3.8,1.2-10.1,2.2-13.8,1.4-5.1,1.7-11.6,5.3-16.5,1.7-2.3,4.8-2.6,6.5-6.8,1.1-2.7,3.3-14.8,3.1-17.7-.5-10.8-14-20.9-24.1-21.3-7.9-.4-22.4-.5-30.1.2-6.5.5-20.7,5.9-30.7,7.1-4.4.5-8.4,4.4-12.7-1-5.3-6.5,1.2-9.8,3.5-15.2,1.9-4.5,9.1-21.8,9.5-25.5.4-3.3.9-16.4,0-19-3.3-8.9-14.8-10.5-20.7-15.5h-2.7l-1.1,2-.5-2h-2c.4,3.7-2.4.7-5.2,1.2-4.9.8-11.8,4.2-15.4,4.8-3.1.5-5.5-1.1-7.8-.8-11.7,1.3-20.5,5.4-31.2,7.8-9.8,2.2-18.9,1.6-29.7,6.1-.7.3-.8,1.3-.7,1.9h-2v-2c-1.5-.4-.7,1.2-1.3,1.6-5.9,4.2-10.9,2-17.1,2.5-4.6.4-9.2,4.4-14.5.4-.3-.3-5.8-5.6-6.1-5.9-5.9-7.1-2.9-20.5-4.1-28.9-.2-1.3-3.5-12.2-4-13-1.4-2.2-19.3-13.3-22.5-14.5-11.4-4.2-12.3,1.1-21.4,3.5-10.9,2.8-25.1,2.7-36.2,5.7-4.3,1.2-10.6,5.9-13.5,6.5-5.8,1.3-15,0-20.5,1.5-2.8.7-6.5,4.7-9.1,5.9-11.4,5.4-22.1,4.2-32.7,8.3-5.1,2-11.4,7-16.8,9.2-6.9,2.8-15.9,4.2-22.9,7.1-5.6,2.4-10.6,7.6-14.6,9.4-7,3.1-17.2,5-25.1,8.9-11.1,5.6-21.9,14.3-33.3,19.7-7,3.4-19.5,6.4-25.3,9.7-2.3,1.3-4.1,4.4-6.9,6.1-21.7,12.6-49.4,25.5-68.8,40.7-1.5,1.2-15.2,16.8-15.6,17.9-1.3,3.8-1.4,21.7-.2,25.7,1.3,4.2,14.7,11.4,15.9,14,.5.9-.7,2.9-.5,4.4,1.7,10,22.8,15.1,10.9,24.1-17.9,13.5-38,29.6-54.6,44.9-11.3,10.4-28,35.4-27.4,51.1.7,17.8,5.8,19.9,13.2,32.8,1.4,2.4,1.9,9.1,3.3,12.7,4,10.3,15.7,37.1,26.2,40.8,8.5,3,7-.7,12.3-2.3,11.2-3.3,20-8.3,29.8-11.2,3.2-1,13.3-3.6,15.2-.3,1.3,2.2-5,5.4-6,6.7-1.4,1.8-1.9,5.1-3.6,7.2-4.3,5.3-16.4,14.2-19.4,19.6-1.9,3.4-2.1,8.7-4.3,11.2s-8.3,6-11.7,9.8c-3.3,3.7-15.7,21.4-16.7,25.3-2.9,11.3,4.5,15.3,7.5,23,1.5,4,.6,8.8,1.5,12.5.8,3.4,4.3,7.3,5.3,10.7,1.8,5.9,2,15.4,4.7,21.3,1.8,3.8,7.6,9.4,9.8,14.2,3.5,7.7,1.3,12.2,3.7,19.3,1.9,5.7,5.9,10.9,10.9,14,9.4,5.9,11.4,2.6,20.8,3.2,2.8.2,14.8,2,16.8,3,.4.2,4.2,6.6,4.3,7,2,6.3-4.9,12.4-8.1,18-1.1,2-1.1,4.7-2,6-1,1.5-4.5,1.9-6.5,3.5-7.4,6-16,20.3-15.1,30.1l20.3,36.8c-2.5,14.7,8.2,23.5,12,33,1.2,3.1.4,6.1,1.5,9.5,1.6,4.7,7.8,7.6,8.7,9.3,1.8,3.3-1.3,7.8,3.6,11.4,7.3,5.3,16.1,2.1,24.4,2.6,8,.4,17.5,3.7,24.1,4,6,.3,16-2.1,23-2,10.3,0,22.7,2.4,33.6,1.5,5.9-.5,32.2-8.1,34.3-7.4,1.9,1.2,3.2,4,3.4,6.2.1,1.7-1.3,15.1-1.7,17.2-1.8,9.3-10.9,17.9,1.4,24.8,14.5,8.1,63.7,2.6,80.9-1.5,7.9-1.8,7-1.9,15.2-2.7,32.5-3.4,64.6-14.3,95.8-22.3,4.2-1.1,9.7-4.9,12.5-5.5,28.7-6.4,42.8-11.8,69.8-22.2,18.1-7,37.3-11.7,54.8-18.2,4.8-1.8,9.4-7.4,14.5-8.5,26.4-6,44.1-10.5,69-21,5.9-2.5,16-5.4,20.9-8,2.4-1.2,9.4-13.5,10.7-16.4,8.1-19.1,1.3-32.9,3.7-52.3,1.9-15.4,9.4-32.7,10.9-48.2l-.2-.2h0Z" style="fill: #f97316;"/>
  </g>
  <g id="Layer_2">
    <path d="M722.9,318.9l-29.7-40-142.2,6.1-10.8,79-56.9-14.2-9.2-61.5-139.8,6-33.4,22.8v357.9l16.8,64.1,387.5,15.6,28.7-96.4-11.1-339.4h.1ZM437.6,444.3l16.9-22.2,5.3-43.6,101.3,16.8-.4,35.4,9.7,13.6v30.3l-12.4,8-14.2,41.4-58.7-5.2-18.5-27.5-29.1-23.5v-23.5h.1ZM627,633.6l-227.9-1.3-13.5-65.8,32.9-38.5,42.1,7.4,54.2,4.4,92.4-15.7,30.6,53.6-10.7,56h0Z" style="fill: #fff;"/>
    <polygon points="507.4 335.1 490.3 221.3 528.7 211.4 532 226.2 516.8 337.4 507.4 335.1" style="fill: #fff;"/>
  </g>
</svg>