<?xml version="1.0" encoding="UTF-8"?>
<svg id="Layer_1" xmlns="http://www.w3.org/2000/svg" version="1.1" viewBox="0 0 1024 1024">
  <!-- Generator: Adobe Illustrator 29.5.1, SVG Export Plug-In . SVG Version: 2.1.0 Build 141)  -->
  <path d="M569.2,136.8c3.2,3.4,10-3.4,13.1-4.9,8.8-4.3,23.1-11,32.4-12.6,6.7-1.1,7.4-.5,14.2-2.8,14.9-4.9,15.4-3.8,30.5-3.4,3.6,0,6.4-1.9,10.8-.9,7,1.6,9.6,15.2,9.8,21.3.4,12,.9,16.3,4.9,28.1s8.5,13.9,4.9,22.9c-1.6,4.1-9,12.8-9.7,15.3-1.4,4.7,1.2,7.7,6.1,7.1,8-1.1,18.8-6.1,26.9-8.1,7.1-1.8,27.3-7,33.3-6.6,6,.4,9.2,4.4,11.1,4.8s9.3-2.1,12.9-1.8c18.9,1.2,9.8,23.6,15.2,35.1,8.9,1.1,17.3-4.7,26-5s4.2.6,10.1-1,22.4-2.7,25.8-2.1,1.6.4,2.3,1.7c1.4,2.3,3.7,9.4,4.7,12.3,2.8,8.2,7.6,21,7.2,29.3s-2.5,7-2.5,9.1c0,4.2,3.8,9.4,4.5,13.4,1,5.8-2.6,24.7-5.4,30.2-5.9,11.7-10.7,9-20.1,13.9-9.9,5.2-8.7,10.6-13.3,18.4s-7.7,6.1-8.4,7.8c-2.1,4.5.9,9.6,2,13.9s-.3,7.2,2.1,8c4.5,1.5,19-6.4,23.9-6.9s10.7,2.1,15.3,1.1c.2,5.2,4.1,9.4,5.6,13.9,3.3,9.9,6.5,25,4,35s-.8,8.1-1.6,15.4c-.7,7.1-5.4,12.1-6.9,16.4-3,8.7-2.6,14.7-11,21.8-.8.7-15.4,8.5-17.5,9.5-5.7,2.7-31.2,7.6-32.4,12.7-.7,4.3,3.3,7.1,4.6,10,5.1,11.4,3.7,39.8,5.4,53.6.8,6.7,6.2,11.8,7.7,18.3s-.2,12.2.4,14.5,5,5.4,5.7,7.5,0,9.8-.1,10.6c-.5,3-3.4,6.5-4.3,9.6-1.3,4.8-1.2,9.5-3.2,14.8-6,15.6-21.6,23.2-36,29.5-1,5.9,1.1,11.4.9,17.4-.5,13.2-9.3,21.5-16.1,31.9,1.4,1.3,3.6-.5,5.4-.4s3.6,1.6,5.9,1.6c5.3.2,13.9-3.9,19.7-5.2,21.3-4.7,42.7-8.5,64.2-11.8,4.6-.7,6.4-3.6,11.7-.2s.6,13.2,2.2,18.7,7.4,5.1,8.6,10.4.6,10.2.3,12.8c-.7,5.1-8.2,12.3-13.1,14.1-.2,4.2,2.2,8.6,2,12.7s-3.8,18-6.2,22.9c-5.4,11.4-26,18.1-37.6,21.4-27.9,8-56.7,13.5-84.4,22.6-13.5,4.4-34.3,14.1-47.7,16.3-5.5.9-11.9,0-17.1.9s-8.3,3.6-11.7,4.3c-5.4,1-10.7-.6-15.6-.4s-10.5,3.4-15.3,3.5-9.3-1.7-13.4-1.4-9.4,2.4-13.7,3.3c-34.9,7.1-84,14.4-120.7,14.3s-6.7-2-9.9-2c-11.2,0-21.8,4.5-35,2.8s-7.4-2.9-11.1-2.9-11.9,2.6-17,3c-17,1.4-33.4-1.8-50-3s-16.3.7-24,0-12.7-1.9-23-2c-13.1,0-25.2-3.9-37.1-3.1s-15.1,1.2-28,0-11.1.8-16.5-.5c-10-12.6-19.9-25.4-27.2-39.8s-6.8-16.3-9.2-25.8-2.1-1.8-2.9-3.1c-5.1-9.1,1.6-20.4-.1-27.7s-7-9.1-9.1-12.9c-4.5-8-7.5-17.6-11-26s-7.2-12-6.5-21.5,7.7-20.5,11-24.8,20.4-2.4,21.1-11.2-2.1-11.5-4.8-12.4l-30.7,2.8c-4.9-.8-10.1-2.7-13.1-7-7.5-10.7-14.6-35.5-15.5-48.5s2.6-10.6-3.5-22.5-18.4-28.5-13.2-43.2c8.9-25.1,34.4-50.1,52.2-69.8,10-11,19.5-22.4,30.5-32.5,7.3-6.7,17.7-13.3,24.6-20.4s4.2-5,4.5-8c-.6-.6-11.2,4-12.7,4.8-15.5,8.2-24.2,18.1-37.4,27.6-3.5,2.5-8.7,4.5-12,7s-6.5,7.9-9.9,11.1-21.6,11.3-27.8,12.2-22.3,2.6-27.7,2.3-10-3.7-12.2-6.4-2-5.7-3.5-8c-3.2-5.1-8.7-10.9-11-16-3.4-7.6-7.3-22.1-6.8-30.2s7.2-21.1,11.1-27.9c8.5-14.6,34.5-36.4,47.8-48.2,24.5-21.6,49.5-40.3,75.9-59.1s11.7-10.2,12.1-10.9c4.8-8.3-9.2-10.8-10.1-17.1s3.6-15.5,6.2-19.8,24.4-29.8,28.3-32.7,7.5-3,11-5c7.9-4.4,13.9-15.1,21-21,4.9-4,22-15,27.6-17.5,4.7-2.1,13.8-2.2,19.1-3.7s.8-1.7,2.2-2.1c12-3.3,23.4-5.6,35.9-2.6,3.4.8,5.2,5.4,8,4.7,8.3-7.4,15.4-16,23.2-23.9s23.8-25.2,36.3-34.7,9.7-3.9,15.6-5.2-1.3-.6,4.2-.9c12.3-.8,21.8-7.9,35-9s8.6.3,12.9,0,4.6-2,7.1-2c8.3,0,8.5,19.3,7.9,25.1l9,23.1c2.7,2.1,12.5-2.1,16.4-2.8,12.9-2.3,29.2-6.7,32.5,10.5ZM565.9,202.1c-3.3-2.1-19,7.2-23.2,9-33.7,14.7-72.2,29.4-104.3,46.7-2,1.1-7,3.3-7.8,5.2-1.1,26.5-.4,53-.5,79.5,0,17.8,0,36,0,53.9,0,34.6,0,69.2-.2,103.8-.4,1.3-5.1,5.7-6.4,6.6-18.3,11.2-44.2,22.2-63.1,31.9-21.7,11.2-45.1,21.9-66.3,33.7s-7.5,3.7-8.4,6.6c-1.8,38.9,0,77.8.5,116.5s-1.6,49,0,73,.8,14.2,4.8,16.2l184.4-.5c.9-2.9,1.7-5.7,2-8.8,3-38.8,0-84.7,0-124v-334c.9-4.9-1.7-24.2,1.4-26.6,5.2-4.2,21.5,8.6,26.7,11.5,21.6,11.8,43.1,23.8,64.9,35.1,3.8,2,10,8.8,11.7.8s-2-14.8-2.8-20.8c-4.3-36-6.6-72-11.1-107.9-.1-1.2-1.6-7.2-2-7.5ZM528.6,352.4c-4.4-3-18.1-11.9-23-10.3s-1.6,1.2-1.6,2.4l1.2,437.8c1.3,4.5,16.7,2.4,21.3,2.7s4.6,1,6.9,1.1c50.9-2.8,105.6,3.6,156.1,0,16.1-1.2,10.6-9,11.5-21.5,5.2-72.5,6.2-147,9.2-220,1-24.5,3.2-49.4,3.8-74s.9-11.3-6.2-15.9c-32.7-21.3-72.9-41.1-107.4-60.6-24.1-13.7-48.8-26.1-71.9-41.6Z" style="fill: #5252f7;"/>
  <path d="M528.6,352.4c23.1,15.5,47.8,27.9,71.9,41.6,34.5,19.6,74.6,39.3,107.4,60.6,7.1,4.6,6.4,7.9,6.2,15.9-.6,24.5-2.8,49.4-3.8,74-3,73-4,147.5-9.2,220-.9,12.5,4.6,20.4-11.5,21.5-50.4,3.6-105.2-2.8-156.1,0-2.4,0-4.6-1-6.9-1.1-4.6-.2-20,1.9-21.3-2.7l-1.2-437.8c0-1.2.5-2,1.6-2.4,4.9-1.6,18.6,7.3,23,10.3ZM609.7,461.3c-5-2.3-5.9,1.8-7.2,1.8s-3-1.1-4.2-1c-8.5.4-17.2,2.2-25.8,0-2,.6-2.5,5.4-2.7,7.4-1.3,15.9-1.2,44.1,0,60.1.3,3.3.4,6.8,4.1,7.9,5.5,1.7,33.4,1.1,40.4.6s10.8-.8,11.6-9.4c1.8-19.3-1.4-41.4,0-61-2.6-9.4-8.6-4-14.5-4.4s-1.4-1.6-1.7-1.8ZM624,631h-53c-1.6,24.5-1.3,49.4-.4,74,.7.9,1.2,2.5,2.1,3.1,2.8,1.6,31.4,1.3,36.8,1s11.7-.7,13.8-1.2,2.5-1.8,2.7-3.3v-68c0,0-2-5.5-2-5.5Z" style="fill: #fefdfe;"/>
  <path d="M565.9,202.1c.4.2,1.9,6.3,2,7.5,4.6,35.9,6.9,71.9,11.1,107.9.7,6,4,15.3,2.8,20.8-1.8,7.9-7.9,1.1-11.7-.8-21.9-11.3-43.3-23.2-64.9-35.1-5.2-2.8-21.5-15.7-26.7-11.5s-.5,21.7-1.4,26.6v334c0,39.3,3.1,85.2,0,124s-1,5.9-2,8.8l-184.4.5c-3.9-2.1-4.5-11.7-4.8-16.2-1.5-24,.3-49.1,0-73-.4-38.8-2.3-77.7-.5-116.5.9-2.9,5.7-5.1,8.4-6.6,21.2-11.8,44.6-22.5,66.3-33.7,18.9-9.7,44.8-20.7,63.1-31.9s6.1-5.3,6.4-6.6c.3-34.6.2-69.2.2-103.8,0-17.9,0-36.1,0-53.9,0-26.5-.6-53,.5-79.5.8-1.8,5.8-4.1,7.8-5.2,32.1-17.2,70.6-32,104.3-46.7s19.9-11.2,23.2-9ZM408.5,631h-53l-1.5,1.5v72c0,2,3.3,4.3,5.5,4.5,9.5,1.3,34.1.8,44.1,0s4.2-.5,6.2-1.3c.8-2,1.1-4.1,1.3-6.2,1.3-16.4,1.5-47.8,0-64.1s-.4-4.7-2.5-6.5Z" style="fill: #fefdfe;"/>
  <path d="M624,631l2.1,5.5v68c-.3,1.5-1.2,2.9-2.7,3.3s-10.9,1.1-13.8,1.2c-5.4.3-34,.6-36.8-1s-1.5-2.2-2.1-3.1c-.9-24.6-1.2-49.4.4-74h53Z" style="fill: #5252f7;"/>
  <path d="M609.7,461.3c.3.1,0,1.7,1.7,1.8,5.9.5,11.9-5,14.5,4.4-1.3,19.6,1.9,41.7,0,61-.8,8.6-3.4,8.8-11.6,9.4s-34.9,1.1-40.4-.6-3.8-4.5-4.1-7.9c-1.2-16-1.3-44.2,0-60.1.2-2,.6-6.8,2.7-7.4,8.5,2.2,17.3.4,25.8,0s2.8,1,4.2,1,2.1-4,7.2-1.8Z" style="fill: #5252f7;"/>
  <path d="M408.5,631c2.2,1.8,2.3,3.9,2.5,6.5,1.5,16.3,1.3,47.7,0,64.1s-.5,4.2-1.3,6.2c-2,.8-4.1,1.1-6.2,1.3-10,.8-34.6,1.3-44.1,0s-5.5-2.5-5.5-4.5v-72l1.5-1.5h53Z" style="fill: #5252f7;"/>
</svg>