<?xml version="1.0" encoding="UTF-8"?>
<svg xmlns="http://www.w3.org/2000/svg" xmlns:xlink="http://www.w3.org/1999/xlink" version="1.1" viewBox="0 0 600.1 112.2">
  <defs>
    <style>
      .cls-1 {
        stroke: #9281a8;
        stroke-width: 5.6px;
      }

      .cls-1, .cls-2 {
        fill: none;
      }

      .cls-3 {
        clip-path: url(#clippath);
      }

      .cls-2, .cls-4, .cls-5, .cls-6, .cls-7, .cls-8, .cls-9, .cls-10 {
        stroke-width: 0px;
      }

      .cls-4 {
        fill: url(#linear-gradient);
      }

      .cls-5 {
        fill: #004c93;
      }

      .cls-11 {
        clip-path: url(#clippath-1);
      }

      .cls-12 {
        clip-path: url(#clippath-4);
      }

      .cls-13 {
        clip-path: url(#clippath-3);
      }

      .cls-14 {
        clip-path: url(#clippath-2);
      }

      .cls-15 {
        clip-path: url(#clippath-7);
      }

      .cls-16 {
        clip-path: url(#clippath-6);
      }

      .cls-17 {
        clip-path: url(#clippath-5);
      }

      .cls-6 {
        fill: url(#linear-gradient-4);
      }

      .cls-7 {
        fill: url(#linear-gradient-2);
      }

      .cls-8 {
        fill: url(#linear-gradient-3);
      }

      .cls-9 {
        fill: url(#linear-gradient-5);
      }

      .cls-10 {
        fill: url(#linear-gradient-6);
      }
    </style>
    <clipPath id="clippath">
      <path class="cls-2" d="M415.7,35.5h-.2v-9.4h-15.9v64.1h17v-29.1c0-5.2.1-12.3,1.9-16,2.1-4.7,6.9-7.6,12.3-7.6,10.4,0,10.4,9.3,10.4,19.8v32.8h17v-39.9c-.1-6.3.1-15.8-6.7-21-5.3-4.2-11.9-4.7-14.7-4.7-6.8.1-14.8,2.4-21.1,11M501.4,37.6c2.6,0,12.3,1,12.6,15h-25.4c-.1-8.4,4.7-15,12.8-15M470.9,58.6c0,5.3,1,11.6,3.8,17.8,6.8,14.6,21.7,15.4,27.2,15.4,21.3,0,26.6-15.1,28-19.1l-17-2.9c-.9,3-2.9,8.9-10.8,8.9s-13.7-8.1-14-15.7h42.6c.4-18.9-6.3-38.4-30.5-38.4-20.1,0-29.3,16.6-29.3,34M545.2,13.4v12.8h-7.8v13.5h7.8v28c0,9.8.3,13.6,2.4,17.6,2.5,4.8,9.2,6.6,14.4,6.6s7.8-.2,13.4-2.6l-1.5-13.1h-.5c-2.1,1-4.1,1.6-6.3,1.6-4.7,0-4.7-3-4.7-12.1v-25.9h11.5v-13.5h-11.5V3.5l-17.2,9.9ZM158.6,51.9h14.5c12.5,0,23.5,0,23.5,12.1s-.8,7.9-7.3,10.3c-2.7,1-10.3,1-14.1,1h-16.6v-23.4h0ZM158.6,16.6h10.4c12.9,0,15,0,17.6.7,4.6,1.2,6.7,5.4,6.7,9.4,0,9.4-9.2,10.2-15.2,10.2h-19.4v-20.3h-.1ZM140.8,1.6v88.7h30.2c18.8,0,24.5-.4,29.7-2.6,9.5-4.2,14.4-14.4,14.4-23.1s-1.6-17-16.8-21.4c8.2-3.6,12.5-11.4,12.5-19.2s-4.3-14-9.5-17.7c-5.7-4.1-12.8-4.6-25-4.6h-35.5ZM261.1,22.3l12.3,32.9h-24.3l12-32.9ZM251.8,1.6l-34.5,88.7h19.1l7.3-20.1h35.4l7.7,20.1h19.6L270.9,1.6h-19.1ZM307.7,46.7c0,27.6,16.4,45.1,40.4,45.1s34.9-21.7,36.8-28.6l-17.3-5.5c-2.2,9.7-7.7,18.7-19.6,18.7s-13.9-3.7-17.1-8.7c-3.7-5.7-4.7-14-4.7-22.3s0-30,22-30,16.5,5.2,18.7,14.9l17.7-4.2c-1.7-6.2-4-11.4-8.4-15.9-9.8-9.7-22.2-10.2-27.1-10.2-28.9.1-41.4,22-41.4,46.7Z"/>
    </clipPath>
    <linearGradient id="linear-gradient" x1="216.8" y1="-564.5" x2="226.5" y2="-564.5" gradientTransform="translate(-9501.7 25159.6) scale(44.5)" gradientUnits="userSpaceOnUse">
      <stop offset="0" stop-color="#0071b9"/>
      <stop offset=".3" stop-color="#008cc7"/>
      <stop offset=".5" stop-color="#00a0d1"/>
      <stop offset=".6" stop-color="#06a1c9"/>
      <stop offset=".7" stop-color="#17a5b3"/>
      <stop offset=".7" stop-color="#32aa90"/>
      <stop offset=".9" stop-color="#58b25e"/>
      <stop offset="1" stop-color="#88bb20"/>
      <stop offset="1" stop-color="#97be0d"/>
    </linearGradient>
    <clipPath id="clippath-1">
      <path class="cls-2" d="M91.1,5.5h0Z"/>
    </clipPath>
    <linearGradient id="linear-gradient-2" x1="91.1" y1="5.5" x2="91.1" y2="5.5" gradientTransform="matrix(0,0,0,0,533.2,93.8)" gradientUnits="userSpaceOnUse">
      <stop offset="0" stop-color="#0061ab"/>
      <stop offset=".4" stop-color="#008bcf"/>
      <stop offset=".6" stop-color="#009ee0"/>
      <stop offset=".7" stop-color="#029edd"/>
      <stop offset=".7" stop-color="#0aa0d2"/>
      <stop offset=".8" stop-color="#16a3c1"/>
      <stop offset=".8" stop-color="#28a6a8"/>
      <stop offset=".9" stop-color="#3eab89"/>
      <stop offset=".9" stop-color="#5ab162"/>
      <stop offset="1" stop-color="#7ab835"/>
      <stop offset="1" stop-color="#97be0d"/>
    </linearGradient>
    <clipPath id="clippath-2">
      <path class="cls-2" d="M50.7,5.5h0Z"/>
    </clipPath>
    <clipPath id="clippath-3">
      <path class="cls-2" d="M50.7,5.5h0Z"/>
    </clipPath>
    <linearGradient id="linear-gradient-3" x1="50.7" y1="5.5" x2="50.7" y2="5.5" gradientTransform="matrix(0,0,0,0,529.4,92.8)" gradientUnits="userSpaceOnUse">
      <stop offset="0" stop-color="#0061ab"/>
      <stop offset=".4" stop-color="#008bcf"/>
      <stop offset=".6" stop-color="#009ee0"/>
      <stop offset=".7" stop-color="#029edd"/>
      <stop offset=".7" stop-color="#0aa0d2"/>
      <stop offset=".8" stop-color="#16a3c1"/>
      <stop offset=".8" stop-color="#28a6a8"/>
      <stop offset=".9" stop-color="#3eab89"/>
      <stop offset=".9" stop-color="#5ab162"/>
      <stop offset="1" stop-color="#7ab835"/>
      <stop offset="1" stop-color="#97be0d"/>
    </linearGradient>
    <clipPath id="clippath-4">
      <path class="cls-2" d="M91.1,75.4h0Z"/>
    </clipPath>
    <linearGradient id="linear-gradient-4" x1="91.1" y1="75.4" x2="91.1" y2="75.4" gradientTransform="matrix(0,0,0,0,533.3,100.6)" gradientUnits="userSpaceOnUse">
      <stop offset="0" stop-color="#0061ab"/>
      <stop offset=".4" stop-color="#008bcf"/>
      <stop offset=".6" stop-color="#009ee0"/>
      <stop offset=".7" stop-color="#029edd"/>
      <stop offset=".7" stop-color="#0aa0d2"/>
      <stop offset=".8" stop-color="#16a3c1"/>
      <stop offset=".8" stop-color="#28a6a8"/>
      <stop offset=".9" stop-color="#3eab89"/>
      <stop offset=".9" stop-color="#5ab162"/>
      <stop offset="1" stop-color="#7ab835"/>
      <stop offset="1" stop-color="#97be0d"/>
    </linearGradient>
    <clipPath id="clippath-5">
      <path class="cls-2" d="M111.3,40.4h0Z"/>
    </clipPath>
    <clipPath id="clippath-6">
      <path class="cls-2" d="M111.3,40.4h0Z"/>
    </clipPath>
    <linearGradient id="linear-gradient-5" x1="111.3" y1="40.4" x2="111.3" y2="40.4" gradientTransform="matrix(0,0,0,0,535.6,96.5)" gradientUnits="userSpaceOnUse">
      <stop offset="0" stop-color="#0061ab"/>
      <stop offset=".4" stop-color="#008bcf"/>
      <stop offset=".6" stop-color="#009ee0"/>
      <stop offset=".7" stop-color="#029edd"/>
      <stop offset=".7" stop-color="#0aa0d2"/>
      <stop offset=".8" stop-color="#16a3c1"/>
      <stop offset=".8" stop-color="#28a6a8"/>
      <stop offset=".9" stop-color="#3eab89"/>
      <stop offset=".9" stop-color="#5ab162"/>
      <stop offset="1" stop-color="#7ab835"/>
      <stop offset="1" stop-color="#97be0d"/>
    </linearGradient>
    <clipPath id="clippath-7">
      <path class="cls-2" d="M50.7.1c-1.9,0-3.7,1-4.6,2.7l-11.4,19.8h5.9l9.4-16.4c.2-.3.5-.6.8-.8.3-.2.7-.3,1.1-.3h38.2c.4,0,.8.1,1.1.3.3.2.6.4.8.8l19.1,33.1c.2.3.3.7.3,1.1s-.1.7-.3,1.1l-19.1,33.1c-.2.3-.4.6-.8.8-.3.2-.7.3-1.1.3h-38.3c-.4,0-.7-.1-1.1-.3-.3-.2-.6-.4-.8-.8l-9.7-16.7h-5.8l11.6,20.2c1,1.7,2.7,2.7,4.6,2.7h40.4c1.9,0,3.7-1,4.6-2.7l20.2-35c1-1.7,1-3.7,0-5.3L95.6,2.8c-1-1.7-2.7-2.7-4.6-2.7h-40.3Z"/>
    </clipPath>
    <linearGradient id="linear-gradient-6" x1="172.1" y1="-569.4" x2="181.9" y2="-569.4" gradientTransform="translate(-1586.5 5371.7) scale(9.4)" gradientUnits="userSpaceOnUse">
      <stop offset="0" stop-color="#0071b9"/>
      <stop offset=".4" stop-color="#0090c9"/>
      <stop offset=".6" stop-color="#00a0d1"/>
      <stop offset=".7" stop-color="#03a1ce"/>
      <stop offset=".7" stop-color="#0ba2c3"/>
      <stop offset=".8" stop-color="#19a5b1"/>
      <stop offset=".8" stop-color="#2ca998"/>
      <stop offset=".9" stop-color="#45ae77"/>
      <stop offset=".9" stop-color="#64b44f"/>
      <stop offset="1" stop-color="#88bb20"/>
      <stop offset="1" stop-color="#97be0d"/>
    </linearGradient>
  </defs>
  <!-- Generator: Adobe Illustrator 28.6.0, SVG Export Plug-In . SVG Version: 1.0.2 Build 62)  -->
  <g>
    <g id="layer">
      <g>
        <path class="cls-1" d="M500,107.1v-22.5M447.2,107.1v-24.6M347.7,109.4v-26.4M259.3,62v46.1M173.4,109.4v-27.8M70.8,81.2v28.2h485.9v-24.4"/>
        <g class="cls-3">
          <rect class="cls-4" x="140.8" y=".1" width="434.5" height="91.6"/>
        </g>
        <g class="cls-11">
          <polygon class="cls-7" points="91.1 5.5 91.1 5.5 91.1 5.5 91.1 5.5"/>
        </g>
        <g class="cls-14">
          <g class="cls-13">
            <path class="cls-8" d="M50.7,5.5h0Z"/>
          </g>
        </g>
        <g class="cls-12">
          <polygon class="cls-6" points="91.1 75.4 91.1 75.4 91.1 75.4 91.1 75.4"/>
        </g>
        <g class="cls-17">
          <g class="cls-16">
            <polygon class="cls-9" points="111.3 40.4 111.3 40.4 111.3 40.4 111.3 40.4"/>
          </g>
        </g>
        <g class="cls-15">
          <rect class="cls-10" x="34.4" y=".1" width="82.4" height="80.6"/>
        </g>
        <path class="cls-5" d="M5.3,26.7h5.7l5,27h-5l-.7-4.4h-4.6l-.7,4.4H0l5.3-27ZM8.2,33.6l-1.8,11.6h3.4"/>
        <g>
          <path class="cls-5" d="M16.7,44.2h5v3.1c0,1.6,0,3.1,2.4,3.1s2.5-1.6,2.5-4-.4-2.7-1.7-3.6l-4.7-3.2c-2.5-1.7-3.2-3.6-3.2-6.3s.2-4.1,1.9-5.6c1-.8,2.8-1.6,5.4-1.6s6.9,1.2,6.9,5.8v2.7h-4.9v-2c0-1.3,0-2.8-2.2-2.8s-2.3.5-2.3,2.7.5,2.8,1.6,3.5l4.9,3.3c1,.7,2,1.6,2.6,2.6.7,1.2.7,2.1.7,4.2s0,3.9-.9,5.3c-1.5,2.4-4.6,2.7-6.4,2.7-4.2,0-7.5-1.6-7.5-6.2v-3.7h0Z"/>
          <polygon class="cls-5" points="33.5 26.7 38.5 26.7 38.5 37.4 43 37.4 43 26.7 48 26.7 48 53.7 43 53.7 43 41.4 38.5 41.4 38.5 53.7 33.5 53.7 33.5 26.7"/>
          <path class="cls-5" d="M50.7,26.7h9.9c4.9,0,4.9,3.3,4.9,5.7v2.9c0,3.4-1.1,4.1-3.5,4.6,1.2.3,3.7,1,3.7,4.7v5.5c0,1.4,0,2.8,1.2,3.6h-5.5c-.6-1-.7-2.2-.7-3v-5.8c0-1.8,0-3.1-2.6-3.1h-2.4v11.9h-5v-27ZM55.7,38h2.6c2.3,0,2.3-1.2,2.3-2.6v-2.6c0-2.2-1.2-2.2-2.3-2.2h-2.6v7.4Z"/>
          <path class="cls-5" d="M71.6,26.7h5.7l5,27h-5l-.7-4.4h-4.6l-.7,4.4h-5l5.3-27ZM72.6,45.2h3.4l-1.6-11.6-1.8,11.6Z"/>
          <polygon class="cls-5" points="83.4 26.7 96.5 26.7 96.5 30.8 88.4 30.8 88.4 37.2 96 37.2 96 41.3 88.4 41.3 88.4 49.6 96.8 49.6 96.8 53.7 83.4 53.7 83.4 26.7"/>
          <path class="cls-5" d="M590.1,26.8c-5.2,0-9.9-4.1-9.9-9.9s4.6-9.9,9.9-9.9,10,4.3,10,10-4.2,9.8-10,9.8M590.1,7.8c-4.9,0-9,4-9,9.1s4.1,9,9,9,9.1-4.2,9.1-9-3.9-9.1-9.1-9.1M590,10.5c1.3,0,2.2,0,2.9.3,1.4.5,2,1.7,2,2.9s-.3,2.4-2.6,3c1.2.5,1.6,1.2,1.8,2.6.3,1.7.4,2.6.9,3.7h-2.5c-.4-.7-.4-1.2-.7-2.7-.4-2.6-.6-2.9-3.7-2.9v5.6h-2.2v-12.5h4.1ZM588.2,15.7h1.8c.9,0,2.7,0,2.7-1.7s-.2-1.2-.9-1.5c-.4-.2-.8-.2-2.2-.2h-1.4v3.4h0Z"/>
        </g>
      </g>
    </g>
  </g>
</svg>