<?xml version="1.0" encoding="UTF-8"?>
<svg xmlns="http://www.w3.org/2000/svg" version="1.1" viewBox="0 0 599.9 104.5">
  <defs>
    <style>
      .cls-1 {
        fill: #09101f;
        stroke-width: 0px;
      }
    </style>
  </defs>
  <!-- Generator: Adobe Illustrator 28.6.0, SVG Export Plug-In . SVG Version: 1.0.2 Build 62)  -->
  <g>
    <g id="layer">
      <path class="cls-1" d="M214.6,78.9h-31.9l-3.9,11.7c-.6,1.9-2.8,3.5-4.8,3.5h-17.2c-2,0-3-1.5-2.3-3.4l31.2-79c.7-1.9,3-3.4,5-3.4h16.2c2,0,4.2,1.5,5,3.4l31.1,79c.7,1.9-.3,3.4-2.3,3.4h-17.2c-2,0-4.2-1.6-4.8-3.5l-4.1-11.7ZM209,62l-10.3-31.1-10.3,31.1h20.6ZM316.3,94c-2,0-4.5-1.4-5.5-3.1l-14.8-24.3-14.7,24.3c-1,1.7-3.5,3.1-5.5,3.1h-21c-2,0-2.7-1.4-1.6-3l28.3-41.1-25.8-38.6c-1.1-1.7-.4-3,1.6-3h19.4c2,0,4.5,1.4,5.6,3.1l13.8,22.2,13.6-22.2c1-1.7,3.5-3.1,5.6-3.1h19.5c2,0,2.7,1.4,1.6,3l-26,38.5,28.5,41.2c1.1,1.7.4,3-1.6,3h-21ZM376.1,90.4c0,2-1.6,3.6-3.6,3.6h-15.6c-2,0-3.6-1.6-3.6-3.6V11.9c0-2,1.6-3.6,3.6-3.6h15.5c2,0,3.6,1.6,3.6,3.6v78.5h.1ZM389.8,50.9c0-24.9,18.8-45,47.6-45s47.6,20.1,47.6,45-18.8,45.2-47.6,45.2c-28.8-.1-47.6-20.2-47.6-45.2ZM461.6,50.9c0-13-9.1-24.8-24.3-24.8s-24.3,11.8-24.3,24.8,9.2,25.1,24.3,25.1c15.1-.1,24.3-12.1,24.3-25.1ZM582.2,94c-2,0-3.9-1.6-4.1-3.6l-6-46-17.2,46.2c-.7,1.9-2.9,3.4-4.9,3.4h-7.6c-2,0-4.2-1.5-4.9-3.4l-17.2-46.6-6,46.4c-.3,2-2.1,3.6-4.1,3.6h-14.5c-2,0-3.4-1.6-3.2-3.6l10.8-78.5c.3-2,2.1-3.6,4.1-3.6h13.5c2,0,4.2,1.5,4.9,3.4l20.3,53.4,20.4-53.4c.7-1.9,2.9-3.4,4.9-3.4h13.5c2,0,3.9,1.6,4.1,3.6l10.8,78.5c.3,2-1.1,3.6-3.2,3.6h-14.4ZM115.3,73.1l-24.8-43.3c-1.1-2-3.9-3.6-6.2-3.6h-15.6c-3.6,0-5.1-2.6-3.3-5.7l8.5-14.8c.7-1.2.7-2.6,0-3.8-.7-1.2-1.9-1.9-3.3-1.9h-21.6c-2.3,0-5.1,1.6-6.2,3.6L.8,76.3c-1.1,2-1.1,5.2,0,7.2l10.8,18.7c1.8,3.1,4.8,3.1,6.6,0l8.4-14.6c1.8-3.1,4.8-3.1,6.6,0l7.7,13.3c1.1,2,4,3.6,6.2,3.6h50c2.3,0,5.1-1.6,6.2-3.6l12-20.8c1.1-1.7,1.1-5,0-7ZM81.8,71c1.8,3.1.3,5.7-3.3,5.7h-38.9c-3.6,0-5.1-2.6-3.3-5.7l19.5-33.7c1.8-3.1,4.7-3.1,6.6,0l19.4,33.7Z"/>
    </g>
  </g>
</svg>