<?xml version="1.0" encoding="utf-8"?>
<!-- Generator: Adobe Illustrator 27.2.0, SVG Export Plug-In . SVG Version: 6.00 Build 0)  -->
<svg version="1.1" id="Layer_1" xmlns="http://www.w3.org/2000/svg" xmlns:xlink="http://www.w3.org/1999/xlink" x="0px" y="0px"
	 viewBox="0 0 100 100" style="enable-background:new 0 0 100 100;" xml:space="preserve">
<style type="text/css">
	.st0{fill:#88898D;}
	.st1{fill:#62B144;}
	.st2{fill:#343434;}
	.st3{fill:#00CE04;}
</style>
<g>
	<g>
		<g transform="translate(41.309 23.263)">
			<path class="st0" d="M16.3,2.9c-0.1-0.1-0.7-0.3-1.5-0.3c-1.2-0.1-2,0.8-2,1.8s0.8,1.9,2,1.9c0.9,0,1.5-0.3,1.5-0.3v1.9
				c-0.3,0.1-0.9,0.3-1.7,0.3c-2.1,0-3.9-1.4-3.9-3.6c0-2.1,1.6-3.6,3.9-3.6c0.9,0,1.5,0.2,1.7,0.3V2.9z"/>
		</g>
		<g transform="translate(21.186 23.263)">
			<path class="st0" d="M17.1,2.9c-0.1-0.1-0.7-0.3-1.5-0.3c-1.2,0-2,0.8-2,1.9s0.8,1.9,2,1.9C16.4,6.3,17,6,17.1,6v1.9
				c-0.3,0.1-0.9,0.3-1.7,0.3c-2.1,0-3.9-1.4-3.9-3.6c0-2.1,1.6-3.6,3.9-3.6c0.9,0,1.5,0.2,1.7,0.3V2.9z"/>
		</g>
		<g transform="translate(47.37 23.622)">
			<path class="st0" d="M16,2.2c-1.1,0-1.9,0.8-1.9,1.9c0,1,0.8,1.9,1.9,1.9s1.9-0.8,1.9-1.9C18,3,17.1,2.2,16,2.2 M19.9,4.1
				c0,2-1.6,3.6-3.9,3.6c-2.2,0-3.9-1.6-3.9-3.6c0-2,1.6-3.6,3.9-3.6C18.2,0.4,19.9,2.1,19.9,4.1"/>
		</g>
		<g transform="translate(33.073 23.693)">
			<path class="st0" d="M16.6,2.1c0,0-0.8-0.2-1.5-0.2c-0.8,0-1.1,0.3-1.1,0.6c0,0.4,0.5,0.5,0.9,0.7l0.5,0.2c1.2,0.3,1.7,1.1,1.7,2
				c0,1.7-1.6,2.3-3,2.3c-1,0-1.9-0.2-2-0.2V5.8c0.2,0.1,0.9,0.3,1.7,0.3c0.9,0,1.4-0.3,1.4-0.7c0-0.3-0.3-0.5-0.9-0.7
				c-0.1-0.1-0.3-0.1-0.4-0.1c-1-0.3-1.9-0.9-1.9-2.1c0-1.3,1-2.1,2.7-2.1c0.9,0,1.7,0.2,1.8,0.2L16.6,2.1L16.6,2.1z"/>
		</g>
		<g transform="translate(13.314 33.165)">
			<path class="st0" d="M17.5-16.4c0-0.5-0.4-0.9-0.9-0.9s-0.9,0.4-0.9,0.9v1.9c0,0.5,0.4,0.9,0.9,0.9s0.9-0.4,0.9-0.9V-16.4z"/>
		</g>
		<g transform="translate(18.571 35.673)">
			<path class="st0" d="M17.3-21.3c0-0.5-0.4-0.9-0.9-0.9s-0.9,0.4-0.9,0.9v4.2c0,0.5,0.4,0.9,0.9,0.9s0.9-0.4,0.9-0.9V-21.3z"/>
		</g>
		<g transform="translate(23.827 39.101)">
			<path class="st0" d="M17-28.1c0-0.5-0.4-0.9-0.9-0.9c-0.5,0-0.9,0.4-0.9,0.9v9.3c0,0.5,0.4,0.9,0.9,0.9c0.5,0,0.9-0.4,0.9-0.9
				C17-18.9,17-28.1,17-28.1z"/>
		</g>
		<g transform="translate(29.085 35.673)">
			<path class="st0" d="M16.8-21.3c0-0.5-0.4-0.9-0.9-0.9S15-21.8,15-21.3v4.2c0,0.5,0.4,0.9,0.9,0.9c0.5,0,0.9-0.4,0.9-0.9
				L16.8-21.3L16.8-21.3z"/>
		</g>
		<g transform="translate(34.337 33.165)">
			<path class="st0" d="M16.6-16.4c0-0.5-0.4-0.9-0.9-0.9c-0.5,0-0.9,0.4-0.9,0.9v1.9c0,0.5,0.4,0.9,0.9,0.9c0.5,0,0.9-0.4,0.9-0.9
				V-16.4z"/>
		</g>
		<g transform="translate(39.598 35.673)">
			<path class="st0" d="M16.3-21.3c0-0.5-0.4-0.9-0.9-0.9c-0.5,0-0.9,0.4-0.9,0.9v4.2c0,0.5,0.4,0.9,0.9,0.9s0.9-0.4,0.9-0.9
				L16.3-21.3L16.3-21.3z"/>
		</g>
		<g transform="translate(44.856 39.101)">
			<path class="st0" d="M16.1-28.1c0-0.5-0.4-0.9-0.9-0.9c-0.5,0-0.9,0.4-0.9,0.9v9.3c0,0.5,0.4,0.9,0.9,0.9c0.5,0,0.9-0.4,0.9-0.9
				V-28.1z"/>
		</g>
		<g transform="translate(50.118 35.673)">
			<path class="st0" d="M15.9-21.3c0-0.5-0.4-0.9-0.9-0.9c-0.5,0-0.9,0.4-0.9,0.9v4.2c0,0.5,0.4,0.9,0.9,0.9s0.9-0.4,0.9-0.9V-21.3z
				"/>
		</g>
		<g transform="translate(55.366 33.165)">
			<path class="st0" d="M15.7-16.4c0-0.5-0.4-0.9-0.9-0.9c-0.5,0-0.9,0.4-0.9,0.9v1.9c0,0.5,0.4,0.9,0.9,0.9c0.5,0,0.9-0.4,0.9-0.9
				V-16.4z"/>
		</g>
		<path class="st0" d="M42.7,31.2h-1.9v-7h1.9V31.2z"/>
	</g>
	<g>
		<g transform="translate(75.414 18.062)">
			<path class="st1" d="M-41.7,26.5l-3.9-9.3v9.3h-0.9V16.1h1.3l4,9.5l3.8-9.5h1.2v10.3h-0.8v-9.3l-3.8,9.2L-41.7,26.5L-41.7,26.5z"
				/>
		</g>
		<g transform="translate(96.783 21.139)">
			<path class="st1" d="M-48.8,21.4c-0.4,1.4-1.6,2.2-3.3,2.2c-2.1,0-3.8-1.4-3.8-3.9s1.5-3.9,3.6-3.9c2,0,3.5,1.3,3.5,4.1H-55
				C-54.8,22-53.6,23-52,23c1.2,0,2.1-0.6,2.4-1.6C-49.7,21.4-48.8,21.4-48.8,21.4z M-55,19.3h5.4c-0.1-1.9-1.3-2.8-2.7-2.8
				C-53.7,16.4-54.8,17.4-55,19.3"/>
		</g>
		<g transform="translate(99.857 18.062)">
			<path class="st1" d="M-49.9,26.5V19h0.7l0.1,1.5c0.4-1.1,1.3-1.6,2.2-1.6c0.3,0,0.7,0.1,0.8,0.1v0.8c-0.3-0.1-0.5-0.2-0.9-0.2
				c-1.1,0-2.1,1-2.1,2.8v4.1L-49.9,26.5z"/>
		</g>
		<g transform="translate(107.14 26.403)">
			<path class="st1" d="M-52.3,12.6c0.1-1.3,1.3-2.1,3-2.1c1.7,0,2.9,0.9,2.9,2.5v5.2H-47l-0.1-1.3c-0.5,0.8-1.4,1.5-2.8,1.5
				c-1.5,0-2.6-0.8-2.6-2.1c0-1.3,0.8-2,3-2.4l2.3-0.4v-0.7c0-1.1-0.8-1.7-2.1-1.7c-1.3,0-2,0.6-2.1,1.5L-52.3,12.6L-52.3,12.6z
				 M-47.1,15.5v-1.4l-2.1,0.3c-1.9,0.3-2.5,0.9-2.5,1.7c0,1,0.8,1.5,2,1.5C-48.5,17.7-47.1,16.8-47.1,15.5"/>
		</g>
		<g transform="translate(119.27 18.062)">
			<path class="st1" d="M-56.4,26.5V16.1h0.8v5.9l3.8-3h1.1l-4,3.3l4.5,4.2h-1.1l-4.3-3.9v3.9L-56.4,26.5L-56.4,26.5z"/>
		</g>
		<path class="st1" d="M70,34.2h1v1h-1V34.2z M70.1,37.1h0.8v7.5h-0.8V37.1z"/>
	</g>
</g>
<g id="NRCfB3.tif">
	<g>
		<path class="st2" d="M70.5,73c-0.5,0.7-0.8,1.6-1.5,2.3c-1.2,1.3-2.7,2.2-4.3,2.8c-0.8,0.3-1,0.8-1.2,1.5
			c-0.5,2.6-1.5,4.8-3.2,6.9c-1.8,2.1-3.9,3.6-6.6,4.2c-2,0.4-4,0.5-6,0.3c-3-0.3-5.5-1.6-7.5-3.8c-2-2.1-3.2-4.7-3.8-7.5
			c-0.1-0.7-0.3-1.2-1.1-1.5c-1.3-0.5-2.4-1.2-3.5-2c-1-0.8-1.8-1.9-2.2-3.2c0-0.7,0-1.3,0-2c0.2-0.4,0.4-0.9,0.6-1.3
			c0.5-0.9,0.6-1.8,0.6-2.8c0.1-3.2,1.5-5.7,3.9-7.6c2.8-2.1,6.1-3.1,9.5-3.6c0.9-0.1,1.8-0.1,2.7-0.4c2.1,0,4.1,0,6.2,0
			c1.3,0.5,2.8,0.4,4.2,0.8c3.7,0.8,7.1,2.1,9.6,5c1.3,1.4,2,3.1,2.1,5c0.1,1.9,0.6,3.5,1.4,5.2C70.5,71.8,70.5,72.4,70.5,73z
			 M49.7,68.9c-1.1,0.1-2,0.1-3,0.1c-1.8,0.1-3.6,0.3-5.3,0.8c-1.6,0.4-3.1,1-4.3,2.2c-0.7,0.8-1.1,1.9-0.6,2.4
			c0.8,0.8,0.6,1.9,0.7,2.8c0.3,2.7,1,5.2,2.6,7.5c2.3,3.3,5.5,5,9.6,5.1c0.8,0,1.6-0.1,2.4-0.1c2.3-0.1,4.2-1,5.9-2.4
			c3.4-2.8,4.7-6.6,5-10.9c0-0.7,0.2-1.2,0.5-1.8c0.5-0.7,0.4-1.4,0-2.1c-0.8-1.3-2.1-1.9-3.4-2.4C56.5,69,53,69,49.7,68.9z
			 M49.6,56.5c-0.8,0-1.5,0.1-2.2,0.1c-1.9,0.1-3.7,0.3-5.5,0.8c-2.9,0.7-5.7,1.8-7.7,4.1c-1.4,1.5-2.1,3.3-2.2,5.3
			c0,0.2-0.1,0.4,0.1,0.6c0.2,0.1,0.4-0.1,0.5-0.2c0.4-0.2,0.8-0.5,1.2-0.7c2.5-1.3,5.2-2,7.9-2.5c2.3-0.4,4.5-0.6,6.8-0.7
			c1.1-0.1,2.2,0,3.3,0.1c2.1,0.1,4.1,0.3,6.1,0.6c3.3,0.6,6.5,1.4,9.3,3.3c0.3,0.2,0.5,0.2,0.5-0.3c0-1.5-0.3-2.9-1.1-4.2
			c-1.6-2.5-4-3.9-6.8-4.9C56.6,56.9,53.1,56.6,49.6,56.5z M64,77.2c1.3-0.6,2.5-1.3,3.6-2.2c1.8-1.6,2.2-3.5,0.4-5.4
			c-1.5-1.6-3.5-2.5-5.6-3.2c-3.8-1.3-7.8-1.7-11.8-1.8c-1.8-0.1-3.6,0.1-5.4,0.3c-2.8,0.2-5.5,0.8-8.2,1.7c-2,0.7-3.9,1.5-5.3,3.1
			c-1,1.1-1.4,2.8-0.4,4.2c1.1,1.5,2.6,2.3,4.1,3.2c0.4,0.2,0.5,0.2,0.5-0.3c-0.1-0.5-0.2-1-0.4-1.4c-0.5-0.7-0.5-1.6-0.3-2.4
			c0.5-1.4,1.5-2.4,2.8-3c3-1.6,6.4-2,9.7-2.1c1.6-0.1,3.1,0,4.7,0.1c2.1,0.1,4.1,0.3,6.1,0.8c2.1,0.5,4,1.3,5.4,3
			c1,1.2,1.3,2.3,0.5,3.6C64,75.8,63.9,76.4,64,77.2z"/>
		<path class="st2" d="M49.9,61.5c-0.9,0-1.5-0.6-1.5-1.5c0-0.9,0.6-1.6,1.5-1.5c1,0.1,1.5,0.6,1.6,1.5
			C51.6,60.7,50.8,61.5,49.9,61.5z M49.9,60.8c0.6,0,1.1-0.5,1-1c-0.1-0.5-0.4-0.9-1-0.8c-0.6,0-0.9,0.4-0.8,1
			C49.1,60.6,49.5,60.8,49.9,60.8z"/>
		<path class="st3" d="M49.9,60.8c-0.4,0-0.8-0.3-0.8-0.9c0-0.6,0.3-0.9,0.8-1c0.6,0,0.9,0.3,1,0.8C51,60.3,50.5,60.8,49.9,60.8z"/>
	</g>
</g>
</svg>
