<?xml version="1.0" encoding="UTF-8"?>
<svg id="svg3358" xmlns="http://www.w3.org/2000/svg" xmlns:svg="http://www.w3.org/2000/svg" version="1.1" viewBox="0 0 65.7 34.6">
  <!-- Generator: Adobe Illustrator 29.5.1, SVG Export Plug-In . SVG Version: 2.1.0 Build 141)  -->
  <path id="path268" d="M21.5,23h-2.9v11.4h2.9v-11.4Z" style="fill: #00bceb;"/>
  <g id="use360">
    <path id="path284" d="M44.7,26.3c-.1,0-1-.6-2.4-.6s-3.2,1.3-3.2,3,1.2,3,3.2,3,2.3-.5,2.4-.6v3.1c-.4.1-1.3.4-2.6.4-3.2,0-6.1-2.2-6.1-5.9s2.6-5.9,6.1-5.9,2.4.3,2.6.4v3.1Z" style="fill: #00bceb;"/>
  </g>
  <path id="path2841" data-name="path284" d="M14.6,26.3c-.1,0-1-.6-2.4-.6s-3.2,1.3-3.2,3,1.2,3,3.2,3,2.3-.5,2.4-.6v3.1c-.4.1-1.3.4-2.6.4-3.2,0-6.1-2.2-6.1-5.9s2.6-5.9,6.1-5.9,2.4.3,2.6.4v3.1Z" style="fill: #00bceb;"/>
  <path id="path288" d="M53.8,25.7c-1.7,0-3,1.3-3,3s1.3,3,3,3,3-1.3,3-3-1.3-3-3-3M59.8,28.7c0,3.3-2.5,5.9-6,5.9s-6-2.6-6-5.9,2.5-5.9,6-5.9,6,2.7,6,5.9" style="fill: #00bceb;"/>
  <path id="path292" d="M32.4,25.6s-1.3-.3-2.3-.3-1.8.4-1.8.9.8.9,1.3,1.1l.8.3c1.9.6,2.7,1.9,2.7,3.3,0,2.9-2.5,3.8-4.7,3.8s-3-.3-3.1-.3v-2.6c.3,0,1.5.4,2.7.4s2.1-.4,2.1-1.1-.6-.9-1.3-1.1c-.2,0-.4-.1-.6-.2-1.6-.5-2.9-1.5-2.9-3.3s1.6-3.6,4.3-3.6,2.7.3,2.8.4v2.4Z" style="fill: #00bceb;"/>
  <g id="g383">
    <path id="path296" d="M2.9,10.7c0-.8-.6-1.4-1.4-1.4s-1.4.6-1.4,1.4v3c0,.8.6,1.4,1.4,1.4s1.4-.6,1.4-1.4v-3Z" style="fill: #00bceb;"/>
    <path id="path300" d="M10.7,6.8c0-.8-.6-1.4-1.4-1.4s-1.4.6-1.4,1.4v6.9c0,.8.6,1.4,1.4,1.4s1.4-.6,1.4-1.4v-6.9Z" style="fill: #00bceb;"/>
    <path id="path304" d="M18.6,1.4c0-.8-.6-1.4-1.4-1.4s-1.4.6-1.4,1.4v15.2c0,.8.6,1.4,1.4,1.4s1.4-.6,1.4-1.4V1.4Z" style="fill: #00bceb;"/>
    <path id="path308" d="M26.4,6.8c0-.8-.6-1.4-1.4-1.4s-1.4.6-1.4,1.4v6.9c0,.8.6,1.4,1.4,1.4s1.4-.6,1.4-1.4v-6.9Z" style="fill: #00bceb;"/>
    <path id="path312" d="M34.3,10.7c0-.8-.6-1.4-1.4-1.4s-1.4.6-1.4,1.4v3c0,.8.6,1.4,1.4,1.4s1.4-.6,1.4-1.4v-3Z" style="fill: #00bceb;"/>
  </g>
  <g id="use385">
    <g id="g3831" data-name="g383">
      <path id="path2961" data-name="path296" d="M34.3,10.7c0-.8-.6-1.4-1.4-1.4s-1.4.6-1.4,1.4v3c0,.8.6,1.4,1.4,1.4s1.4-.6,1.4-1.4v-3Z" style="fill: #00bceb;"/>
      <path id="path3001" data-name="path300" d="M42.2,6.8c0-.8-.6-1.4-1.4-1.4s-1.4.6-1.4,1.4v6.9c0,.8.6,1.4,1.4,1.4s1.4-.6,1.4-1.4v-6.9Z" style="fill: #00bceb;"/>
      <path id="path3041" data-name="path304" d="M50,1.4c0-.8-.6-1.4-1.4-1.4s-1.4.6-1.4,1.4v15.2c0,.8.6,1.4,1.4,1.4s1.4-.6,1.4-1.4V1.4Z" style="fill: #00bceb;"/>
      <path id="path3081" data-name="path308" d="M57.9,6.8c0-.8-.6-1.4-1.4-1.4s-1.4.6-1.4,1.4v6.9c0,.8.6,1.4,1.4,1.4s1.4-.6,1.4-1.4v-6.9Z" style="fill: #00bceb;"/>
      <path id="path3121" data-name="path312" d="M65.7,10.7c0-.8-.6-1.4-1.4-1.4s-1.4.6-1.4,1.4v3c0,.8.6,1.4,1.4,1.4s1.4-.6,1.4-1.4v-3Z" style="fill: #00bceb;"/>
    </g>
  </g>
</svg>