<?xml version="1.0" encoding="UTF-8"?>
<svg id="layer" xmlns="http://www.w3.org/2000/svg" version="1.1" viewBox="0 0 211 158.7">
  <defs>
    <style>
      .cls-1 {
        fill: #ee7800;
        stroke-width: 0px;
      }
    </style>
  </defs>
  <g>
    <path class="cls-1" d="M159.3,115.9c5.8-4.6,10-9.8,13.1-15.2,0,0,0,0,0,0l-13.1,15.2Z"/>
    <path class="cls-1" d="M178.7,66.6c.6.1,1.1.1,1.6,0,0-1.5-.2-2.4-.2-2.4l-1.4,2.4Z"/>
    <path class="cls-1" d="M172.4,100.7c-3.1,5.3-7.3,10.6-13.1,15.2l.6.7,7,7.9,7.6,8.5,2,2.3-2,1.6-3.6,2.9-4-5.6-7-9.8-4-5.6c.9-1,2.2-2,3.4-2.9l13.1-15.2s0,0,0,0c8-13.9,8.2-28.5,7.9-34.1-.5.1-1,.1-1.6,0,1.4,34.2-19.5,47.5-23,50.8-.7.7-1.7,1.1-2.3,1.5-1.6,1.1-3.5,2.1-5.6,3.1-.3.1-.5.3-.8.4-1.4.6-2.7,1.2-4.1,1.8-2.9,1.2-5.8,2.1-8.6,2.9-1.6.4-4.2.8-6.4,1-1.9.1-3.6.3-3.8.3-.5,0-5.9-.3-9.2-.9-.3-.1-.5-.1-.8-.1-1.4-.3-2.8-.7-4.2-1.2-.4,0-.8-.2-1.2-.3-1.4-.5-2.8-1-4.1-1.4-.7-.3-1.4-.6-2.3-1-2.1-1-4.2-2.5-6.4-4.3-1.5-1.2-2.9-2.5-4.2-3.9-1.5-1.5-2.8-3.1-3.8-4.7-.6-1-1.2-1.9-1.5-2.8-.6-1.2-1.6-2.3-2.3-3.6-.5-1.2-1.1-2.5-1.6-3.8-.6-1.6-1.1-3.3-1.5-4.9-.6-2.5-.4-5.1-.6-7.8,0-.7-.6-1.3-.6-1.8s.6-8.1,1.5-12.1c.3-1.4.8-2.9,1.2-4.4.6-1.9,1.4-3.8,2-5.7.9-2.3,2.6-4.5,3.9-6.6.6-.9.8-2,1.3-2.5.6-.7,1.3-1.5,1.9-2.2,1.4-1.6,2.7-3.3,4.2-4.9.6-.6,1.2-1.2,1.8-1.8,1.4-1.4,3.1-2.4,4.6-3.5.3-.2.6-.4.9-.7,1-.8,1.8-1.7,2.8-2.2.9-.5,1.8-1,2.7-1.5.4-.2.8-.4,1.2-.6,1.6-.9,3.2-1.8,4.9-2.5.1-.1.3-.1.5-.1,3.1-1.2,6.7-2.3,10.1-3.1.7-.1,1.6-.3,2.5-.4,3.1-.3,6.9-.3,7.4-.3s4.5.2,7.7.6c.7,0,1.4.3,2,.4.7.1,1.4.3,2,.5.3.1.5.1.8.2,2.2.6,4.4,1.4,6.3,2.6.4.2.9.5,1.3.8,1.4.9,3,1.8,4.6,2.9,2.4,1.6,4.9,3.6,7,5.9.7.8,1.5,1.6,2.2,2.6,2.1,2.7,3.8,5.7,5.4,8.7.1.3.3.7.5,1,1.4,2.9,2.3,6.4,3.7,9.6l1.4-2.4s.1.9.2,2.4c2.3-.5,3.3-3.5,4.6-6,.5-1.1,1.1-2.1,1.8-2.9l-1.8.8-6.6,2.5c-.4-1.1-.9-2.5-1.4-3.6l7.9-3.7,18.1-8.7c.9,1.6,1.4,3.2,2.1,4.9h1.8c-.3-1.2-2.5-7.5-3.4-7.5s-3,1.8-4.4,1.9l1.2-7.7c-.5-1.2-1.5-2.7-2.3-4.1-.3-.6-2.2-4.1-3.1-4.1s-2.3,1.6-3.2,2.1v-4c-.3-1.2,0-2.5-.5-3.3-1.4-2.1-5.1-5.5-6.4-6.2,0,0-.3,0-.3,0-.6,0-2.1,1.9-2.9,2.7-.6-2.2-.5-5-1.9-6.8-1.1-1.4-3.4-2.7-5.2-3.7-1.4-.7-2.5-1.1-2.7-1.1-1,0-2.2,2.7-2.7,3.3-.8-1.4-1.3-3.1-2.2-4.5-.4-.7-1-1.4-1.6-1.8-1.3-1-3.5-1.7-5.4-2.1-1.4-.3-2.5-.6-2.7-.6-.8,0-1.4,1.2-1.9,2.2-.3.8-.5,1.4-.5,1.6-1.6-1.6-2.7-4.3-4.9-5.1-.7-.3-1.4-.4-2.2-.6-.3,0-.5,0-.8,0-1.4-.1-2.7-.1-4.1-.2-.7,0-1.5,0-2.3,0-.5,1.5-.7,2.9-1.2,4.3-2.1-1.4-5.8-4.3-6.4-4.3s-2.8.4-5.2.6c-1.4.1-2.7.3-3.8.4-.3.2-.5.5-.5.5,0,1.4,0,2.9,0,4l-6.7-3.4c-.4.2-1.1.4-1.9.7-1.5.5-3.4,1.1-4.9,1.7-.5.1-.8.3-1.2.5-.8.4-1.4.7-1.4,1,0,.5.7,2.3,1,3.1-.2.2-1.1,0-1.1,0-1.3-.3-3.5-.6-4.8-.8-.5,0-.9,0-1.1,0-.6,0-.5,0-.8,0-1.4.9-3,1.7-4.5,2.5-2.2,1.1-4,2-4,2.7s1,2.3,1.6,3.1c-.5.1-1,.1-1.8.1s-1.6,0-3,.3c-1,0-2.1-.1-2.9.3-.9.5-2.1,1.4-3.3,2.3-2.3,1.8-4.4,3.8-4.4,4.2s1.6,2,2.3,2.9c-2.1.7-4.4.6-6.4,1.4-.5,0-.9.4-1.3.7-2.1,1.5-4.8,5.1-5.9,7-.3.5-.5.9-.5,1,0,.2.2.5.5.8.6.6,1.7,1.5,2.4,1.9-.7.5-1.6.9-2.4,1.2-2.7,1-5.6,1.6-6.6,5.1l-3.5-1.8-8.8-4.4-3.2-1.6-.4-.2-13.2-6.5c-1.6.7-3.5,1.2-4.7,2-1.2.7-1.4,2.3-2.1,3.1-.3-.2-.9-.5-1.4-.7-.5-.3-.9-.4-1.2-.4-.6,0-4,2.2-5.1,3.8-.9,1.2-.8,2.9-1.2,4.2h-.6c-.9-.5-2.1-1.2-2.7-1.2-1.2,0-3.4,5-3.5,5.3-.3,2.1-.7,4.3-1.4,6.3-.6,0-1.4-.3-1.8-.2-.8.8-2.7,4.1-2.7,6.1s.5,4.6.5,5.3.1.8,0,1c-.9-.2-2.1-.2-3.1.1v7.3c0,.5,1.2,2.7,1.2,3.3s-1.2,2.9-1.2,3.4v7.4c.5.5,1,.5,1.6.5s1.2-.3,1.7-.1c-.3,2.8-.5,5.1-.5,5.7,0,1.6,2,5.1,2.6,6.4.8,0,1.5-.1,1.9-.2.7,2.1,1.1,4.2,1.4,6.4,0,.2,1.3,2.7,2.4,4.2.5.6,1,1,1.3,1,.6,0,2.2-.7,3.1-.9.4,1.3.8,2.7,1.2,4.1.2.7,4.2,3.9,5.3,3.9s.7-.1,1.1-.3c.6-.2,1.4-.6,1.9-.9,0,3.3,4.2,4.2,6.4,5.1l13.1-6.4.4-.2,3.2-1.6,4.8-2.3c.4,1.1.4,2.6,1.2,3.5.8.9,1.8,1.5,2.9,2.1,1.2.7,2.5,1.2,3.4,1.9-.3,0-3.3,1.4-3.3,2.3s2.4,6.1,4.7,8c1.4,1.2,3.4,1.4,5.2,1.7.6,0,1.2.2,1.6.3-.4.4-1.1,1-1.6,1.5-.6.5-1.2,1.2-1.2,1.4s.5.9,1.2,1.7c1.3,1.6,3.4,3.8,5.1,4.8.6.4,1.4.3,2.2.3h.5c3,.3,3.9.2,4.8.4-.7.8-2.3,2.5-2.3,3.1s3.1,2.5,5.5,3.9c1.4.7,2.5,1.2,2.7,1.2.6,0,5.6-.9,6.4-1h0c.6,0,.4.2.4.2,0,.3-.3.5-.5.9-.5.8-.9,1.8-.9,2.1,0,.6.3.8.5,1,.1,0,.3,0,.4.2,1.2.5,2.8,1,4.2,1.6,1.9.7,3.6,1.2,3.8,1.2.3,0,1.3-.3,2.5-.8,1.4-.6,3.1-1.2,4.2-1.6.5,1.3-.5,2-.5,2.9s.3.8.6,1c.6.1,1.3.1,2,.2.4.1.8.1,1.2.1,1.9.3,4,.5,4.9.6.3.1.5.1.6.1,1.7,0,6.1-3.4,7-3.8.6,2.2-1,3.8,1.4,3.8s2.1,0,4-.2c1.7-.1,3.4-.4,4.7-.9,2.3-.9,4-3.5,5.8-5.1.3.9-.1,3.8,1.8,3.8s1.4-.2,2.8-.6c1.2-.3,2.8-.8,4.1-1.2.3,0,.5-.3.8-.4.4-.1.7-.4,1-.6,2.3-1.5,3.6-4.2,4.9-5.9.3.4.6,2.4,1.7,2.9.1.1.3.1.6.1s2.1-.6,4-1.6c1.6-.8,3.2-1.9,4.2-2.8,1.3-1.4,2.1-3.3,2.8-4.9.4-.8.7-1.6,1.2-2.2.6.9,1.9,2.8,2.5,2.8s2-1.1,3.9-2.5c1.6-1.2,3.3-2.7,4.2-4,1.3-1.8,1.1-4.3,1.4-6.3.9.8,2.6,2.5,3.2,2.5s.7-.5,1.5-1.2c1.8-1.8,4.5-5.3,5.1-6.6.3-1.1.1-2.4.3-3.6l-1.1-10.3c-1.3-.7-1.8-1-3.1-1.7-.5.2-12.5-6.8-13.6-7.4ZM194.5,30.1c1.2,1.7,2.5,3.6,3.6,5.6l-13.3,8.1-10.4,6.4-.8.5c-.5-.8-1.5-1.9-2.2-3.2l3-2.3,10.4-7.8,9.7-7.3ZM184.6,18.6l.2.2,4.2,4.2-4.2,3.7-10.4,9.6-6.8,6.3-.7-.7-2-2,2-2.2,7.6-8.2,10.1-10.9ZM166.9,17.6l4.9-7.7c.9.5,1.8,1,2.7,1.5.9.5,1.9,1.1,2.9,1.6l-2.9,4-7.6,10.1-6.9,9.2q-.1,0-.1-.1c-1.2-.7-2.3-1.4-3.6-2.1l3.6-5.6,7-10.9ZM155.3,9.7l2.3-5.7,2.3.8,3.6,1.2-3.6,7.3-4.6,9.6-4.2,8.7c-1.1-.4-2.3-.8-3.3-1.3-.2,0-.4,0-.5-.2l.5-1.4,7.5-19ZM141.7,1.4c.4.1.7.1,1.1.1,1.4,0,2.7.3,4.1.5.3,0,.5,0,.8,0,.2.1.4.1.6.1l-.6,2.2-.8,3.2-4.1,15.4-1.6,5.9c-2.5,0-3.1,0-4,0l4.5-27.5ZM127.8,2.1c1.2-.1,2.6-.3,4.4-.4l-1.4,27.4c-.9-.1-1.9-.1-3-.1s-.7.1-1.2.1l-1.2-26.7c.7,0,1.5-.3,2.4-.3ZM109.8,6.5l4.9-1.6,1.1-.4,4.3,24.9v1.5c-1.2.3-2.7.7-3.9,1.2l-1.5-5.6-4.9-18-.5-1.8.5-.2ZM95.9,13.1c1.4-.8,3-1.6,4.6-2.3l1.8,4.2,6.4,15.2,1.2,2.9.5,1.2c0,.1-.3.3-.5.4-.4.3-.8.6-1.2.8-.6.4-1.4.8-2,1.2l-4.4-8-6.4-11.7-1.6-3.1c.4-.2,1-.5,1.6-.8ZM82.5,22.4l3.6-2.8,5.6,7.8,4.2,5.9,5.1,7.2c-1.2,1-2.4,1.7-3.7,2.7l-1.4-1.6-4.2-4.9-9.2-10.5-2-2.3,2-1.5ZM68.7,36.6l4.6-5.5.7.6,8.5,7.5,9.2,8,.9.8c-.3.5-.6,1-.9,1.4-.5.8-1.2,1.5-1.8,2.3l-7.4-5.2-8.5-6.1-5.3-3.8ZM62.8,44.8l4,2,7.2,3.7,8.5,4.4,3.4,1.7c-.5,1.3-1.2,2.7-2.2,4.2-.4,0-.8-.3-1.2-.4-2.3-.9-4.8-1.8-7.1-3-.5-.3-.7-1.2-1.1-1.6l-.3-.3c-1.6-2.1-3.6-4-5.7-5.5l-1.5-.9c-1.4-.8-3.1-1.5-4.7-2.3,0-.5.4-1.2.7-2ZM60.2,51.9c2.5.3,4.7,1.3,6.6,2.9,3.5,3,5.9,7.9,7.2,11.9.6,2,1,3.7,1,4.9.3,4.2.3,6.6,0,10.6-.1,1.2-.4,3-1,5-1.3,4.1-3.8,9.2-7.2,12.3-1.8,1.6-4,2.7-6.4,2.7s-2.1,0-3.6-.6c-.5-.1-1-.3-1.4-.5-3.1-1.5-5.9-5.2-7.4-8.3-.2-.3-.3-.6-.5-.9-1.2-2.9-2.4-8.5-2.7-12.7-.1-.7-.1-1.6-.1-2.3s.1-.6.1-1.2c.2-2.1.7-6.5,1.3-9.2.3-1.6,1-3.4,1.9-5.2,1.4-2.8,3.6-5.7,6.4-7.6.6-.5,1.4-.8,2.4-1.2,1.2-.4,2.6-.6,3.4-.6ZM31.1,33.5l13.1,6.6.4.2,3.2,1.6,8.8,4.4,2.5,1.3c-.5,0-1.2,0-1.8.3l-.6-.3-8.8-4.2-3.2-1.6-.4-.2-14.9-7.2c.5-.4,1.3-.6,1.7-.9ZM21.7,37.5l1.2.6,21.4,9.6.4.2,3.2,1.4,3.3,1.5c-.7.6-1.8,1.3-2.4,1.6l-.9-.4-3.2-1.4h-.4c0,0-21.4-9.5-21.4-9.5l-3.6-1.6c.7-.8,1.7-1.6,2.4-2ZM12.3,44.4l10.6,4.2,21.4,8.3h.4c0,0,0,0,0,0,0,.1,0,.1,0,.2-.1.2-.3.5-.4.8s-.3.7-.5,1.1l-20.9-7.2-12.3-4.3c.5-1.1,1.1-2.2,1.7-3.2ZM6.1,55.7l16.7,4.2,18.3,4.6c-.3.5-.5,1.3-1,2l-17.4-3.8-18.2-4c.6-1.1,1.1-2,1.6-3ZM1.6,67.8l21.2,1.8,15.9,1.3c.1,2.3,0,2.4,0,2.7l-15.9-.7-21.2-.9v-4.2ZM1.6,86.2v-4.4l21.2-.8,16.1-.6c0,.8,0,1.7,0,2.5l-16.1,1.4-21.2,1.9ZM6.1,98c-.6-1-1-2-1.3-3l18-3.8,17.6-3.8c.3.7.5,1.5.8,2.3l-18.3,4.3-16.8,4ZM12.5,109.6c-.5-1-1.2-2.2-1.7-3.2l12.1-4.3,20.6-7.2c.3.3.5.6.8,1,0,.2.3.4.4.6,0,.1.2.3.3.5h-.3c0,.1-.4.2-.4.2l-21.4,8.3-10.4,4.1ZM22.9,116.2l-1.1.5c-.8-.5-1.8-1.4-2.3-2l3.3-1.5,6.1-2.7,15.3-6.8h.4c0,0,3.2-1.5,3.2-1.5l.4-.2c.9.7,1.7,1.2,2.1,1.8l-2.5,1.2-3.2,1.4-.4.2-8.8,4-12.5,5.6ZM31.1,120.5c-.5-.3-1.2-.5-2-.8l27.5-13h2.3l-27.8,13.8ZM56.7,113.2l-1.2.5c-.3-.8-.5-1.7-1-2.7.2,0,8.9-4.3,12.3-6.3,1.8-1.1,3.7-2.4,5.5-4,.5-.4,1.1-.7,1.7-1,1.8-.8,4-1.2,5.9-1.8.5,1.2,1,2.7,1.3,4l-7.2,3.3-7.2,3.4-4,1.9-6.1,2.7ZM66.8,124.2l-4.2,3.1c-1.3-1.5-2.5-3.4-3.4-5.2l7.6-4.6,7.2-4.5,4.2-2.6,4.2-2.6,1-.6c1,.3,1.4,2,2.3,3l-.2.2-3,2.1-8.5,6.4-7.2,5.3ZM74,137.2l-1.6,1.7c-1.5-1.2-2.9-2.7-4.5-4.2l6.1-5.6,8.5-7.9,6.6-6.1c.9.7,1.7,1.4,2.5,2.3,0,0,.3.3.4.4l-.4.4-9.2,9.8-8.4,9.2ZM91.6,136.9l-7,11c-.7-.3-1.4-.7-2.2-1.1-1.1-.6-2.2-1.2-3.2-1.8l3.2-4.3,9.2-12.1,4.2-5.7.8-1c1,.5,2.2,1.2,3.2,2l-4,6.3-4.2,6.7ZM102.2,145.7l-3.1,8.3c-1.2-.3-2.2-.7-3.2-1-1.1-.3-2-.7-3.1-1l3.1-6.3,6.4-13,3.1-6.4,3.2,1,.5.2-.5,1.2-6.4,17ZM114.7,156.9v.2c-1.6-.1-3.3-.3-4.9-.5-.4-.1-.8-.1-1.2-.1s-.3,0-.4,0l.4-1.7,1.2-4.5,4.9-18.7.5-1.9h3.6c.3.2.3.5.3.7l-4.4,26.6ZM127.8,156.8c-1.2,0-2.4.2-3.6.3l1.4-27.4h4.2l1.2,26.6c-1,.2-2.1.3-3.2.5ZM146.9,152.6l-4.1,1.2-2.3.7-4.3-26.2c1.2-.5,2.7-.7,4.4-1.2l2.1,8.3,4.1,16.3.2.8h-.1ZM159.9,146.9l-3.7,1.9-.9-2.3-7.6-18.6-.8-2.1-.2-.5v-.8q0,0,.2,0c.3-.1.5-.3.8-.5,1-.5,2-1.1,2.9-1.6l4.7,9.2,4.6,8.9,2.6,5.1-2.6,1.4ZM184.8,127.8c-.6.8-1.1,1.5-1.6,2.2l-8.7-8.2-10.2-9.6,3.2-3.7,17.3,13.3c1,.9,2.7,2.6,2.7,2.6-1,1.1-1.9,2.2-2.7,3.3Z"/>
    <path class="cls-1" d="M110.2,79.6c.7-4,2.3-8,4.5-11.6,3.1-4.9,7.6-8.9,13-10.3,1.4-.4,2.9-.5,4.5-.5,4.7.1,8.3,2,10.5,5.3,1.2,1.7,1.9,3.8,2.4,6.2l1.7-.7.8-.3,7.6-3,4.6-1.8,3.7-1.4c-.9-3.2-2.1-6.1-3.7-8.5-1.3-2-2.8-3.8-4.6-5.3-2.2-1.8-4.7-3.3-7.6-4.4-.3-.1-.5-.1-.8-.3-1.3-.4-2.7-.7-4.1-1-2.2-.4-4.4-.6-6.9-.6s-5.5.2-8.1.7c-4.6.7-9,2.2-13,4.4-1.7.9-3.3,1.9-4.9,3.1-.4.3-.8.6-1.2.8-2.3,1.8-4.4,3.8-6.4,6.1-2.5,2.9-4.6,6.1-6.4,9.6-1.9,3.9-3.3,8.2-4.2,12.8,0,.2,0,.5,0,.7-1.1,5.9-.9,11.3,0,16.1.8,3.6,2.3,6.9,4.2,9.7,1.4,2,3,3.7,4.9,5.2.5.4,1,.8,1.5,1.1,1.9,1.4,4,2.5,6.4,3.3.4.1.8.3,1.2.4,1.6.5,3.2.9,4.9,1.2,2.2.4,4.5.6,6.9.6s4.2-.1,6.1-.4c5.3-.7,10.3-2.4,15-5.2.6-.4,1.2-.8,1.8-1.2h0c.8-.5,1.5-1,2.3-1.6.3-.2.5-.4.8-.7,1.8-1.4,3.4-3,5.1-4.8.9-1.1,1.7-2.1,2.5-3.2,1.9-2.6,3.3-5.2,4.6-7.9,2.5-5.3,3.8-10.9,5-17.1h-17.2c0-.1-.8-.1-.8-.1h-17.8c0-.1-1.4,7.4-1.4,7.4l-1.2,7.1h14.6c-1.8,7.1-7,11.1-13.4,12.1-1,.1-2.2.2-3.3.2-4.2,0-7.4-1.4-9.8-3.7-3-2.9-4.7-7.3-4.9-12.1-.1-1-.1-2,0-3.1.3-1,.4-2.2.6-3.3"/>
    <path class="cls-1" d="M64.9,67.1c.7.7,1.4,1.6,1.8,2.3,1.6,2.6,2.1,5.3,2.1,7.7s-.5,5.1-2.1,7.8c-.6,1-1.2,1.9-2.1,2.7,1.2-3.2,1.8-7.1,1.8-10.5,0-3.3-.7-6.6-1.5-10M47.9,75.9c0,.4,0,.8,0,1.2s0,.7,0,1.1c.3,5,2.5,16,8.8,19.3,1.2.6,2.5,1,4,1s3.7-.7,5-1.8c.4-.3.7-.6,1.1-1,4.9-4.9,6.1-13.5,6.1-18.7s-1.2-13.9-6.1-18.5c-1.6-1.5-3.6-2.5-6.1-2.5s-2.8.3-4,.9c-6.6,3.2-8.5,13.9-8.8,19"/>
  </g>
  <polygon class="cls-1" points="206.8 49.9 205 49.9 186.7 57.7 178.7 66.6 204 60.3 206.8 49.9"/>
  <path class="cls-1" d="M208.2,61.2c.2,1.7.4,3.4.6,5.3l-27.6,4.4-.5-3.8,27.6-5.8M209.8,58.8l-2.1.4-27.6,5.8-1.8.4.2,1.8.5,3.8.3,2,2-.3,27.6-4.4,1.8-.3v-1.8c-.3-1.8-.5-3.6-.7-5.4l-.3-2.1h0Z"/>
  <path class="cls-1" d="M208.9,75.9c0,1.7-.2,3.5-.5,5.3l-27.6-1.1.2-3.9,27.8-.3M211,73.9h-2.1s-27.8.3-27.8.3h-1.9s-.1,1.9-.1,1.9l-.2,3.9v2c-.1,0,1.9,0,1.9,0l27.6,1.1h1.8c0,0,.2-1.8.2-1.8.2-1.8.4-3.7.5-5.4v-2.1h.1Z"/>
  <path class="cls-1" d="M179.3,85.9l27.1,5.9c-.5,1.7-1,3.4-1.6,5.1l-26.2-7.6.7-3.4M177.7,83.5l-.4,2-.7,3.4-.4,1.8,1.8.5,26.2,7.6,1.8.5.6-1.8c.6-1.8,1.2-3.5,1.6-5.3l.6-2-2.1-.4-27.1-5.9-2-.4h0Z"/>
  <path class="cls-1" d="M175.7,96.7l23.8,11.1c-.8,1.6-1.6,3.1-2.5,4.7l-23.1-12.4,1.8-3.4M174.8,94.1l-.9,1.7-1.8,3.4-1,1.8,1.8.9,23.1,12.4,1.7.9,1-1.7c.9-1.6,1.8-3.2,2.6-4.8l.9-1.8-1.9-.9-23.8-11.1-1.7-.8h0Z"/>
  <polygon class="cls-1" points="210.9 68.1 208.9 73.9 180.1 74.8 179.6 73.6 180.4 71.8 210.9 68.1"/>
  <polygon class="cls-1" points="210.2 83.3 206.4 89.7 178.1 83.9 178.5 81.5 181 81.1 210.2 83.3"/>
  <polygon class="cls-1" points="206 99.3 192.3 102.8 174.8 94.8 175.8 92.3 177.2 89.8 206 99.3"/>
  <path class="cls-1" d="M197.8,115.2s-16.3,1.5-15.7,1.2,5.6-7.2,5.6-7.2l10.1,6.1Z"/>
</svg>