<?xml version="1.0" encoding="UTF-8"?>
<svg id="ixtus8hf0" xmlns="http://www.w3.org/2000/svg" xmlns:v="http://vecta.io" version="1.1" viewBox="0 0 131.1 150.2">
  <defs>
    <style>
      .cls-1 {
        fill: #002c43;
        stroke-width: 0px;
      }
    </style>
  </defs>
  <g id="ltdifnuuwf">
    <g>
      <g id="ltdifnuhvp">
        <path class="cls-1" d="M52.2,49.5v51.9L7.3,75.5l44.9-25.9h0ZM54.9,42.9c-.6,0-1.1.2-1.5.5L1.4,73.4c-1.9,1.1-1.9,2.9,0,4l52,30.1c.5.2.9.5,1.5.5,1.2,0,1.9-.9,1.9-2.5v-60c0-1.6-.7-2.6-1.9-2.6"/>
      </g>
      <g id="ltdifnuivq">
        <path class="cls-1" d="M126.5,6.6v51.9l-44.9-25.9L126.5,6.7h0ZM129.2,0c-.6,0-1.1.2-1.5.5l-52,30.1c-1.9,1.1-1.9,2.9,0,4l52,30.1c.5.2.9.5,1.5.5,1.2,0,1.9-.9,1.9-2.5V2.6C131.1.8,130.4,0,129.2,0"/>
      </g>
      <g id="ltdifnuivr">
        <path class="cls-1" d="M126.4,91.6v51.9l-44.9-25.9,44.9-25.9h0ZM129.1,85c-.6,0-1.1.2-1.5.5l-52,30.1c-1.9,1.1-1.9,2.9,0,4l52,30.1c.5.2.9.5,1.5.5,1.2,0,1.9-.9,1.9-2.5v-60.1c.1-1.5-.7-2.5-1.9-2.5"/>
      </g>
      <g id="ltdifnujvs">
        <path class="cls-1" d="M72.1,49.1l44.9,25.9-44.9,25.9v-51.9h0ZM69.3,42.5c-1.2,0-1.9.9-1.9,2.5v60c0,1.5.8,2.5,1.9,2.5s1.1-.2,1.5-.5l52-30.1c1.9-1.1,1.9-2.9,0-4l-52-30.1c-.5,0-.9-.2-1.5-.4"/>
      </g>
    </g>
  </g>
</svg>