<?xml version="1.0" encoding="utf-8"?>
<!-- Generator: Adobe Illustrator 27.2.0, SVG Export Plug-In . SVG Version: 6.00 Build 0)  -->
<svg version="1.1" id="Layer_1" xmlns="http://www.w3.org/2000/svg" xmlns:xlink="http://www.w3.org/1999/xlink" x="0px" y="0px"
	 viewBox="0 0 200 200" style="enable-background:new 0 0 200 200;" xml:space="preserve">
<style type="text/css">
	.st0{fill:#1A2133;}
	.st1{fill:#69BF30;}
</style>
<g id="Logos">
	<path class="st0" d="M34.6,134c0-5.4,4-9.4,9.6-9.4s9.6,4,9.6,9.4c0,5.4-4,9.4-9.6,9.4S34.6,139.4,34.6,134z M49.5,134
		c0-3.2-2.1-5.4-5.3-5.4S39,130.8,39,134c0,3.2,2.1,5.4,5.3,5.4S49.5,137.1,49.5,134L49.5,134z"/>
	<path class="st0" d="M56.3,133.6c0-6,3.6-9.1,8.9-9.1s8.9,3,8.9,9.1v9.3h-4.3v-9.3c0-3.4-1.8-5-4.5-5s-4.5,1.6-4.5,5v9.3h-4.3
		V133.6z"/>
	<path class="st0" d="M90.2,134.1c0-5.7,4-9.6,9.7-9.6c5.6,0,9.5,3.8,9.5,9.6v8.8h-4v-3.5c-1.1,2.6-3.5,4-6.3,4
		C94.8,143.4,90.2,140.3,90.2,134.1z M105.1,134c0-3.2-2.1-5.4-5.3-5.4c-3.1,0-5.3,2.2-5.3,5.4s2.1,5.4,5.3,5.4
		C103,139.4,105.1,137.1,105.1,134L105.1,134z"/>
	<path class="st0" d="M162.2,134c0-5.4,4-9.4,9.6-9.4c5.7,0,9.6,4,9.6,9.4c0,5.4-4,9.4-9.6,9.4S162.2,139.4,162.2,134z M177.1,134
		c0-3.2-2.1-5.4-5.3-5.4c-3.1,0-5.3,2.2-5.3,5.4c0,3.2,2.1,5.4,5.3,5.4C175,139.4,177.1,137.1,177.1,134z"/>
	<polygon class="st0" points="29.1,142.9 34.7,142.9 26,133.8 34.4,125 28.9,125 22.5,132.1 21.8,132.1 21.8,119.1 17.5,119.1 
		17.5,142.9 21.8,142.9 21.8,136 22.8,136 	"/>
	<polygon class="st0" points="124.2,142.9 129.8,142.9 121.1,133.8 129.5,125 124,125 117.6,132.1 116.9,132.1 116.9,119.1 
		112.5,119.1 112.5,142.9 116.9,142.9 116.9,136 117.9,136 	"/>
	<rect x="154.9" y="125" class="st0" width="4.3" height="17.9"/>
	<path class="st0" d="M157,118.6c-1.3,0-2.4,1.1-2.4,2.4s1.1,2.4,2.4,2.4c1.3,0,2.4-1.1,2.4-2.4l0,0c0-1.3-1-2.4-2.3-2.4
		C157.1,118.6,157.1,118.6,157,118.6z"/>
	<path class="st0" d="M149.9,138.7c-1.3,0-2.4,1.1-2.4,2.4s1.1,2.4,2.4,2.4s2.4-1.1,2.4-2.4l0,0c0-1.3-1-2.4-2.3-2.4
		C150,138.7,149.9,138.7,149.9,138.7z"/>
	<path class="st0" d="M85.6,139.4c-1.8,0-3-0.9-3-3.3v-7.1h5.8V125h-5.8v-6h-4.3v6h-3v3.9h3v7.1c0,5,3,7.4,7.3,7.4
		c0.9,0,1.9-0.2,2.8-0.4v-3.7C87.6,139.3,86.7,139.4,85.6,139.4z"/>
	<path class="st0" d="M141.7,139.4c-1.8,0-3-0.9-3-3.3v-7.1h5.8V125h-5.8v-6h-4.3v6h-3v3.9h3v7.1c0,5,3,7.4,7.3,7.4
		c0.9,0,1.9-0.2,2.8-0.4v-3.7C143.6,139.3,142.8,139.4,141.7,139.4z"/>
	<path class="st1" d="M108.4,71.2c0-3.3,2.6-5.9,5.9-6h6.1c3.3,0,6-2.7,6-6l0,0v-6c0-3.3-2.7-6-6-6l0,0h-6c-3.3,0-6,2.7-6,6l0,0v6
		c0,3.3-2.7,5.9-6,5.9h-6c-3.3,0-6,2.7-6,6v6c0,3.3,2.7,6,6,6c0,0,0,0,0,0h6c3.3,0,6,2.7,6,5.9v6c0,3.3,2.7,6,6,6h6c3.3,0,6-2.7,6-6
		v-6c0-3.3-2.7-6-6-6l0,0h-6c-3.3,0-6-2.7-6-6c0,0,0,0,0,0V71.2z"/>
	<path class="st1" d="M78.6,83.1h6c3.3,0,6,2.7,6,6v6c0,3.3-2.7,6-6,6h-6c-3.3,0-6-2.7-6-6v-6C72.6,85.8,75.3,83.1,78.6,83.1z"/>
</g>
</svg>
