<?xml version="1.0" encoding="utf-8"?>
<!-- Generator: Adobe Illustrator 27.8.1, SVG Export Plug-In . SVG Version: 6.00 Build 0)  -->
<svg version="1.1" id="layer" xmlns="http://www.w3.org/2000/svg" xmlns:xlink="http://www.w3.org/1999/xlink" x="0px" y="0px"
	 viewBox="0 0 200 200" style="enable-background:new 0 0 200 200;" xml:space="preserve">
<style type="text/css">
	.st0{fill:#231815;}
	.st1{fill-rule:evenodd;clip-rule:evenodd;fill:#231815;}
</style>
<g>
	<path class="st0" d="M16.6,88.3c-0.2,0-0.5,0-0.7,0c-0.2,0-0.5,0-0.7,0l-0.7-6.9c0.5,0,0.9-0.1,1.4-0.1c0.5,0,0.9,0,1.4,0.1
		L16.6,88.3z"/>
	<path class="st0" d="M13.7,88.7c-0.2,0.1-0.5,0.2-0.7,0.2c-0.2,0.1-0.4,0.2-0.6,0.3l-3.3-6c0.4-0.2,0.8-0.4,1.3-0.6
		c0.4-0.2,0.9-0.3,1.3-0.5L13.7,88.7z"/>
	<path class="st0" d="M11.4,89.9c-0.2,0.2-0.4,0.3-0.5,0.5c-0.2,0.2-0.3,0.3-0.5,0.5L5,86.7C5.3,86.3,5.6,86,6,85.6
		c0.3-0.3,0.7-0.7,1-0.9L11.4,89.9z"/>
	<path class="st0" d="M9.8,92c-0.1,0.2-0.2,0.4-0.3,0.7c-0.1,0.2-0.2,0.5-0.2,0.7l-6.6-1.9c0.1-0.5,0.3-0.9,0.5-1.3
		c0.2-0.4,0.4-0.8,0.6-1.3L9.8,92z"/>
	<path class="st0" d="M9,94.6c0,0.2,0,0.5,0,0.7c0,0.2,0,0.5,0,0.7l-6.9,0.7c0-0.5-0.1-0.9-0.1-1.4c0-0.5,0-0.9,0.1-1.4L9,94.6z"/>
	<path class="st0" d="M9.3,97.4c0.1,0.2,0.2,0.5,0.2,0.7c0.1,0.2,0.2,0.4,0.3,0.6l-6,3.3c-0.2-0.4-0.4-0.8-0.6-1.3
		c-0.2-0.4-0.3-0.9-0.5-1.3L9.3,97.4z"/>
	<path class="st0" d="M10.6,99.7c0.2,0.2,0.3,0.4,0.5,0.5c0.2,0.2,0.3,0.3,0.5,0.5l-4.3,5.4c-0.4-0.3-0.7-0.6-1.1-0.9
		c-0.3-0.3-0.7-0.7-0.9-1L10.6,99.7z"/>
	<path class="st0" d="M12.7,101.4c0.2,0.1,0.4,0.2,0.6,0.3c0.2,0.1,0.5,0.2,0.7,0.2l-1.9,6.6c-0.5-0.1-0.9-0.3-1.3-0.5
		c-0.4-0.2-0.8-0.4-1.3-0.6L12.7,101.4z"/>
	<path class="st0" d="M15.1,102.1c0.2,0,0.5,0,0.7,0s0.5,0,0.7,0l0.7,6.9c-0.5,0-0.9,0.1-1.4,0.1c-0.5,0-0.9,0-1.4-0.1L15.1,102.1z"
		/>
	<path class="st0" d="M18,101.7c0.2-0.1,0.5-0.2,0.7-0.2c0.2-0.1,0.4-0.2,0.6-0.3l3.4,6c-0.4,0.2-0.8,0.4-1.3,0.6
		c-0.4,0.2-0.9,0.3-1.3,0.5L18,101.7z"/>
	<path class="st0" d="M20.3,100.5c0.2-0.2,0.4-0.3,0.5-0.5s0.3-0.4,0.5-0.5l5.4,4.2c-0.3,0.4-0.6,0.7-0.9,1.1
		c-0.3,0.3-0.7,0.7-1,0.9L20.3,100.5z"/>
	<path class="st0" d="M22,98.4c0.1-0.2,0.2-0.4,0.3-0.6c0.1-0.2,0.2-0.4,0.2-0.7l6.6,1.9c-0.1,0.5-0.3,0.9-0.5,1.3
		c-0.2,0.4-0.4,0.8-0.6,1.3L22,98.4z"/>
	<path class="st0" d="M22.8,95.9c0-0.2,0-0.5,0-0.7c0-0.2,0-0.5,0-0.7l6.9-0.7c0,0.5,0.1,0.9,0.1,1.4c0,0.5,0,0.9-0.1,1.4L22.8,95.9
		z"/>
	<path class="st0" d="M22.4,93.1c-0.1-0.2-0.2-0.5-0.2-0.7c-0.1-0.2-0.2-0.4-0.3-0.6l6-3.3c0.2,0.4,0.4,0.8,0.6,1.3
		c0.2,0.4,0.3,0.9,0.5,1.3L22.4,93.1z"/>
	<path class="st0" d="M21.2,90.8c-0.2-0.2-0.3-0.4-0.5-0.5s-0.3-0.3-0.5-0.5l4.2-5.4c0.4,0.3,0.7,0.6,1.1,0.9c0.3,0.3,0.7,0.7,0.9,1
		L21.2,90.8z"/>
	<path class="st0" d="M19.1,89.1c-0.2-0.1-0.4-0.2-0.7-0.3c-0.2-0.1-0.5-0.2-0.7-0.2l1.9-6.6c0.5,0.1,0.9,0.3,1.3,0.5
		c0.4,0.2,0.8,0.4,1.3,0.6L19.1,89.1z"/>
	<polygon class="st0" points="89.3,107 95.7,107 95.7,88.5 104.7,88.5 104.7,83.5 80.3,83.5 80.3,88.5 89.3,88.5 	"/>
	<path class="st1" d="M131.6,95c0,7,5.4,12.6,14.6,12.6c9.1,0,14.6-5.6,14.6-12.6c0-7.2-5.4-12.2-14.6-12.2
		C137,82.8,131.6,87.9,131.6,95 M138.9,95.5c0-4.2,1.6-8,7.2-8c5.7-0.1,8,3.7,7.7,7.9c-0.3,3.9-2.1,7.3-7.7,7.3
		C140.6,102.7,138.9,99.3,138.9,95.5"/>
	<polygon class="st0" points="162.7,107 169,107 169,92 169.1,92 181.3,107 188.6,107 188.6,83.5 182.1,83.5 182.1,98.8 182.1,98.8 
		169.9,83.5 162.7,83.5 	"/>
	<polygon class="st0" points="32.9,107 52.8,107 52.8,102 39.2,102 39.2,83.5 32.9,83.5 	"/>
	<path class="st0" d="M78.9,83.5h-6.3v14.4c0,3.6-2,5-6.7,5c-4.6,0-6.7-1.4-6.7-5V83.5h-6.3v14.4c0,6.6,5,9.7,13,9.7
		c8,0,13-3.2,13-9.7L78.9,83.5L78.9,83.5z"/>
	<path class="st1" d="M106,107h5.9v-9.1h9.5c2.4,0,2.9,1.2,3.3,3.7c0.5,3.1,0.9,5.6,2.7,5.5h5c-1.4,0.3-1.9-3.8-2.2-5.7
		c-0.8-5.2-1.7-5.4-4.1-5.5l0-0.1c3-0.9,5-3.3,4.9-6.1c-0.1-3.8-2.7-6.4-8.9-6h-16L106,107L106,107z M111.8,88.3h7.8
		c2.9,0,5,0.4,5,2.7c0,2.4-2,2.8-5,2.8h-7.8V88.3z"/>
	<path class="st1" d="M197.9,103.7c0-1.8-1.5-3.3-3.3-3.3c-1.8,0-3.3,1.5-3.3,3.3c0,1.8,1.5,3.3,3.3,3.3
		C196.4,106.9,197.9,105.5,197.9,103.7 M197.5,103.7c0,1.6-1.3,2.9-2.9,2.9c-1.6,0-2.9-1.3-2.9-2.9c0-1.6,1.3-2.9,2.9-2.9
		C196.2,100.8,197.5,102.1,197.5,103.7 M193.4,105.4h0.5v-1.5h1.2c0.8,0,0.5,0.7,0.6,1.1l0.1,0.5h0.6c-0.2-0.3-0.1-0.4-0.2-0.8
		c-0.1-0.6-0.1-0.7-0.4-0.9c0.4-0.3,0.5-0.4,0.5-0.9c0-0.8-0.6-0.9-1.1-0.9h-1.6L193.4,105.4L193.4,105.4z M195,102.2
		c0.3,0,0.7,0.1,0.7,0.7c0,0.5-0.4,0.6-0.7,0.6h-1.1v-1.2L195,102.2L195,102.2z"/>
	<path class="st0" d="M193.4,105.4v-3.6h1.6c0.6,0,1.1,0.1,1.1,0.9c0,0.5-0.1,0.6-0.5,0.9c0.4,0.2,0.4,0.3,0.4,0.9
		c0,0.5,0,0.6,0.2,0.8h-0.6l-0.1-0.5c-0.1-0.4,0.1-1.1-0.6-1.1h-1.2v1.5L193.4,105.4L193.4,105.4z M195,102.2h-1.1v1.2h1.1
		c0.3,0,0.6-0.1,0.7-0.6C195.8,102.3,195.3,102.2,195,102.2"/>
</g>
</svg>
