<?xml version="1.0" encoding="UTF-8"?>
<svg xmlns="http://www.w3.org/2000/svg" version="1.1" viewBox="0 0 125 33.8">
  <defs>
    <style>
      .cls-1 {
        fill: #000;
        stroke-width: 0px;
      }
    </style>
  </defs>
  <!-- Generator: Adobe Illustrator 28.6.0, SVG Export Plug-In . SVG Version: 1.0.2 Build 62)  -->
  <g>
    <g id="Layer_1">
      <path class="cls-1" d="M29.6,8c-3.1,0-5.1,1.8-6,3.2v-2.6h-4.4v25.2h4.5v-9.1c.8,1.4,2.8,2.6,5.9,2.6,4.6,0,7.8-3.8,7.8-9.7,0-5.8-3.1-9.6-7.8-9.6ZM28.2,23.4c-2.7,0-4.6-1.9-4.6-5.8s1.9-5.8,4.6-5.8,4.6,1.5,4.6,5.8c0,4.3-2,5.8-4.6,5.8ZM100.8,8c-3.2,0-5.1,1.8-6,3.2v-2.6h-4.3v25.2h4.5v-9.1c.8,1.4,2.8,2.6,5.8,2.6,4.7,0,7.8-3.8,7.8-9.7,0-5.8-3.2-9.6-7.8-9.6ZM99.3,23.4c-2.7,0-4.6-1.9-4.6-5.8s1.9-5.8,4.6-5.8,4.6,1.5,4.6,5.8-2,5.8-4.6,5.8ZM70.9,17.4l6.9,9.4h-5.4l-1.9-2.7c-1-1.5-1.7-2.6-2.4-3.5-.8,1.1-1.5,2.1-2.4,3.5l-1.8,2.7h-4.8l6.7-9.4-6.4-8.8h5.4l1.6,2.4c1,1.5,1.6,2.3,2.2,3.3.7-.9,1.2-1.8,2.3-3.3l1.7-2.4h4.9l-6.6,8.8h0ZM81,8.5h4.4v18.2h-4.4c0,0,0-18.2,0-18.2ZM85.9,2.8c0,1.5-1.2,2.8-2.8,2.8s-2.8-1.2-2.8-2.8,1.2-2.8,2.8-2.8,2.8,1.2,2.8,2.8ZM125,1.7v4h-4.5v24h4.5v4h-8.5V1.7h8.5ZM49.2,23.8c-2.3,0-4.3-1.3-4.5-5h12.9c.6-6-2.7-10.8-8.5-10.8s-8.8,3.8-8.8,9.7,3.5,9.7,8.9,9.7,7.3-2.5,8.5-5.3l-4-1.5c-.7,1.4-1.9,3.2-4.5,3.2ZM49.1,11.3c2.3,0,3.9,1.5,4.1,4.1h-8.3c.3-2.6,2-4.1,4.2-4.1ZM0,33.8v-4h4.5V5.8H0V1.8h8.5v32H0Z"/>
    </g>
  </g>
</svg>