<?xml version="1.0" encoding="UTF-8"?>
<svg xmlns="http://www.w3.org/2000/svg" version="1.1" viewBox="0 0 600 190">
  <defs>
    <style>
      .cls-1 {
        fill: #000;
        stroke-width: 0px;
      }
    </style>
  </defs>
  <!-- Generator: Adobe Illustrator 28.6.0, SVG Export Plug-In . SVG Version: 1.0.2 Build 62)  -->
  <g>
    <g id="layer">
      <path class="cls-1" d="M70.7,187.8l-24.5-77h-16.6v77H0V0h47.5c34.3,0,48,16.6,48,55.4s-4.9,39.8-21.9,49.1l28,83.4h-30.9ZM47.7,26.6h-18.1v57.5h18.2c15.8,0,18.2-13.2,18.2-28.7s-2.5-28.8-18.3-28.8ZM160.6,187.8v-12c-2.2,3.5-5.1,6.7-8.4,9.2-4.6,3.3-10.2,5-15.8,4.9-10.1.6-19.8-3.7-26.1-11.6-5.5-6.6-8.3-17-8.3-31.1-.4-11.8,4.3-23.1,12.9-31.1,6.8-6.1,15.8-9.7,31.9-9.7h12.4v-19.4c0-10.3-4.9-16.1-13.4-16.1-3.5-.1-6.9,1.3-9.2,4-3.1,3.6-4.6,8.2-4.2,12.9h-28.1c-.4-11.2,3.9-22.1,11.8-30.1,7.9-7.3,18.3-11.3,29.1-11.4,10.9-.6,21.6,3.2,29.6,10.6,8.4,8.7,12.8,20.6,12.1,32.7v98.1h-26.3ZM159,126.3h-9.2c-5.2-.7-10.5.9-14.6,4.2-3.7,4.3-5.7,9.9-5.5,15.6,0,12.4,4.9,19.4,14.6,19.4s14.6-7.1,14.6-18.4v-20.8ZM251.9,73.8c-12.4-.5-22.8,9.1-23.2,21.5v92.5h-28V48.8h26.9v14.6c3.3-4.5,7.4-8.2,12.1-11.1,6.5-3.9,14-5.9,21.7-5.8v27.3h-9.5ZM270.4,15.6c.1-8.5,6.9-15.3,15.4-15.3,8.4.1,15.1,6.9,15.2,15.3.1,8.5-6.7,15.4-15.2,15.5-8.5,0-15.4-6.9-15.4-15.5h0ZM271.9,187.8V52.5h28v135.3h-28ZM339.2,179.3c-8.7-6.8-14-17.4-14-34v-71.5h-18v-21.4h18V13.1h28v39.3h19.4v21.4h-19.4v70.2c0,12.9,6.6,18.7,19.8,18.7v25.1c-13.3,0-24.3-1.1-33.8-8.5ZM436.5,187.8v-12c-2.2,3.5-5.1,6.7-8.4,9.2-4.6,3.3-10.2,5-15.8,4.9-10.1.6-19.8-3.7-26.1-11.6-5.5-6.6-8.4-17-8.4-31.1-.4-11.8,4.3-23.1,12.9-31.1,6.8-6.1,15.8-9.7,31.9-9.7h12.4v-19.4c0-10.3-4.9-16.1-13.4-16.1-3.5-.1-6.9,1.3-9.2,4-3.2,3.6-4.8,8.4-4.4,13.3h-27.7c-.4-11.2,3.9-22.1,11.8-30.1,7.9-7.3,18.3-11.3,29.1-11.4,10.8-.7,21.5,3,29.5,10.3,8.4,8.7,12.8,20.6,12.1,32.7v98.1h-26.3ZM434.9,126.3h-9.2c-5.2-.7-10.5.9-14.6,4.2-3.7,4.3-5.7,9.9-5.5,15.6,0,12.4,4.9,19.4,14.6,19.4s14.6-7.1,14.6-18.4v-20.8ZM532,187.8v-100c0-10.8-6.1-16.1-13.7-16.1s-13.7,5.3-13.7,16.1v100h-28V48.8h26.9v10.5c2.5-3.5,5.6-6.4,9.2-8.7,4.3-2.4,9.1-3.7,14-3.7,9.7-.6,19.1,3.4,25.3,10.8,5.5,6.3,7.9,14,7.9,30.1v100h-27.9ZM584.7,188.7c-8.4,0-15.3-6.8-15.3-15.3s6.8-15.3,15.3-15.3,15.3,6.8,15.3,15.3-6.8,15.3-15.3,15.3h0ZM584.7,160.8c-6.9-.1-12.6,5.5-12.7,12.4,0,6.9,5.5,12.6,12.4,12.7s12.6-5.5,12.7-12.4h0c.2-6.8-5.1-12.5-11.8-12.7h-.6ZM587,181.8l-2.1-6.7h-1.5v6.7h-2.8v-16.7h4.4c1.1-.1,2.2.3,3.1,1,.9,1.1,1.3,2.5,1.1,3.9.2,1.3-.2,2.7-1.1,3.7-.2.3-.5.5-.8.6l2.4,7.3h-2.7v.2ZM586.2,168.1c-.3-.3-.7-.5-1.1-.4h-1.7v4.9h1.7c.4,0,.8-.2,1.1-.4.4-.6.6-1.3.5-2,0-.8-.1-1.5-.5-2.1Z"/>
    </g>
  </g>
</svg>