<?xml version="1.0" encoding="utf-8"?>
<!-- Generator: Adobe Illustrator 27.0.1, SVG Export Plug-In . SVG Version: 6.00 Build 0)  -->
<svg version="1.1" id="Layer_1" xmlns="http://www.w3.org/2000/svg" xmlns:xlink="http://www.w3.org/1999/xlink" x="0px" y="0px"
	 viewBox="0 0 236 154" style="enable-background:new 0 0 236 154;" xml:space="preserve">
<style type="text/css">
	.st0{fill:#531AF6;}
	.st1{fill:none;stroke:#531AF6;stroke-width:8;}
</style>
<g>
	<path class="st0" d="M34,32h7.5L49,66.8h1L57.5,32H65l-8.7,38.4H42.7L34,32z"/>
	<path class="st0" d="M71.6,32h24.2v6.9h-17v8.8h16.3v6.9H78.9v8.9h17.7v6.9h-25C71.6,70.4,71.6,32,71.6,32z"/>
	<path class="st0" d="M131.4,70.4h-7.2V58.9c0-0.9-0.2-1.6-0.7-2.1s-1.2-0.8-2.3-0.8h-8.3v14.5h-7.2V32h14.7c2,0,3.7,0.3,5.2,0.8
		s2.8,1.3,3.8,2.3s1.8,2.1,2.3,3.4s0.8,2.7,0.8,4.1v1.3c0,1.6-0.4,3-1.3,4.4c-0.8,1.4-2.1,2.4-3.9,3.2v1c1.3,0.1,2.3,0.6,3,1.5
		c0.8,0.8,1.1,1.9,1.1,3.2V70.4z M111.9,49h6.9c1.8,0,3.1-0.4,4-1.2s1.4-2,1.4-3.5v-0.7c0-1.3-0.5-2.4-1.4-3.3
		c-0.9-0.9-2.2-1.4-4-1.4h-6.9V49z"/>
	<path class="st0" d="M152.3,51h16.5v18.7h-6.6v-4.1h-1c-0.4,1.4-1.3,2.5-2.5,3.5c-1.2,0.9-3.1,1.4-5.6,1.4c-1.8,0-3.4-0.3-4.9-0.9
		s-2.9-1.6-4-2.8c-1.1-1.2-2-2.8-2.7-4.6s-1-4-1-6.5V47c0-2.4,0.4-4.5,1.1-6.4c0.7-1.8,1.7-3.4,3-4.7s2.8-2.2,4.5-2.9
		c1.8-0.7,3.7-1,5.8-1c2.2,0,4.2,0.3,5.9,1s3.2,1.6,4.4,2.9c1.2,1.2,2.1,2.6,2.7,4.3c0.6,1.6,0.9,3.4,0.9,5.2V46h-7.2v-0.6
		c0-2.2-0.6-3.9-1.8-5s-2.9-1.7-5-1.7c-2,0-3.7,0.7-5,2s-2,3.6-2,6.8v7.8c0,5.7,2.4,8.5,7.2,8.5c2.2,0,3.8-0.6,4.9-1.7
		c1.1-1.1,1.7-2.6,1.7-4.5h-9.2L152.3,51z"/>
	<path class="st0" d="M176.3,32h24.2v6.9h-17v8.8h16.4v6.9h-16.4v8.9h17.7v6.9h-24.9V32z"/>
	<path class="st0" d="M55.4,93.6c0-1.5-0.6-2.8-1.8-3.8c-1.2-1.1-2.9-1.6-5-1.6c-1.8,0-3.3,0.4-4.3,1.1c-1.1,0.7-1.6,1.7-1.6,2.9
		c0,0.6,0.1,1.2,0.4,1.7s0.7,1,1.3,1.4s1.5,0.8,2.5,1.1c1,0.3,2.4,0.6,4,0.9c4,0.7,7.1,1.9,9.2,3.5c2.1,1.7,3.2,4.1,3.2,7.3v0.6
		c0,1.7-0.3,3.3-1,4.7c-0.6,1.4-1.6,2.6-2.8,3.6s-2.7,1.7-4.4,2.3c-1.7,0.5-3.7,0.8-5.8,0.8c-2.5,0-4.7-0.3-6.7-1
		c-1.9-0.7-3.5-1.6-4.8-2.8c-1.3-1.2-2.2-2.6-2.9-4.3c-0.7-1.6-1-3.4-1-5.4V105h7.2v1.3c0,2.2,0.7,4,2,5.3s3.4,2,6.2,2
		c2.2,0,3.8-0.5,4.9-1.4c1.1-0.9,1.6-2,1.6-3.3c0-0.6-0.1-1.2-0.3-1.7s-0.6-1-1.2-1.5c-0.5-0.4-1.3-0.8-2.2-1.2
		c-1-0.4-2.2-0.7-3.6-0.9c-1.9-0.3-3.7-0.7-5.3-1.2s-3-1.2-4.2-2s-2.1-1.9-2.8-3.2c-0.7-1.3-1-2.8-1-4.6v-0.3c0-1.5,0.3-2.9,1-4.2
		c0.6-1.3,1.5-2.4,2.7-3.4c1.2-0.9,2.5-1.7,4.2-2.2c1.6-0.5,3.4-0.8,5.5-0.8c2.3,0,4.3,0.3,6,0.9c1.8,0.6,3.2,1.5,4.4,2.5
		c1.2,1.1,2.1,2.3,2.7,3.6c0.6,1.4,0.9,2.8,0.9,4.3v1.9h-7.2L55.4,93.6L55.4,93.6z"/>
	<path class="st0" d="M71.6,81.6h24.2v6.9h-17v8.8h16.3v6.9H78.9v8.9h17.7v6.9h-25C71.6,120,71.6,81.6,71.6,81.6z"/>
	<path class="st0" d="M124.2,116.4h1V81.6h7.2V120h-14.2l-4.5-34.8h-1V120h-7.2V81.6h14.2L124.2,116.4z"/>
	<path class="st0" d="M160.8,93.6c0-1.5-0.6-2.8-1.8-3.8c-1.2-1.1-2.9-1.6-5-1.6c-1.8,0-3.3,0.4-4.3,1.1c-1.1,0.7-1.6,1.7-1.6,2.9
		c0,0.6,0.1,1.2,0.4,1.7s0.7,1,1.3,1.4s1.5,0.8,2.5,1.1c1,0.3,2.4,0.6,4,0.9c4,0.7,7.1,1.9,9.2,3.5c2.1,1.7,3.2,4.1,3.2,7.3v0.6
		c0,1.7-0.3,3.3-1,4.7c-0.6,1.4-1.6,2.6-2.8,3.6s-2.7,1.7-4.4,2.3c-1.7,0.5-3.7,0.8-5.8,0.8c-2.5,0-4.7-0.3-6.7-1
		c-1.9-0.7-3.5-1.6-4.8-2.8c-1.3-1.2-2.2-2.6-2.9-4.3c-0.7-1.6-1-3.4-1-5.4V105h7.2v1.3c0,2.2,0.7,4,2,5.3s3.4,2,6.2,2
		c2.2,0,3.8-0.5,4.9-1.4c1.1-0.9,1.6-2,1.6-3.3c0-0.6-0.1-1.2-0.3-1.7s-0.6-1-1.2-1.5c-0.5-0.4-1.3-0.8-2.2-1.2s-2.2-0.7-3.6-0.9
		c-1.9-0.3-3.7-0.7-5.3-1.2s-3-1.2-4.2-2s-2.1-1.9-2.8-3.2c-0.7-1.3-1-2.8-1-4.6v-0.3c0-1.5,0.3-2.9,1-4.2c0.6-1.3,1.5-2.4,2.7-3.4
		c1.2-0.9,2.5-1.7,4.2-2.2c1.6-0.5,3.4-0.8,5.5-0.8c2.3,0,4.3,0.3,6,0.9c1.8,0.6,3.2,1.5,4.4,2.5c1.2,1.1,2.1,2.3,2.7,3.6
		c0.6,1.4,0.9,2.8,0.9,4.3v1.9h-7.2L160.8,93.6L160.8,93.6z"/>
	<path class="st0" d="M176.3,81.6h24.2v6.9h-17v8.8h16.3v6.9h-16.3v8.9h17.7v6.9h-24.9V81.6z"/>
	<path class="st1" d="M232,4H4v146h228V4z"/>
</g>
</svg>
