<?xml version="1.0" encoding="UTF-8" standalone="no"?> <svg xmlns="http://www.w3.org/2000/svg" xmlns:xlink="http://www.w3.org/1999/xlink" xmlns:serif="http://www.serif.com/" width="100%" height="100%" viewBox="0 0 165 45" version="1.1" xml:space="preserve" style="fill-rule:evenodd;clip-rule:evenodd;stroke-linejoin:round;stroke-miterlimit:2;"> <g id="Group_2658" transform="matrix(1,0,0,1,-752.794,-483.507)"> <path id="Path_132" d="M755.764,483.507L811.8,483.507C813.429,483.507 814.77,484.848 814.77,486.477L814.77,525.282C814.77,526.911 813.429,528.252 811.8,528.252L755.764,528.252C754.135,528.252 752.794,526.911 752.794,525.282L752.794,486.477C752.794,484.848 754.135,483.507 755.764,483.507Z" style="fill:rgb(32,32,32);"></path> <g id="Path_133" transform="matrix(1,0,0,1,-9.942,-13.363)"> <path d="M790.587,531.166L785.412,531.166L779.921,521.801L774.413,531.166L769.256,531.166L777.167,518.294L769.431,505.632L774.553,505.632L779.921,514.856L785.289,505.632L790.412,505.632L782.693,518.294L790.587,531.166ZM810.176,521.766L810.176,531.166L805.72,531.166L805.72,521.766L797.141,505.632L802.071,505.632L807.947,517.732L813.824,505.632L818.736,505.632L810.176,521.766Z" style="fill:white;fill-rule:nonzero;"></path> </g> <g id="Path_134" transform="matrix(1,0,0,1,-104.509,-18.477)"> <path d="M937.091,516.811C936.023,515.927 934.661,515.476 933.277,515.548C931.964,515.48 930.663,515.845 929.577,516.586C928.696,517.204 928.179,518.222 928.198,519.298C928.179,520.29 928.641,521.231 929.438,521.822C930.639,522.642 931.986,523.227 933.405,523.544C934.84,523.894 936.228,524.413 937.54,525.091C938.39,525.545 939.115,526.201 939.653,527C940.139,527.79 940.386,528.705 940.363,529.632C940.401,531.15 939.683,532.591 938.448,533.474C936.972,534.5 935.197,535.009 933.401,534.922C932.052,534.937 930.713,534.677 929.468,534.156C928.373,533.723 927.429,532.977 926.754,532.012C926.132,531.077 925.809,529.975 925.828,528.852L927.541,528.852C927.489,530.172 928.088,531.437 929.141,532.235C930.381,533.114 931.882,533.551 933.401,533.474C934.746,533.54 936.078,533.174 937.201,532.43C938.102,531.774 938.636,530.725 938.636,529.611C938.636,528.61 938.204,527.655 937.452,526.994C936.14,526.103 934.671,525.47 933.122,525.129C931.495,524.744 929.943,524.092 928.528,523.201C927.241,522.333 926.467,520.878 926.467,519.325C926.467,517.835 927.179,516.431 928.382,515.551C929.805,514.535 931.528,514.023 933.275,514.096C934.523,514.075 935.759,514.341 936.887,514.875C937.9,515.35 938.757,516.104 939.358,517.047C939.942,517.975 940.247,519.051 940.235,520.147L938.509,520.147C938.558,518.877 938.037,517.649 937.089,516.803L937.091,516.811ZM959.516,533.2L959.516,534.648L946.9,534.648L946.9,514.378L959.444,514.378L959.444,515.826L948.615,515.826L948.615,523.482L958.1,523.482L958.1,524.93L948.619,524.93L948.619,533.2L959.516,533.2ZM979.352,534.648L967.7,517.3L967.7,534.645L965.974,534.645L965.974,514.378L967.7,514.378L979.367,531.738L979.367,514.378L981.067,514.378L981.067,534.647L979.352,534.648ZM998.993,516.812C997.925,515.928 996.563,515.477 995.178,515.549C993.865,515.481 992.564,515.846 991.478,516.587C990.597,517.206 990.08,518.224 990.1,519.3C990.08,520.291 990.543,521.233 991.339,521.824C992.541,522.644 993.887,523.228 995.307,523.546C996.742,523.896 998.13,524.415 999.442,525.093C1000.29,525.548 1001.02,526.205 1001.56,527.007C1002.04,527.797 1002.29,528.712 1002.27,529.639C1002.31,531.156 1001.59,532.598 1000.35,533.481C998.878,534.507 997.103,535.016 995.307,534.929C993.958,534.945 992.619,534.684 991.374,534.163C990.279,533.73 989.334,532.984 988.659,532.019C988.037,531.084 987.714,529.982 987.734,528.859L989.446,528.859C989.394,530.179 989.993,531.444 991.046,532.242C992.286,533.121 993.787,533.558 995.306,533.481C996.651,533.547 997.983,533.181 999.106,532.437C1000.01,531.781 1000.54,530.732 1000.54,529.619C1000.54,528.617 1000.11,527.663 999.356,527.001C998.044,526.11 996.575,525.477 995.026,525.136C993.399,524.751 991.847,524.1 990.432,523.208C989.145,522.34 988.371,520.885 988.371,519.332C988.371,517.842 989.083,516.438 990.286,515.558C991.71,514.542 993.433,514.03 995.18,514.103C996.428,514.081 997.665,514.348 998.793,514.882C999.806,515.358 1000.66,516.111 1001.26,517.054C1001.85,517.981 1002.15,519.058 1002.14,520.154L1000.41,520.154C1000.46,518.884 999.942,517.656 998.994,516.81L998.993,516.812ZM1021.42,533.2L1021.42,534.648L1008.81,534.648L1008.81,514.378L1021.35,514.378L1021.35,515.826L1010.52,515.826L1010.52,523.482L1020,523.482L1020,524.93L1010.52,524.93L1010.52,533.2L1021.42,533.2Z" style="fill:rgb(32,32,32);fill-rule:nonzero;"></path> </g> </g> </svg> 