<?xml version="1.0" encoding="UTF-8"?>
<svg id="layer" xmlns="http://www.w3.org/2000/svg" xmlns:xlink="http://www.w3.org/1999/xlink" version="1.1" viewBox="0 0 790.6 499.9">
  <defs>
    <style>
      .cls-1 {
        clip-path: url(#clippath);
      }

      .cls-2 {
        fill: none;
      }

      .cls-2, .cls-3, .cls-4, .cls-5, .cls-6, .cls-7, .cls-8, .cls-9, .cls-10 {
        stroke-width: 0px;
      }

      .cls-3 {
        fill: url(#linear-gradient);
      }

      .cls-11 {
        clip-path: url(#clippath-1);
      }

      .cls-12 {
        clip-path: url(#clippath-4);
      }

      .cls-13 {
        clip-path: url(#clippath-3);
      }

      .cls-14 {
        clip-path: url(#clippath-2);
      }

      .cls-15 {
        clip-path: url(#clippath-6);
      }

      .cls-16 {
        clip-path: url(#clippath-5);
      }

      .cls-4 {
        fill: url(#linear-gradient-4);
      }

      .cls-5 {
        fill: url(#linear-gradient-2);
      }

      .cls-6 {
        fill: url(#linear-gradient-3);
      }

      .cls-7 {
        fill: url(#linear-gradient-7);
      }

      .cls-8 {
        fill: url(#linear-gradient-5);
      }

      .cls-9 {
        fill: url(#linear-gradient-6);
      }

      .cls-10 {
        fill: #4e4e4f;
      }
    </style>
    <clipPath id="clippath">
      <polygon class="cls-2" points="311 104.4 310.5 104.4 301.8 237 343.9 237 327 78.8 311 104.4"/>
    </clipPath>
    <linearGradient id="linear-gradient" x1="-634.6" y1="159.3" x2="-623.3" y2="159.3" gradientTransform="translate(-619.7 5816.4) rotate(85.3) scale(8.8 -8.8)" gradientUnits="userSpaceOnUse">
      <stop offset="0" stop-color="#274322"/>
      <stop offset="0" stop-color="#274322"/>
      <stop offset="0" stop-color="#2c4322"/>
      <stop offset="1" stop-color="#9e3f22"/>
    </linearGradient>
    <clipPath id="clippath-1">
      <polygon class="cls-2" points="269.7 168.6 269.2 168.5 247.8 201.8 247.8 202.2 225.2 237 270.6 237 284.5 144.8 269.7 168.6"/>
    </clipPath>
    <linearGradient id="linear-gradient-2" x1="-629.8" y1="223.6" x2="-618.5" y2="223.6" gradientTransform="translate(-2078.6 2788.5) rotate(112.3) scale(5.3 -5.3)" gradientUnits="userSpaceOnUse">
      <stop offset="0" stop-color="#972f20"/>
      <stop offset="0" stop-color="#972f20"/>
      <stop offset=".5" stop-color="#9d4022"/>
      <stop offset="1" stop-color="#9f4b24"/>
    </linearGradient>
    <clipPath id="clippath-2">
      <polygon class="cls-2" points="356.6 33.1 356.4 33.1 375 237 428.6 237 377.7 0 356.6 33.1"/>
    </clipPath>
    <linearGradient id="linear-gradient-3" x1="-648.4" y1="151.1" x2="-637.1" y2="151.1" gradientTransform="translate(-3.3 7334.2) rotate(79.9) scale(11 -11)" gradientUnits="userSpaceOnUse">
      <stop offset="0" stop-color="#19401f"/>
      <stop offset=".4" stop-color="#15562c"/>
      <stop offset="1" stop-color="#19723a"/>
    </linearGradient>
    <clipPath id="clippath-3">
      <polygon class="cls-2" points="356.4 33.1 455.3 237 530.4 237 377.8 0 356.4 33.1"/>
    </clipPath>
    <linearGradient id="linear-gradient-4" x1="-660.8" y1="122.6" x2="-649.5" y2="122.6" gradientTransform="translate(5171.9 11329.3) rotate(56.5) scale(18.2 -18.2)" gradientUnits="userSpaceOnUse">
      <stop offset="0" stop-color="#58b947"/>
      <stop offset="1" stop-color="#046d3e"/>
    </linearGradient>
    <clipPath id="clippath-4">
      <polygon class="cls-2" points="225.1 237 270.6 237 247.8 201.8 225.1 237"/>
    </clipPath>
    <linearGradient id="linear-gradient-5" x1="-424.9" y1="154.2" x2="-413.6" y2="154.2" gradientTransform="translate(352.3 1383.9) rotate(64.9) scale(2.6 -2.6)" gradientUnits="userSpaceOnUse">
      <stop offset="0" stop-color="#ef4823"/>
      <stop offset=".8" stop-color="#eb2c28"/>
      <stop offset="1" stop-color="#eb2329"/>
      <stop offset="1" stop-color="#eb2329"/>
    </linearGradient>
    <clipPath id="clippath-5">
      <polygon class="cls-2" points="310.5 104.4 375 237 428.6 237 327 78.8 310.5 104.4"/>
    </clipPath>
    <linearGradient id="linear-gradient-6" x1="-768.6" y1="101.5" x2="-757.3" y2="101.5" gradientTransform="translate(-3566.4 -7285.5) rotate(-125.4) scale(10.9 -10.9)" gradientUnits="userSpaceOnUse">
      <stop offset="0" stop-color="#2b8d44"/>
      <stop offset=".3" stop-color="#54a446"/>
      <stop offset=".8" stop-color="#88c040"/>
      <stop offset="1" stop-color="#9ccb3d"/>
    </linearGradient>
    <clipPath id="clippath-6">
      <polygon class="cls-2" points="269.2 168.5 301.8 237 344 237 284.5 144.8 269.2 168.5"/>
    </clipPath>
    <linearGradient id="linear-gradient-7" x1="-621.3" y1="120.9" x2="-610" y2="120.9" gradientTransform="translate(2344.7 5601.7) rotate(58.3) scale(9.2 -9.2)" gradientUnits="userSpaceOnUse">
      <stop offset="0" stop-color="#fbb516"/>
      <stop offset="1" stop-color="#ee3c25"/>
    </linearGradient>
  </defs>
  <g class="cls-1">
    <polygon class="cls-3" points="288.8 79.8 302 240.5 356.9 235.9 343.7 75.3 288.8 79.8"/>
  </g>
  <g class="cls-11">
    <polygon class="cls-5" points="233.7 124 192.8 223.8 276 257.8 316.8 158.1 233.7 124"/>
  </g>
  <g class="cls-14">
    <polygon class="cls-6" points="315.5 7.3 358.6 249.5 469.5 229.7 426.4 -12.5 315.5 7.3"/>
  </g>
  <g class="cls-13">
    <polygon class="cls-4" points="247.3 72 409.3 317.1 639.5 164.9 477.5 -80.1 247.3 72"/>
  </g>
  <g class="cls-12">
    <polygon class="cls-8" points="211.6 208.2 233.3 254.5 284.1 230.7 262.4 184.4 211.6 208.2"/>
  </g>
  <g class="cls-16">
    <polygon class="cls-9" points="503.4 183.8 388.9 23 235.7 132 350.2 292.8 503.4 183.8"/>
  </g>
  <g class="cls-15">
    <polygon class="cls-7" points="228 170.3 289.9 270.4 385.2 211.5 323.3 111.4 228 170.3"/>
  </g>
  <path class="cls-10" d="M108.1,495.7v-10.8h23.8l-19.4-62.4h-54.9l-20.1,62.4h25.2v10.8H0v-10.8h24.4l65.4-197.2h14.6l62.1,197.2h21.6v10.8h-80ZM108.1,410.1l-22.4-74-24.1,74h46.5ZM235.5,499.9l44.1-123.5h16v-11.3h-47.5v11.3h18.7l-29.8,84.6-28.6-84.6h16.2v-11.3h-61.5v11.3h15.9l42.8,123.5h13.7ZM362.4,499.9c-31.8,0-65.9-25.6-65.9-63.7s24.3-74.2,65-74.2,59.2,24.2,59.6,58.9v2h-90.5v11.1c0,35,6.1,55.3,37,55.3s37.8-14.6,42.2-35.5l.3-1.6h11.1l-.5,2.4c-6.2,28.7-27.4,45.3-58.3,45.3M388,409.6v-8.9c0-18.8-9.2-28.4-27.5-28.4s-26.5,18.5-26.5,18.7c-1.8,6-2.8,12.3-3,18.6h57ZM719.3,499.9c-10.8,0-18.5-6.1-21.8-17.3-10.5,11.2-25.3,17.3-42.1,17.3-25.4,0-39.4-11.8-39.4-33.4.9-29.9,30.9-47.9,80.3-48.3v-28.4c0-15.2-13.2-17.5-21-17.5s-27.2,3.1-27.8,9.3c.3.3,1,.8,1.6,1.2,5,2.8,8,8.1,8,13.7,0,9.2-6.1,15.4-15.1,15.4s-15.4-6.8-15.4-17.3,14.2-32.7,53.2-32.7,45.4,16.5,45.4,33.3v76.1c0,10.6.4,12.7,4.7,12.7s6.7-4.3,9.3-13l.4-1.4h9v2.2c-.9,15.7-13.7,28-29.3,28.1M696.2,428.9c-34.7.9-52.3,11.4-52.3,31.2s8.6,23.3,22.6,23.3c8.7.4,17.1-2.8,23.3-8.8l.4-.4c2.5-2.5,5.9-5.8,5.9-17.6v-27.7h.1ZM568,499.9c12.6,0,29.6-7.2,36.3-20.7l.8-1.5-8-5.5-1.8,2.2c-4.7,5.6-8.7,10.4-15.8,10.4s-10.2-5.4-10.2-12.4v-95.7h27.2v-11.6h-27.1v-40.9l-2.3.4c-8,1-16,1.5-24,1.2h-2v39.3h-60.4v-40.9l-2.3.4c-8,1-16,1.5-24,1.2h-2v39.3h-19.1v11.6h18.4v93.4c0,14.4,2.1,29.8,27.6,29.8s29.6-7.2,36.3-20.6l.8-1.5-8-5.5-1.8,2.2c-4.7,5.6-8.7,10.4-15.8,10.4s-10.2-5.4-10.2-12.4v-95.7h59.8v93.5c0,14.2,2.1,29.6,27.6,29.6M776.7,499.9c-3.7,0-7.3-1.4-9.9-4.1-1.3-1.3-2.3-2.9-3-4.6-1.5-3.8-1.5-8.1,0-11.9.7-1.7,1.7-3.3,3-4.6,1.2-1.3,2.7-2.3,4.3-3,3.5-1.4,7.4-1.4,10.9,0,1.7.7,3.2,1.7,4.5,3s2.3,2.9,3,4.6c1.5,3.8,1.5,8.1,0,11.9-.7,1.7-1.7,3.3-3,4.6s-2.8,2.3-4.5,3c-1.6.7-3.5,1.1-5.3,1.1M776.7,497.1c1.5,0,3-.3,4.3-.9,1.3-.5,2.6-1.4,3.5-2.4,1-1.1,1.8-2.4,2.4-3.8.6-1.6.9-3.2.9-4.9s-.3-3.3-.9-4.8c-.6-1.4-1.3-2.7-2.4-3.8-1-1.1-2.2-1.9-3.5-2.5-2.8-1.2-5.9-1.2-8.6,0-1.3.6-2.5,1.4-3.5,2.5s-1.8,2.4-2.3,3.8c-.6,1.5-.9,3.2-.8,4.8,0,1.7.3,3.3.8,4.9.5,1.4,1.3,2.7,2.3,3.8,1,1,2.2,1.9,3.5,2.4,1.3.6,2.8.9,4.3.9M771.3,492.6v-15.1h5.6c1.4,0,2.9.3,4.1,1.1,1.2.8,1.9,2.3,1.7,3.8,0,.9-.2,1.8-.7,2.5s-1.2,1.3-2,1.6l3.4,6.2h-3.4l-2.6-5.2h-3.1v5.2h-3ZM774.4,485h2c2.2,0,3.2-.9,3.2-2.5s-.2-1.3-.7-1.8c-.7-.5-1.5-.8-2.4-.7h-2.2v5Z"/>
</svg>