<?xml version="1.0" encoding="UTF-8"?>
<svg id="Layer_1" data-name="Layer 1" xmlns="http://www.w3.org/2000/svg" version="1.1" viewBox="0 0 100 59.8">
  <defs>
    <style>
      .cls-1 {
        fill: #f90;
        fill-rule: evenodd;
      }

      .cls-1, .cls-2 {
        stroke-width: 0px;
      }

      .cls-2 {
        fill: #252f3e;
      }
    </style>
  </defs>
  <path class="cls-2" d="M28.2,21.7c0,1.2.1,2.2.4,3,.3.7.6,1.5,1.1,2.4.2.3.2.5.2.8,0,.3-.2.7-.6,1l-2.1,1.4c-.3.2-.6.3-.9.3s-.7-.2-1-.5c-.5-.5-.9-1-1.2-1.6-.3-.6-.7-1.2-1-2-2.6,3.1-5.9,4.6-9.8,4.6s-5-.8-6.7-2.4-2.5-3.7-2.5-6.4,1-5.1,3-6.9,4.7-2.6,8.1-2.6,2.3,0,3.5.3,2.5.4,3.8.7v-2.4c0-2.5-.5-4.3-1.6-5.3-1.1-1-2.9-1.5-5.4-1.5s-2.4.1-3.6.4-2.4.7-3.6,1.1c-.5.2-.9.4-1.2.4-.2,0-.4,0-.5,0-.5,0-.7-.3-.7-1v-1.6c0-.5,0-.9.2-1.2s.5-.5.9-.7c1.2-.6,2.6-1.1,4.2-1.5,1.6-.4,3.4-.6,5.2-.6,4,0,6.9.9,8.7,2.7,1.8,1.8,2.8,4.5,2.8,8.2v10.8h0ZM14.7,26.8c1.1,0,2.2-.2,3.4-.6,1.2-.4,2.3-1.1,3.2-2.1.5-.6.9-1.3,1.1-2.1s.3-1.8.3-2.9v-1.4c-1-.2-2-.4-3.1-.6s-2.1-.2-3.1-.2c-2.2,0-3.9.4-5,1.3-1.1.9-1.6,2.2-1.6,3.8s.4,2.7,1.2,3.5c.8.8,2,1.2,3.5,1.2ZM41.4,30.4c-.6,0-1,0-1.3-.3-.3-.2-.5-.7-.7-1.3L31.6,3c-.2-.7-.3-1.1-.3-1.3,0-.5.3-.8.8-.8h3.3c.6,0,1.1,0,1.3.3.3.2.5.7.7,1.3l5.6,22,5.2-22c.2-.7.4-1.1.6-1.3.3-.2.7-.3,1.3-.3h2.7c.6,0,1.1,0,1.3.3.3.2.5.7.6,1.3l5.3,22.3,5.8-22.3c.2-.7.4-1.1.7-1.3.3-.2.7-.3,1.3-.3h3.1c.5,0,.8.3.8.8s0,.3,0,.5c0,.2,0,.5-.2.8l-8,25.7c-.2.7-.4,1.1-.7,1.3-.3.2-.7.3-1.3.3h-2.9c-.6,0-1.1,0-1.3-.3s-.5-.7-.6-1.3l-5.2-21.5-5.1,21.4c-.2.7-.4,1.1-.6,1.3-.3.2-.7.3-1.3.3h-2.9ZM84.1,31.3c-1.7,0-3.5-.2-5.1-.6s-3-.8-3.8-1.3c-.5-.3-.9-.6-1-.9-.1-.3-.2-.6-.2-.9v-1.7c0-.7.3-1,.8-1s.4,0,.6,0,.5.2.8.3c1.1.5,2.4.9,3.7,1.2,1.3.3,2.6.4,4,.4,2.1,0,3.7-.4,4.9-1.1s1.7-1.8,1.7-3.2-.3-1.7-.9-2.3c-.6-.6-1.7-1.2-3.4-1.7l-4.8-1.5c-2.4-.8-4.2-1.9-5.3-3.4-1.1-1.5-1.7-3.1-1.7-4.8s.3-2.6.9-3.7,1.4-2,2.4-2.7c1-.8,2.1-1.3,3.5-1.7s2.7-.6,4.2-.6,1.5,0,2.2.1c.8,0,1.5.2,2.2.4.7.2,1.3.3,1.9.5.6.2,1.1.4,1.4.6.5.3.8.5,1,.8.2.3.3.6.3,1.1v1.6c0,.7-.3,1.1-.8,1.1s-.7-.1-1.3-.4c-1.9-.9-4-1.3-6.4-1.3s-3.4.3-4.4.9c-1,.6-1.6,1.6-1.6,3s.3,1.7,1,2.4c.7.6,1.9,1.3,3.7,1.8l4.7,1.5c2.4.8,4.1,1.8,5.2,3.2s1.5,2.9,1.5,4.7-.3,2.7-.9,3.9c-.6,1.1-1.4,2.1-2.4,2.9-1,.8-2.3,1.4-3.7,1.9-1.5.5-3.1.7-4.8.7Z"/>
  <g>
    <path class="cls-1" d="M90.4,47.4c-10.9,8.1-26.8,12.4-40.5,12.4S13.5,52.7.4,40.9c-1-.9,0-2.2,1.1-1.5,14.1,8.2,31.5,13.1,49.5,13.1s25.5-2.5,37.7-7.7c1.8-.8,3.4,1.2,1.6,2.5Z"/>
    <path class="cls-1" d="M95,42.2c-1.4-1.8-9.2-.9-12.8-.4-1.1.1-1.2-.8-.3-1.5,6.3-4.4,16.5-3.1,17.7-1.7,1.2,1.5-.3,11.8-6.2,16.7-.9.8-1.8.4-1.4-.6,1.3-3.3,4.3-10.7,2.9-12.5Z"/>
  </g>
</svg>