<?xml version="1.0" encoding="UTF-8"?>
<svg id="svg8" xmlns="http://www.w3.org/2000/svg" xmlns:svg="http://www.w3.org/2000/svg" xmlns:sodipodi="http://sodipodi.sourceforge.net/DTD/sodipodi-0.dtd" xmlns:rdf="http://www.w3.org/1999/02/22-rdf-syntax-ns#" xmlns:inkscape="http://www.inkscape.org/namespaces/inkscape" xmlns:dc="http://purl.org/dc/elements/1.1/" xmlns:cc="http://creativecommons.org/ns#" version="1.1" viewBox="0 0 55.8 43.2">
  <defs>
    <style>
      .cls-1 {
        fill: #0089d6;
        stroke-width: 0px;
      }
    </style>
  </defs>
  <sodipodi:namedview id="base" bordercolor="#666666" borderopacity="1.0" fit-margin-bottom="0" fit-margin-left="0" fit-margin-right="0" fit-margin-top="0" inkscape:current-layer="layer1" inkscape:cx="67.4659" inkscape:cy="38.024323" inkscape:document-units="mm" inkscape:pagecheckerboard="true" inkscape:pageopacity="0.0" inkscape:pageshadow="2" inkscape:window-height="781" inkscape:window-maximized="0" inkscape:window-width="930" inkscape:window-x="667" inkscape:window-y="117" inkscape:zoom="6.5246067" pagecolor="#ffffff" showgrid="false"/>
  <g id="layer1" inkscape:groupmode="layer" inkscape:label="Layer 1">
    <g id="layer1-1" inkscape:label="Layer 1">
      <path id="path21" class="cls-1" d="M25.8,40.9c7.2-1.3,13.1-2.3,13.2-2.3h.1s-6.8-8.1-6.8-8.1c-3.7-4.4-6.8-8.1-6.8-8.1,0,0,7-19.3,7-19.4,0,0,4.8,8.2,11.5,19.9,6.3,11,11.5,20,11.6,20.1v.2c0,0-21.4,0-21.4,0H12.8s13-2.3,13-2.3ZM0,38.5s3.2-5.5,7.1-12.3l7.1-12.3,8.3-6.9C27,3.1,30.7,0,30.7,0c0,0,0,.1-.1.3,0,.2-4.1,8.8-9,19.2l-8.8,18.9h-6.4c-3.5,0-6.4,0-6.4,0Z" inkscape:connector-curvature="0"/>
    </g>
  </g>
</svg>