<?xml version="1.0" encoding="UTF-8"?>
<svg id="Layer_1" data-name="Layer 1" xmlns="http://www.w3.org/2000/svg" xmlns:xlink="http://www.w3.org/1999/xlink" version="1.1" viewBox="0 0 46 33.1">
  <defs>
    <style>
      .cls-1 {
        fill: url(#linear-gradient);
      }

      .cls-1, .cls-2, .cls-3 {
        stroke-width: 0px;
      }

      .cls-2 {
        fill: url(#radial-gradient);
      }

      .cls-3 {
        fill: url(#linear-gradient-2);
      }
    </style>
    <linearGradient id="linear-gradient" x1="24.5" y1="16" x2="-.3" y2="16" gradientTransform="translate(0 35.1) scale(1 -1)" gradientUnits="userSpaceOnUse">
      <stop offset="0" stop-color="#0c63ad"/>
      <stop offset="1" stop-color="#50e6ff"/>
    </linearGradient>
    <radialGradient id="radial-gradient" cx="25.4" cy="28.3" fx="25.4" fy="28.3" r="21.8" gradientTransform="translate(0 47) scale(1 -1.1)" gradientUnits="userSpaceOnUse">
      <stop offset="0" stop-color="#185c37"/>
      <stop offset=".7" stop-color="#30dc80"/>
      <stop offset="1" stop-color="#5eee5c"/>
    </radialGradient>
    <linearGradient id="linear-gradient-2" x1=".6" y1="14.6" x2="51.8" y2="23.7" gradientTransform="translate(0 35.1) scale(1 -1)" gradientUnits="userSpaceOnUse">
      <stop offset="0" stop-color="#103f8d"/>
      <stop offset=".5" stop-color="#2f64f7"/>
      <stop offset="1" stop-color="#11408b"/>
    </linearGradient>
  </defs>
  <path class="cls-1" d="M25.6,23.5l-2.5,5.5c-1,1.2-2.2,2.3-3.7,2.9-1.4.7-3,1.1-4.6,1.1-6.6.1-9.7-5.8-9.7-5.8C1.5,21.1.4,13,.1,10.4c0-.3-.1-.6-.1-.9,0-.8.2-1.6.7-2.3.4-.7,1-1.3,1.7-1.7.8-.4,1.6-.5,2.4-.5.8,0,1.6.2,2.2.6.5.3.9.7,1.3,1.2.5.9.8,2,.8,3,.3,2.3.7,4.6,1.4,6.9.5,1.8,1.2,3.5,2.1,5.2.3.8.9,1.4,1.5,1.9l.4.2c1.1.2,1.6-.7,2-1.4.5-1.2,1-2.5,1.4-3.8,0-.3.1-.5.2-.7.1-.5.2-.9.3-1.4l2.1-5.6,5.2,12.4Z"/>
  <path class="cls-2" d="M31.3,0c-1.6,0-3.2.4-4.6,1-1.4.7-2.7,1.8-3.7,3.1l-2.9,7.9,5.8,11,2-6.3.2-1c.4-1.7.9-3.3,1.6-4.8.2-.6.6-1.2,1.1-1.7h0c.5-.3,1-.2,1.4.1.2.2.4.4.6.7.2.3.3.5.5.8.3.5.6,1.1.8,1.7.2.5.5.9.8,1.3,0,0,0,0,0,0,.4.5,1,.9,1.6,1.2.6.3,1.2.5,1.9.5.6,0,1.2-.1,1.8-.3.6-.2,1.1-.5,1.5-1,.4-.5.7-1,1-1.5.2-.6.3-1.2.3-1.8,0-.7-.1-1.3-.4-1.9,0,0-1.8-4.6-4.8-6.9C35.9.8,33.6,0,31.3,0Z"/>
  <path class="cls-3" d="M14.1,0c-.4,0-.8,0-1.2.1-3,.6-5.6,2.4-7.2,5,.4.1.9.3,1.2.5.5.3,1,.7,1.3,1.2.5.9.8,1.9.8,3,.3,2.3.7,4.5,1.3,6.7.6-2.4,1.7-4.7,3.1-6.8.2-.2.4-.4.6-.6.1,0,.3-.1.5-.1.3,0,.5,0,.8.2,0,0,0,0,.1,0,.2.2.4.4.6.6.3.6.7,1.3.9,2,.5,1.4,1,3.3,1,3.3l1.3,5.2c.5,1.8,1,3.6,1.8,5.3,2,4.6,5.1,5.9,5.1,5.9,1.5.8,3.2,1.2,4.9,1.3,1.6,0,3.2-.3,4.7-1,1.6-.8,3-1.9,4.2-3.3.7-.9,1.3-1.9,1.8-2.9,1.2-2.4,2.2-5,2.8-7.6.4-1.6.8-3.3,1-5,.1-.8.3-1.7.3-2.5.1-.8.1-1.6,0-2.3,0-.1,0-.3-.1-.4-.4-1-1.1-1.8-2-2.3-.7-.4-1.4-.7-2.2-.7-.4,0-.7,0-1.1.1.8,1.2,1.6,2.5,2.2,3.9.3.6.4,1.2.4,1.9,0,.6-.1,1.2-.3,1.8-.3.5-.6,1-1,1.5-.4.5-.9.8-1.5,1-.6.2-1.2.3-1.8.3-.8,0-1.6-.2-2.3-.7l-.5,1.8c-.3,1.4-.8,2.7-1.4,3.9-.3.8-.7,1.5-1.2,2.2-.3.5-.7.9-1.2,1.1-.2,0-.4,0-.6,0-.2,0-.4,0-.6-.2-.3-.3-.6-.6-.8-1-.3-.4-.5-.9-.7-1.3-.4-1-1-3.4-1-3.4l-.6-2.6-.7-2.5-.5-1.7c-.5-2.3-1.5-4.6-2.9-6.5-1.3-1.9-3.2-3.3-5.4-4.1-.9-.3-1.7-.5-2.6-.5,0,0-1.3,0-1.3,0Z"/>
</svg>