<?xml version="1.0" encoding="utf-8"?>
<!-- Generator: Adobe Illustrator 27.2.0, SVG Export Plug-In . SVG Version: 6.00 Build 0)  -->
<svg version="1.1" id="Layer_1" xmlns="http://www.w3.org/2000/svg" xmlns:xlink="http://www.w3.org/1999/xlink" x="0px" y="0px"
	 viewBox="0 0 222.6 91.6" style="enable-background:new 0 0 222.6 91.6;" xml:space="preserve">
<style type="text/css">
	.st0{clip-path:url(#SVGID_00000074429768619261185770000005257648663763144854_);}
	.st1{clip-path:url(#SVGID_00000016049852699970336810000017164034076915521211_);}
	.st2{clip-path:url(#SVGID_00000100383260494501160050000000731865313669963444_);}
	.st3{fill:url(#SVGID_00000115514815232110779350000016709337163587644585_);}
	.st4{clip-path:url(#SVGID_00000123428503897477881320000013446015035717186473_);}
	.st5{fill:url(#SVGID_00000087394310608177591200000011825356644673507001_);}
	.st6{clip-path:url(#SVGID_00000125592173545731575420000012564918278967970233_);}
	.st7{fill:url(#SVGID_00000135655282853404875050000014751369886726237111_);}
	.st8{clip-path:url(#SVGID_00000047783178309070436970000001823161227030256300_);}
	.st9{fill:url(#SVGID_00000027606787429449190580000008589633186216968858_);}
	.st10{clip-path:url(#SVGID_00000127762443753571340310000006342906562141345722_);}
	.st11{fill:url(#SVGID_00000137105822138038228080000017958664538958234499_);}
	.st12{clip-path:url(#SVGID_00000114058347115987292150000010801296864926391707_);}
	.st13{fill:url(#SVGID_00000163779203592533102210000009118814891151028665_);}
	.st14{clip-path:url(#SVGID_00000096061176110857552740000004592970208423584686_);}
	.st15{fill:url(#SVGID_00000150078461508252426560000003879697935617754252_);}
	.st16{clip-path:url(#SVGID_00000155827221146257877160000017275715799978693051_);}
	.st17{fill:url(#SVGID_00000170250119638684849410000010960204923629262487_);}
	.st18{clip-path:url(#SVGID_00000030448019883313809500000006196229061939314850_);}
	.st19{fill:url(#SVGID_00000016761763767167700660000014153495336752550558_);}
	.st20{clip-path:url(#SVGID_00000161594908932154134450000004481427295235206306_);}
	.st21{fill:url(#SVGID_00000122717764703264057820000017858403142200865687_);}
	.st22{clip-path:url(#SVGID_00000151513754036657901410000011725570492483573426_);}
	.st23{fill:url(#SVGID_00000062191116862559713710000008230974060932839571_);}
	.st24{clip-path:url(#SVGID_00000168828023970928108030000009959006240040001692_);}
	.st25{fill:url(#SVGID_00000154398969961224435250000007673811400790547126_);}
	.st26{clip-path:url(#SVGID_00000146469706914950361240000001673344145583413417_);}
	.st27{fill:url(#SVGID_00000081649490360388662380000018178584485098764959_);}
	.st28{clip-path:url(#SVGID_00000122719796554516266470000003232707533720886954_);}
	.st29{fill:url(#SVGID_00000121984171014741774800000008715302626702563511_);}
	.st30{clip-path:url(#SVGID_00000106836637505045173740000017614546533202077371_);}
	.st31{fill:url(#SVGID_00000005247427062374253240000017186572958146178447_);}
	.st32{clip-path:url(#SVGID_00000077299624426792847780000014846937841086163353_);}
	.st33{fill:url(#SVGID_00000064319142569669392420000009843203578583491228_);}
	.st34{clip-path:url(#SVGID_00000086689417111425366050000005890336117869036478_);}
	.st35{fill:url(#SVGID_00000179628732008817954250000014986161991288651142_);}
	.st36{clip-path:url(#SVGID_00000115481891985440711540000012626129416678256279_);}
	.st37{fill:url(#SVGID_00000079452726590410839050000002039112096769523611_);}
	.st38{clip-path:url(#SVGID_00000138568809894664951810000005418322410239433115_);}
	.st39{fill:url(#SVGID_00000057828622397004002580000014032362890303772095_);}
	.st40{clip-path:url(#SVGID_00000091727687230896384920000007045812036931357824_);}
	.st41{fill:url(#SVGID_00000129200576536235940900000014137062934555568548_);}
	.st42{clip-path:url(#SVGID_00000048482488140124248520000001492262171305601203_);}
	.st43{fill:url(#SVGID_00000079480507163335475030000018128028207629204120_);}
	.st44{clip-path:url(#SVGID_00000028303801179224411580000002985655491848878497_);}
	.st45{fill:url(#SVGID_00000122685214047347736210000004624274340304936066_);}
	.st46{clip-path:url(#SVGID_00000174559716838121987660000000796862778654714554_);}
	.st47{fill:url(#SVGID_00000073710565322017155680000005473956888784375199_);}
	.st48{clip-path:url(#SVGID_00000177458489013320640270000003069072209228177569_);}
	.st49{fill:url(#SVGID_00000151533108839904623160000011510228529584979359_);}
	.st50{clip-path:url(#SVGID_00000054949290778829745070000006443618424038701496_);}
	.st51{fill:url(#SVGID_00000103264539758423020350000011534423232598436512_);}
	.st52{clip-path:url(#SVGID_00000049941905349318659710000001669456639184411036_);}
	.st53{fill:url(#SVGID_00000080909374854750566020000006819542449216514992_);}
	.st54{clip-path:url(#SVGID_00000075161205806381070570000015296135980358984578_);}
	.st55{fill:url(#SVGID_00000057847537465226028710000016003231588632756369_);}
	.st56{clip-path:url(#SVGID_00000164503955581769080920000018401036474485714605_);}
	.st57{fill:url(#SVGID_00000076591710869049530040000002531591437388359852_);}
	.st58{clip-path:url(#SVGID_00000078723911780463050350000003149094829675106181_);}
	.st59{fill:url(#SVGID_00000083792018933972930690000018182846838736812954_);}
	.st60{clip-path:url(#SVGID_00000011735549343324418580000017041894628719580348_);}
	.st61{fill:url(#SVGID_00000044172294371108409400000016144699715618421177_);}
	.st62{clip-path:url(#SVGID_00000059268727234703527570000009978816046675433359_);}
	.st63{fill:url(#SVGID_00000165209601442630095430000006262276911467669130_);}
	.st64{clip-path:url(#SVGID_00000008128844874147614850000006970953009956916153_);}
	.st65{fill:url(#SVGID_00000106826355701194618040000014535797118226673280_);}
	.st66{clip-path:url(#SVGID_00000044143594403275844510000012654430825656114365_);}
	.st67{fill:url(#SVGID_00000170248953898410421900000014461214706123271335_);}
	.st68{clip-path:url(#SVGID_00000060714457435259627920000014615421882027435181_);}
	.st69{fill:url(#SVGID_00000106833560833028209570000009430260358308309906_);}
</style>
<g>
	<defs>
		<rect id="SVGID_1_" x="0.6" y="25.8" width="222" height="61.4"/>
	</defs>
	<clipPath id="SVGID_00000176754599093272575980000010612667767826111671_">
		<use xlink:href="#SVGID_1_"  style="overflow:visible;"/>
	</clipPath>
	<g style="clip-path:url(#SVGID_00000176754599093272575980000010612667767826111671_);">
		<polygon points="106.2,36.8 112.1,36.8 103.5,62.6 96.7,62.6 90.3,43.2 84,62.7 77.4,62.7 68.8,36.8 74.8,36.8 80.9,56.5 
			87.2,36.8 93.6,36.8 100,56.6 		"/>
		<g>
			<defs>
				<rect id="SVGID_00000180366442106143663410000002300575517972485761_" x="0.6" y="25.8" width="222" height="61.1"/>
			</defs>
			<clipPath id="SVGID_00000013180764961145623150000012923710110949703043_">
				<use xlink:href="#SVGID_00000180366442106143663410000002300575517972485761_"  style="overflow:visible;"/>
			</clipPath>
			<g style="clip-path:url(#SVGID_00000013180764961145623150000012923710110949703043_);">
				<path d="M137.3,51.8h-19.1c0.2,1.3,0.7,2.6,1.4,3.7c0.7,0.9,1.6,1.7,2.7,2.2c1.1,0.5,2.3,0.7,3.5,0.7c1.3,0,2.7-0.2,3.9-0.7
					c1.3-0.5,2.5-1.2,3.5-2l2.8,4c-1.4,1.3-3.1,2.2-4.9,2.8c-1.9,0.6-3.8,0.9-5.7,0.9c-2.4,0-4.8-0.5-6.9-1.7
					c-2-1.1-3.6-2.8-4.6-4.8c-2.2-4.5-2.2-9.8,0-14.2c1.1-2,2.6-3.7,4.6-4.8c2-1.2,4.3-1.8,6.7-1.7c4.5-0.1,8.7,2.4,10.7,6.5
					c1.1,2.2,1.6,4.6,1.6,7.1C137.4,50.4,137.3,51.1,137.3,51.8 M131.6,47.5c-0.2-1.8-1-3.4-2.2-4.7c-1.2-1.1-2.7-1.7-4.3-1.6
					c-1.7-0.1-3.4,0.5-4.6,1.7c-1.2,1.3-2,2.9-2.2,4.6H131.6z"/>
				<path d="M161.4,37.9c2,1.2,3.6,2.9,4.6,4.9c2.3,4.4,2.3,9.6,0,14c-1.1,2-2.7,3.7-4.6,4.9c-2,1.2-4.2,1.8-6.5,1.7
					c-1.6,0-3.2-0.3-4.6-1c-1.3-0.6-2.5-1.6-3.5-2.8v3.1H141V25.9h5.7V40c0.9-1.2,2.1-2.1,3.5-2.8c1.4-0.7,3-1,4.6-0.9
					C157.1,36.2,159.4,36.7,161.4,37.9 M158.3,57c1.2-0.7,2.1-1.8,2.8-3c0.6-1.3,0.9-2.7,0.9-4.2c0-1.4-0.3-2.9-0.9-4.2
					c-0.6-1.2-1.6-2.3-2.8-3c-2.5-1.5-5.7-1.5-8.2,0c-1.2,0.7-2.1,1.8-2.8,3c-0.7,1.3-1,2.8-0.9,4.2c0,1.5,0.3,2.9,0.9,4.2
					c0.6,1.2,1.6,2.3,2.8,3c1.2,0.7,2.7,1.1,4.1,1.1C155.6,58.1,157,57.6,158.3,57"/>
				<path d="M195.7,51.8h-19.1c0.2,1.3,0.7,2.6,1.4,3.7c0.7,0.9,1.6,1.7,2.7,2.2c1.1,0.5,2.3,0.7,3.5,0.7c1.3,0,2.7-0.2,3.9-0.7
					c1.3-0.5,2.5-1.2,3.5-2l2.8,4c-1.4,1.3-3.1,2.2-4.9,2.8c-1.9,0.6-3.8,0.9-5.7,0.9c-2.4,0-4.7-0.5-6.9-1.6
					c-2-1.1-3.6-2.8-4.6-4.8c-2.2-4.5-2.2-9.8,0-14.2c1.1-2,2.6-3.7,4.6-4.8c2-1.2,4.3-1.8,6.7-1.7c4.5-0.1,8.7,2.4,10.7,6.5
					c1.1,2.2,1.6,4.6,1.6,7.1C195.8,50.3,195.8,51,195.7,51.8 M190,47.5c-0.2-1.8-1-3.4-2.2-4.7c-1.2-1.1-2.8-1.7-4.4-1.6
					c-1.7-0.1-3.4,0.5-4.6,1.7c-1.2,1.3-2,2.9-2.2,4.6H190z"/>
				<polygon points="222.6,62.7 215.7,62.7 209.1,53.7 202.7,62.7 196.1,62.7 205.8,49.5 196.2,36.8 203.1,36.8 209.4,45.5 
					215.7,36.8 222.4,36.8 212.8,49.4 				"/>
				<path d="M154.7,84h-1.2V73.6h1.4v3.9c0.6-0.8,1.5-1.3,2.5-1.3c0.5,0,1,0.1,1.4,0.2c0.4,0.2,0.8,0.5,1.1,0.9
					c0.6,0.8,0.8,1.8,0.8,2.8c0.1,1.1-0.3,2.3-1.1,3.1c-0.3,0.3-0.7,0.6-1.1,0.7c-0.4,0.2-0.8,0.2-1.3,0.2c-0.5,0-1-0.1-1.4-0.3
					c-0.4-0.2-0.8-0.6-1.1-0.9L154.7,84z M159.3,80.2c0.2-1.1-0.4-2.2-1.4-2.6c-0.3-0.1-0.5-0.1-0.8-0.2c-0.3,0-0.6,0.1-0.9,0.2
					c-0.3,0.1-0.5,0.3-0.7,0.5c-0.4,0.6-0.6,1.3-0.5,2c-0.1,0.8,0.2,1.6,0.7,2.2c0.2,0.2,0.4,0.4,0.7,0.5c0.3,0.1,0.6,0.2,0.9,0.2
					c0.3,0,0.6-0.1,1-0.2c0.3-0.1,0.6-0.3,0.7-0.6C159.2,81.6,159.4,80.9,159.3,80.2"/>
				<path d="M168.2,76.6l-2.6,7.6c-0.2,0.7-0.5,1.4-1,2c-0.2,0.2-0.4,0.4-0.6,0.5c-0.3,0.1-0.5,0.1-0.8,0.2c-0.3,0-0.6-0.1-0.9-0.2
					v-1.1c0.2,0.1,0.5,0.1,0.7,0.1c0.1,0,0.3,0,0.4-0.1c0.1-0.1,0.2-0.1,0.3-0.2c0.3-0.4,0.5-0.9,0.6-1.3h-0.5l-2.8-7.6h1.5l2.1,6.4
					l2.1-6.4L168.2,76.6z"/>
				<rect x="184.7" y="73.7" width="2.6" height="10.5"/>
				<path d="M208.5,76.6c-0.7-0.4-1.4-0.6-2.2-0.5c-1.5-0.1-2.8,1-2.9,2.5c0,0.1,0,0.1,0,0.2c0,1.5,1.1,2.7,2.6,2.8
					c0.1,0,0.2,0,0.3,0c0.8,0,1.5-0.2,2.2-0.5v2.8c-0.8,0.2-1.6,0.4-2.4,0.4c-3,0-5.4-2.4-5.4-5.4s2.4-5.4,5.4-5.4c0,0,0,0,0,0
					c0.8,0,1.6,0.1,2.4,0.4V76.6z"/>
				<path d="M181,76.6c-0.7-0.4-1.4-0.6-2.2-0.5c-1.5-0.1-2.8,1-2.9,2.5c0,0.1,0,0.1,0,0.2c0,1.5,1.1,2.7,2.6,2.8c0.1,0,0.2,0,0.3,0
					c0.8,0,1.5-0.2,2.2-0.5v2.8c-0.8,0.2-1.6,0.4-2.4,0.4c-3,0-5.4-2.4-5.4-5.4s2.4-5.4,5.4-5.4c0,0,0,0,0,0c0.8,0,1.6,0.1,2.4,0.4
					V76.6z"/>
				<path d="M216.8,76.2c-0.3,0-0.7,0.1-1,0.2c-0.3,0.1-0.6,0.3-0.9,0.6c-0.3,0.2-0.5,0.5-0.6,0.9c-0.2,0.3-0.2,0.7-0.1,1
					c0,0.3,0.1,0.7,0.1,1c0.1,0.3,0.3,0.6,0.6,0.9c0.3,0.3,0.5,0.5,0.9,0.6c0.3,0.1,0.7,0.2,1,0.2c0.7,0,1.4-0.3,1.9-0.9
					c0.3-0.2,0.4-0.5,0.5-0.9c0.2-0.3,0.2-0.7,0.2-1c0-0.3-0.1-0.7-0.2-1c-0.1-0.3-0.3-0.6-0.5-0.9c-0.2-0.3-0.5-0.5-0.9-0.6
					C217.5,76.2,217.2,76.1,216.8,76.2 M222.3,78.9c0,3-2.4,5.6-5.4,5.6s-5.6-2.4-5.6-5.4c0-3,2.4-5.6,5.4-5.6c0,0,0.1,0,0.1,0
					C219.8,73.4,222.3,75.8,222.3,78.9C222.3,78.8,222.3,78.8,222.3,78.9"/>
				<path d="M197.3,76c-0.7-0.2-1.3-0.3-2-0.3c-1,0-1.6,0.3-1.6,0.9s0.8,0.9,1.2,1l0.7,0.2c1.4,0.3,2.5,1.5,2.5,3
					c0,2.6-2.3,3.5-4.3,3.5c-1,0-1.9-0.1-2.8-0.3v-2.4c0.8,0.3,1.7,0.4,2.5,0.4c1.3,0,1.9-0.4,1.9-1s-0.5-0.9-1.2-1l-0.5-0.2
					c-1.4-0.5-2.7-1.3-2.7-3.1c0-2,1.4-3.2,3.9-3.2c0.9,0,1.7,0.1,2.6,0.3L197.3,76z"/>
			</g>
		</g>
		<g>
			<defs>
				<path id="SVGID_00000142135423521018028540000017043084449421371570_" d="M38.3,25.8c-1.9,0-3.8,0.5-5.5,1.4
					c-1.7,0.9-3.2,2.1-4.4,3.7l-5.6,15c-0.1,0.6-0.2,1.1-0.4,1.7c-0.1,0.3-0.2,0.5-0.2,0.9c-0.5,1.6-1,3.1-1.6,4.6
					c-0.5,0.9-1.2,1.9-2.4,1.6l-0.5-0.2c-0.8-0.6-1.4-1.4-1.8-2.3c-1.1-2-1.9-4.1-2.5-6.2c-0.8-2.7-1.3-5.5-1.6-8.3
					c0-1.3-0.4-2.5-1-3.6c-0.4-0.6-1-1.1-1.6-1.4c-0.8-0.5-1.7-0.8-2.7-0.8c-1,0-2,0.2-2.9,0.6c-0.8,0.5-1.5,1.2-2,2
					c-0.5,0.8-0.8,1.8-0.8,2.8c0,0.4,0.1,0.7,0.2,1.1C1.1,41.4,2.5,51.2,7,58.6c0,0,3.7,7.2,11.6,7c1.9-0.1,3.8-0.5,5.5-1.3
					c1.7-0.8,3.2-2,4.4-3.5l3.2-7.2l2.4-7.6l0.2-1.2c0.5-2,1.1-3.9,1.9-5.8c0.3-0.8,0.7-1.5,1.3-2l0.1-0.1c0.6-0.3,1.3-0.2,1.7,0.2
					c0.3,0.2,0.5,0.5,0.7,0.8c0.2,0.3,0.4,0.6,0.6,0.9c0.4,0.6,0.7,1.3,1,2c0.2,0.6,0.5,1.1,0.9,1.6c0,0,0.1,0,0.1,0.1
					c0.5,0.6,1.2,1.1,1.9,1.4c0.7,0.4,1.5,0.6,2.3,0.5c0.7,0,1.4-0.1,2.1-0.4c0.7-0.3,1.3-0.7,1.8-1.2c0.5-0.6,0.9-1.2,1.2-1.8
					c0.2-0.7,0.4-1.4,0.4-2.1c0-0.8-0.2-1.6-0.5-2.3c0,0-2.1-5.5-5.8-8.3C43.9,26.7,41.1,25.8,38.3,25.8z"/>
			</defs>
			<clipPath id="SVGID_00000160903700274408317170000006792445565627952808_">
				<use xlink:href="#SVGID_00000142135423521018028540000017043084449421371570_"  style="overflow:visible;"/>
			</clipPath>
			<g style="clip-path:url(#SVGID_00000160903700274408317170000006792445565627952808_);">
				
					<linearGradient id="SVGID_00000057849297299927725500000014393578587599822000_" gradientUnits="userSpaceOnUse" x1="245.4389" y1="-276.0753" x2="246.2289" y2="-276.0753" gradientTransform="matrix(54.8205 -22.1601 22.1601 54.8205 -7333.2378 20628.377)">
					<stop  offset="0" style="stop-color:#1CBBF3"/>
					<stop  offset="0.13" style="stop-color:#1CBBF3"/>
					<stop  offset="0.34" style="stop-color:#1F99A5"/>
					<stop  offset="0.45" style="stop-color:#209CA6"/>
					<stop  offset="0.51" style="stop-color:#24A4AA"/>
					<stop  offset="0.57" style="stop-color:#2BB3B0"/>
					<stop  offset="0.6" style="stop-color:#30BDB4"/>
					<stop  offset="0.79" style="stop-color:#38BA90"/>
					<stop  offset="1" style="stop-color:#60F05A"/>
				</linearGradient>
				<polygon style="fill:url(#SVGID_00000057849297299927725500000014393578587599822000_);" points="-13.3,31.4 45.1,7.8 
					66.2,60.1 7.9,83.7 				"/>
			</g>
		</g>
		<g>
			<defs>
				<path id="SVGID_00000065759472600627697890000008778183731248186274_" d="M38.3,25.8c-1.9,0-3.8,0.5-5.5,1.4
					c-1.7,0.9-3.2,2.1-4.4,3.7l-5.6,15c-0.1,0.6-0.2,1.1-0.4,1.7c-0.1,0.3-0.2,0.5-0.2,0.9c-0.5,1.6-1,3.1-1.6,4.6
					c-0.5,0.9-1.2,1.9-2.4,1.6l-0.5-0.2c-0.8-0.6-1.4-1.4-1.8-2.3c-1.1-2-1.9-4.1-2.5-6.2c-0.8-2.7-1.3-5.5-1.6-8.3
					c0-1.3-0.4-2.5-1-3.6c-0.4-0.6-1-1.1-1.6-1.4c-0.8-0.5-1.7-0.8-2.7-0.8c-1,0-2,0.2-2.9,0.6c-0.8,0.5-1.5,1.2-2,2
					c-0.5,0.8-0.8,1.8-0.8,2.8c0,0.4,0.1,0.7,0.2,1.1C1.1,41.4,2.5,51.2,7,58.6c0,0,3.7,7.2,11.6,7c1.9-0.1,3.8-0.5,5.5-1.3
					c1.7-0.8,3.2-2,4.4-3.5l3.2-7.2l2.4-7.6l0.2-1.2c0.5-2,1.1-3.9,1.9-5.8c0.3-0.8,0.7-1.5,1.3-2l0.1-0.1c0.6-0.3,1.3-0.2,1.7,0.2
					c0.3,0.2,0.5,0.5,0.7,0.8c0.2,0.3,0.4,0.6,0.6,0.9c0.4,0.6,0.7,1.3,1,2c0.2,0.6,0.5,1.1,0.9,1.6c0,0,0.1,0,0.1,0.1
					c0.5,0.6,1.2,1.1,1.9,1.4c0.7,0.4,1.5,0.6,2.3,0.5c0.7,0,1.4-0.1,2.1-0.4c0.7-0.3,1.3-0.7,1.8-1.2c0.5-0.6,0.9-1.2,1.2-1.8
					c0.2-0.7,0.4-1.4,0.4-2.1c0-0.8-0.2-1.6-0.5-2.3c0,0-2.1-5.5-5.8-8.3C43.9,26.7,41.1,25.8,38.3,25.8z"/>
			</defs>
			<clipPath id="SVGID_00000065792003990205042480000004453750547620578962_">
				<use xlink:href="#SVGID_00000065759472600627697890000008778183731248186274_"  style="overflow:visible;"/>
			</clipPath>
			<g style="clip-path:url(#SVGID_00000065792003990205042480000004453750547620578962_);">
				<g>
					
						<radialGradient id="SVGID_00000065789201834319596430000010246587906714675627_" cx="247.715" cy="-276.2251" r="0.79" gradientTransform="matrix(7.0809 25.225 -19.1691 5.381 -7018.1846 -4719.6982)" gradientUnits="userSpaceOnUse">
						<stop  offset="0" style="stop-color:#227B60"/>
						<stop  offset="0.14" style="stop-color:#227B60"/>
						<stop  offset="0.58" style="stop-color:#227B60"/>
						<stop  offset="0.78" style="stop-color:#227B60"/>
						<stop  offset="1" style="stop-color:#227B60"/>
					</radialGradient>
					<polygon style="fill:url(#SVGID_00000065789201834319596430000010246587906714675627_);" points="-9.8,28.7 48.5,12.3 
						62.7,62.9 4.4,79.2 					"/>
				</g>
			</g>
		</g>
		<g>
			<defs>
				<path id="SVGID_00000093167470901363327100000007109211462433467560_" d="M38.3,25.8c-1.9,0-3.8,0.5-5.5,1.4
					c-1.7,0.9-3.2,2.1-4.4,3.7l-5.6,15c-0.1,0.6-0.2,1.1-0.4,1.7c-0.1,0.3-0.2,0.5-0.2,0.9c-0.5,1.6-1,3.1-1.6,4.6
					c-0.5,0.9-1.2,1.9-2.4,1.6l-0.5-0.2c-0.8-0.6-1.4-1.4-1.8-2.3c-1.1-2-1.9-4.1-2.5-6.2c-0.8-2.7-1.3-5.5-1.6-8.3
					c0-1.3-0.4-2.5-1-3.6c-0.4-0.6-1-1.1-1.6-1.4c-0.8-0.5-1.7-0.8-2.7-0.8c-1,0-2,0.2-2.9,0.6c-0.8,0.5-1.5,1.2-2,2
					c-0.5,0.8-0.8,1.8-0.8,2.8c0,0.4,0.1,0.7,0.2,1.1C1.1,41.4,2.5,51.2,7,58.6c0,0,3.7,7.2,11.6,7c1.9-0.1,3.8-0.5,5.5-1.3
					c1.7-0.8,3.2-2,4.4-3.5l3.2-7.2l2.4-7.6l0.2-1.2c0.5-2,1.1-3.9,1.9-5.8c0.3-0.8,0.7-1.5,1.3-2l0.1-0.1c0.6-0.3,1.3-0.2,1.7,0.2
					c0.3,0.2,0.5,0.5,0.7,0.8c0.2,0.3,0.4,0.6,0.6,0.9c0.4,0.6,0.7,1.3,1,2c0.2,0.6,0.5,1.1,0.9,1.6c0,0,0.1,0,0.1,0.1
					c0.5,0.6,1.2,1.1,1.9,1.4c0.7,0.4,1.5,0.6,2.3,0.5c0.7,0,1.4-0.1,2.1-0.4c0.7-0.3,1.3-0.7,1.8-1.2c0.5-0.6,0.9-1.2,1.2-1.8
					c0.2-0.7,0.4-1.4,0.4-2.1c0-0.8-0.2-1.6-0.5-2.3c0,0-2.1-5.5-5.8-8.3C43.9,26.7,41.1,25.8,38.3,25.8z"/>
			</defs>
			<clipPath id="SVGID_00000129887149412526537640000014491702614967777185_">
				<use xlink:href="#SVGID_00000093167470901363327100000007109211462433467560_"  style="overflow:visible;"/>
			</clipPath>
			<g style="clip-path:url(#SVGID_00000129887149412526537640000014491702614967777185_);">
				<g>
					
						<radialGradient id="SVGID_00000107562965694436120790000016239505338132179129_" cx="248.8382" cy="-276.9892" r="0.79" gradientTransform="matrix(-0.3556 17.7164 -13.4573 -0.2701 -3605.4758 -4441.8325)" gradientUnits="userSpaceOnUse">
						<stop  offset="0" style="stop-color:#227B60"/>
						<stop  offset="0.25" style="stop-color:#227B60"/>
						<stop  offset="0.71" style="stop-color:#227B60"/>
						<stop  offset="0.92" style="stop-color:#227B60"/>
						<stop  offset="1" style="stop-color:#227B60"/>
					</radialGradient>
					<polygon style="fill:url(#SVGID_00000107562965694436120790000016239505338132179129_);" points="-0.2,65.8 0.6,24.8 
						53.1,25.8 52.3,66.8 					"/>
				</g>
			</g>
		</g>
		<g>
			<defs>
				<path id="SVGID_00000169532054272382094880000012884634964170601658_" d="M38.3,25.8c-1.9,0-3.8,0.5-5.5,1.4
					c-1.7,0.9-3.2,2.1-4.4,3.7l-5.6,15c-0.1,0.6-0.2,1.1-0.4,1.7c-0.1,0.3-0.2,0.5-0.2,0.9c-0.5,1.6-1,3.1-1.6,4.6
					c-0.5,0.9-1.2,1.9-2.4,1.6l-0.5-0.2c-0.8-0.6-1.4-1.4-1.8-2.3c-1.1-2-1.9-4.1-2.5-6.2c-0.8-2.7-1.3-5.5-1.6-8.3
					c0-1.3-0.4-2.5-1-3.6c-0.4-0.6-1-1.1-1.6-1.4c-0.8-0.5-1.7-0.8-2.7-0.8c-1,0-2,0.2-2.9,0.6c-0.8,0.5-1.5,1.2-2,2
					c-0.5,0.8-0.8,1.8-0.8,2.8c0,0.4,0.1,0.7,0.2,1.1C1.1,41.4,2.5,51.2,7,58.6c0,0,3.7,7.2,11.6,7c1.9-0.1,3.8-0.5,5.5-1.3
					c1.7-0.8,3.2-2,4.4-3.5l3.2-7.2l2.4-7.6l0.2-1.2c0.5-2,1.1-3.9,1.9-5.8c0.3-0.8,0.7-1.5,1.3-2l0.1-0.1c0.6-0.3,1.3-0.2,1.7,0.2
					c0.3,0.2,0.5,0.5,0.7,0.8c0.2,0.3,0.4,0.6,0.6,0.9c0.4,0.6,0.7,1.3,1,2c0.2,0.6,0.5,1.1,0.9,1.6c0,0,0.1,0,0.1,0.1
					c0.5,0.6,1.2,1.1,1.9,1.4c0.7,0.4,1.5,0.6,2.3,0.5c0.7,0,1.4-0.1,2.1-0.4c0.7-0.3,1.3-0.7,1.8-1.2c0.5-0.6,0.9-1.2,1.2-1.8
					c0.2-0.7,0.4-1.4,0.4-2.1c0-0.8-0.2-1.6-0.5-2.3c0,0-2.1-5.5-5.8-8.3C43.9,26.7,41.1,25.8,38.3,25.8z"/>
			</defs>
			<clipPath id="SVGID_00000140708744971590804740000018245556534498296486_">
				<use xlink:href="#SVGID_00000169532054272382094880000012884634964170601658_"  style="overflow:visible;"/>
			</clipPath>
			<g style="clip-path:url(#SVGID_00000140708744971590804740000018245556534498296486_);">
				<g>
					
						<radialGradient id="SVGID_00000004540844212889299110000008627518392246819261_" cx="249.0603" cy="-276.7899" r="0.79" gradientTransform="matrix(0.4036 16.5151 -11.7265 0.2866 -3310.3088 -3991.375)" gradientUnits="userSpaceOnUse">
						<stop  offset="0" style="stop-color:#227B60"/>
						<stop  offset="7.000000e-02" style="stop-color:#227B60"/>
						<stop  offset="0.34" style="stop-color:#227B60"/>
						<stop  offset="0.59" style="stop-color:#227B60"/>
						<stop  offset="0.79" style="stop-color:#227B60"/>
						<stop  offset="0.92" style="stop-color:#227B60"/>
						<stop  offset="1" style="stop-color:#227B60"/>
					</radialGradient>
					<polygon style="fill:url(#SVGID_00000004540844212889299110000008627518392246819261_);" points="-0.4,25.8 52.3,24.5 
						53.3,65.7 0.6,67 					"/>
				</g>
			</g>
		</g>
		<g>
			<defs>
				<path id="SVGID_00000016775981618142511100000015154852709297994664_" d="M38.3,25.8c-1.9,0-3.8,0.5-5.5,1.4
					c-1.7,0.9-3.2,2.1-4.4,3.7l-5.6,15c-0.1,0.6-0.2,1.1-0.4,1.7c-0.1,0.3-0.2,0.5-0.2,0.9c-0.5,1.6-1,3.1-1.6,4.6
					c-0.5,0.9-1.2,1.9-2.4,1.6l-0.5-0.2c-0.8-0.6-1.4-1.4-1.8-2.3c-1.1-2-1.9-4.1-2.5-6.2c-0.8-2.7-1.3-5.5-1.6-8.3
					c0-1.3-0.4-2.5-1-3.6c-0.4-0.6-1-1.1-1.6-1.4c-0.8-0.5-1.7-0.8-2.7-0.8c-1,0-2,0.2-2.9,0.6c-0.8,0.5-1.5,1.2-2,2
					c-0.5,0.8-0.8,1.8-0.8,2.8c0,0.4,0.1,0.7,0.2,1.1C1.1,41.4,2.5,51.2,7,58.6c0,0,3.7,7.2,11.6,7c1.9-0.1,3.8-0.5,5.5-1.3
					c1.7-0.8,3.2-2,4.4-3.5l3.2-7.2l2.4-7.6l0.2-1.2c0.5-2,1.1-3.9,1.9-5.8c0.3-0.8,0.7-1.5,1.3-2l0.1-0.1c0.6-0.3,1.3-0.2,1.7,0.2
					c0.3,0.2,0.5,0.5,0.7,0.8c0.2,0.3,0.4,0.6,0.6,0.9c0.4,0.6,0.7,1.3,1,2c0.2,0.6,0.5,1.1,0.9,1.6c0,0,0.1,0,0.1,0.1
					c0.5,0.6,1.2,1.1,1.9,1.4c0.7,0.4,1.5,0.6,2.3,0.5c0.7,0,1.4-0.1,2.1-0.4c0.7-0.3,1.3-0.7,1.8-1.2c0.5-0.6,0.9-1.2,1.2-1.8
					c0.2-0.7,0.4-1.4,0.4-2.1c0-0.8-0.2-1.6-0.5-2.3c0,0-2.1-5.5-5.8-8.3C43.9,26.7,41.1,25.8,38.3,25.8z"/>
			</defs>
			<clipPath id="SVGID_00000024715409838701319410000017644023366013836932_">
				<use xlink:href="#SVGID_00000016775981618142511100000015154852709297994664_"  style="overflow:visible;"/>
			</clipPath>
			<g style="clip-path:url(#SVGID_00000024715409838701319410000017644023366013836932_);">
				<g>
					
						<radialGradient id="SVGID_00000072993535420079434160000010456445450092347541_" cx="249.8774" cy="-276.7364" r="0.79" gradientTransform="matrix(0.3259 13.336 -9.4672 0.2314 -2665.9543 -3226.3179)" gradientUnits="userSpaceOnUse">
						<stop  offset="0" style="stop-color:#227B60"/>
						<stop  offset="0.36" style="stop-color:#227B60"/>
						<stop  offset="0.92" style="stop-color:#227B60"/>
						<stop  offset="1" style="stop-color:#227B60"/>
					</radialGradient>
					<polygon style="fill:url(#SVGID_00000072993535420079434160000010456445450092347541_);" points="-0.4,25.8 52.3,24.5 
						53.3,65.7 0.6,67 					"/>
				</g>
			</g>
		</g>
		<g>
			<defs>
				<path id="SVGID_00000003077035710268139420000015781873144881898677_" d="M38.3,25.8c-1.9,0-3.8,0.5-5.5,1.4
					c-1.7,0.9-3.2,2.1-4.4,3.7l-5.6,15c-0.1,0.6-0.2,1.1-0.4,1.7c-0.1,0.3-0.2,0.5-0.2,0.9c-0.5,1.6-1,3.1-1.6,4.6
					c-0.5,0.9-1.2,1.9-2.4,1.6l-0.5-0.2c-0.8-0.6-1.4-1.4-1.8-2.3c-1.1-2-1.9-4.1-2.5-6.2c-0.8-2.7-1.3-5.5-1.6-8.3
					c0-1.3-0.4-2.5-1-3.6c-0.4-0.6-1-1.1-1.6-1.4c-0.8-0.5-1.7-0.8-2.7-0.8c-1,0-2,0.2-2.9,0.6c-0.8,0.5-1.5,1.2-2,2
					c-0.5,0.8-0.8,1.8-0.8,2.8c0,0.4,0.1,0.7,0.2,1.1C1.1,41.4,2.5,51.2,7,58.6c0,0,3.7,7.2,11.6,7c1.9-0.1,3.8-0.5,5.5-1.3
					c1.7-0.8,3.2-2,4.4-3.5l3.2-7.2l2.4-7.6l0.2-1.2c0.5-2,1.1-3.9,1.9-5.8c0.3-0.8,0.7-1.5,1.3-2l0.1-0.1c0.6-0.3,1.3-0.2,1.7,0.2
					c0.3,0.2,0.5,0.5,0.7,0.8c0.2,0.3,0.4,0.6,0.6,0.9c0.4,0.6,0.7,1.3,1,2c0.2,0.6,0.5,1.1,0.9,1.6c0,0,0.1,0,0.1,0.1
					c0.5,0.6,1.2,1.1,1.9,1.4c0.7,0.4,1.5,0.6,2.3,0.5c0.7,0,1.4-0.1,2.1-0.4c0.7-0.3,1.3-0.7,1.8-1.2c0.5-0.6,0.9-1.2,1.2-1.8
					c0.2-0.7,0.4-1.4,0.4-2.1c0-0.8-0.2-1.6-0.5-2.3c0,0-2.1-5.5-5.8-8.3C43.9,26.7,41.1,25.8,38.3,25.8z"/>
			</defs>
			<clipPath id="SVGID_00000090274893385763755700000013669086911247623611_">
				<use xlink:href="#SVGID_00000003077035710268139420000015781873144881898677_"  style="overflow:visible;"/>
			</clipPath>
			<g style="clip-path:url(#SVGID_00000090274893385763755700000013669086911247623611_);">
				<g>
					
						<radialGradient id="SVGID_00000150825203369356670670000015015983673529519784_" cx="250.9255" cy="-276.6071" r="0.79" gradientTransform="matrix(0.26 10.6368 -6.808 0.1664 -1912.0731 -2580.6013)" gradientUnits="userSpaceOnUse">
						<stop  offset="0" style="stop-color:#20735A"/>
						<stop  offset="0.15" style="stop-color:#20745A"/>
						<stop  offset="0.38" style="stop-color:#21755C"/>
						<stop  offset="0.67" style="stop-color:#21785D"/>
						<stop  offset="1" style="stop-color:#227B60"/>
					</radialGradient>
					<polygon style="fill:url(#SVGID_00000150825203369356670670000015015983673529519784_);" points="-0.4,25.8 52.3,24.5 
						53.3,65.7 0.6,67 					"/>
				</g>
			</g>
		</g>
		<g>
			<defs>
				<path id="SVGID_00000080204201813613380690000008996421146588930464_" d="M38.3,25.8c-1.9,0-3.8,0.5-5.5,1.4
					c-1.7,0.9-3.2,2.1-4.4,3.7l-5.6,15c-0.1,0.6-0.2,1.1-0.4,1.7c-0.1,0.3-0.2,0.5-0.2,0.9c-0.5,1.6-1,3.1-1.6,4.6
					c-0.5,0.9-1.2,1.9-2.4,1.6l-0.5-0.2c-0.8-0.6-1.4-1.4-1.8-2.3c-1.1-2-1.9-4.1-2.5-6.2c-0.8-2.7-1.3-5.5-1.6-8.3
					c0-1.3-0.4-2.5-1-3.6c-0.4-0.6-1-1.1-1.6-1.4c-0.8-0.5-1.7-0.8-2.7-0.8c-1,0-2,0.2-2.9,0.6c-0.8,0.5-1.5,1.2-2,2
					c-0.5,0.8-0.8,1.8-0.8,2.8c0,0.4,0.1,0.7,0.2,1.1C1.1,41.4,2.5,51.2,7,58.6c0,0,3.7,7.2,11.6,7c1.9-0.1,3.8-0.5,5.5-1.3
					c1.7-0.8,3.2-2,4.4-3.5l3.2-7.2l2.4-7.6l0.2-1.2c0.5-2,1.1-3.9,1.9-5.8c0.3-0.8,0.7-1.5,1.3-2l0.1-0.1c0.6-0.3,1.3-0.2,1.7,0.2
					c0.3,0.2,0.5,0.5,0.7,0.8c0.2,0.3,0.4,0.6,0.6,0.9c0.4,0.6,0.7,1.3,1,2c0.2,0.6,0.5,1.1,0.9,1.6c0,0,0.1,0,0.1,0.1
					c0.5,0.6,1.2,1.1,1.9,1.4c0.7,0.4,1.5,0.6,2.3,0.5c0.7,0,1.4-0.1,2.1-0.4c0.7-0.3,1.3-0.7,1.8-1.2c0.5-0.6,0.9-1.2,1.2-1.8
					c0.2-0.7,0.4-1.4,0.4-2.1c0-0.8-0.2-1.6-0.5-2.3c0,0-2.1-5.5-5.8-8.3C43.9,26.7,41.1,25.8,38.3,25.8z"/>
			</defs>
			<clipPath id="SVGID_00000072256679471142988500000003800270216608779171_">
				<use xlink:href="#SVGID_00000080204201813613380690000008996421146588930464_"  style="overflow:visible;"/>
			</clipPath>
			<g style="clip-path:url(#SVGID_00000072256679471142988500000003800270216608779171_);">
				<g>
					
						<radialGradient id="SVGID_00000158024490363459232960000014506850776455511227_" cx="246.8911" cy="-272.9833" r="0.79" gradientTransform="matrix(15.655 6.9047 -5.1815 11.7481 -5243.8403 1543.0541)" gradientUnits="userSpaceOnUse">
						<stop  offset="0" style="stop-color:#227A61"/>
						<stop  offset="0.36" style="stop-color:#227A61"/>
						<stop  offset="0.72" style="stop-color:#227A61"/>
						<stop  offset="0.9" style="stop-color:#227A61"/>
						<stop  offset="1" style="stop-color:#227A61"/>
					</radialGradient>
					<polygon style="fill:url(#SVGID_00000158024490363459232960000014506850776455511227_);" points="-14.2,59.3 9,6.7 67.1,32.3 
						43.9,84.9 					"/>
				</g>
			</g>
		</g>
		<g>
			<defs>
				<path id="SVGID_00000121981218091595474460000005134751560780453779_" d="M38.3,25.8c-1.9,0-3.8,0.5-5.5,1.4
					c-1.7,0.9-3.2,2.1-4.4,3.7l-5.6,15c-0.1,0.6-0.2,1.1-0.4,1.7c-0.1,0.3-0.2,0.5-0.2,0.9c-0.5,1.6-1,3.1-1.6,4.6
					c-0.5,0.9-1.2,1.9-2.4,1.6l-0.5-0.2c-0.8-0.6-1.4-1.4-1.8-2.3c-1.1-2-1.9-4.1-2.5-6.2c-0.8-2.7-1.3-5.5-1.6-8.3
					c0-1.3-0.4-2.5-1-3.6c-0.4-0.6-1-1.1-1.6-1.4c-0.8-0.5-1.7-0.8-2.7-0.8c-1,0-2,0.2-2.9,0.6c-0.8,0.5-1.5,1.2-2,2
					c-0.5,0.8-0.8,1.8-0.8,2.8c0,0.4,0.1,0.7,0.2,1.1C1.1,41.4,2.5,51.2,7,58.6c0,0,3.7,7.2,11.6,7c1.9-0.1,3.8-0.5,5.5-1.3
					c1.7-0.8,3.2-2,4.4-3.5l3.2-7.2l2.4-7.6l0.2-1.2c0.5-2,1.1-3.9,1.9-5.8c0.3-0.8,0.7-1.5,1.3-2l0.1-0.1c0.6-0.3,1.3-0.2,1.7,0.2
					c0.3,0.2,0.5,0.5,0.7,0.8c0.2,0.3,0.4,0.6,0.6,0.9c0.4,0.6,0.7,1.3,1,2c0.2,0.6,0.5,1.1,0.9,1.6c0,0,0.1,0,0.1,0.1
					c0.5,0.6,1.2,1.1,1.9,1.4c0.7,0.4,1.5,0.6,2.3,0.5c0.7,0,1.4-0.1,2.1-0.4c0.7-0.3,1.3-0.7,1.8-1.2c0.5-0.6,0.9-1.2,1.2-1.8
					c0.2-0.7,0.4-1.4,0.4-2.1c0-0.8-0.2-1.6-0.5-2.3c0,0-2.1-5.5-5.8-8.3C43.9,26.7,41.1,25.8,38.3,25.8z"/>
			</defs>
			<clipPath id="SVGID_00000163067553884626254750000003167141932740491926_">
				<use xlink:href="#SVGID_00000121981218091595474460000005134751560780453779_"  style="overflow:visible;"/>
			</clipPath>
			<g style="clip-path:url(#SVGID_00000163067553884626254750000003167141932740491926_);">
				<g>
					
						<radialGradient id="SVGID_00000147181208470804649920000016500704033818473100_" cx="247.2138" cy="-274.5756" r="0.79" gradientTransform="matrix(18.6312 13.177 -12.051 17.0391 -7884.1616 1441.2357)" gradientUnits="userSpaceOnUse">
						<stop  offset="0" style="stop-color:#3CD9C3"/>
						<stop  offset="7.000000e-02" style="stop-color:#3BD7C1"/>
						<stop  offset="0.41" style="stop-color:#38CEB9"/>
						<stop  offset="0.65" style="stop-color:#36C8B4"/>
						<stop  offset="0.76" style="stop-color:#35C6B2"/>
						<stop  offset="1" style="stop-color:#35C6B2"/>
					</radialGradient>
					<polygon style="fill:url(#SVGID_00000147181208470804649920000016500704033818473100_);" points="-18.3,52.4 17.8,1.4 
						71.2,39.1 35.1,90.1 					"/>
				</g>
			</g>
		</g>
		<g>
			<defs>
				<path id="SVGID_00000034794433611217123840000017586553628825531302_" d="M38.3,25.8c-1.9,0-3.8,0.5-5.5,1.4
					c-1.7,0.9-3.2,2.1-4.4,3.7l-5.6,15c-0.1,0.6-0.2,1.1-0.4,1.7c-0.1,0.3-0.2,0.5-0.2,0.9c-0.5,1.6-1,3.1-1.6,4.6
					c-0.5,0.9-1.2,1.9-2.4,1.6l-0.5-0.2c-0.8-0.6-1.4-1.4-1.8-2.3c-1.1-2-1.9-4.1-2.5-6.2c-0.8-2.7-1.3-5.5-1.6-8.3
					c0-1.3-0.4-2.5-1-3.6c-0.4-0.6-1-1.1-1.6-1.4c-0.8-0.5-1.7-0.8-2.7-0.8c-1,0-2,0.2-2.9,0.6c-0.8,0.5-1.5,1.2-2,2
					c-0.5,0.8-0.8,1.8-0.8,2.8c0,0.4,0.1,0.7,0.2,1.1C1.1,41.4,2.5,51.2,7,58.6c0,0,3.7,7.2,11.6,7c1.9-0.1,3.8-0.5,5.5-1.3
					c1.7-0.8,3.2-2,4.4-3.5l3.2-7.2l2.4-7.6l0.2-1.2c0.5-2,1.1-3.9,1.9-5.8c0.3-0.8,0.7-1.5,1.3-2l0.1-0.1c0.6-0.3,1.3-0.2,1.7,0.2
					c0.3,0.2,0.5,0.5,0.7,0.8c0.2,0.3,0.4,0.6,0.6,0.9c0.4,0.6,0.7,1.3,1,2c0.2,0.6,0.5,1.1,0.9,1.6c0,0,0.1,0,0.1,0.1
					c0.5,0.6,1.2,1.1,1.9,1.4c0.7,0.4,1.5,0.6,2.3,0.5c0.7,0,1.4-0.1,2.1-0.4c0.7-0.3,1.3-0.7,1.8-1.2c0.5-0.6,0.9-1.2,1.2-1.8
					c0.2-0.7,0.4-1.4,0.4-2.1c0-0.8-0.2-1.6-0.5-2.3c0,0-2.1-5.5-5.8-8.3C43.9,26.7,41.1,25.8,38.3,25.8z"/>
			</defs>
			<clipPath id="SVGID_00000176729524977842920780000005458282814674778040_">
				<use xlink:href="#SVGID_00000034794433611217123840000017586553628825531302_"  style="overflow:visible;"/>
			</clipPath>
			<g style="clip-path:url(#SVGID_00000176729524977842920780000005458282814674778040_);">
				<g>
					
						<radialGradient id="SVGID_00000034086768413534798800000016236643568717647039_" cx="248.8174" cy="-275.5005" r="0.79" gradientTransform="matrix(3310.5962 2341.5415 -1643.173 2323.2109 -1305891.875 17401.6582)" gradientUnits="userSpaceOnUse">
						<stop  offset="0" style="stop-color:#3CD9C3"/>
						<stop  offset="7.000000e-02" style="stop-color:#3BD7C1"/>
						<stop  offset="0.41" style="stop-color:#38CEB9"/>
						<stop  offset="0.65" style="stop-color:#36C8B4"/>
						<stop  offset="0.76" style="stop-color:#35C6B2"/>
						<stop  offset="1" style="stop-color:#35C6B2"/>
					</radialGradient>
					<polygon style="fill:url(#SVGID_00000034086768413534798800000016236643568717647039_);" points="-18.3,52.4 17.8,1.4 
						71.2,39.1 35.1,90.2 					"/>
				</g>
			</g>
		</g>
		<g>
			<defs>
				<path id="SVGID_00000047054932008678436800000006952950193361309114_" d="M38.3,25.8c-1.9,0-3.8,0.5-5.5,1.4
					c-1.7,0.9-3.2,2.1-4.4,3.7l-5.6,15c-0.1,0.6-0.2,1.1-0.4,1.7c-0.1,0.3-0.2,0.5-0.2,0.9c-0.5,1.6-1,3.1-1.6,4.6
					c-0.5,0.9-1.2,1.9-2.4,1.6l-0.5-0.2c-0.8-0.6-1.4-1.4-1.8-2.3c-1.1-2-1.9-4.1-2.5-6.2c-0.8-2.7-1.3-5.5-1.6-8.3
					c0-1.3-0.4-2.5-1-3.6c-0.4-0.6-1-1.1-1.6-1.4c-0.8-0.5-1.7-0.8-2.7-0.8c-1,0-2,0.2-2.9,0.6c-0.8,0.5-1.5,1.2-2,2
					c-0.5,0.8-0.8,1.8-0.8,2.8c0,0.4,0.1,0.7,0.2,1.1C1.1,41.4,2.5,51.2,7,58.6c0,0,3.7,7.2,11.6,7c1.9-0.1,3.8-0.5,5.5-1.3
					c1.7-0.8,3.2-2,4.4-3.5l3.2-7.2l2.4-7.6l0.2-1.2c0.5-2,1.1-3.9,1.9-5.8c0.3-0.8,0.7-1.5,1.3-2l0.1-0.1c0.6-0.3,1.3-0.2,1.7,0.2
					c0.3,0.2,0.5,0.5,0.7,0.8c0.2,0.3,0.4,0.6,0.6,0.9c0.4,0.6,0.7,1.3,1,2c0.2,0.6,0.5,1.1,0.9,1.6c0,0,0.1,0,0.1,0.1
					c0.5,0.6,1.2,1.1,1.9,1.4c0.7,0.4,1.5,0.6,2.3,0.5c0.7,0,1.4-0.1,2.1-0.4c0.7-0.3,1.3-0.7,1.8-1.2c0.5-0.6,0.9-1.2,1.2-1.8
					c0.2-0.7,0.4-1.4,0.4-2.1c0-0.8-0.2-1.6-0.5-2.3c0,0-2.1-5.5-5.8-8.3C43.9,26.7,41.1,25.8,38.3,25.8z"/>
			</defs>
			<clipPath id="SVGID_00000049917553107193496560000010802552740642494638_">
				<use xlink:href="#SVGID_00000047054932008678436800000006952950193361309114_"  style="overflow:visible;"/>
			</clipPath>
			<g style="clip-path:url(#SVGID_00000049917553107193496560000010802552740642494638_);">
				<g>
					
						<radialGradient id="SVGID_00000119812507452273258870000007549535958646609312_" cx="248.3573" cy="-277.3268" r="0.79" gradientTransform="matrix(-3.8306 19.7622 -24.4254 -4.7345 -5781.96 -6174.5327)" gradientUnits="userSpaceOnUse">
						<stop  offset="0" style="stop-color:#237F66"/>
						<stop  offset="6.000000e-02" style="stop-color:#2C8C70"/>
						<stop  offset="0.21" style="stop-color:#3DA785"/>
						<stop  offset="0.35" style="stop-color:#4ABA93"/>
						<stop  offset="0.47" style="stop-color:#51C59C"/>
						<stop  offset="0.56" style="stop-color:#54C99F"/>
						<stop  offset="1" style="stop-color:#54C99F"/>
					</radialGradient>
					<polygon style="fill:url(#SVGID_00000119812507452273258870000007549535958646609312_);" points="-6.9,64.3 2.5,16.1 
						59.8,27.2 50.4,75.4 					"/>
				</g>
			</g>
		</g>
		<g>
			<defs>
				<path id="SVGID_00000096746154578266023580000004247285641069715901_" d="M38.3,25.8c-1.9,0-3.8,0.5-5.5,1.4
					c-1.7,0.9-3.2,2.1-4.4,3.7l-5.6,15c-0.1,0.6-0.2,1.1-0.4,1.7c-0.1,0.3-0.2,0.5-0.2,0.9c-0.5,1.6-1,3.1-1.6,4.6
					c-0.5,0.9-1.2,1.9-2.4,1.6l-0.5-0.2c-0.8-0.6-1.4-1.4-1.8-2.3c-1.1-2-1.9-4.1-2.5-6.2c-0.8-2.7-1.3-5.5-1.6-8.3
					c0-1.3-0.4-2.5-1-3.6c-0.4-0.6-1-1.1-1.6-1.4c-0.8-0.5-1.7-0.8-2.7-0.8c-1,0-2,0.2-2.9,0.6c-0.8,0.5-1.5,1.2-2,2
					c-0.5,0.8-0.8,1.8-0.8,2.8c0,0.4,0.1,0.7,0.2,1.1C1.1,41.4,2.5,51.2,7,58.6c0,0,3.7,7.2,11.6,7c1.9-0.1,3.8-0.5,5.5-1.3
					c1.7-0.8,3.2-2,4.4-3.5l3.2-7.2l2.4-7.6l0.2-1.2c0.5-2,1.1-3.9,1.9-5.8c0.3-0.8,0.7-1.5,1.3-2l0.1-0.1c0.6-0.3,1.3-0.2,1.7,0.2
					c0.3,0.2,0.5,0.5,0.7,0.8c0.2,0.3,0.4,0.6,0.6,0.9c0.4,0.6,0.7,1.3,1,2c0.2,0.6,0.5,1.1,0.9,1.6c0,0,0.1,0,0.1,0.1
					c0.5,0.6,1.2,1.1,1.9,1.4c0.7,0.4,1.5,0.6,2.3,0.5c0.7,0,1.4-0.1,2.1-0.4c0.7-0.3,1.3-0.7,1.8-1.2c0.5-0.6,0.9-1.2,1.2-1.8
					c0.2-0.7,0.4-1.4,0.4-2.1c0-0.8-0.2-1.6-0.5-2.3c0,0-2.1-5.5-5.8-8.3C43.9,26.7,41.1,25.8,38.3,25.8z"/>
			</defs>
			<clipPath id="SVGID_00000127746784976581495450000001393639891703663781_">
				<use xlink:href="#SVGID_00000096746154578266023580000004247285641069715901_"  style="overflow:visible;"/>
			</clipPath>
			<g style="clip-path:url(#SVGID_00000127746784976581495450000001393639891703663781_);">
				<g>
					
						<radialGradient id="SVGID_00000133531405336448406940000002195985419455026843_" cx="244.0575" cy="-275.7844" r="0.79" gradientTransform="matrix(16.6153 -20.3868 22.0224 17.9483 2047.082 9972.877)" gradientUnits="userSpaceOnUse">
						<stop  offset="0" style="stop-color:#167C8A"/>
						<stop  offset="4.000000e-02" style="stop-color:#167C8A"/>
						<stop  offset="0.33" style="stop-color:#177F8D"/>
						<stop  offset="0.54" style="stop-color:#17818F"/>
						<stop  offset="0.65" style="stop-color:#178290"/>
						<stop  offset="1" style="stop-color:#178290"/>
					</radialGradient>
					<polygon style="fill:url(#SVGID_00000133531405336448406940000002195985419455026843_);" points="-19,49.8 21.2,0.4 71.9,41.7 
						31.7,91.1 					"/>
				</g>
			</g>
		</g>
		<g>
			<defs>
				<path id="SVGID_00000105391815032347741730000001766184830434009773_" d="M38.3,25.8c-1.9,0-3.8,0.5-5.5,1.4
					c-1.7,0.9-3.2,2.1-4.4,3.7l-5.6,15c-0.1,0.6-0.2,1.1-0.4,1.7c-0.1,0.3-0.2,0.5-0.2,0.9c-0.5,1.6-1,3.1-1.6,4.6
					c-0.5,0.9-1.2,1.9-2.4,1.6l-0.5-0.2c-0.8-0.6-1.4-1.4-1.8-2.3c-1.1-2-1.9-4.1-2.5-6.2c-0.8-2.7-1.3-5.5-1.6-8.3
					c0-1.3-0.4-2.5-1-3.6c-0.4-0.6-1-1.1-1.6-1.4c-0.8-0.5-1.7-0.8-2.7-0.8c-1,0-2,0.2-2.9,0.6c-0.8,0.5-1.5,1.2-2,2
					c-0.5,0.8-0.8,1.8-0.8,2.8c0,0.4,0.1,0.7,0.2,1.1C1.1,41.4,2.5,51.2,7,58.6c0,0,3.7,7.2,11.6,7c1.9-0.1,3.8-0.5,5.5-1.3
					c1.7-0.8,3.2-2,4.4-3.5l3.2-7.2l2.4-7.6l0.2-1.2c0.5-2,1.1-3.9,1.9-5.8c0.3-0.8,0.7-1.5,1.3-2l0.1-0.1c0.6-0.3,1.3-0.2,1.7,0.2
					c0.3,0.2,0.5,0.5,0.7,0.8c0.2,0.3,0.4,0.6,0.6,0.9c0.4,0.6,0.7,1.3,1,2c0.2,0.6,0.5,1.1,0.9,1.6c0,0,0.1,0,0.1,0.1
					c0.5,0.6,1.2,1.1,1.9,1.4c0.7,0.4,1.5,0.6,2.3,0.5c0.7,0,1.4-0.1,2.1-0.4c0.7-0.3,1.3-0.7,1.8-1.2c0.5-0.6,0.9-1.2,1.2-1.8
					c0.2-0.7,0.4-1.4,0.4-2.1c0-0.8-0.2-1.6-0.5-2.3c0,0-2.1-5.5-5.8-8.3C43.9,26.7,41.1,25.8,38.3,25.8z"/>
			</defs>
			<clipPath id="SVGID_00000052817232754838836050000002739253575721248141_">
				<use xlink:href="#SVGID_00000105391815032347741730000001766184830434009773_"  style="overflow:visible;"/>
			</clipPath>
			<g style="clip-path:url(#SVGID_00000052817232754838836050000002739253575721248141_);">
				<g>
					
						<radialGradient id="SVGID_00000018922379937680058580000009730851485340844464_" cx="244.5733" cy="-274.7182" r="0.79" gradientTransform="matrix(21.8412 -13.4684 10.6393 17.2534 -2390.073 8083.814)" gradientUnits="userSpaceOnUse">
						<stop  offset="0" style="stop-color:#177D87"/>
						<stop  offset="5.000000e-02" style="stop-color:#177D87"/>
						<stop  offset="0.11" style="stop-color:#177E89"/>
						<stop  offset="0.21" style="stop-color:#177F8B"/>
						<stop  offset="0.32" style="stop-color:#17818D"/>
						<stop  offset="0.42" style="stop-color:#17818F"/>
						<stop  offset="0.51" style="stop-color:#178290"/>
						<stop  offset="0.6" style="stop-color:#178290"/>
						<stop  offset="1" style="stop-color:#178290"/>
					</radialGradient>
					<polygon style="fill:url(#SVGID_00000018922379937680058580000009730851485340844464_);" points="-17.3,36.8 38.1,2.7 
						70.2,54.8 14.8,88.9 					"/>
				</g>
			</g>
		</g>
		<g>
			<defs>
				<path id="SVGID_00000161593810279822662480000001072968501617884067_" d="M38.3,25.8c-1.9,0-3.8,0.5-5.5,1.4
					c-1.7,0.9-3.2,2.1-4.4,3.7l-5.6,15c-0.1,0.6-0.2,1.1-0.4,1.7c-0.1,0.3-0.2,0.5-0.2,0.9c-0.5,1.6-1,3.1-1.6,4.6
					c-0.5,0.9-1.2,1.9-2.4,1.6l-0.5-0.2c-0.8-0.6-1.4-1.4-1.8-2.3c-1.1-2-1.9-4.1-2.5-6.2c-0.8-2.7-1.3-5.5-1.6-8.3
					c0-1.3-0.4-2.5-1-3.6c-0.4-0.6-1-1.1-1.6-1.4c-0.8-0.5-1.7-0.8-2.7-0.8c-1,0-2,0.2-2.9,0.6c-0.8,0.5-1.5,1.2-2,2
					c-0.5,0.8-0.8,1.8-0.8,2.8c0,0.4,0.1,0.7,0.2,1.1C1.1,41.4,2.5,51.2,7,58.6c0,0,3.7,7.2,11.6,7c1.9-0.1,3.8-0.5,5.5-1.3
					c1.7-0.8,3.2-2,4.4-3.5l3.2-7.2l2.4-7.6l0.2-1.2c0.5-2,1.1-3.9,1.9-5.8c0.3-0.8,0.7-1.5,1.3-2l0.1-0.1c0.6-0.3,1.3-0.2,1.7,0.2
					c0.3,0.2,0.5,0.5,0.7,0.8c0.2,0.3,0.4,0.6,0.6,0.9c0.4,0.6,0.7,1.3,1,2c0.2,0.6,0.5,1.1,0.9,1.6c0,0,0.1,0,0.1,0.1
					c0.5,0.6,1.2,1.1,1.9,1.4c0.7,0.4,1.5,0.6,2.3,0.5c0.7,0,1.4-0.1,2.1-0.4c0.7-0.3,1.3-0.7,1.8-1.2c0.5-0.6,0.9-1.2,1.2-1.8
					c0.2-0.7,0.4-1.4,0.4-2.1c0-0.8-0.2-1.6-0.5-2.3c0,0-2.1-5.5-5.8-8.3C43.9,26.7,41.1,25.8,38.3,25.8z"/>
			</defs>
			<clipPath id="SVGID_00000167392617361699934650000007260552121189183661_">
				<use xlink:href="#SVGID_00000161593810279822662480000001072968501617884067_"  style="overflow:visible;"/>
			</clipPath>
			<g style="clip-path:url(#SVGID_00000167392617361699934650000007260552121189183661_);">
				<g>
					
						<radialGradient id="SVGID_00000018937229248737480800000017257820844225369743_" cx="242.9125" cy="-279.8167" r="0.79" gradientTransform="matrix(-9.9382 -11.6197 9.1498 -7.8257 4998.0806 681.7044)" gradientUnits="userSpaceOnUse">
						<stop  offset="0" style="stop-color:#177F8A"/>
						<stop  offset="0.26" style="stop-color:#177F8A"/>
						<stop  offset="0.27" style="stop-color:#177F8A"/>
						<stop  offset="0.38" style="stop-color:#17808C"/>
						<stop  offset="0.5" style="stop-color:#17818D"/>
						<stop  offset="0.62" style="stop-color:#17818F"/>
						<stop  offset="0.74" style="stop-color:#17828F"/>
						<stop  offset="0.86" style="stop-color:#178290"/>
						<stop  offset="1" style="stop-color:#178290"/>
					</radialGradient>
					<polygon style="fill:url(#SVGID_00000018937229248737480800000017257820844225369743_);" points="-19.1,42.7 30.5,0.2 
						72.1,48.9 22.5,91.3 					"/>
				</g>
			</g>
		</g>
		<g>
			<defs>
				<path id="SVGID_00000102502800133169364180000011967144459530916022_" d="M38.3,25.8c-1.9,0-3.8,0.5-5.5,1.4
					c-1.7,0.9-3.2,2.1-4.4,3.7l-5.6,15c-0.1,0.6-0.2,1.1-0.4,1.7c-0.1,0.3-0.2,0.5-0.2,0.9c-0.5,1.6-1,3.1-1.6,4.6
					c-0.5,0.9-1.2,1.9-2.4,1.6l-0.5-0.2c-0.8-0.6-1.4-1.4-1.8-2.3c-1.1-2-1.9-4.1-2.5-6.2c-0.8-2.7-1.3-5.5-1.6-8.3
					c0-1.3-0.4-2.5-1-3.6c-0.4-0.6-1-1.1-1.6-1.4c-0.8-0.5-1.7-0.8-2.7-0.8c-1,0-2,0.2-2.9,0.6c-0.8,0.5-1.5,1.2-2,2
					c-0.5,0.8-0.8,1.8-0.8,2.8c0,0.4,0.1,0.7,0.2,1.1C1.1,41.4,2.5,51.2,7,58.6c0,0,3.7,7.2,11.6,7c1.9-0.1,3.8-0.5,5.5-1.3
					c1.7-0.8,3.2-2,4.4-3.5l3.2-7.2l2.4-7.6l0.2-1.2c0.5-2,1.1-3.9,1.9-5.8c0.3-0.8,0.7-1.5,1.3-2l0.1-0.1c0.6-0.3,1.3-0.2,1.7,0.2
					c0.3,0.2,0.5,0.5,0.7,0.8c0.2,0.3,0.4,0.6,0.6,0.9c0.4,0.6,0.7,1.3,1,2c0.2,0.6,0.5,1.1,0.9,1.6c0,0,0.1,0,0.1,0.1
					c0.5,0.6,1.2,1.1,1.9,1.4c0.7,0.4,1.5,0.6,2.3,0.5c0.7,0,1.4-0.1,2.1-0.4c0.7-0.3,1.3-0.7,1.8-1.2c0.5-0.6,0.9-1.2,1.2-1.8
					c0.2-0.7,0.4-1.4,0.4-2.1c0-0.8-0.2-1.6-0.5-2.3c0,0-2.1-5.5-5.8-8.3C43.9,26.7,41.1,25.8,38.3,25.8z"/>
			</defs>
			<clipPath id="SVGID_00000022548852067432851520000009058149381507381670_">
				<use xlink:href="#SVGID_00000102502800133169364180000011967144459530916022_"  style="overflow:visible;"/>
			</clipPath>
			<g style="clip-path:url(#SVGID_00000022548852067432851520000009058149381507381670_);">
				<g>
					
						<radialGradient id="SVGID_00000142870008682921928540000011949228387162601128_" cx="245.0545" cy="-280.6549" r="0.79" gradientTransform="matrix(-14.2364 -1.7203 1.7203 -14.2364 3993.2898 -3522.0481)" gradientUnits="userSpaceOnUse">
						<stop  offset="0" style="stop-color:#13656E"/>
						<stop  offset="0.11" style="stop-color:#13646E"/>
						<stop  offset="0.27" style="stop-color:#12646E"/>
						<stop  offset="0.42" style="stop-color:#12636E"/>
						<stop  offset="0.55" style="stop-color:#12636E"/>
						<stop  offset="0.66" style="stop-color:#12636E"/>
						<stop  offset="1" style="stop-color:#12636E"/>
					</radialGradient>
					<polygon style="fill:url(#SVGID_00000142870008682921928540000011949228387162601128_);" points="-4.2,65.2 1.3,19.6 
						57.1,26.4 51.6,71.9 					"/>
				</g>
			</g>
		</g>
		<g>
			<defs>
				<path id="SVGID_00000075125740780926488090000005886226794765934487_" d="M38.3,25.8c-1.9,0-3.8,0.5-5.5,1.4
					c-1.7,0.9-3.2,2.1-4.4,3.7l-5.6,15c-0.1,0.6-0.2,1.1-0.4,1.7c-0.1,0.3-0.2,0.5-0.2,0.9c-0.5,1.6-1,3.1-1.6,4.6
					c-0.5,0.9-1.2,1.9-2.4,1.6l-0.5-0.2c-0.8-0.6-1.4-1.4-1.8-2.3c-1.1-2-1.9-4.1-2.5-6.2c-0.8-2.7-1.3-5.5-1.6-8.3
					c0-1.3-0.4-2.5-1-3.6c-0.4-0.6-1-1.1-1.6-1.4c-0.8-0.5-1.7-0.8-2.7-0.8c-1,0-2,0.2-2.9,0.6c-0.8,0.5-1.5,1.2-2,2
					c-0.5,0.8-0.8,1.8-0.8,2.8c0,0.4,0.1,0.7,0.2,1.1C1.1,41.4,2.5,51.2,7,58.6c0,0,3.7,7.2,11.6,7c1.9-0.1,3.8-0.5,5.5-1.3
					c1.7-0.8,3.2-2,4.4-3.5l3.2-7.2l2.4-7.6l0.2-1.2c0.5-2,1.1-3.9,1.9-5.8c0.3-0.8,0.7-1.5,1.3-2l0.1-0.1c0.6-0.3,1.3-0.2,1.7,0.2
					c0.3,0.2,0.5,0.5,0.7,0.8c0.2,0.3,0.4,0.6,0.6,0.9c0.4,0.6,0.7,1.3,1,2c0.2,0.6,0.5,1.1,0.9,1.6c0,0,0.1,0,0.1,0.1
					c0.5,0.6,1.2,1.1,1.9,1.4c0.7,0.4,1.5,0.6,2.3,0.5c0.7,0,1.4-0.1,2.1-0.4c0.7-0.3,1.3-0.7,1.8-1.2c0.5-0.6,0.9-1.2,1.2-1.8
					c0.2-0.7,0.4-1.4,0.4-2.1c0-0.8-0.2-1.6-0.5-2.3c0,0-2.1-5.5-5.8-8.3C43.9,26.7,41.1,25.8,38.3,25.8z"/>
			</defs>
			<clipPath id="SVGID_00000127742647839627606590000009863710055918970766_">
				<use xlink:href="#SVGID_00000075125740780926488090000005886226794765934487_"  style="overflow:visible;"/>
			</clipPath>
			<g style="clip-path:url(#SVGID_00000127742647839627606590000009863710055918970766_);">
				<g>
					
						<radialGradient id="SVGID_00000043452372997318727900000001728500332931454102_" cx="240.9721" cy="-279.8069" r="0.79" gradientTransform="matrix(-4.9116 -8.7451 7.3414 -4.1232 3260.426 1006.5831)" gradientUnits="userSpaceOnUse">
						<stop  offset="0" style="stop-color:#146A73"/>
						<stop  offset="0.13" style="stop-color:#146A73"/>
						<stop  offset="0.24" style="stop-color:#156F79"/>
						<stop  offset="0.45" style="stop-color:#167783"/>
						<stop  offset="0.65" style="stop-color:#167D8A"/>
						<stop  offset="0.82" style="stop-color:#17818E"/>
						<stop  offset="0.95" style="stop-color:#178290"/>
						<stop  offset="1" style="stop-color:#178290"/>
					</radialGradient>
					<polygon style="fill:url(#SVGID_00000043452372997318727900000001728500332931454102_);" points="-16.5,35.4 39.9,3.7 
						69.4,56.2 13,87.9 					"/>
				</g>
			</g>
		</g>
		<g>
			<defs>
				<path id="SVGID_00000162313621310116478560000009032273138656468921_" d="M38.3,25.8c-1.9,0-3.8,0.5-5.5,1.4
					c-1.7,0.9-3.2,2.1-4.4,3.7l-5.6,15c-0.1,0.6-0.2,1.1-0.4,1.7c-0.1,0.3-0.2,0.5-0.2,0.9c-0.5,1.6-1,3.1-1.6,4.6
					c-0.5,0.9-1.2,1.9-2.4,1.6l-0.5-0.2c-0.8-0.6-1.4-1.4-1.8-2.3c-1.1-2-1.9-4.1-2.5-6.2c-0.8-2.7-1.3-5.5-1.6-8.3
					c0-1.3-0.4-2.5-1-3.6c-0.4-0.6-1-1.1-1.6-1.4c-0.8-0.5-1.7-0.8-2.7-0.8c-1,0-2,0.2-2.9,0.6c-0.8,0.5-1.5,1.2-2,2
					c-0.5,0.8-0.8,1.8-0.8,2.8c0,0.4,0.1,0.7,0.2,1.1C1.1,41.4,2.5,51.2,7,58.6c0,0,3.7,7.2,11.6,7c1.9-0.1,3.8-0.5,5.5-1.3
					c1.7-0.8,3.2-2,4.4-3.5l3.2-7.2l2.4-7.6l0.2-1.2c0.5-2,1.1-3.9,1.9-5.8c0.3-0.8,0.7-1.5,1.3-2l0.1-0.1c0.6-0.3,1.3-0.2,1.7,0.2
					c0.3,0.2,0.5,0.5,0.7,0.8c0.2,0.3,0.4,0.6,0.6,0.9c0.4,0.6,0.7,1.3,1,2c0.2,0.6,0.5,1.1,0.9,1.6c0,0,0.1,0,0.1,0.1
					c0.5,0.6,1.2,1.1,1.9,1.4c0.7,0.4,1.5,0.6,2.3,0.5c0.7,0,1.4-0.1,2.1-0.4c0.7-0.3,1.3-0.7,1.8-1.2c0.5-0.6,0.9-1.2,1.2-1.8
					c0.2-0.7,0.4-1.4,0.4-2.1c0-0.8-0.2-1.6-0.5-2.3c0,0-2.1-5.5-5.8-8.3C43.9,26.7,41.1,25.8,38.3,25.8z"/>
			</defs>
			<clipPath id="SVGID_00000136397423234821109140000006034345506574348962_">
				<use xlink:href="#SVGID_00000162313621310116478560000009032273138656468921_"  style="overflow:visible;"/>
			</clipPath>
			<g style="clip-path:url(#SVGID_00000136397423234821109140000006034345506574348962_);">
				<g>
					
						<radialGradient id="SVGID_00000087370281149456270520000008265700737184586407_" cx="241.1195" cy="-272.6618" r="0.79" gradientTransform="matrix(5.2746 -7.8169 6.1922 4.1783 436.7971 3076.4729)" gradientUnits="userSpaceOnUse">
						<stop  offset="0" style="stop-color:#198E9C"/>
						<stop  offset="0.1" style="stop-color:#198E9C"/>
						<stop  offset="0.41" style="stop-color:#198E9C"/>
						<stop  offset="0.67" style="stop-color:#198E9C"/>
						<stop  offset="0.88" style="stop-color:#198E9C"/>
						<stop  offset="1" style="stop-color:#198E9C"/>
					</radialGradient>
					<polygon style="fill:url(#SVGID_00000087370281149456270520000008265700737184586407_);" points="-17.9,53.3 16.8,1.8 
						70.9,38.3 36.1,89.8 					"/>
				</g>
			</g>
		</g>
		<g>
			<defs>
				<path id="SVGID_00000127031205259778897230000017719842306960321159_" d="M38.3,25.8c-1.9,0-3.8,0.5-5.5,1.4
					c-1.7,0.9-3.2,2.1-4.4,3.7l-5.6,15c-0.1,0.6-0.2,1.1-0.4,1.7c-0.1,0.3-0.2,0.5-0.2,0.9c-0.5,1.6-1,3.1-1.6,4.6
					c-0.5,0.9-1.2,1.9-2.4,1.6l-0.5-0.2c-0.8-0.6-1.4-1.4-1.8-2.3c-1.1-2-1.9-4.1-2.5-6.2c-0.8-2.7-1.3-5.5-1.6-8.3
					c0-1.3-0.4-2.5-1-3.6c-0.4-0.6-1-1.1-1.6-1.4c-0.8-0.5-1.7-0.8-2.7-0.8c-1,0-2,0.2-2.9,0.6c-0.8,0.5-1.5,1.2-2,2
					c-0.5,0.8-0.8,1.8-0.8,2.8c0,0.4,0.1,0.7,0.2,1.1C1.1,41.4,2.5,51.2,7,58.6c0,0,3.7,7.2,11.6,7c1.9-0.1,3.8-0.5,5.5-1.3
					c1.7-0.8,3.2-2,4.4-3.5l3.2-7.2l2.4-7.6l0.2-1.2c0.5-2,1.1-3.9,1.9-5.8c0.3-0.8,0.7-1.5,1.3-2l0.1-0.1c0.6-0.3,1.3-0.2,1.7,0.2
					c0.3,0.2,0.5,0.5,0.7,0.8c0.2,0.3,0.4,0.6,0.6,0.9c0.4,0.6,0.7,1.3,1,2c0.2,0.6,0.5,1.1,0.9,1.6c0,0,0.1,0,0.1,0.1
					c0.5,0.6,1.2,1.1,1.9,1.4c0.7,0.4,1.5,0.6,2.3,0.5c0.7,0,1.4-0.1,2.1-0.4c0.7-0.3,1.3-0.7,1.8-1.2c0.5-0.6,0.9-1.2,1.2-1.8
					c0.2-0.7,0.4-1.4,0.4-2.1c0-0.8-0.2-1.6-0.5-2.3c0,0-2.1-5.5-5.8-8.3C43.9,26.7,41.1,25.8,38.3,25.8z"/>
			</defs>
			<clipPath id="SVGID_00000074399973370806914040000001708447042734673565_">
				<use xlink:href="#SVGID_00000127031205259778897230000017719842306960321159_"  style="overflow:visible;"/>
			</clipPath>
			<g style="clip-path:url(#SVGID_00000074399973370806914040000001708447042734673565_);">
				<g>
					
						<linearGradient id="SVGID_00000163049962036472193280000004616073093654102401_" gradientUnits="userSpaceOnUse" x1="247.0585" y1="-275.7093" x2="247.8485" y2="-275.7093" gradientTransform="matrix(24.1916 22.3859 -22.3859 24.1916 -12143.2529 1165.5613)">
						<stop  offset="0" style="stop-color:#2BF9FF"/>
						<stop  offset="0.13" style="stop-color:#2BF9FF"/>
						<stop  offset="0.27" style="stop-color:#29F9FF"/>
						<stop  offset="0.4" style="stop-color:#27FAFF"/>
						<stop  offset="0.49" style="stop-color:#26FAFF"/>
						<stop  offset="0.54" style="stop-color:#26FAFF"/>
						<stop  offset="1" style="stop-color:#26FAFF"/>
					</linearGradient>
					<polygon style="fill:url(#SVGID_00000163049962036472193280000004616073093654102401_);" points="-19.3,47.3 24.5,0 72.3,44.2 
						28.5,91.5 					"/>
				</g>
			</g>
		</g>
		<g>
			<defs>
				<path id="SVGID_00000032643361928169184360000017411342672217153200_" d="M38.3,25.8c-1.9,0-3.8,0.5-5.5,1.4
					c-1.7,0.9-3.2,2.1-4.4,3.7l-5.6,15c-0.1,0.6-0.2,1.1-0.4,1.7c-0.1,0.3-0.2,0.5-0.2,0.9c-0.5,1.6-1,3.1-1.6,4.6
					c-0.5,0.9-1.2,1.9-2.4,1.6l-0.5-0.2c-0.8-0.6-1.4-1.4-1.8-2.3c-1.1-2-1.9-4.1-2.5-6.2c-0.8-2.7-1.3-5.5-1.6-8.3
					c0-1.3-0.4-2.5-1-3.6c-0.4-0.6-1-1.1-1.6-1.4c-0.8-0.5-1.7-0.8-2.7-0.8c-1,0-2,0.2-2.9,0.6c-0.8,0.5-1.5,1.2-2,2
					c-0.5,0.8-0.8,1.8-0.8,2.8c0,0.4,0.1,0.7,0.2,1.1C1.1,41.4,2.5,51.2,7,58.6c0,0,3.7,7.2,11.6,7c1.9-0.1,3.8-0.5,5.5-1.3
					c1.7-0.8,3.2-2,4.4-3.5l3.2-7.2l2.4-7.6l0.2-1.2c0.5-2,1.1-3.9,1.9-5.8c0.3-0.8,0.7-1.5,1.3-2l0.1-0.1c0.6-0.3,1.3-0.2,1.7,0.2
					c0.3,0.2,0.5,0.5,0.7,0.8c0.2,0.3,0.4,0.6,0.6,0.9c0.4,0.6,0.7,1.3,1,2c0.2,0.6,0.5,1.1,0.9,1.6c0,0,0.1,0,0.1,0.1
					c0.5,0.6,1.2,1.1,1.9,1.4c0.7,0.4,1.5,0.6,2.3,0.5c0.7,0,1.4-0.1,2.1-0.4c0.7-0.3,1.3-0.7,1.8-1.2c0.5-0.6,0.9-1.2,1.2-1.8
					c0.2-0.7,0.4-1.4,0.4-2.1c0-0.8-0.2-1.6-0.5-2.3c0,0-2.1-5.5-5.8-8.3C43.9,26.7,41.1,25.8,38.3,25.8z"/>
			</defs>
			<clipPath id="SVGID_00000125585829319278767940000014156965351335058313_">
				<use xlink:href="#SVGID_00000032643361928169184360000017411342672217153200_"  style="overflow:visible;"/>
			</clipPath>
			<g style="clip-path:url(#SVGID_00000125585829319278767940000014156965351335058313_);">
				<g>
					
						<linearGradient id="SVGID_00000013190416963774116200000012012505426860705176_" gradientUnits="userSpaceOnUse" x1="245.4839" y1="-275.1038" x2="246.2739" y2="-275.1038" gradientTransform="matrix(28.2562 -8.0117 8.0117 28.2562 -4736.2666 9794.4824)">
						<stop  offset="0" style="stop-color:#26FAFF"/>
						<stop  offset="6.000000e-02" style="stop-color:#26FAFF"/>
						<stop  offset="0.24" style="stop-color:#26FAFF"/>
						<stop  offset="0.39" style="stop-color:#26FAFF"/>
						<stop  offset="0.5" style="stop-color:#26FAFF"/>
						<stop  offset="0.55" style="stop-color:#26FAFF"/>
						<stop  offset="1" style="stop-color:#26FAFF"/>
					</linearGradient>
					<polygon style="fill:url(#SVGID_00000013190416963774116200000012012505426860705176_);" points="-9.9,28.7 48.5,12.2 
						62.8,62.8 4.5,79.3 					"/>
				</g>
			</g>
		</g>
		<g>
			<defs>
				<path id="SVGID_00000008851571453623136390000004742905771555335340_" d="M38.3,25.8c-1.9,0-3.8,0.5-5.5,1.4
					c-1.7,0.9-3.2,2.1-4.4,3.7l-5.6,15c-0.1,0.6-0.2,1.1-0.4,1.7c-0.1,0.3-0.2,0.5-0.2,0.9c-0.5,1.6-1,3.1-1.6,4.6
					c-0.5,0.9-1.2,1.9-2.4,1.6l-0.5-0.2c-0.8-0.6-1.4-1.4-1.8-2.3c-1.1-2-1.9-4.1-2.5-6.2c-0.8-2.7-1.3-5.5-1.6-8.3
					c0-1.3-0.4-2.5-1-3.6c-0.4-0.6-1-1.1-1.6-1.4c-0.8-0.5-1.7-0.8-2.7-0.8c-1,0-2,0.2-2.9,0.6c-0.8,0.5-1.5,1.2-2,2
					c-0.5,0.8-0.8,1.8-0.8,2.8c0,0.4,0.1,0.7,0.2,1.1C1.1,41.4,2.5,51.2,7,58.6c0,0,3.7,7.2,11.6,7c1.9-0.1,3.8-0.5,5.5-1.3
					c1.7-0.8,3.2-2,4.4-3.5l3.2-7.2l2.4-7.6l0.2-1.2c0.5-2,1.1-3.9,1.9-5.8c0.3-0.8,0.7-1.5,1.3-2l0.1-0.1c0.6-0.3,1.3-0.2,1.7,0.2
					c0.3,0.2,0.5,0.5,0.7,0.8c0.2,0.3,0.4,0.6,0.6,0.9c0.4,0.6,0.7,1.3,1,2c0.2,0.6,0.5,1.1,0.9,1.6c0,0,0.1,0,0.1,0.1
					c0.5,0.6,1.2,1.1,1.9,1.4c0.7,0.4,1.5,0.6,2.3,0.5c0.7,0,1.4-0.1,2.1-0.4c0.7-0.3,1.3-0.7,1.8-1.2c0.5-0.6,0.9-1.2,1.2-1.8
					c0.2-0.7,0.4-1.4,0.4-2.1c0-0.8-0.2-1.6-0.5-2.3c0,0-2.1-5.5-5.8-8.3C43.9,26.7,41.1,25.8,38.3,25.8z"/>
			</defs>
			<clipPath id="SVGID_00000031166663852952643470000005303327533818295726_">
				<use xlink:href="#SVGID_00000008851571453623136390000004742905771555335340_"  style="overflow:visible;"/>
			</clipPath>
			<g style="clip-path:url(#SVGID_00000031166663852952643470000005303327533818295726_);">
				<g>
					
						<linearGradient id="SVGID_00000176764531468479927820000009148104836257087663_" gradientUnits="userSpaceOnUse" x1="245.3623" y1="-275.4233" x2="246.1423" y2="-275.4233" gradientTransform="matrix(31.8376 -11.3494 11.3494 31.8376 -4684.6821 11608.3135)">
						<stop  offset="0" style="stop-color:#21DEFF"/>
						<stop  offset="4.000000e-02" style="stop-color:#21DEFF"/>
						<stop  offset="0.17" style="stop-color:#21DEFF"/>
						<stop  offset="0.27" style="stop-color:#21DEFF"/>
						<stop  offset="0.34" style="stop-color:#21DEFF"/>
						<stop  offset="0.38" style="stop-color:#21DEFF"/>
						<stop  offset="1" style="stop-color:#21DEFF"/>
					</linearGradient>
					<polygon style="fill:url(#SVGID_00000176764531468479927820000009148104836257087663_);" points="-12,30.3 46.5,9.4 65,61.3 
						6.4,82.1 					"/>
				</g>
			</g>
		</g>
		<g>
			<defs>
				<path id="SVGID_00000112604505039176477930000009467105472604716689_" d="M38.3,25.8c-1.9,0-3.8,0.5-5.5,1.4
					c-1.7,0.9-3.2,2.1-4.4,3.7l-5.6,15c-0.1,0.6-0.2,1.1-0.4,1.7c-0.1,0.3-0.2,0.5-0.2,0.9c-0.5,1.6-1,3.1-1.6,4.6
					c-0.5,0.9-1.2,1.9-2.4,1.6l-0.5-0.2c-0.8-0.6-1.4-1.4-1.8-2.3c-1.1-2-1.9-4.1-2.5-6.2c-0.8-2.7-1.3-5.5-1.6-8.3
					c0-1.3-0.4-2.5-1-3.6c-0.4-0.6-1-1.1-1.6-1.4c-0.8-0.5-1.7-0.8-2.7-0.8c-1,0-2,0.2-2.9,0.6c-0.8,0.5-1.5,1.2-2,2
					c-0.5,0.8-0.8,1.8-0.8,2.8c0,0.4,0.1,0.7,0.2,1.1C1.1,41.4,2.5,51.2,7,58.6c0,0,3.7,7.2,11.6,7c1.9-0.1,3.8-0.5,5.5-1.3
					c1.7-0.8,3.2-2,4.4-3.5l3.2-7.2l2.4-7.6l0.2-1.2c0.5-2,1.1-3.9,1.9-5.8c0.3-0.8,0.7-1.5,1.3-2l0.1-0.1c0.6-0.3,1.3-0.2,1.7,0.2
					c0.3,0.2,0.5,0.5,0.7,0.8c0.2,0.3,0.4,0.6,0.6,0.9c0.4,0.6,0.7,1.3,1,2c0.2,0.6,0.5,1.1,0.9,1.6c0,0,0.1,0,0.1,0.1
					c0.5,0.6,1.2,1.1,1.9,1.4c0.7,0.4,1.5,0.6,2.3,0.5c0.7,0,1.4-0.1,2.1-0.4c0.7-0.3,1.3-0.7,1.8-1.2c0.5-0.6,0.9-1.2,1.2-1.8
					c0.2-0.7,0.4-1.4,0.4-2.1c0-0.8-0.2-1.6-0.5-2.3c0,0-2.1-5.5-5.8-8.3C43.9,26.7,41.1,25.8,38.3,25.8z"/>
			</defs>
			<clipPath id="SVGID_00000128465444400660404410000009165831333557178247_">
				<use xlink:href="#SVGID_00000112604505039176477930000009467105472604716689_"  style="overflow:visible;"/>
			</clipPath>
		</g>
		<g>
			<defs>
				<path id="SVGID_00000050643542003488877540000012809371588071559596_" d="M38.3,25.8c-1.9,0-3.8,0.4-5.6,1.3
					c-1.7,0.9-3.3,2.1-4.4,3.7l-3.5,9.5l6.9,13.3l2.4-7.6l0.2-1.2c0.5-2,1.1-3.9,1.9-5.8c0.3-0.8,0.7-1.5,1.3-2l0.1-0.1
					c0.6-0.3,1.3-0.2,1.7,0.2c0.3,0.2,0.5,0.5,0.7,0.8c0.2,0.3,0.4,0.6,0.6,0.9c0.4,0.6,0.7,1.3,1,2c0.3,0.6,0.6,1.1,0.9,1.6
					c0,0,0.1,0,0.1,0.1c0.5,0.6,1.2,1.1,1.9,1.4c0.7,0.4,1.5,0.6,2.3,0.5c0.7,0,1.4-0.1,2.1-0.4c0.7-0.3,1.3-0.7,1.8-1.2
					c0.5-0.6,0.9-1.2,1.2-1.8c0.2-0.7,0.4-1.4,0.4-2.1c0-0.8-0.2-1.6-0.5-2.3c0,0-2.1-5.5-5.8-8.3C43.9,26.7,41.1,25.8,38.3,25.8z"
					/>
			</defs>
			<clipPath id="SVGID_00000049922428011392044500000001931744879797963683_">
				<use xlink:href="#SVGID_00000050643542003488877540000012809371588071559596_"  style="overflow:visible;"/>
			</clipPath>
			<g style="clip-path:url(#SVGID_00000049922428011392044500000001931744879797963683_);">
				<g>
					
						<linearGradient id="SVGID_00000031887930007281586410000006529313059489256576_" gradientUnits="userSpaceOnUse" x1="241.9032" y1="-277.9142" x2="242.6832" y2="-277.9142" gradientTransform="matrix(-2.79 -13.671 13.671 -2.79 4514.3633 2579.979)">
						<stop  offset="0" style="stop-color:#44B044"/>
						<stop  offset="0.11" style="stop-color:#44B044"/>
						<stop  offset="0.27" style="stop-color:#44B044"/>
						<stop  offset="0.43" style="stop-color:#44B044"/>
						<stop  offset="0.58" style="stop-color:#44B044"/>
						<stop  offset="0.7" style="stop-color:#44B044"/>
						<stop  offset="0.8" style="stop-color:#44B044"/>
						<stop  offset="1" style="stop-color:#44B044"/>
					</linearGradient>
					<polygon style="fill:url(#SVGID_00000031887930007281586410000006529313059489256576_);" points="19.2,27.2 51.1,20.7 
						57.6,52.8 25.7,59.3 					"/>
				</g>
			</g>
		</g>
		<g>
			<defs>
				<path id="SVGID_00000084488648483310746820000009396891859415525278_" d="M17.6,25.8c-0.5,0-0.9,0.1-1.4,0.2
					c-3.6,0.7-6.7,2.9-8.7,6c0.5,0.1,1,0.3,1.5,0.6c0.6,0.4,1.2,0.8,1.6,1.4c0.6,1.1,1,2.3,1,3.6c0.3,2.7,0.9,5.4,1.6,8.1
					c0.8-2.9,2-5.7,3.7-8.2c0.2-0.3,0.5-0.5,0.8-0.7c0.2-0.1,0.4-0.2,0.5-0.2c0.3,0,0.7,0.1,1,0.2c0.1,0,0.1,0.1,0.2,0.1
					c0.3,0.2,0.5,0.5,0.7,0.8c0.4,0.8,0.8,1.6,1.1,2.4c0.6,1.7,1.2,3.9,1.2,3.9l1.6,6.3c0.5,2.2,1.3,4.3,2.1,6.4
					c2.4,5.6,6.1,7.2,6.1,7.2c1.8,1,3.8,1.5,5.9,1.6c2,0.1,3.9-0.3,5.7-1.2c1.9-1,3.6-2.3,5-4c0.8-1.1,1.6-2.3,2.2-3.5
					c1.5-2.9,2.6-6,3.4-9.1c0.5-2,1-4,1.3-6c0.2-1,0.3-2,0.4-3c0.2-0.9,0.1-1.9-0.1-2.8c-0.1-0.2-0.1-0.3-0.1-0.5
					c-0.5-1.2-1.3-2.1-2.4-2.8c-0.8-0.5-1.7-0.8-2.7-0.8c-0.5,0-0.9,0.1-1.3,0.2c1,1.5,1.9,3.1,2.6,4.7c0.3,0.7,0.5,1.5,0.5,2.3
					c0,0.7-0.2,1.4-0.4,2.1c-0.3,0.6-0.7,1.3-1.2,1.8c-0.5,0.5-1.1,1-1.8,1.2c-0.7,0.3-1.4,0.4-2.1,0.4c-1,0-1.9-0.3-2.8-0.8
					l-0.6,2.1c-0.4,1.6-1,3.2-1.7,4.7c-0.4,0.9-0.9,1.8-1.4,2.7c-0.4,0.6-0.9,1-1.5,1.3c-0.2,0.1-0.5,0.1-0.7,0.1
					c-0.3,0-0.5-0.1-0.7-0.2c-0.4-0.3-0.8-0.8-1-1.3c-0.3-0.5-0.6-1.1-0.9-1.6c-0.5-1.2-1.3-4.1-1.3-4.1l-0.7-3.1l-0.8-3.1l-0.5-2
					c-0.7-2.8-1.8-5.5-3.5-7.9c-1.6-2.3-3.8-4-6.5-4.9c-1-0.4-2.1-0.6-3.2-0.6H17.6z"/>
			</defs>
			<clipPath id="SVGID_00000082353699937738381630000008608911360406771861_">
				<use xlink:href="#SVGID_00000084488648483310746820000009396891859415525278_"  style="overflow:visible;"/>
			</clipPath>
			<g style="clip-path:url(#SVGID_00000082353699937738381630000008608911360406771861_);">
				
					<linearGradient id="SVGID_00000077291741359223059600000007625504043309903024_" gradientUnits="userSpaceOnUse" x1="246.0413" y1="-276.1042" x2="246.8213" y2="-276.1042" gradientTransform="matrix(58.962 19.5227 -19.5227 58.962 -19886.707 11514.9561)">
					<stop  offset="0" style="stop-color:#3066FB"/>
					<stop  offset="0.38" style="stop-color:#2F64F7"/>
					<stop  offset="0.74" style="stop-color:#2857D9"/>
					<stop  offset="1" style="stop-color:#3C7EFF"/>
				</linearGradient>
				<polygon style="fill:url(#SVGID_00000077291741359223059600000007625504043309903024_);" points="-4.3,61.6 12.3,11.3 68,29.7 
					51.3,80.1 				"/>
			</g>
		</g>
		<g>
			<defs>
				<path id="SVGID_00000147189626481128529020000012940171591569390015_" d="M17.6,25.8c-0.5,0-0.9,0.1-1.4,0.2
					c-3.6,0.7-6.7,2.9-8.7,6c0.5,0.1,1,0.3,1.5,0.6c0.6,0.4,1.2,0.8,1.6,1.4c0.6,1.1,1,2.3,1,3.6c0.3,2.7,0.9,5.4,1.6,8.1
					c0.8-2.9,2-5.7,3.7-8.2c0.2-0.3,0.5-0.5,0.8-0.7c0.2-0.1,0.4-0.2,0.5-0.2c0.3,0,0.7,0.1,1,0.2c0.1,0,0.1,0.1,0.2,0.1
					c0.3,0.2,0.5,0.5,0.7,0.8c0.4,0.8,0.8,1.6,1.1,2.4c0.6,1.7,1.2,3.9,1.2,3.9l1.6,6.3c0.5,2.2,1.3,4.3,2.1,6.4
					c2.4,5.6,6.1,7.2,6.1,7.2c1.8,1,3.8,1.5,5.9,1.6c2,0.1,3.9-0.3,5.7-1.2c1.9-1,3.6-2.3,5-4c0.8-1.1,1.6-2.3,2.2-3.5
					c1.5-2.9,2.6-6,3.4-9.1c0.5-2,1-4,1.3-6c0.2-1,0.3-2,0.4-3c0.2-0.9,0.1-1.9-0.1-2.8c-0.1-0.2-0.1-0.3-0.1-0.5
					c-0.5-1.2-1.3-2.1-2.4-2.8c-0.8-0.5-1.7-0.8-2.7-0.8c-0.5,0-0.9,0.1-1.3,0.2c1,1.5,1.9,3.1,2.6,4.7c0.3,0.7,0.5,1.5,0.5,2.3
					c0,0.7-0.2,1.4-0.4,2.1c-0.3,0.6-0.7,1.3-1.2,1.8c-0.5,0.5-1.1,1-1.8,1.2c-0.7,0.3-1.4,0.4-2.1,0.4c-1,0-1.9-0.3-2.8-0.8
					l-0.6,2.1c-0.4,1.6-1,3.2-1.7,4.7c-0.4,0.9-0.9,1.8-1.4,2.7c-0.4,0.6-0.9,1-1.5,1.3c-0.2,0.1-0.5,0.1-0.7,0.1
					c-0.3,0-0.5-0.1-0.7-0.2c-0.4-0.3-0.8-0.8-1-1.3c-0.3-0.5-0.6-1.1-0.9-1.6c-0.5-1.2-1.3-4.1-1.3-4.1l-0.7-3.1l-0.8-3.1l-0.5-2
					c-0.7-2.8-1.8-5.5-3.5-7.9c-1.6-2.3-3.8-4-6.5-4.9c-1-0.4-2.1-0.6-3.2-0.6H17.6z"/>
			</defs>
			<clipPath id="SVGID_00000112598787333513423410000014450234558092607392_">
				<use xlink:href="#SVGID_00000147189626481128529020000012940171591569390015_"  style="overflow:visible;"/>
			</clipPath>
			<g style="clip-path:url(#SVGID_00000112598787333513423410000014450234558092607392_);">
				<g>
					
						<radialGradient id="SVGID_00000120526513673844157160000000438330665655876752_" cx="247.4163" cy="-277.2473" r="0.79" gradientTransform="matrix(-4.7638 31.168 -20.5711 -3.1441 -4482.0181 -8538.6191)" gradientUnits="userSpaceOnUse">
						<stop  offset="0" style="stop-color:#1A3D9C"/>
						<stop  offset="0.4" style="stop-color:#1A3D9C"/>
						<stop  offset="0.7" style="stop-color:#1A3D9C"/>
						<stop  offset="1" style="stop-color:#1A3D9C"/>
					</radialGradient>
					<polygon style="fill:url(#SVGID_00000120526513673844157160000000438330665655876752_);" points="1.6,64.6 8.6,18.5 62,26.7 
						55,72.8 					"/>
				</g>
			</g>
		</g>
		<g>
			<defs>
				<path id="SVGID_00000049901770950429726820000010140684509118528128_" d="M17.6,25.8c-0.5,0-0.9,0.1-1.4,0.2
					c-3.6,0.7-6.7,2.9-8.7,6c0.5,0.1,1,0.3,1.5,0.6c0.6,0.4,1.2,0.8,1.6,1.4c0.6,1.1,1,2.3,1,3.6c0.3,2.7,0.9,5.4,1.6,8.1
					c0.8-2.9,2-5.7,3.7-8.2c0.2-0.3,0.5-0.5,0.8-0.7c0.2-0.1,0.4-0.2,0.5-0.2c0.3,0,0.7,0.1,1,0.2c0.1,0,0.1,0.1,0.2,0.1
					c0.3,0.2,0.5,0.5,0.7,0.8c0.4,0.8,0.8,1.6,1.1,2.4c0.6,1.7,1.2,3.9,1.2,3.9l1.6,6.3c0.5,2.2,1.3,4.3,2.1,6.4
					c2.4,5.6,6.1,7.2,6.1,7.2c1.8,1,3.8,1.5,5.9,1.6c2,0.1,3.9-0.3,5.7-1.2c1.9-1,3.6-2.3,5-4c0.8-1.1,1.6-2.3,2.2-3.5
					c1.5-2.9,2.6-6,3.4-9.1c0.5-2,1-4,1.3-6c0.2-1,0.3-2,0.4-3c0.2-0.9,0.1-1.9-0.1-2.8c-0.1-0.2-0.1-0.3-0.1-0.5
					c-0.5-1.2-1.3-2.1-2.4-2.8c-0.8-0.5-1.7-0.8-2.7-0.8c-0.5,0-0.9,0.1-1.3,0.2c1,1.5,1.9,3.1,2.6,4.7c0.3,0.7,0.5,1.5,0.5,2.3
					c0,0.7-0.2,1.4-0.4,2.1c-0.3,0.6-0.7,1.3-1.2,1.8c-0.5,0.5-1.1,1-1.8,1.2c-0.7,0.3-1.4,0.4-2.1,0.4c-1,0-1.9-0.3-2.8-0.8
					l-0.6,2.1c-0.4,1.6-1,3.2-1.7,4.7c-0.4,0.9-0.9,1.8-1.4,2.7c-0.4,0.6-0.9,1-1.5,1.3c-0.2,0.1-0.5,0.1-0.7,0.1
					c-0.3,0-0.5-0.1-0.7-0.2c-0.4-0.3-0.8-0.8-1-1.3c-0.3-0.5-0.6-1.1-0.9-1.6c-0.5-1.2-1.3-4.1-1.3-4.1l-0.7-3.1l-0.8-3.1l-0.5-2
					c-0.7-2.8-1.8-5.5-3.5-7.9c-1.6-2.3-3.8-4-6.5-4.9c-1-0.4-2.1-0.6-3.2-0.6H17.6z"/>
			</defs>
			<clipPath id="SVGID_00000060009556574324422010000014527431941699397041_">
				<use xlink:href="#SVGID_00000049901770950429726820000010140684509118528128_"  style="overflow:visible;"/>
			</clipPath>
			<g style="clip-path:url(#SVGID_00000060009556574324422010000014527431941699397041_);">
				<g>
					
						<radialGradient id="SVGID_00000119086729564104802560000013692535675397594285_" cx="248.5184" cy="-275.8439" r="0.79" gradientTransform="matrix(-586.0598 3834.2595 -2067.3997 -315.9975 -409515.7812 -1079019)" gradientUnits="userSpaceOnUse">
						<stop  offset="0" style="stop-color:#1A3D9C"/>
						<stop  offset="0.4" style="stop-color:#1A3D9C"/>
						<stop  offset="0.7" style="stop-color:#1A3D9C"/>
						<stop  offset="1" style="stop-color:#1A3D9C"/>
					</radialGradient>
					<polygon style="fill:url(#SVGID_00000119086729564104802560000013692535675397594285_);" points="1.6,64.6 8.6,18.5 62,26.7 
						55,72.8 					"/>
				</g>
			</g>
		</g>
		<g>
			<defs>
				<path id="SVGID_00000031167583385869449700000008591746753388609714_" d="M17.6,25.8c-0.5,0-0.9,0.1-1.4,0.2
					c-3.6,0.7-6.7,2.9-8.7,6c0.5,0.1,1,0.3,1.5,0.6c0.6,0.4,1.2,0.8,1.6,1.4c0.6,1.1,1,2.3,1,3.6c0.3,2.7,0.9,5.4,1.6,8.1
					c0.8-2.9,2-5.7,3.7-8.2c0.2-0.3,0.5-0.5,0.8-0.7c0.2-0.1,0.4-0.2,0.5-0.2c0.3,0,0.7,0.1,1,0.2c0.1,0,0.1,0.1,0.2,0.1
					c0.3,0.2,0.5,0.5,0.7,0.8c0.4,0.8,0.8,1.6,1.1,2.4c0.6,1.7,1.2,3.9,1.2,3.9l1.6,6.3c0.5,2.2,1.3,4.3,2.1,6.4
					c2.4,5.6,6.1,7.2,6.1,7.2c1.8,1,3.8,1.5,5.9,1.6c2,0.1,3.9-0.3,5.7-1.2c1.9-1,3.6-2.3,5-4c0.8-1.1,1.6-2.3,2.2-3.5
					c1.5-2.9,2.6-6,3.4-9.1c0.5-2,1-4,1.3-6c0.2-1,0.3-2,0.4-3c0.2-0.9,0.1-1.9-0.1-2.8c-0.1-0.2-0.1-0.3-0.1-0.5
					c-0.5-1.2-1.3-2.1-2.4-2.8c-0.8-0.5-1.7-0.8-2.7-0.8c-0.5,0-0.9,0.1-1.3,0.2c1,1.5,1.9,3.1,2.6,4.7c0.3,0.7,0.5,1.5,0.5,2.3
					c0,0.7-0.2,1.4-0.4,2.1c-0.3,0.6-0.7,1.3-1.2,1.8c-0.5,0.5-1.1,1-1.8,1.2c-0.7,0.3-1.4,0.4-2.1,0.4c-1,0-1.9-0.3-2.8-0.8
					l-0.6,2.1c-0.4,1.6-1,3.2-1.7,4.7c-0.4,0.9-0.9,1.8-1.4,2.7c-0.4,0.6-0.9,1-1.5,1.3c-0.2,0.1-0.5,0.1-0.7,0.1
					c-0.3,0-0.5-0.1-0.7-0.2c-0.4-0.3-0.8-0.8-1-1.3c-0.3-0.5-0.6-1.1-0.9-1.6c-0.5-1.2-1.3-4.1-1.3-4.1l-0.7-3.1l-0.8-3.1l-0.5-2
					c-0.7-2.8-1.8-5.5-3.5-7.9c-1.6-2.3-3.8-4-6.5-4.9c-1-0.4-2.1-0.6-3.2-0.6H17.6z"/>
			</defs>
			<clipPath id="SVGID_00000144300901329974695340000004700828094870150323_">
				<use xlink:href="#SVGID_00000031167583385869449700000008591746753388609714_"  style="overflow:visible;"/>
			</clipPath>
			<g style="clip-path:url(#SVGID_00000144300901329974695340000004700828094870150323_);">
				<g>
					
						<radialGradient id="SVGID_00000179640750945777812670000001016314481957901967_" cx="248.0861" cy="-275.9933" r="0.79" gradientTransform="matrix(-691.6345 4567.3599 -1886.8784 -285.7308 -335919.9375 -1251500.875)" gradientUnits="userSpaceOnUse">
						<stop  offset="0" style="stop-color:#1A3D9C"/>
						<stop  offset="0.4" style="stop-color:#1A3D9C"/>
						<stop  offset="0.7" style="stop-color:#1A3D9C"/>
						<stop  offset="1" style="stop-color:#1A3D9C"/>
					</radialGradient>
					<polygon style="fill:url(#SVGID_00000179640750945777812670000001016314481957901967_);" points="1.6,64.6 8.6,18.6 62,26.6 
						55,72.7 					"/>
				</g>
			</g>
		</g>
		<g>
			<defs>
				<path id="SVGID_00000166666260973406587960000018079178075985440401_" d="M17.6,25.8c-0.5,0-0.9,0.1-1.4,0.2
					c-3.6,0.7-6.7,2.9-8.7,6c0.5,0.1,1,0.3,1.5,0.6c0.6,0.4,1.2,0.8,1.6,1.4c0.6,1.1,1,2.3,1,3.6c0.3,2.7,0.9,5.4,1.6,8.1
					c0.8-2.9,2-5.7,3.7-8.2c0.2-0.3,0.5-0.5,0.8-0.7c0.2-0.1,0.4-0.2,0.5-0.2c0.3,0,0.7,0.1,1,0.2c0.1,0,0.1,0.1,0.2,0.1
					c0.3,0.2,0.5,0.5,0.7,0.8c0.4,0.8,0.8,1.6,1.1,2.4c0.6,1.7,1.2,3.9,1.2,3.9l1.6,6.3c0.5,2.2,1.3,4.3,2.1,6.4
					c2.4,5.6,6.1,7.2,6.1,7.2c1.8,1,3.8,1.5,5.9,1.6c2,0.1,3.9-0.3,5.7-1.2c1.9-1,3.6-2.3,5-4c0.8-1.1,1.6-2.3,2.2-3.5
					c1.5-2.9,2.6-6,3.4-9.1c0.5-2,1-4,1.3-6c0.2-1,0.3-2,0.4-3c0.2-0.9,0.1-1.9-0.1-2.8c-0.1-0.2-0.1-0.3-0.1-0.5
					c-0.5-1.2-1.3-2.1-2.4-2.8c-0.8-0.5-1.7-0.8-2.7-0.8c-0.5,0-0.9,0.1-1.3,0.2c1,1.5,1.9,3.1,2.6,4.7c0.3,0.7,0.5,1.5,0.5,2.3
					c0,0.7-0.2,1.4-0.4,2.1c-0.3,0.6-0.7,1.3-1.2,1.8c-0.5,0.5-1.1,1-1.8,1.2c-0.7,0.3-1.4,0.4-2.1,0.4c-1,0-1.9-0.3-2.8-0.8
					l-0.6,2.1c-0.4,1.6-1,3.2-1.7,4.7c-0.4,0.9-0.9,1.8-1.4,2.7c-0.4,0.6-0.9,1-1.5,1.3c-0.2,0.1-0.5,0.1-0.7,0.1
					c-0.3,0-0.5-0.1-0.7-0.2c-0.4-0.3-0.8-0.8-1-1.3c-0.3-0.5-0.6-1.1-0.9-1.6c-0.5-1.2-1.3-4.1-1.3-4.1l-0.7-3.1l-0.8-3.1l-0.5-2
					c-0.7-2.8-1.8-5.5-3.5-7.9c-1.6-2.3-3.8-4-6.5-4.9c-1-0.4-2.1-0.6-3.2-0.6H17.6z"/>
			</defs>
			<clipPath id="SVGID_00000094604604595418683660000002650389956585449909_">
				<use xlink:href="#SVGID_00000166666260973406587960000018079178075985440401_"  style="overflow:visible;"/>
			</clipPath>
			<g style="clip-path:url(#SVGID_00000094604604595418683660000002650389956585449909_);">
				<g>
					
						<radialGradient id="SVGID_00000183971388638401001620000013598246815331834249_" cx="247.6515" cy="-276.5243" r="0.79" gradientTransform="matrix(3.3157 27.3598 -19.0903 2.3136 -6060.4995 -6092.4897)" gradientUnits="userSpaceOnUse">
						<stop  offset="0" style="stop-color:#1A3D9C"/>
						<stop  offset="0.16" style="stop-color:#1A3D9C"/>
						<stop  offset="0.33" style="stop-color:#1A3D9C"/>
						<stop  offset="0.49" style="stop-color:#1A3D9C"/>
						<stop  offset="0.61" style="stop-color:#1A3D9C"/>
						<stop  offset="0.7" style="stop-color:#1A3D9C"/>
						<stop  offset="1" style="stop-color:#1A3D9C"/>
					</radialGradient>
					<polygon style="fill:url(#SVGID_00000183971388638401001620000013598246815331834249_);" points="2.8,26.4 55.4,20 60.8,65 
						8.2,71.3 					"/>
				</g>
			</g>
		</g>
		<g>
			<defs>
				<path id="SVGID_00000054257797591145639610000008346631129389502869_" d="M17.6,25.8c-0.5,0-0.9,0.1-1.4,0.2
					c-3.6,0.7-6.7,2.9-8.7,6c0.5,0.1,1,0.3,1.5,0.6c0.6,0.4,1.2,0.8,1.6,1.4c0.6,1.1,1,2.3,1,3.6c0.3,2.7,0.9,5.4,1.6,8.1
					c0.8-2.9,2-5.7,3.7-8.2c0.2-0.3,0.5-0.5,0.8-0.7c0.2-0.1,0.4-0.2,0.5-0.2c0.3,0,0.7,0.1,1,0.2c0.1,0,0.1,0.1,0.2,0.1
					c0.3,0.2,0.5,0.5,0.7,0.8c0.4,0.8,0.8,1.6,1.1,2.4c0.6,1.7,1.2,3.9,1.2,3.9l1.6,6.3c0.5,2.2,1.3,4.3,2.1,6.4
					c2.4,5.6,6.1,7.2,6.1,7.2c1.8,1,3.8,1.5,5.9,1.6c2,0.1,3.9-0.3,5.7-1.2c1.9-1,3.6-2.3,5-4c0.8-1.1,1.6-2.3,2.2-3.5
					c1.5-2.9,2.6-6,3.4-9.1c0.5-2,1-4,1.3-6c0.2-1,0.3-2,0.4-3c0.2-0.9,0.1-1.9-0.1-2.8c-0.1-0.2-0.1-0.3-0.1-0.5
					c-0.5-1.2-1.3-2.1-2.4-2.8c-0.8-0.5-1.7-0.8-2.7-0.8c-0.5,0-0.9,0.1-1.3,0.2c1,1.5,1.9,3.1,2.6,4.7c0.3,0.7,0.5,1.5,0.5,2.3
					c0,0.7-0.2,1.4-0.4,2.1c-0.3,0.6-0.7,1.3-1.2,1.8c-0.5,0.5-1.1,1-1.8,1.2c-0.7,0.3-1.4,0.4-2.1,0.4c-1,0-1.9-0.3-2.8-0.8
					l-0.6,2.1c-0.4,1.6-1,3.2-1.7,4.7c-0.4,0.9-0.9,1.8-1.4,2.7c-0.4,0.6-0.9,1-1.5,1.3c-0.2,0.1-0.5,0.1-0.7,0.1
					c-0.3,0-0.5-0.1-0.7-0.2c-0.4-0.3-0.8-0.8-1-1.3c-0.3-0.5-0.6-1.1-0.9-1.6c-0.5-1.2-1.3-4.1-1.3-4.1l-0.7-3.1l-0.8-3.1l-0.5-2
					c-0.7-2.8-1.8-5.5-3.5-7.9c-1.6-2.3-3.8-4-6.5-4.9c-1-0.4-2.1-0.6-3.2-0.6H17.6z"/>
			</defs>
			<clipPath id="SVGID_00000090260701508207704050000017014130189602008729_">
				<use xlink:href="#SVGID_00000054257797591145639610000008346631129389502869_"  style="overflow:visible;"/>
			</clipPath>
			<g style="clip-path:url(#SVGID_00000090260701508207704050000017014130189602008729_);">
				<g>
					
						<radialGradient id="SVGID_00000056425679871670054990000016254849470277253311_" cx="247.6133" cy="-276.0061" r="0.79" gradientTransform="matrix(7.0168 25.5438 -17.3667 4.7705 -6487.3828 -4960.6035)" gradientUnits="userSpaceOnUse">
						<stop  offset="0" style="stop-color:#18388F"/>
						<stop  offset="0.37" style="stop-color:#193B96"/>
						<stop  offset="0.7" style="stop-color:#1A3D9C"/>
						<stop  offset="1" style="stop-color:#1A3D9C"/>
					</radialGradient>
					<polygon style="fill:url(#SVGID_00000056425679871670054990000016254849470277253311_);" points="-2.6,28.6 52.7,13.4 
						66.3,62.7 10.9,77.9 					"/>
				</g>
			</g>
		</g>
		<g>
			<defs>
				<path id="SVGID_00000136373119959529416470000007595360324308684960_" d="M17.6,25.8c-0.5,0-0.9,0.1-1.4,0.2
					c-3.6,0.7-6.7,2.9-8.7,6c0.5,0.1,1,0.3,1.5,0.6c0.6,0.4,1.2,0.8,1.6,1.4c0.6,1.1,1,2.3,1,3.6c0.3,2.7,0.9,5.4,1.6,8.1
					c0.8-2.9,2-5.7,3.7-8.2c0.2-0.3,0.5-0.5,0.8-0.7c0.2-0.1,0.4-0.2,0.5-0.2c0.3,0,0.7,0.1,1,0.2c0.1,0,0.1,0.1,0.2,0.1
					c0.3,0.2,0.5,0.5,0.7,0.8c0.4,0.8,0.8,1.6,1.1,2.4c0.6,1.7,1.2,3.9,1.2,3.9l1.6,6.3c0.5,2.2,1.3,4.3,2.1,6.4
					c2.4,5.6,6.1,7.2,6.1,7.2c1.8,1,3.8,1.5,5.9,1.6c2,0.1,3.9-0.3,5.7-1.2c1.9-1,3.6-2.3,5-4c0.8-1.1,1.6-2.3,2.2-3.5
					c1.5-2.9,2.6-6,3.4-9.1c0.5-2,1-4,1.3-6c0.2-1,0.3-2,0.4-3c0.2-0.9,0.1-1.9-0.1-2.8c-0.1-0.2-0.1-0.3-0.1-0.5
					c-0.5-1.2-1.3-2.1-2.4-2.8c-0.8-0.5-1.7-0.8-2.7-0.8c-0.5,0-0.9,0.1-1.3,0.2c1,1.5,1.9,3.1,2.6,4.7c0.3,0.7,0.5,1.5,0.5,2.3
					c0,0.7-0.2,1.4-0.4,2.1c-0.3,0.6-0.7,1.3-1.2,1.8c-0.5,0.5-1.1,1-1.8,1.2c-0.7,0.3-1.4,0.4-2.1,0.4c-1,0-1.9-0.3-2.8-0.8
					l-0.6,2.1c-0.4,1.6-1,3.2-1.7,4.7c-0.4,0.9-0.9,1.8-1.4,2.7c-0.4,0.6-0.9,1-1.5,1.3c-0.2,0.1-0.5,0.1-0.7,0.1
					c-0.3,0-0.5-0.1-0.7-0.2c-0.4-0.3-0.8-0.8-1-1.3c-0.3-0.5-0.6-1.1-0.9-1.6c-0.5-1.2-1.3-4.1-1.3-4.1l-0.7-3.1l-0.8-3.1l-0.5-2
					c-0.7-2.8-1.8-5.5-3.5-7.9c-1.6-2.3-3.8-4-6.5-4.9c-1-0.4-2.1-0.6-3.2-0.6H17.6z"/>
			</defs>
			<clipPath id="SVGID_00000019646076596505577090000006428512773358431675_">
				<use xlink:href="#SVGID_00000136373119959529416470000007595360324308684960_"  style="overflow:visible;"/>
			</clipPath>
			<g style="clip-path:url(#SVGID_00000019646076596505577090000006428512773358431675_);">
				<g>
					
						<radialGradient id="SVGID_00000077305925897574137780000012037960699213877947_" cx="249.7638" cy="-275.5493" r="0.79" gradientTransform="matrix(3.2607 11.8703 -11.2821 3.0991 -3881.8618 -2059.6865)" gradientUnits="userSpaceOnUse">
						<stop  offset="0" style="stop-color:#18388F"/>
						<stop  offset="9.000000e-02" style="stop-color:#183992"/>
						<stop  offset="0.22" style="stop-color:#193B96"/>
						<stop  offset="0.35" style="stop-color:#193C98"/>
						<stop  offset="0.47" style="stop-color:#1A3C9A"/>
						<stop  offset="0.59" style="stop-color:#1A3D9C"/>
						<stop  offset="0.7" style="stop-color:#1A3D9C"/>
						<stop  offset="1" style="stop-color:#1A3D9C"/>
					</radialGradient>
					<polygon style="fill:url(#SVGID_00000077305925897574137780000012037960699213877947_);" points="-2.6,28.6 52.7,13.4 
						66.3,62.7 10.9,77.9 					"/>
				</g>
			</g>
		</g>
		<g>
			<defs>
				<path id="SVGID_00000085208453095493133130000016895370612332833450_" d="M17.6,25.8c-0.5,0-0.9,0.1-1.4,0.2
					c-3.6,0.7-6.7,2.9-8.7,6c0.5,0.1,1,0.3,1.5,0.6c0.6,0.4,1.2,0.8,1.6,1.4c0.6,1.1,1,2.3,1,3.6c0.3,2.7,0.9,5.4,1.6,8.1
					c0.8-2.9,2-5.7,3.7-8.2c0.2-0.3,0.5-0.5,0.8-0.7c0.2-0.1,0.4-0.2,0.5-0.2c0.3,0,0.7,0.1,1,0.2c0.1,0,0.1,0.1,0.2,0.1
					c0.3,0.2,0.5,0.5,0.7,0.8c0.4,0.8,0.8,1.6,1.1,2.4c0.6,1.7,1.2,3.9,1.2,3.9l1.6,6.3c0.5,2.2,1.3,4.3,2.1,6.4
					c2.4,5.6,6.1,7.2,6.1,7.2c1.8,1,3.8,1.5,5.9,1.6c2,0.1,3.9-0.3,5.7-1.2c1.9-1,3.6-2.3,5-4c0.8-1.1,1.6-2.3,2.2-3.5
					c1.5-2.9,2.6-6,3.4-9.1c0.5-2,1-4,1.3-6c0.2-1,0.3-2,0.4-3c0.2-0.9,0.1-1.9-0.1-2.8c-0.1-0.2-0.1-0.3-0.1-0.5
					c-0.5-1.2-1.3-2.1-2.4-2.8c-0.8-0.5-1.7-0.8-2.7-0.8c-0.5,0-0.9,0.1-1.3,0.2c1,1.5,1.9,3.1,2.6,4.7c0.3,0.7,0.5,1.5,0.5,2.3
					c0,0.7-0.2,1.4-0.4,2.1c-0.3,0.6-0.7,1.3-1.2,1.8c-0.5,0.5-1.1,1-1.8,1.2c-0.7,0.3-1.4,0.4-2.1,0.4c-1,0-1.9-0.3-2.8-0.8
					l-0.6,2.1c-0.4,1.6-1,3.2-1.7,4.7c-0.4,0.9-0.9,1.8-1.4,2.7c-0.4,0.6-0.9,1-1.5,1.3c-0.2,0.1-0.5,0.1-0.7,0.1
					c-0.3,0-0.5-0.1-0.7-0.2c-0.4-0.3-0.8-0.8-1-1.3c-0.3-0.5-0.6-1.1-0.9-1.6c-0.5-1.2-1.3-4.1-1.3-4.1l-0.7-3.1l-0.8-3.1l-0.5-2
					c-0.7-2.8-1.8-5.5-3.5-7.9c-1.6-2.3-3.8-4-6.5-4.9c-1-0.4-2.1-0.6-3.2-0.6H17.6z"/>
			</defs>
			<clipPath id="SVGID_00000075155573725437585610000004396930253858228098_">
				<use xlink:href="#SVGID_00000085208453095493133130000016895370612332833450_"  style="overflow:visible;"/>
			</clipPath>
			<g style="clip-path:url(#SVGID_00000075155573725437585610000004396930253858228098_);">
				<g>
					
						<radialGradient id="SVGID_00000146491398751483311780000002618894342095201977_" cx="249.7238" cy="-275.5593" r="0.79" gradientTransform="matrix(3.2607 11.8703 -11.2821 3.0991 -3881.5632 -2057.5803)" gradientUnits="userSpaceOnUse">
						<stop  offset="0" style="stop-color:#1A3D9C"/>
						<stop  offset="1.000000e-02" style="stop-color:#1A3D9C"/>
						<stop  offset="0.24" style="stop-color:#1A3D9C"/>
						<stop  offset="0.44" style="stop-color:#1A3D9C"/>
						<stop  offset="0.6" style="stop-color:#1A3D9C"/>
						<stop  offset="0.7" style="stop-color:#1A3D9C"/>
						<stop  offset="1" style="stop-color:#1A3D9C"/>
					</radialGradient>
					<polygon style="fill:url(#SVGID_00000146491398751483311780000002618894342095201977_);" points="-2.6,28.6 52.7,13.4 
						66.3,62.7 10.9,77.9 					"/>
				</g>
			</g>
		</g>
		<g>
			<defs>
				<path id="SVGID_00000035504239160074063530000009409639746844716161_" d="M17.6,25.8c-0.5,0-0.9,0.1-1.4,0.2
					c-3.6,0.7-6.7,2.9-8.7,6c0.5,0.1,1,0.3,1.5,0.6c0.6,0.4,1.2,0.8,1.6,1.4c0.6,1.1,1,2.3,1,3.6c0.3,2.7,0.9,5.4,1.6,8.1
					c0.8-2.9,2-5.7,3.7-8.2c0.2-0.3,0.5-0.5,0.8-0.7c0.2-0.1,0.4-0.2,0.5-0.2c0.3,0,0.7,0.1,1,0.2c0.1,0,0.1,0.1,0.2,0.1
					c0.3,0.2,0.5,0.5,0.7,0.8c0.4,0.8,0.8,1.6,1.1,2.4c0.6,1.7,1.2,3.9,1.2,3.9l1.6,6.3c0.5,2.2,1.3,4.3,2.1,6.4
					c2.4,5.6,6.1,7.2,6.1,7.2c1.8,1,3.8,1.5,5.9,1.6c2,0.1,3.9-0.3,5.7-1.2c1.9-1,3.6-2.3,5-4c0.8-1.1,1.6-2.3,2.2-3.5
					c1.5-2.9,2.6-6,3.4-9.1c0.5-2,1-4,1.3-6c0.2-1,0.3-2,0.4-3c0.2-0.9,0.1-1.9-0.1-2.8c-0.1-0.2-0.1-0.3-0.1-0.5
					c-0.5-1.2-1.3-2.1-2.4-2.8c-0.8-0.5-1.7-0.8-2.7-0.8c-0.5,0-0.9,0.1-1.3,0.2c1,1.5,1.9,3.1,2.6,4.7c0.3,0.7,0.5,1.5,0.5,2.3
					c0,0.7-0.2,1.4-0.4,2.1c-0.3,0.6-0.7,1.3-1.2,1.8c-0.5,0.5-1.1,1-1.8,1.2c-0.7,0.3-1.4,0.4-2.1,0.4c-1,0-1.9-0.3-2.8-0.8
					l-0.6,2.1c-0.4,1.6-1,3.2-1.7,4.7c-0.4,0.9-0.9,1.8-1.4,2.7c-0.4,0.6-0.9,1-1.5,1.3c-0.2,0.1-0.5,0.1-0.7,0.1
					c-0.3,0-0.5-0.1-0.7-0.2c-0.4-0.3-0.8-0.8-1-1.3c-0.3-0.5-0.6-1.1-0.9-1.6c-0.5-1.2-1.3-4.1-1.3-4.1l-0.7-3.1l-0.8-3.1l-0.5-2
					c-0.7-2.8-1.8-5.5-3.5-7.9c-1.6-2.3-3.8-4-6.5-4.9c-1-0.4-2.1-0.6-3.2-0.6H17.6z"/>
			</defs>
			<clipPath id="SVGID_00000007415899142708392470000004447512843962410933_">
				<use xlink:href="#SVGID_00000035504239160074063530000009409639746844716161_"  style="overflow:visible;"/>
			</clipPath>
			<g style="clip-path:url(#SVGID_00000007415899142708392470000004447512843962410933_);">
				<g>
					
						<radialGradient id="SVGID_00000078034087312881388540000011297361561453435068_" cx="247.4155" cy="-276.0778" r="0.79" gradientTransform="matrix(11.4694 27.0596 -17.9538 7.6099 -7777.666 -4545.2378)" gradientUnits="userSpaceOnUse">
						<stop  offset="0" style="stop-color:#1A3D9C"/>
						<stop  offset="0.4" style="stop-color:#1A3D9C"/>
						<stop  offset="0.48" style="stop-color:#1A3D9C"/>
						<stop  offset="0.69" style="stop-color:#1A3D9C"/>
						<stop  offset="0.79" style="stop-color:#1A3D9C"/>
						<stop  offset="1" style="stop-color:#1A3D9C"/>
					</radialGradient>
					<polygon style="fill:url(#SVGID_00000078034087312881388540000011297361561453435068_);" points="-6.8,31.9 48.7,8.3 
						70.4,59.5 14.9,83 					"/>
				</g>
			</g>
		</g>
		<g>
			<defs>
				<path id="SVGID_00000084521598384215035910000010100238682627918779_" d="M17.6,25.8c-0.5,0-0.9,0.1-1.4,0.2
					c-3.6,0.7-6.7,2.9-8.7,6c0.5,0.1,1,0.3,1.5,0.6c0.6,0.4,1.2,0.8,1.6,1.4c0.6,1.1,1,2.3,1,3.6c0.3,2.7,0.9,5.4,1.6,8.1
					c0.8-2.9,2-5.7,3.7-8.2c0.2-0.3,0.5-0.5,0.8-0.7c0.2-0.1,0.4-0.2,0.5-0.2c0.3,0,0.7,0.1,1,0.2c0.1,0,0.1,0.1,0.2,0.1
					c0.3,0.2,0.5,0.5,0.7,0.8c0.4,0.8,0.8,1.6,1.1,2.4c0.6,1.7,1.2,3.9,1.2,3.9l1.6,6.3c0.5,2.2,1.3,4.3,2.1,6.4
					c2.4,5.6,6.1,7.2,6.1,7.2c1.8,1,3.8,1.5,5.9,1.6c2,0.1,3.9-0.3,5.7-1.2c1.9-1,3.6-2.3,5-4c0.8-1.1,1.6-2.3,2.2-3.5
					c1.5-2.9,2.6-6,3.4-9.1c0.5-2,1-4,1.3-6c0.2-1,0.3-2,0.4-3c0.2-0.9,0.1-1.9-0.1-2.8c-0.1-0.2-0.1-0.3-0.1-0.5
					c-0.5-1.2-1.3-2.1-2.4-2.8c-0.8-0.5-1.7-0.8-2.7-0.8c-0.5,0-0.9,0.1-1.3,0.2c1,1.5,1.9,3.1,2.6,4.7c0.3,0.7,0.5,1.5,0.5,2.3
					c0,0.7-0.2,1.4-0.4,2.1c-0.3,0.6-0.7,1.3-1.2,1.8c-0.5,0.5-1.1,1-1.8,1.2c-0.7,0.3-1.4,0.4-2.1,0.4c-1,0-1.9-0.3-2.8-0.8
					l-0.6,2.1c-0.4,1.6-1,3.2-1.7,4.7c-0.4,0.9-0.9,1.8-1.4,2.7c-0.4,0.6-0.9,1-1.5,1.3c-0.2,0.1-0.5,0.1-0.7,0.1
					c-0.3,0-0.5-0.1-0.7-0.2c-0.4-0.3-0.8-0.8-1-1.3c-0.3-0.5-0.6-1.1-0.9-1.6c-0.5-1.2-1.3-4.1-1.3-4.1l-0.7-3.1l-0.8-3.1l-0.5-2
					c-0.7-2.8-1.8-5.5-3.5-7.9c-1.6-2.3-3.8-4-6.5-4.9c-1-0.4-2.1-0.6-3.2-0.6H17.6z"/>
			</defs>
			<clipPath id="SVGID_00000139998588683456979270000007762224047186689698_">
				<use xlink:href="#SVGID_00000084521598384215035910000010100238682627918779_"  style="overflow:visible;"/>
			</clipPath>
			<g style="clip-path:url(#SVGID_00000139998588683456979270000007762224047186689698_);">
				<g>
					
						<radialGradient id="SVGID_00000059273729727834449140000007219082101942897545_" cx="248.1826" cy="-276.3286" r="0.79" gradientTransform="matrix(5.237 21.1616 -13.9686 3.4569 -5144.1699 -4253.5542)" gradientUnits="userSpaceOnUse">
						<stop  offset="0" style="stop-color:#1A3D9C"/>
						<stop  offset="6.000000e-02" style="stop-color:#1A3D9C"/>
						<stop  offset="0.21" style="stop-color:#1A3D9C"/>
						<stop  offset="0.36" style="stop-color:#1A3D9C"/>
						<stop  offset="0.51" style="stop-color:#1A3D9C"/>
						<stop  offset="0.67" style="stop-color:#1A3D9C"/>
						<stop  offset="0.83" style="stop-color:#1A3D9C"/>
						<stop  offset="1" style="stop-color:#1A3D9C"/>
					</radialGradient>
					<polygon style="fill:url(#SVGID_00000059273729727834449140000007219082101942897545_);" points="-1.7,28.1 53.3,14.4 
						65.4,63.2 10.3,76.9 					"/>
				</g>
			</g>
		</g>
		<g>
			<defs>
				<path id="SVGID_00000031170008999934809200000000627153847857403832_" d="M17.6,25.8c-0.5,0-0.9,0.1-1.4,0.2
					c-3.6,0.7-6.7,2.9-8.7,6c0.5,0.1,1,0.3,1.5,0.6c0.6,0.4,1.2,0.8,1.6,1.4c0.6,1.1,1,2.3,1,3.6c0.3,2.7,0.9,5.4,1.6,8.1
					c0.8-2.9,2-5.7,3.7-8.2c0.2-0.3,0.5-0.5,0.8-0.7c0.2-0.1,0.4-0.2,0.5-0.2c0.3,0,0.7,0.1,1,0.2c0.1,0,0.1,0.1,0.2,0.1
					c0.3,0.2,0.5,0.5,0.7,0.8c0.4,0.8,0.8,1.6,1.1,2.4c0.6,1.7,1.2,3.9,1.2,3.9l1.6,6.3c0.5,2.2,1.3,4.3,2.1,6.4
					c2.4,5.6,6.1,7.2,6.1,7.2c1.8,1,3.8,1.5,5.9,1.6c2,0.1,3.9-0.3,5.7-1.2c1.9-1,3.6-2.3,5-4c0.8-1.1,1.6-2.3,2.2-3.5
					c1.5-2.9,2.6-6,3.4-9.1c0.5-2,1-4,1.3-6c0.2-1,0.3-2,0.4-3c0.2-0.9,0.1-1.9-0.1-2.8c-0.1-0.2-0.1-0.3-0.1-0.5
					c-0.5-1.2-1.3-2.1-2.4-2.8c-0.8-0.5-1.7-0.8-2.7-0.8c-0.5,0-0.9,0.1-1.3,0.2c1,1.5,1.9,3.1,2.6,4.7c0.3,0.7,0.5,1.5,0.5,2.3
					c0,0.7-0.2,1.4-0.4,2.1c-0.3,0.6-0.7,1.3-1.2,1.8c-0.5,0.5-1.1,1-1.8,1.2c-0.7,0.3-1.4,0.4-2.1,0.4c-1,0-1.9-0.3-2.8-0.8
					l-0.6,2.1c-0.4,1.6-1,3.2-1.7,4.7c-0.4,0.9-0.9,1.8-1.4,2.7c-0.4,0.6-0.9,1-1.5,1.3c-0.2,0.1-0.5,0.1-0.7,0.1
					c-0.3,0-0.5-0.1-0.7-0.2c-0.4-0.3-0.8-0.8-1-1.3c-0.3-0.5-0.6-1.1-0.9-1.6c-0.5-1.2-1.3-4.1-1.3-4.1l-0.7-3.1l-0.8-3.1l-0.5-2
					c-0.7-2.8-1.8-5.5-3.5-7.9c-1.6-2.3-3.8-4-6.5-4.9c-1-0.4-2.1-0.6-3.2-0.6H17.6z"/>
			</defs>
			<clipPath id="SVGID_00000055664679376494377650000008646308358240870026_">
				<use xlink:href="#SVGID_00000031170008999934809200000000627153847857403832_"  style="overflow:visible;"/>
			</clipPath>
			<g style="clip-path:url(#SVGID_00000055664679376494377650000008646308358240870026_);">
				<g>
					
						<radialGradient id="SVGID_00000059278701930498569490000003222725418650922661_" cx="248.1826" cy="-276.3286" r="0.79" gradientTransform="matrix(5.237 21.1616 -13.9686 3.4569 -5144.1699 -4253.5542)" gradientUnits="userSpaceOnUse">
						<stop  offset="0" style="stop-color:#1B3E9E"/>
						<stop  offset="6.000000e-02" style="stop-color:#1B3E9E"/>
						<stop  offset="0.21" style="stop-color:#1B3E9D"/>
						<stop  offset="0.36" style="stop-color:#1A3D9D"/>
						<stop  offset="0.52" style="stop-color:#1A3D9C"/>
						<stop  offset="0.67" style="stop-color:#1A3D9C"/>
						<stop  offset="0.83" style="stop-color:#1A3D9C"/>
						<stop  offset="1" style="stop-color:#1A3D9C"/>
					</radialGradient>
					<polygon style="fill:url(#SVGID_00000059278701930498569490000003222725418650922661_);" points="-1.7,28.1 53.3,14.4 
						65.4,63.2 10.3,76.9 					"/>
				</g>
			</g>
		</g>
		<g>
			<defs>
				<path id="SVGID_00000070086089081000731540000015217005012504738193_" d="M17.6,25.8c-0.5,0-0.9,0.1-1.4,0.2
					c-3.6,0.7-6.7,2.9-8.7,6c0.5,0.1,1,0.3,1.5,0.6c0.6,0.4,1.2,0.8,1.6,1.4c0.6,1.1,1,2.3,1,3.6c0.3,2.7,0.9,5.4,1.6,8.1
					c0.8-2.9,2-5.7,3.7-8.2c0.2-0.3,0.5-0.5,0.8-0.7c0.2-0.1,0.4-0.2,0.5-0.2c0.3,0,0.7,0.1,1,0.2c0.1,0,0.1,0.1,0.2,0.1
					c0.3,0.2,0.5,0.5,0.7,0.8c0.4,0.8,0.8,1.6,1.1,2.4c0.6,1.7,1.2,3.9,1.2,3.9l1.6,6.3c0.5,2.2,1.3,4.3,2.1,6.4
					c2.4,5.6,6.1,7.2,6.1,7.2c1.8,1,3.8,1.5,5.9,1.6c2,0.1,3.9-0.3,5.7-1.2c1.9-1,3.6-2.3,5-4c0.8-1.1,1.6-2.3,2.2-3.5
					c1.5-2.9,2.6-6,3.4-9.1c0.5-2,1-4,1.3-6c0.2-1,0.3-2,0.4-3c0.2-0.9,0.1-1.9-0.1-2.8c-0.1-0.2-0.1-0.3-0.1-0.5
					c-0.5-1.2-1.3-2.1-2.4-2.8c-0.8-0.5-1.7-0.8-2.7-0.8c-0.5,0-0.9,0.1-1.3,0.2c1,1.5,1.9,3.1,2.6,4.7c0.3,0.7,0.5,1.5,0.5,2.3
					c0,0.7-0.2,1.4-0.4,2.1c-0.3,0.6-0.7,1.3-1.2,1.8c-0.5,0.5-1.1,1-1.8,1.2c-0.7,0.3-1.4,0.4-2.1,0.4c-1,0-1.9-0.3-2.8-0.8
					l-0.6,2.1c-0.4,1.6-1,3.2-1.7,4.7c-0.4,0.9-0.9,1.8-1.4,2.7c-0.4,0.6-0.9,1-1.5,1.3c-0.2,0.1-0.5,0.1-0.7,0.1
					c-0.3,0-0.5-0.1-0.7-0.2c-0.4-0.3-0.8-0.8-1-1.3c-0.3-0.5-0.6-1.1-0.9-1.6c-0.5-1.2-1.3-4.1-1.3-4.1l-0.7-3.1l-0.8-3.1l-0.5-2
					c-0.7-2.8-1.8-5.5-3.5-7.9c-1.6-2.3-3.8-4-6.5-4.9c-1-0.4-2.1-0.6-3.2-0.6H17.6z"/>
			</defs>
			<clipPath id="SVGID_00000124870096909677108020000016493891176753593241_">
				<use xlink:href="#SVGID_00000070086089081000731540000015217005012504738193_"  style="overflow:visible;"/>
			</clipPath>
			<g style="clip-path:url(#SVGID_00000124870096909677108020000016493891176753593241_);">
				<g>
					
						<radialGradient id="SVGID_00000074440188337257780410000012666721580787777431_" cx="248.986" cy="-276.1021" r="0.79" gradientTransform="matrix(4.007 16.1916 -10.6876 2.6449 -3931.6941 -3259.3406)" gradientUnits="userSpaceOnUse">
						<stop  offset="0" style="stop-color:#183991"/>
						<stop  offset="3.000000e-02" style="stop-color:#183992"/>
						<stop  offset="0.18" style="stop-color:#193A95"/>
						<stop  offset="0.34" style="stop-color:#193B97"/>
						<stop  offset="0.5" style="stop-color:#1A3C99"/>
						<stop  offset="0.66" style="stop-color:#1A3D9B"/>
						<stop  offset="0.82" style="stop-color:#1A3D9C"/>
						<stop  offset="1" style="stop-color:#1A3D9C"/>
					</radialGradient>
					<polygon style="fill:url(#SVGID_00000074440188337257780410000012666721580787777431_);" points="-1.7,28.1 53.3,14.4 
						65.4,63.2 10.3,76.8 					"/>
				</g>
			</g>
		</g>
		<g>
			<defs>
				<path id="SVGID_00000122693711758685311470000018381118864913150623_" d="M17.6,25.8c-0.5,0-0.9,0.1-1.4,0.2
					c-3.6,0.7-6.7,2.9-8.7,6c0.5,0.1,1,0.3,1.5,0.6c0.6,0.4,1.2,0.8,1.6,1.4c0.6,1.1,1,2.3,1,3.6c0.3,2.7,0.9,5.4,1.6,8.1
					c0.8-2.9,2-5.7,3.7-8.2c0.2-0.3,0.5-0.5,0.8-0.7c0.2-0.1,0.4-0.2,0.5-0.2c0.3,0,0.7,0.1,1,0.2c0.1,0,0.1,0.1,0.2,0.1
					c0.3,0.2,0.5,0.5,0.7,0.8c0.4,0.8,0.8,1.6,1.1,2.4c0.6,1.7,1.2,3.9,1.2,3.9l1.6,6.3c0.5,2.2,1.3,4.3,2.1,6.4
					c2.4,5.6,6.1,7.2,6.1,7.2c1.8,1,3.8,1.5,5.9,1.6c2,0.1,3.9-0.3,5.7-1.2c1.9-1,3.6-2.3,5-4c0.8-1.1,1.6-2.3,2.2-3.5
					c1.5-2.9,2.6-6,3.4-9.1c0.5-2,1-4,1.3-6c0.2-1,0.3-2,0.4-3c0.2-0.9,0.1-1.9-0.1-2.8c-0.1-0.2-0.1-0.3-0.1-0.5
					c-0.5-1.2-1.3-2.1-2.4-2.8c-0.8-0.5-1.7-0.8-2.7-0.8c-0.5,0-0.9,0.1-1.3,0.2c1,1.5,1.9,3.1,2.6,4.7c0.3,0.7,0.5,1.5,0.5,2.3
					c0,0.7-0.2,1.4-0.4,2.1c-0.3,0.6-0.7,1.3-1.2,1.8c-0.5,0.5-1.1,1-1.8,1.2c-0.7,0.3-1.4,0.4-2.1,0.4c-1,0-1.9-0.3-2.8-0.8
					l-0.6,2.1c-0.4,1.6-1,3.2-1.7,4.7c-0.4,0.9-0.9,1.8-1.4,2.7c-0.4,0.6-0.9,1-1.5,1.3c-0.2,0.1-0.5,0.1-0.7,0.1
					c-0.3,0-0.5-0.1-0.7-0.2c-0.4-0.3-0.8-0.8-1-1.3c-0.3-0.5-0.6-1.1-0.9-1.6c-0.5-1.2-1.3-4.1-1.3-4.1l-0.7-3.1l-0.8-3.1l-0.5-2
					c-0.7-2.8-1.8-5.5-3.5-7.9c-1.6-2.3-3.8-4-6.5-4.9c-1-0.4-2.1-0.6-3.2-0.6H17.6z"/>
			</defs>
			<clipPath id="SVGID_00000059307532960179874300000014017896878353845166_">
				<use xlink:href="#SVGID_00000122693711758685311470000018381118864913150623_"  style="overflow:visible;"/>
			</clipPath>
			<g style="clip-path:url(#SVGID_00000059307532960179874300000014017896878353845166_);">
				<g>
					
						<radialGradient id="SVGID_00000137133549227760029230000000618415107885606581_" cx="249.9008" cy="-277.0239" r="0.79" gradientTransform="matrix(0.6576 13.1636 -11.5856 0.5788 -3355.1196 -3086.3506)" gradientUnits="userSpaceOnUse">
						<stop  offset="0" style="stop-color:#2453D6"/>
						<stop  offset="4.000000e-02" style="stop-color:#2453D6"/>
						<stop  offset="0.2" style="stop-color:#2453D6"/>
						<stop  offset="0.52" style="stop-color:#2453D6"/>
						<stop  offset="0.73" style="stop-color:#2453D6"/>
						<stop  offset="1" style="stop-color:#2453D6"/>
					</radialGradient>
					<polygon style="fill:url(#SVGID_00000137133549227760029230000000618415107885606581_);" points="5.5,25.9 56,23.4 58.1,65.4 
						7.6,68 					"/>
				</g>
			</g>
		</g>
		<g>
			<defs>
				<path id="SVGID_00000116923034410360317910000017150120075358462367_" d="M17.6,25.8c-0.5,0-0.9,0.1-1.4,0.2
					c-3.6,0.7-6.7,2.9-8.7,6c0.5,0.1,1,0.3,1.5,0.6c0.6,0.4,1.2,0.8,1.6,1.4c0.6,1.1,1,2.3,1,3.6c0.3,2.7,0.9,5.4,1.6,8.1
					c0.8-2.9,2-5.7,3.7-8.2c0.2-0.3,0.5-0.5,0.8-0.7c0.2-0.1,0.4-0.2,0.5-0.2c0.3,0,0.7,0.1,1,0.2c0.1,0,0.1,0.1,0.2,0.1
					c0.3,0.2,0.5,0.5,0.7,0.8c0.4,0.8,0.8,1.6,1.1,2.4c0.6,1.7,1.2,3.9,1.2,3.9l1.6,6.3c0.5,2.2,1.3,4.3,2.1,6.4
					c2.4,5.6,6.1,7.2,6.1,7.2c1.8,1,3.8,1.5,5.9,1.6c2,0.1,3.9-0.3,5.7-1.2c1.9-1,3.6-2.3,5-4c0.8-1.1,1.6-2.3,2.2-3.5
					c1.5-2.9,2.6-6,3.4-9.1c0.5-2,1-4,1.3-6c0.2-1,0.3-2,0.4-3c0.2-0.9,0.1-1.9-0.1-2.8c-0.1-0.2-0.1-0.3-0.1-0.5
					c-0.5-1.2-1.3-2.1-2.4-2.8c-0.8-0.5-1.7-0.8-2.7-0.8c-0.5,0-0.9,0.1-1.3,0.2c1,1.5,1.9,3.1,2.6,4.7c0.3,0.7,0.5,1.5,0.5,2.3
					c0,0.7-0.2,1.4-0.4,2.1c-0.3,0.6-0.7,1.3-1.2,1.8c-0.5,0.5-1.1,1-1.8,1.2c-0.7,0.3-1.4,0.4-2.1,0.4c-1,0-1.9-0.3-2.8-0.8
					l-0.6,2.1c-0.4,1.6-1,3.2-1.7,4.7c-0.4,0.9-0.9,1.8-1.4,2.7c-0.4,0.6-0.9,1-1.5,1.3c-0.2,0.1-0.5,0.1-0.7,0.1
					c-0.3,0-0.5-0.1-0.7-0.2c-0.4-0.3-0.8-0.8-1-1.3c-0.3-0.5-0.6-1.1-0.9-1.6c-0.5-1.2-1.3-4.1-1.3-4.1l-0.7-3.1l-0.8-3.1l-0.5-2
					c-0.7-2.8-1.8-5.5-3.5-7.9c-1.6-2.3-3.8-4-6.5-4.9c-1-0.4-2.1-0.6-3.2-0.6H17.6z"/>
			</defs>
			<clipPath id="SVGID_00000117667502382209233800000011915931190103809926_">
				<use xlink:href="#SVGID_00000116923034410360317910000017150120075358462367_"  style="overflow:visible;"/>
			</clipPath>
			<g style="clip-path:url(#SVGID_00000117667502382209233800000011915931190103809926_);">
				<g>
					
						<linearGradient id="SVGID_00000092448167322661359420000011040836127485544880_" gradientUnits="userSpaceOnUse" x1="247.1396" y1="-277.5873" x2="247.9296" y2="-277.5873" gradientTransform="matrix(-14.8949 36.8107 -36.8107 -14.8949 -6494.6729 -13212.4121)">
						<stop  offset="0" style="stop-color:#3774FF"/>
						<stop  offset="5.000000e-02" style="stop-color:#3774FF"/>
						<stop  offset="0.16" style="stop-color:#3774FF"/>
						<stop  offset="0.32" style="stop-color:#3774FF"/>
						<stop  offset="0.43" style="stop-color:#3774FF"/>
						<stop  offset="1" style="stop-color:#3774FF"/>
					</linearGradient>
					<polygon style="fill:url(#SVGID_00000092448167322661359420000011040836127485544880_);" points="-6.3,60 14.4,8.9 69.9,31.4 
						49.3,82.5 					"/>
				</g>
			</g>
		</g>
	</g>
</g>
</svg>
