<?xml version="1.0" encoding="UTF-8"?>
<svg id="Layer_1" data-name="Layer 1" xmlns="http://www.w3.org/2000/svg" version="1.1" viewBox="0 0 30 20.8">
  <defs>
    <style>
      .cls-1 {
        fill: #67b346;
        stroke-width: 0px;
      }
    </style>
  </defs>
  <path class="cls-1" d="M3.7,20.8h-.3c-1.9,0-3.4-1.5-3.4-3.4V3.4C0,1.5,1.5,0,3.4,0h.3c1.9,0,3.4,1.5,3.4,3.4v14c0,1.9-1.5,3.4-3.4,3.4ZM19.7,15.8l-4.9-10.1c-.8-1.7-3.1-2.2-4.8-1.4h0c-1.7,1-2.5,2.8-1.7,4.5l4.9,10.1c.8,1.7,3.2,2.2,4.9,1.4h0c1.7-1,2.4-2.8,1.6-4.5ZM29.7,15.8l-4.9-10.1c-.8-1.7-3.1-2.2-4.8-1.4h0c-1.7,1-2.5,2.8-1.7,4.5l4.9,10.1c.8,1.7,3.2,2.2,4.9,1.4h0c1.7-1,2.4-2.8,1.6-4.5Z"/>
</svg>