<?xml version="1.0" encoding="utf-8"?>
<!-- Generator: Adobe Illustrator 27.2.0, SVG Export Plug-In . SVG Version: 6.00 Build 0)  -->
<svg version="1.1" id="Layer_1" xmlns="http://www.w3.org/2000/svg" xmlns:xlink="http://www.w3.org/1999/xlink" x="0px" y="0px"
	 viewBox="0 0 100 100" style="enable-background:new 0 0 100 100;" xml:space="preserve">
<style type="text/css">
	.st0{fill:#88898D;}
	.st1{fill:#62B144;}
</style>
<g>
	<g>
		<g transform="translate(41.309 23.263)">
			<path class="st0" d="M22.6,24.4c-0.2-0.1-1.3-0.6-2.8-0.6c-2.2-0.1-3.7,1.4-3.7,3.3s1.5,3.4,3.7,3.4c1.6,0,2.7-0.6,2.8-0.6v3.5
				c-0.5,0.1-1.6,0.5-3.1,0.5c-3.8,0-7.1-2.5-7.1-6.7c0-3.8,3-6.6,7.1-6.6c1.6,0,2.7,0.4,3.1,0.5V24.4z"/>
		</g>
		<g transform="translate(21.186 23.263)">
			<path class="st0" d="M7.3,24.4c-0.2-0.1-1.2-0.6-2.8-0.6c-2.2,0-3.7,1.5-3.7,3.4s1.5,3.4,3.7,3.4c1.6,0,2.7-0.6,2.8-0.6v3.5
				c-0.5,0.1-1.6,0.5-3.1,0.5c-3.8,0-7.1-2.5-7.1-6.7c0-3.8,3-6.6,7.1-6.6c1.6,0,2.7,0.4,3.1,0.5V24.4z"/>
		</g>
		<g transform="translate(47.37 23.622)">
			<path class="st0" d="M27.2,23.4c-2,0-3.5,1.5-3.5,3.4c0,1.8,1.5,3.4,3.5,3.4s3.5-1.5,3.5-3.4C30.8,24.8,29.2,23.4,27.2,23.4
				 M34.3,26.8c0,3.7-2.9,6.7-7.1,6.7c-4.1,0-7.1-2.9-7.1-6.7c0-3.7,2.9-6.6,7.1-6.6C31.3,20.1,34.3,23.1,34.3,26.8"/>
		</g>
		<g transform="translate(33.073 23.693)">
			<path class="st0" d="M16.4,23.2c0,0-1.5-0.4-2.7-0.4c-1.4,0-2.1,0.5-2.1,1.1c0,0.8,1,1,1.6,1.2l0.9,0.3c2.2,0.6,3.2,2.1,3.2,3.7
				c0,3.2-2.9,4.3-5.6,4.3c-1.8,0-3.5-0.3-3.7-0.4V30c0.3,0.1,1.7,0.5,3.2,0.5c1.6,0,2.5-0.5,2.5-1.2c0-0.6-0.6-1-1.6-1.3
				c-0.2-0.1-0.5-0.2-0.7-0.2C9.6,27.2,8,26.2,8,24c0-2.4,1.9-3.9,5-3.9c1.6,0,3.2,0.4,3.3,0.4V23.2z"/>
		</g>
		<g transform="translate(13.314 33.165)">
			<path class="st0" d="M1.4-2.9c0-0.9-0.7-1.6-1.6-1.6s-1.6,0.7-1.6,1.6v3.4c0,0.9,0.7,1.6,1.6,1.6s1.6-0.7,1.6-1.6V-2.9z"/>
		</g>
		<g transform="translate(18.571 35.673)">
			<path class="st0" d="M5.4-9.8c0-0.9-0.7-1.6-1.6-1.6s-1.6,0.7-1.6,1.6v7.8c0,0.9,0.7,1.6,1.6,1.6s1.6-0.7,1.6-1.6V-9.8z"/>
		</g>
		<g transform="translate(23.827 39.101)">
			<path class="st0" d="M9.4-19.4c0-0.9-0.7-1.6-1.6-1.6s-1.6,0.7-1.6,1.6v17c0,0.9,0.7,1.6,1.6,1.6s1.6-0.7,1.6-1.6
				C9.4-2.4,9.4-19.4,9.4-19.4z"/>
		</g>
		<g transform="translate(29.085 35.673)">
			<path class="st0" d="M13.3-9.8c0-0.9-0.7-1.6-1.6-1.6S10-10.7,10-9.8v7.8c0,0.9,0.7,1.6,1.6,1.6s1.6-0.7,1.6-1.6V-9.8z"/>
		</g>
		<g transform="translate(34.337 33.165)">
			<path class="st0" d="M17.3-2.9c0-0.9-0.7-1.6-1.6-1.6c-0.9,0-1.6,0.7-1.6,1.6v3.4c0,0.9,0.7,1.6,1.6,1.6c0.9,0,1.6-0.7,1.6-1.6
				V-2.9z"/>
		</g>
		<g transform="translate(39.598 35.673)">
			<path class="st0" d="M21.3-9.8c0-0.9-0.7-1.6-1.6-1.6S18-10.7,18-9.8v7.8c0,0.9,0.7,1.6,1.6,1.6s1.6-0.7,1.6-1.6V-9.8z"/>
		</g>
		<g transform="translate(44.856 39.101)">
			<path class="st0" d="M25.3-19.4c0-0.9-0.7-1.6-1.6-1.6c-0.9,0-1.6,0.7-1.6,1.6v17c0,0.9,0.7,1.6,1.6,1.6c0.9,0,1.6-0.7,1.6-1.6
				V-19.4z"/>
		</g>
		<g transform="translate(50.118 35.673)">
			<path class="st0" d="M29.3-9.8c0-0.9-0.7-1.6-1.7-1.6c-0.9,0-1.6,0.7-1.6,1.6v7.8c0,0.9,0.7,1.6,1.6,1.6s1.7-0.7,1.7-1.6V-9.8z"
				/>
		</g>
		<g transform="translate(55.366 33.165)">
			<path class="st0" d="M33.3-2.9c0-0.9-0.7-1.6-1.6-1.6c-0.9,0-1.6,0.7-1.6,1.6v3.4c0,0.9,0.7,1.6,1.6,1.6c0.9,0,1.6-0.7,1.6-1.6
				V-2.9z"/>
		</g>
		<path class="st0" d="M36.6,56.8h-3.4V44h3.4V56.8z"/>
	</g>
	<g>
		<g transform="translate(75.414 18.062)">
			<path class="st1" d="M-55.3,63.3l-7.2-17.1v17.1h-1.6v-19h2.3l7.3,17.5l6.9-17.5h2.2v19h-1.5v-17l-6.9,16.9L-55.3,63.3
				L-55.3,63.3z"/>
		</g>
		<g transform="translate(96.783 21.139)">
			<path class="st1" d="M-50.5,56.5c-0.7,2.5-2.9,4.1-6,4.1c-3.9,0-6.9-2.6-6.9-7.2s2.8-7.2,6.6-7.2c3.7,0,6.5,2.4,6.5,7.6h-11.5
				c0.2,3.9,2.5,5.7,5.4,5.7c2.2,0,3.8-1.1,4.4-2.9C-52.1,56.5-50.5,56.5-50.5,56.5z M-61.9,52.6h10c-0.2-3.5-2.3-5.2-4.9-5.2
				C-59.5,47.3-61.6,49.1-61.9,52.6"/>
		</g>
		<g transform="translate(99.857 18.062)">
			<path class="st1" d="M-49.9,63.3V49.6h1.2l0.2,2.7c0.7-2.1,2.3-3,4-3c0.5,0,1.2,0.1,1.5,0.2v1.4c-0.5-0.1-1-0.3-1.6-0.3
				c-2.1,0-3.9,1.9-3.9,5.2v7.5L-49.9,63.3z"/>
		</g>
		<g transform="translate(107.14 26.403)">
			<path class="st1" d="M-48.3,44.8c0.2-2.4,2.4-3.9,5.6-3.9s5.4,1.7,5.4,4.5v9.6h-1.2l-0.2-2.3c-0.9,1.5-2.6,2.7-5.1,2.7
				c-2.8,0-4.8-1.5-4.8-3.8c0-2.4,1.5-3.7,5.6-4.4l4.3-0.7v-1.2c0-2-1.5-3.2-3.9-3.2c-2.3,0-3.7,1.1-3.9,2.8H-48.3z M-38.8,50.1
				v-2.6l-3.8,0.6c-3.5,0.5-4.5,1.6-4.5,3.2c0,1.8,1.5,2.7,3.7,2.7C-41.2,54.1-38.8,52.5-38.8,50.1"/>
		</g>
		<g transform="translate(119.27 18.062)">
			<path class="st1" d="M-45.6,63.3v-19h1.5v10.9l6.9-5.6h2l-7.4,6l8.3,7.8h-2.1l-7.9-7.2v7.2L-45.6,63.3L-45.6,63.3z"/>
		</g>
		<path class="st1" d="M86.8,62.3h1.8v1.9h-1.8V62.3z M86.9,67.6h1.5v13.7h-1.5V67.6z"/>
	</g>
</g>
</svg>
