<?xml version="1.0" encoding="UTF-8"?>
<svg xmlns="http://www.w3.org/2000/svg" version="1.1" viewBox="0 0 170 64.8">
  <defs>
    <style>
      .cls-1 {
        fill: #13284c;
        stroke-width: 0px;
      }
    </style>
  </defs>
  <!-- Generator: Adobe Illustrator 28.6.0, SVG Export Plug-In . SVG Version: 1.0.2 Build 62)  -->
  <g>
    <g id="Layer_1">
      <g>
        <path class="cls-1" d="M22.4.4h-4v16h4V.4Z"/>
        <path class="cls-1" d="M42.5,8.3c0,5.1,3.9,8.3,8.4,8.3s2.5-.2,3.6-.6v-4.3c-1,.6-2.2.9-3.4.9s-1.1,0-1.7-.3c-.5-.2-1-.5-1.4-.9s-.7-.9-.9-1.4-.3-1.1-.3-1.7,0-1.1.3-1.7c.2-.5.5-1,.9-1.4s.9-.7,1.4-.9c.5-.2,1.1-.3,1.7-.3,1.2,0,2.3.3,3.4.9V.6c-1.2-.4-2.4-.6-3.6-.6s-2.2,0-3.2.5-2,1-2.8,1.8-1.4,1.7-1.8,2.7c-.4,1.1-.6,2.2-.6,3.3Z"/>
        <path class="cls-1" d="M.8,8.3c0,5.1,3.9,8.3,8.4,8.3s2.5-.2,3.6-.6v-4.3c-1,.6-2.2.9-3.4.9s-1.1,0-1.7-.3c-.5-.2-1-.5-1.4-.9s-.7-.9-.9-1.4c-.2-.5-.3-1.1-.3-1.7s.1-1.1.3-1.7c.2-.5.5-1,.9-1.4s.9-.7,1.4-.9c.5-.2,1.1-.3,1.7-.3,1.2,0,2.3.3,3.4.9V.6c-1.2-.4-2.4-.6-3.6-.6s-2.2,0-3.2.5-2,1-2.8,1.8-1.4,1.7-1.8,2.7c-.4,1.1-.6,2.2-.6,3.3Z"/>
        <path class="cls-1" d="M67.1,0c-1.1,0-2.2.2-3.2.6s-1.9,1-2.7,1.8c-.8.8-1.4,1.7-1.8,2.7s-.6,2.1-.6,3.2c0,2.2,1,4.2,2.5,5.7,1.6,1.5,3.6,2.4,5.8,2.4s4.3-.8,5.8-2.4c1.6-1.5,2.5-3.6,2.5-5.7s-.2-2.2-.6-3.2-1-1.9-1.8-2.7c-.8-.8-1.7-1.4-2.7-1.8-1-.5-2.1-.7-3.2-.6ZM67.1,12.5c-.5,0-1.1,0-1.6-.3-.5-.2-1-.5-1.4-.9s-.7-.9-.9-1.4c0-.5-.2-1-.2-1.6,0-1.1.4-2.1,1.2-2.9.8-.8,1.8-1.2,2.9-1.2s2.1.4,2.9,1.2c.8.8,1.2,1.8,1.2,2.9s0,1.1-.3,1.6c-.2.5-.5,1-.9,1.4s-.8.7-1.4.9c-.4.2-.9.4-1.5.3h0Z"/>
        <path class="cls-1" d="M34.9,6.7l-1.1-.3c-.7-.2-1.8-.6-1.8-1.5s.9-1.3,2.5-1.3,2.1.2,3.1.5V.7c-1.3-.3-2.6-.5-3.9-.5-3.7,0-5.9,2-5.9,5s1.9,4,4.1,4.7l.9.3c1,.3,1.7.8,1.7,1.6s-.9,1.5-2.9,1.5-2.5-.2-3.8-.6v3.7c1.4.3,2.9.4,4.3.4,3,0,6.6-1.4,6.6-5.4,0-2.1-1.2-3.9-3.8-4.7Z"/>
        <path class="cls-1" d="M0,62.6v-5c2.5,1.7,6.6,2.5,9.2,2.5,4,0,6.5-2,6.5-4.5C15.7,49.3,0,51.1,0,41.3s3-9.6,11.1-9.6,5.9.5,8,1.9v5c-2.4-1.5-5.2-2.3-8-2.4-4.1,0-5.8,2.3-5.8,4.4,0,6.4,15.6,4.5,15.6,14.4s-4.3,9.5-11.9,9.5c-3,.2-6.9-.5-9-1.9Z"/>
        <path class="cls-1" d="M29.4,32.3h10c7.6,0,11.8,4.6,11.8,10.3s-4.9,10.5-12.2,10.5h-4.3v11h-5.2v-31.8ZM39.1,48.8c4,0,6.8-2.5,6.8-6s-2.4-5.9-6.4-5.9h-4.8v11.9h4.4Z"/>
        <path class="cls-1" d="M74.7,56.2h-13.4l-3,8h-5.5l12.7-31.9h5.2l12.7,31.9h-5.8l-2.9-8ZM73.1,52l-5.1-13.6-5.1,13.6h10.2Z"/>
        <path class="cls-1" d="M87.7,48.6c0-9.4,7-16.8,16.7-16.8s6.5.6,8.5,2.3v5.1c-2.5-1.8-5.5-2.8-8.6-2.8-6.7,0-11.3,5.2-11.3,11.8s4.4,12,11.8,12c2.9,0,5.7-.7,8.2-2.2v4.5c-2.3,1.6-5.7,2.3-8.7,2.3-10.3-.1-16.6-7.4-16.6-16.2Z"/>
        <path class="cls-1" d="M121.7,32.3h18.9v4.6h-13.7v9h12.9v4.4h-12.9v9.4h13.7v4.6h-18.8v-32h0Z"/>
        <path class="cls-1" d="M149.2,62.6v-5c2.5,1.7,6.6,2.5,9.2,2.5,4,0,6.5-2,6.5-4.5,0-6.3-15.7-4.5-15.7-14.3s3-9.6,11.1-9.6,5.9.5,8,1.9v5c-2.4-1.5-5.2-2.3-8-2.4-4.1,0-5.9,2.3-5.9,4.4,0,6.4,15.6,4.5,15.6,14.4.1,5.2-4.2,9.5-11.8,9.5-3.1.2-7-.5-9-1.9Z"/>
      </g>
    </g>
  </g>
</svg>