<?xml version="1.0" encoding="UTF-8"?>
<svg id="Layer_1" data-name="Layer 1" xmlns="http://www.w3.org/2000/svg" version="1.1" viewBox="0 0 127.9 66.4">
  <defs>
    <style>
      .cls-1 {
        fill: #003b71;
        stroke-width: 0px;
      }
    </style>
  </defs>
  <path class="cls-1" d="M118.3,16.5c-.6-.4-1.2-.8-1.7-1s-1-.4-1.3-.6c-.4-.2-.8.1-.7.5.5,10-2.8,16.2-9.1,21.5-5.2,4.4-12.3,8.2-24.1,10.2h0c-1.5.2-3,.4-4.6.6-4.9.5-9.7.2-13.5-.6-11.3-2.4-18.4-9.3-12.3-14.8.5-.5,0-1.2-.7-.8-7.7,5.6-4.2,9.9-.5,13.3,1,.9,3.5,2.4,3.5,2.4,11.6,6.2,34.8,5.4,52.2.3.4,0,.8-.2,1.1-.3h0c18.4-5.9,31-17.1,11.8-30.7Z"/>
  <path class="cls-1" d="M59.6,1.9c17.3,4.9,26,9.5,31.7,15,5.3,5.1,8.1,10.7,3.6,17.8-5.6,8.7-30.4,11.8-39.5,3.5-.5-.5-1.2.2-.7.7,5.4,6.1,13.6,6.6,20.9,6.6,39.4,0,50.8-48.9-11.8-45.3-2,0-3.2.4-4.1.6-.7.1-.7.9-.1,1.1Z"/>
  <path class="cls-1" d="M8.8,19.7c16.7-5.3,28.9-6.9,41-6.7,11.2,0,22.5,1.7,32.4,7.5,11,6.4,5.3,19-13.8,18.9-.7,0-.7,1,0,1,12.6.7,17.6-2.7,21.3-6.1,10.1-9.1-4.8-21.2-23.5-26.9C47.1,1.5,22.2,1.5,9.3,16.8c-.4.5-.7,1-.9,1.3-.2.4-.2.7-.3.9-.2.5.2.8.7.7Z"/>
  <path class="cls-1" d="M22.4,29.6c5.9-4.9,14.1-9.2,28.8-10.8,18.8-2,34,8.1,25.8,15.4-.5.5,0,1.2.7.8,7.7-5.6,4.2-9.9.5-13.3-9.7-8.6-36.4-8.2-55.7-2.6-17.7,5.2-30.5,15.5-16.6,28h0c1.1,1,2.3,1.9,3.7,2.9.6.4,1.2.8,1.7,1.1.5.2.9.5,1.3.6.5,0,.8,0,.8-.6-.1-1.4-.1-2.7,0-4h0c.4-7.8,3.6-13,9-17.5Z"/>
  <path class="cls-1" d="M119.1,46.8c-.2,0-.5,0-.7.2h0c-16.3,5.2-28.3,6.7-40.2,6.5-10.5-.1-21.1-1.5-30.5-6.4h0c-.6-.3-1.3-.7-1.9-1.1-11-6.4-5.3-19,13.8-18.9.7,0,.7-1,0-1-12.6-.6-17.6,2.8-21.4,6.1-5.1,4.6-3.8,10,1.1,14.9h0c4.8,4.8,13.2,9.2,22.4,12,19.1,5.9,44,5.9,56.9-9.4.4-.5.7-1,.9-1.3.2-.4.2-.7.3-.9,0-.2,0-.3,0-.4,0-.3-.3-.4-.6-.3Z"/>
  <path class="cls-1" d="M68.3,64.6c-17.3-4.9-26-9.5-31.7-15-.9-.9-1.7-1.7-2.4-2.6h0c-3.6-4.4-4.9-9.3-1.1-15.2,5.6-8.7,30.4-11.8,39.5-3.5.5.5,1.2-.2.7-.7-5.4-6.1-13.6-6.6-20.9-6.6-20.9,0-33.9,13.8-32.2,26.1,1.5,11,14.6,20.8,44,19.1,2,0,3.2-.4,4.1-.6.5,0,.6-.8,0-1Z"/>
</svg>