<?xml version="1.0" encoding="UTF-8"?>
<svg id="ixtus8hf0" xmlns="http://www.w3.org/2000/svg" xmlns:v="http://vecta.io" version="1.1" viewBox="0 0 500 150.1">
  <defs>
    <style>
      .cls-1 {
        fill: #002c43;
        stroke-width: 0px;
      }
    </style>
  </defs>
  <g id="ltdifnuuwf">
    <g>
      <g id="ltdifnuhvp">
        <path class="cls-1" d="M54.7,49.6v51.9l-44.9-25.9,44.9-25.9ZM57.4,43c-.6,0-1.1.2-1.5.5L3.9,73.5c-1.9,1.1-1.9,2.9,0,4l52,30.1c.5.2.9.5,1.5.5,1.2,0,1.9-.9,1.9-2.5v-60c0-1.6-.7-2.6-1.9-2.6"/>
      </g>
      <g id="ltdifnuivq">
        <path class="cls-1" d="M129,6.7v51.9l-44.9-25.9,44.9-25.9ZM131.7.1c-.6,0-1.1.2-1.5.5l-52,30.1c-1.9,1.1-1.9,2.9,0,4l52,30.1c.5.2.9.5,1.5.5,1.2,0,1.9-.9,1.9-2.5V2.7c0-1.8-.7-2.6-1.9-2.6"/>
      </g>
      <g id="ltdifnuivr">
        <path class="cls-1" d="M128.9,91.7v51.9l-44.9-25.9,44.9-25.9ZM131.6,85.1c-.6,0-1.1.2-1.5.5l-52,30.1c-1.9,1.1-1.9,2.9,0,4l52,30.1c.5.2.9.5,1.5.5,1.2,0,1.9-.9,1.9-2.5v-60.1c.1-1.5-.7-2.5-1.9-2.5"/>
      </g>
      <g id="ltdifnujvs">
        <path class="cls-1" d="M74.6,49.2l44.9,25.9-44.9,25.9v-51.9ZM71.8,42.6c-1.2,0-1.9.9-1.9,2.5v60c0,1.5.8,2.5,1.9,2.5s1.1-.2,1.5-.5l52-30.1c1.9-1.1,1.9-2.9,0-4l-52-30.1c-.5-.1-.9-.2-1.5-.4"/>
      </g>
      <g id="ltdifnujvt">
        <path class="cls-1" d="M202.2,89.6c-10.7-8.7-13.8-11.2-14.7-11.9l27.6-27.5h-7l-25.9,26V27.9h-5.3v74.2h5.4v-22.5l27.3,22.5h.1c0,.1,8.1.1,8.1.1l-.6-.5c-.1-.1-7.5-6.1-15.1-12.3"/>
      </g>
      <g id="ltdifnujvu">
        <path class="cls-1" d="M243.8,48.9c-8.8,0-15.2,3.4-20.2,10.8v.2c-.1,0,3.9,2.7,3.9,2.7v-.2c4-6.1,9-8.8,16.3-8.8s14.1,5.1,14.1,15.6v1.6h-17.2c-9.4,0-20.5,4.1-20.5,16s8,16.6,20.4,16.6,13.6-2.7,17.4-7.5v6.2h5.4v-33.2c-.1-13-7.1-20-19.7-20M257.9,75.6v9.2c0,9.4-8.4,13.8-16.7,13.8s-15.6-1.5-15.6-11.7,2-11.2,15.8-11.2h16.5Z"/>
      </g>
      <g id="ltdifnujvv">
        <path class="cls-1" d="M276.8,50.2h5.4v52h-5.4v-52Z"/>
      </g>
      <g id="ltdifnujvw">
        <path class="cls-1" d="M317.3,96c-1.9,1.5-4.1,2.4-6.5,2.6-4.1,0-6.2-2.6-6.2-7.9v-35.8h13.4v-4.7h-13.4v-22.3h-5.4v22.2h-7.3v4.7h7.3v36.5c0,7.4,4.5,12,11.5,12s6.7-1.2,9.2-3.4h.1c0-.1-2.7-4.1-2.7-4.1v.2Z"/>
      </g>
      <g id="ltdifnukvx">
        <path class="cls-1" d="M376.6,77.2c-.4-16.9-10.6-28.3-25.7-28.3s-13.7,2.8-18.5,7.9c-10.3,11-10.3,27.9,0,38.9,5.2,5.2,12.3,8,19.7,7.9,9.5,0,16.9-3.3,21.9-9.7v-.2c.1,0-3.5-3.3-3.5-3.3v.2c-4.7,5.8-10.1,8.1-18.4,8.1-12.5,0-21.2-8.6-21.8-21.3h46.3v-.2ZM330.4,72.7c1.4-11.4,9.7-19.1,20.4-19.1s18.6,7,20.2,19.1h-40.5Z"/>
      </g>
      <g id="ltdifnukvy">
        <path class="cls-1" d="M408.2,48.9c-6.2,0-11.7,3.5-15.1,9.5v-8.2h-5.3v52h5.4v-30.1c0-10,6.6-18.1,14.8-18.1s4.8.4,6.4,1.3h.2c0,.1,2-4.4,2-4.4h-.2c-2.7-1.7-4.5-2-8.2-2"/>
      </g>
      <g id="ltdifnukvz">
        <path class="cls-1" d="M446.4,48.9c-6.2,0-11.7,3.5-15.1,9.5v-8.2h-5.4v52h5.4v-30.1c0-10,6.6-18.1,14.8-18.1s4.8.4,6.4,1.3h.2c0,.1,2-4.4,2-4.4h-.2c-2.6-1.7-4.2-2-8.1-2"/>
      </g>
      <g id="ltdifnulw0">
        <path class="cls-1" d="M480.3,48.9c-8.8,0-15.2,3.4-20.2,10.8v.2c-.1,0,3.9,2.7,3.9,2.7v-.2c4-6.1,9-8.8,16.3-8.8s14.1,5.1,14.1,15.6v1.6h-17.2c-9.4,0-20.5,4.1-20.5,16s8,16.6,20.4,16.6,13.6-2.7,17.4-7.5v6.2h5.4v-33.2c-.2-13-7.1-20-19.7-20M494.5,75.6v9.2c0,9.5-8.4,13.8-16.7,13.8s-15.6-1.5-15.6-11.7,2-11.2,15.8-11.2h16.5Z"/>
      </g>
      <g id="ltdifnulw1">
        <path class="cls-1" d="M279.5,31.9c-2.4,0-4.4,1.9-4.4,4.4s1.9,4.4,4.4,4.4,4.4-1.9,4.4-4.4-2-4.4-4.4-4.4"/>
      </g>
    </g>
  </g>
</svg>