<?xml version="1.0" encoding="UTF-8"?>
<svg id="layer" xmlns="http://www.w3.org/2000/svg" version="1.1" viewBox="0 0 28.3 28.3">
  <defs>
    <style>
      .cls-1 {
        fill: #4f81c2;
      }

      .cls-1, .cls-2 {
        stroke-width: 0px;
      }

      .cls-2 {
        fill: #003d92;
      }
    </style>
  </defs>
  <path class="cls-2" d="M13.8,16.7c0-.5-.2-.9-.6-1.3l-.4-.4c-.8-.9-1.4-2.1-1.4-3.4s.5-2.6,1.4-3.5l5.4-5.4-1.7-1.7c-1.3-1.3-3.5-1.3-4.8,0L1,11.7c-1.3,1.3-1.3,3.5,0,4.8l6.9,6.9,5.4-5.4c.3-.3.5-.8.5-1.3"/>
  <path class="cls-1" d="M27.4,11.7l-6.9-6.9-5.4,5.4c-.4.4-.6.8-.6,1.3s.2.9.5,1.3l.4.4c.9.9,1.4,2.2,1.4,3.5s-.5,2.6-1.4,3.5l-5.4,5.4,1.7,1.7c1.3,1.3,3.5,1.3,4.8,0l10.8-10.8c1.4-1.3,1.4-3.4.1-4.8"/>
</svg>