<?xml version="1.0" encoding="utf-8"?>
<!-- Generator: Adobe Illustrator 27.2.0, SVG Export Plug-In . SVG Version: 6.00 Build 0)  -->
<svg version="1.1" id="layer" xmlns="http://www.w3.org/2000/svg" xmlns:xlink="http://www.w3.org/1999/xlink" x="0px" y="0px"
	 viewBox="0 0 200 200" style="enable-background:new 0 0 200 200;" xml:space="preserve">
<style type="text/css">
	.st0{fill:#003D92;}
	.st1{fill:#4F81C2;}
</style>
<g>
	<path class="st0" d="M129.3,104.3V85.8h4.3v15.1h12.6v3.5H129.3z M68.2,104.3v-3.5H55.6V85.8h-4.3v18.6H68.2z M87,104.3v-3.5H74.5
		v-4.6h6.3v-3.2h-6.3v-4h12.3v-3.3H70.3v18.6H87z M92.9,104.3v-12l12.6,12h2.9V85.8h-3.8v11.8L91.9,85.8H89v18.6H92.9z M127.2,104.3
		v-3.5h-12.5v-4.6h6.3v-3.2h-6.3v-4H127v-3.3h-16.5v18.6H127.2z M146.1,93.3c0-1.2-1-2.2-2.2-2.2c-1.2,0-2.2,1-2.2,2.2
		c0,1.2,1,2.2,2.2,2.2C145.1,95.5,146.1,94.5,146.1,93.3 M30.4,97.6c0-0.5-0.2-0.9-0.6-1.3l-0.4-0.4C28.6,95,28,93.8,28,92.5
		s0.5-2.6,1.4-3.5l5.4-5.4l-1.7-1.7c-1.3-1.3-3.5-1.3-4.8,0L17.6,92.6c-1.3,1.3-1.3,3.5,0,4.8l6.9,6.9l5.4-5.4
		C30.2,98.6,30.4,98.1,30.4,97.6"/>
	<path class="st1" d="M161.8,93.9c2.1,0.7,4.9,2,4.9,5.3c0,3.4-3.6,5.8-8.7,5.8c-3.2,0-6.3-1-8.6-2.8l-0.2-0.2l2.8-2.6l0.1,0.1
		c1.7,1.3,3.9,2.1,6,2.1c2.4,0,3.9-0.8,3.9-2.2c0-1.3-1.4-1.8-3.4-2.5l-3.3-1.1c-3.2-1.1-4.9-2.8-4.9-5.2c0-3.1,3.5-5.5,8.1-5.5
		c2.8,0,5.5,0.9,7.4,2.4l0.2,0.2l-2.5,2.4l-0.2-0.1c-1.6-1.1-3.2-1.6-5-1.6c-2.1,0-3.4,0.8-3.4,1.9c0,1.3,1.6,1.8,3.4,2.4l0.1,0.1
		L161.8,93.9 M177.5,101c-0.9,0-2.1,0.1-3.1,0.1c4.5-3.8,7.8-7,7.8-10.1c0-3.6-2.9-5.9-7.4-5.9c-2.9,0-5.1,0.8-7.4,2.9l-0.2,0.2
		l2.7,2.1l0.1-0.1c1.5-1.3,2.9-2,4.3-2c2.3,0,3.6,1.1,3.6,2.9c0,2.6-3.9,5.4-10.2,10.3l-0.1,0.1v2.8h15.9v-3.3L177.5,101L177.5,101z
		 M44,92.6l-6.9-6.9l-5.4,5.4c-0.4,0.4-0.6,0.8-0.6,1.3c0,0.5,0.2,0.9,0.5,1.3l0.4,0.4c0.9,0.9,1.4,2.2,1.4,3.5s-0.5,2.6-1.4,3.5
		l-5.4,5.4l1.7,1.7c1.3,1.3,3.5,1.3,4.8,0l10.8-10.8C45.3,96.1,45.3,94,44,92.6"/>
</g>
</svg>
