<?xml version="1.0" encoding="utf-8"?>
<!-- Generator: Adobe Illustrator 27.8.1, SVG Export Plug-In . SVG Version: 6.00 Build 0)  -->
<svg version="1.1" id="layer" xmlns="http://www.w3.org/2000/svg" xmlns:xlink="http://www.w3.org/1999/xlink" x="0px" y="0px"
	 viewBox="0 0 200 200" style="enable-background:new 0 0 200 200;" xml:space="preserve">
<style type="text/css">
	.st0{fill:#231815;}
</style>
<g>
	<path class="st0" d="M105.1,50.3c-1.7-0.2-3.3-0.2-5-0.2c-1.7,0-3.6,0-5,0.2L89.9,0.6c3.3-0.2,6.9-0.5,10.2-0.5
		c3.3,0,6.9,0.2,10.2,0.5L105.1,50.3z"/>
	<path class="st0" d="M84.5,52.7c-1.7,0.5-3.3,1.2-4.7,1.7c-1.7,0.7-3.1,1.4-4.5,2.1L51.1,12.7c3.1-1.7,5.9-3.1,9.2-4.5
		c3.1-1.4,6.4-2.4,9.5-3.6L84.5,52.7z"/>
	<path class="st0" d="M67.7,61.9c-1.2,1.2-2.6,2.4-3.8,3.6s-2.4,2.4-3.3,3.8l-39.3-31c2.1-2.6,4.3-5.2,6.9-7.8
		c2.4-2.4,4.7-4.7,7.3-6.9L67.7,61.9z"/>
	<path class="st0" d="M55.6,77c-0.7,1.4-1.4,3.1-2.1,4.7c-0.7,1.7-1.2,3.3-1.7,4.7l-48-14c0.9-3.3,2.1-6.4,3.3-9.7
		c1.2-3.1,2.6-6.2,4.3-9.2L55.6,77z"/>
	<path class="st0" d="M50.2,95.5c-0.2,1.7-0.2,3.3-0.2,5c0,1.7,0,3.6,0.2,5l-49.7,5.2c-0.2-3.3-0.5-6.9-0.5-10.2
		c0-3.3,0.2-6.9,0.5-10.2L50.2,95.5z"/>
	<path class="st0" d="M52.5,115.9c0.5,1.7,1.2,3.3,1.7,4.7c0.7,1.7,1.4,3.1,2.1,4.5l-43.8,24.1c-1.7-3.1-3.1-5.9-4.5-9.2
		c-1.4-3.1-2.4-6.4-3.6-9.5L52.5,115.9z"/>
	<path class="st0" d="M61.5,132.7c1.2,1.2,2.4,2.6,3.6,3.8c1.2,1.2,2.4,2.4,3.8,3.3l-31,39.3c-2.6-2.1-5.2-4.3-7.8-6.9
		c-2.4-2.4-4.7-4.7-6.9-7.3L61.5,132.7z"/>
	<path class="st0" d="M76.7,145c1.4,0.7,3.1,1.4,4.5,2.1c1.7,0.7,3.3,1.2,4.7,1.7l-14,48c-3.3-0.9-6.4-2.1-9.7-3.3
		c-3.1-1.2-6.2-2.6-9.2-4.3L76.7,145z"/>
	<path class="st0" d="M94.7,149.7c1.7,0.2,3.3,0.2,5,0.2c1.7,0,3.6,0,5-0.2l5.2,49.7c-3.3,0.2-6.9,0.5-10.2,0.5
		c-3.3,0-6.9-0.2-10.2-0.5L94.7,149.7z"/>
	<path class="st0" d="M115.3,147.3c1.7-0.5,3.3-1.2,4.7-1.7c1.7-0.7,3.1-1.4,4.5-2.1l24.4,43.6c-3.1,1.7-5.9,3.1-9.2,4.5
		c-3.1,1.4-6.4,2.4-9.5,3.6L115.3,147.3z"/>
	<path class="st0" d="M132.1,138.1c1.2-1.2,2.6-2.4,3.8-3.6c1.2-1.2,2.4-2.6,3.3-3.8l39.3,30.8c-2.1,2.6-4.3,5.2-6.6,7.8
		c-2.4,2.4-5,4.7-7.3,6.9L132.1,138.1z"/>
	<path class="st0" d="M144.1,123c0.7-1.4,1.4-3.1,2.1-4.5c0.7-1.7,1.2-3.1,1.7-4.7l48,14c-0.9,3.3-2.1,6.4-3.3,9.7
		c-1.2,3.1-2.6,6.2-4.3,9.2L144.1,123z"/>
	<path class="st0" d="M149.8,105.2c0.2-1.7,0.2-3.3,0.2-5c0-1.7,0-3.6-0.2-5l49.7-5.2c0.2,3.3,0.5,6.9,0.5,10.2
		c0,3.3-0.2,6.9-0.5,10.2L149.8,105.2z"/>
	<path class="st0" d="M147.2,84.6c-0.5-1.7-1.2-3.3-1.7-4.7c-0.7-1.7-1.4-3.1-2.1-4.5l43.8-24.1c1.7,3.1,3.1,5.9,4.5,9.2
		c1.4,3.1,2.4,6.4,3.6,9.5L147.2,84.6z"/>
	<path class="st0" d="M138.2,68c-1.2-1.2-2.4-2.6-3.6-3.8c-1.2-1.2-2.4-2.4-3.8-3.3l30.8-39.3c2.6,2.1,5.2,4.3,7.8,6.9
		c2.4,2.4,4.7,4.7,6.9,7.3L138.2,68z"/>
	<path class="st0" d="M123.1,55.7c-1.4-0.7-3.1-1.4-4.7-2.1c-1.7-0.7-3.3-1.2-4.7-1.7l14-48c3.3,0.9,6.4,2.1,9.7,3.3
		c3.1,1.2,6.2,2.6,9.2,4.3L123.1,55.7z"/>
</g>
</svg>
