<?xml version="1.0" encoding="utf-8"?>
<!-- Generator: Adobe Illustrator 27.3.1, SVG Export Plug-In . SVG Version: 6.00 Build 0)  -->
<svg version="1.1" id="Layer_1" xmlns="http://www.w3.org/2000/svg" xmlns:xlink="http://www.w3.org/1999/xlink" x="0px" y="0px"
	 viewBox="0 0 30 30" style="enable-background:new 0 0 30 30;" xml:space="preserve">
<path style="fill:none;" d="M3,3h24v24H3V3z"/>
<path d="M18,7v7H8.2l-0.6,0.6L7,15.2V7H18 M19,5H6C5.4,5,5,5.4,5,6v14l4-4h10c0.5,0,1-0.4,1-1V6C20,5.4,19.5,5,19,5z M24,9h-2v9H9v2
	c0,0.5,0.4,1,1,1h11l4,4V10C25,9.4,24.5,9,24,9z"/>
</svg>
