<?xml version="1.0" encoding="UTF-8"?>
<svg id="Layer_1" data-name="Layer 1" xmlns="http://www.w3.org/2000/svg" xmlns:v="https://vecta.io/nano" version="1.1" viewBox="0 0 202.9 202.9">
  <defs>
    <style>
      .cls-1 {
        fill: #606;
      }

      .cls-1, .cls-2 {
        stroke-width: 0px;
      }

      .cls-2 {
        fill: #fff;
      }
    </style>
  </defs>
  <path class="cls-2" d="M.1,20v31h.6c84.4,0,153.2,68,153.9,151.8h30.1C183.9,102.1,101.5,20.3.1,20ZM.1,84v31h.6c48.9,0,88.8,39.3,89.5,87.8h30.1C119.6,137.4,66,84.3.1,84H.1ZM202.9,122.6v-62.5c-7.7-10.5-17.2-22.5-26.7-31.8C165.6,17.8,153.2,8.3,141.2,0h-66.4c58.2,20.9,104.9,65.8,128.1,122.6Z"/>
  <path class="cls-1" d="M.6,115H0v77.6C0,198.2,4.6,202.8,10.2,202.8h79.9c-.7-48.5-40.5-87.8-89.5-87.8ZM.6,51H0v33c65.9.3,119.5,53.3,120.2,118.8h34.2C153.8,119,85.1,51,.6,51ZM202.9,192.7v-70.1C179.7,65.8,133,20.9,74.9,0H10.2C4.6,0,0,4.6,0,10.2v9.9c101.4.3,183.9,82,184.5,182.8h8.2c5.7-.1,10.2-4.6,10.2-10.2h0ZM176.2,28.3c9.4,9.4,19,21.3,26.7,31.8V10.1c0-5.6-4.5-10.1-10-10.1h-51.6c12,8.3,24.4,17.8,34.9,28.3Z"/>
</svg>