<?xml version="1.0" encoding="UTF-8"?>
<svg id="Layer_1" data-name="Layer 1" xmlns="http://www.w3.org/2000/svg" version="1.1" viewBox="0 0 149.9 200">
  <defs>
    <style>
      .cls-1 {
        fill: #099;
        fill-rule: evenodd;
        stroke-width: 0px;
      }
    </style>
  </defs>
  <g id="Ebene_1">
    <path id="Layer" class="cls-1" d="M135.2,7v37.4c-19.4-7.3-36.7-11-51.8-11s-16.1,1.7-21.5,4.9-8.1,7.2-8.1,11.9c.1,6.2,6.2,11.8,18.4,16.8l35.2,17.1c28.4,13.6,42.5,31.6,42.5,54.2s-7.5,33.8-22.5,44.9c-15.1,11.2-35.2,16.8-60.4,16.8s-22.1-.5-31.3-1.5c-9.3-1-19.8-3-31.7-6v-39.2c21.7,7.3,41.4,11,59.1,11s31.7-6.1,31.7-18.5-4.3-11.1-13-15l-39.1-16.7c-14.5-6.5-25.3-14.4-32.2-23.8C3.5,80.9,0,70.1,0,57.7S7.2,26.4,21.8,15.8C36.2,5.3,55.6,0,79.5,0s16.8.7,26.8,2c10,1.3,19.7,3,28.9,5h0Z"/>
  </g>
</svg>