<?xml version="1.0" encoding="UTF-8"?>
<svg xmlns="http://www.w3.org/2000/svg" version="1.1" viewBox="0 0 65.7 10.1">
  <defs>
    <style>
      .cls-1 {
        fill: #366fb5;
        stroke-width: 0px;
      }
    </style>
  </defs>
  <!-- Generator: Adobe Illustrator 28.6.0, SVG Export Plug-In . SVG Version: 1.0.2 Build 62)  -->
  <g>
    <g id="Layer_1">
      <g>
        <path class="cls-1" d="M0,6.8l1.1-1.3c.2.2.4.4.6.5.2.1.5.2.7.2s.4,0,.6-.3c.2-.2.3-.4.3-.6s0-.4-.2-.5c-.2-.1-.4-.3-.6-.4-.2-.1-.5-.2-.7-.3-.2,0-.4-.2-.6-.3-.3-.2-.5-.4-.7-.7s-.2-.6-.2-1,0-.7.2-.9c.1-.3.3-.5.5-.7.2-.2.5-.4.8-.5.3-.1.6-.2,1-.2s.7,0,1.1.2c.4.1.7.3,1,.6l-1,1.1c-.3-.2-.6-.3-.7-.4-.2,0-.3-.1-.5-.1s-.4,0-.5.2-.2.3-.2.5,0,.4.2.5.3.2.5.3c.2.1.4.2.7.3.2.1.5.2.7.4.3.2.5.4.7.7.2.3.3.7.3,1.1s0,.7-.2.9c-.1.3-.3.6-.6.8s-.5.4-.9.5c-.3.1-.7.2-1,.2s-.7,0-1.1-.2c-.4-.2-.8-.5-1.2-.9Z"/>
        <path class="cls-1" d="M7.4,2.8l1.5,2.9,1.3-2.9h1.5l-3.1,7.2h-1.6l1.1-2.6-2.3-4.7h1.6Z"/>
        <path class="cls-1" d="M14.1,0v7.8h-1.5V0h1.5Z"/>
        <path class="cls-1" d="M17.2,0v7.8h-1.5V0h1.5Z"/>
        <path class="cls-1" d="M18.4,5.3c0-.4,0-.7.2-1,.1-.3.3-.6.5-.8.2-.2.4-.4.7-.6.3-.1.6-.2.9-.2s.5,0,.8.2c.2.1.5.3.8.6v-.7h1.5v5h-1.5v-.9h0c-.2.3-.5.6-.7.7-.2.2-.5.2-.9.2s-.6,0-.8-.2c-.3-.1-.5-.3-.7-.6-.2-.2-.3-.5-.5-.8-.1-.3-.2-.7-.2-1ZM20,5.4c0,.3,0,.6.3.8.2.2.4.3.7.3s.6-.1.8-.4.3-.5.3-.9-.1-.6-.3-.8c-.2-.2-.5-.3-.8-.3s-.5.1-.7.3c-.2.2-.3.5-.3.9Z"/>
        <path class="cls-1" d="M25.1,0h1.5v3.5c.2-.3.5-.5.7-.6.2-.1.5-.2.8-.2s.6,0,.9.2c.3.1.5.3.7.6.2.2.4.5.5.8.1.3.2.7.2,1s0,.7-.2,1c-.1.3-.3.6-.5.8-.2.2-.4.4-.7.6-.3.1-.5.2-.8.2s-.5,0-.8-.2c-.2-.1-.5-.4-.8-.7v.8h-1.5V0ZM26.7,5.4c0,.4.1.6.3.9.2.2.5.3.8.3s.5-.1.7-.3c.2-.2.3-.5.3-.8s0-.3,0-.4c0-.1-.1-.3-.2-.4,0-.1-.2-.2-.3-.3-.1,0-.3-.1-.4-.1s-.2,0-.3,0-.2.1-.3.2c-.1,0-.2.2-.3.4s0,.3,0,.5Z"/>
        <path class="cls-1" d="M32.8,2.8v2.4c0,.1,0,.3,0,.4,0,.1,0,.3.2.4s.2.2.3.3.2.1.4.1.3,0,.4-.1c.1,0,.2-.2.3-.3,0-.1.1-.2.2-.4,0-.1,0-.3,0-.4v-2.5h1.5v3c0,.3,0,.5-.2.8-.1.3-.3.5-.5.7s-.5.4-.8.5-.7.2-1,.2-.8,0-1.1-.2c-.3-.1-.6-.3-.8-.5-.2-.2-.4-.5-.5-.7-.1-.3-.2-.6-.2-.9v-2.8h1.5Z"/>
        <path class="cls-1" d="M37.4,6.7l1.2-.6c.1.2.3.4.4.5.1.1.3.2.4.2s.3,0,.4-.1c.1,0,.2-.2.2-.3,0-.2,0-.3-.2-.4-.1,0-.4-.2-.7-.3-.2,0-.4-.2-.5-.2-.2,0-.3-.2-.5-.3-.1-.1-.3-.3-.3-.4s-.1-.4-.1-.6c0-.5.2-.8.5-1.1.4-.3.8-.4,1.4-.4s.6,0,.9.2c.3.1.6.3.9.6l-1,.6c-.1-.1-.3-.3-.4-.3-.1,0-.3-.1-.4-.1s-.2,0-.3.1-.1.2-.1.3,0,.2,0,.3c0,0,.1.1.2.2,0,0,.2,0,.3.1,0,0,.2,0,.3.1.1,0,.3.1.5.2s.4.2.5.3.3.3.4.5c.1.2.2.4.2.7s0,.4-.2.6c-.1.2-.3.4-.4.5-.2.1-.4.3-.6.3-.2,0-.5.1-.8.1s-.7,0-1.1-.3-.7-.5-1-1Z"/>
        <path class="cls-1" d="M48.7.1c.3,0,.6,0,.9.1.3,0,.5.2.7.4.2.2.4.4.5.7s.2.6.2,1,0,.9-.3,1.2c-.2.3-.4.6-.7.8-.3.2-.5.3-.8.4-.3,0-.5.1-.6.1h-1v3h-1.6V.1h2.7ZM48.3,3.5c.3,0,.5,0,.7-.3.2-.2.3-.4.3-.7s-.1-.6-.3-.7c-.2-.2-.5-.3-.9-.3h-.4v2h.6Z"/>
        <path class="cls-1" d="M53.9,0v7.8h-1.5V0h1.5Z"/>
        <path class="cls-1" d="M56.9,2.8v2.4c0,.1,0,.3,0,.4,0,.1,0,.3.2.4s.2.2.3.3.2.1.4.1.3,0,.4-.1c.1,0,.2-.2.3-.3,0-.1.1-.2.2-.4,0-.1,0-.3,0-.4v-2.5h1.5v3c0,.3,0,.5-.2.8-.1.3-.3.5-.5.7s-.5.4-.8.5-.7.2-1,.2-.8,0-1.1-.2c-.3-.1-.6-.3-.8-.5-.2-.2-.4-.5-.5-.7-.1-.3-.2-.6-.2-.9v-2.8h1.5Z"/>
        <path class="cls-1" d="M61.6,6.7l1.2-.6c.1.2.3.4.4.5.1.1.3.2.4.2s.3,0,.4-.1c.1,0,.2-.2.2-.3,0-.2,0-.3-.2-.4-.1,0-.4-.2-.7-.3-.2,0-.4-.2-.5-.2-.2,0-.3-.2-.5-.3-.1-.1-.3-.3-.3-.4s-.1-.4-.1-.6c0-.5.2-.8.5-1.1.4-.3.8-.4,1.4-.4s.6,0,.9.2c.3.1.6.3.9.6l-1,.6c-.1-.1-.3-.3-.4-.3-.1,0-.3-.1-.4-.1s-.2,0-.3.1-.1.2-.1.3,0,.2,0,.3c0,0,.1.1.2.2,0,0,.2,0,.3.1,0,0,.2,0,.3.1.1,0,.3.1.5.2s.4.2.5.3.3.3.4.5c.1.2.2.4.2.7s0,.4-.2.6c-.1.2-.3.4-.4.5-.2.1-.4.3-.6.3-.2,0-.5.1-.8.1s-.7,0-1.1-.3-.7-.5-1-1Z"/>
      </g>
    </g>
  </g>
</svg>